  0
SECTION
  2
HEADER
  9
$ACADVER
  1
AC1009
  9
$EXTMIN
 10
0.0
 20
0.0
 30
0.0
  9
$EXTMAX
 10
1000.0
 20
1000.0
 30
0.0
  9
$FILLMODE
 70
 0
  9
$SPLFRAME
 70
 1
  0
ENDSEC
  0
SECTION
  2
TABLES
  0
TABLE
  2
LAYER
 70
1
  0
LAYER
  2
0
 70
     0
 62
     7
  6
CONTINUOUS
  0
ENDTAB
  0
ENDSEC
  0
SECTION
  2
ENTITIES
  0
LINE
  8
0
 62
     0
 10
374.929
 20
149.483
 30
0.0
 11
375.165
 21
149.473
 31
0.0
  0
LINE
  8
0
 62
     0
 10
375.165
 20
149.473
 30
0.0
 11
375.398
 21
149.447
 31
0.0
  0
LINE
  8
0
 62
     0
 10
375.398
 20
149.447
 30
0.0
 11
375.627
 21
149.4
 31
0.0
  0
LINE
  8
0
 62
     0
 10
375.627
 20
149.4
 30
0.0
 11
375.857
 21
149.336
 31
0.0
  0
LINE
  8
0
 62
     0
 10
375.857
 20
149.336
 30
0.0
 11
376.075
 21
149.254
 31
0.0
  0
LINE
  8
0
 62
     0
 10
376.075
 20
149.254
 30
0.0
 11
376.29
 21
149.156
 31
0.0
  0
LINE
  8
0
 62
     0
 10
376.29
 20
149.156
 30
0.0
 11
376.495
 21
149.04
 31
0.0
  0
LINE
  8
0
 62
     0
 10
376.495
 20
149.04
 30
0.0
 11
376.693
 21
148.911
 31
0.0
  0
LINE
  8
0
 62
     0
 10
376.693
 20
148.911
 30
0.0
 11
376.876
 21
148.765
 31
0.0
  0
LINE
  8
0
 62
     0
 10
376.876
 20
148.765
 30
0.0
 11
377.049
 21
148.605
 31
0.0
  0
LINE
  8
0
 62
     0
 10
377.049
 20
148.605
 30
0.0
 11
377.208
 21
148.431
 31
0.0
  0
LINE
  8
0
 62
     0
 10
377.208
 20
148.431
 30
0.0
 11
377.356
 21
148.247
 31
0.0
  0
LINE
  8
0
 62
     0
 10
377.356
 20
148.247
 30
0.0
 11
377.486
 21
148.051
 31
0.0
  0
LINE
  8
0
 62
     0
 10
377.486
 20
148.051
 30
0.0
 11
377.603
 21
147.844
 31
0.0
  0
LINE
  8
0
 62
     0
 10
377.603
 20
147.844
 30
0.0
 11
377.702
 21
147.63
 31
0.0
  0
LINE
  8
0
 62
     0
 10
377.702
 20
147.63
 30
0.0
 11
377.783
 21
147.41
 31
0.0
  0
LINE
  8
0
 62
     0
 10
377.783
 20
147.41
 30
0.0
 11
377.846
 21
147.183
 31
0.0
  0
LINE
  8
0
 62
     0
 10
377.846
 20
147.183
 30
0.0
 11
377.892
 21
146.953
 31
0.0
  0
LINE
  8
0
 62
     0
 10
377.892
 20
146.953
 30
0.0
 11
377.92
 21
146.719
 31
0.0
  0
LINE
  8
0
 62
     0
 10
377.92
 20
146.719
 30
0.0
 11
377.927
 21
146.483
 31
0.0
  0
LINE
  8
0
 62
     0
 10
377.927
 20
146.483
 30
0.0
 11
377.927
 21
3.24942
 31
0.0
  0
LINE
  8
0
 62
     0
 10
377.927
 20
3.24942
 30
0.0
 11
377.92
 21
3.01377
 31
0.0
  0
LINE
  8
0
 62
     0
 10
377.92
 20
3.01377
 30
0.0
 11
377.892
 21
2.78088
 31
0.0
  0
LINE
  8
0
 62
     0
 10
377.892
 20
2.78088
 30
0.0
 11
377.846
 21
2.54937
 31
0.0
  0
LINE
  8
0
 62
     0
 10
377.846
 20
2.54937
 30
0.0
 11
377.783
 21
2.32199
 31
0.0
  0
LINE
  8
0
 62
     0
 10
377.783
 20
2.32199
 30
0.0
 11
377.702
 21
2.10151
 31
0.0
  0
LINE
  8
0
 62
     0
 10
377.702
 20
2.10151
 30
0.0
 11
377.603
 21
1.88791
 31
0.0
  0
LINE
  8
0
 62
     0
 10
377.603
 20
1.88791
 30
0.0
 11
377.486
 21
1.68258
 31
0.0
  0
LINE
  8
0
 62
     0
 10
377.486
 20
1.68258
 30
0.0
 11
377.356
 21
1.4869
 31
0.0
  0
LINE
  8
0
 62
     0
 10
377.356
 20
1.4869
 30
0.0
 11
377.208
 21
1.30087
 31
0.0
  0
LINE
  8
0
 62
     0
 10
377.208
 20
1.30087
 30
0.0
 11
377.049
 21
1.12861
 31
0.0
  0
LINE
  8
0
 62
     0
 10
377.049
 20
1.12861
 30
0.0
 11
376.876
 21
0.96876
 31
0.0
  0
LINE
  8
0
 62
     0
 10
376.876
 20
0.96876
 30
0.0
 11
376.693
 21
0.822688
 31
0.0
  0
LINE
  8
0
 62
     0
 10
376.693
 20
0.822688
 30
0.0
 11
376.495
 21
0.691776
 31
0.0
  0
LINE
  8
0
 62
     0
 10
376.495
 20
0.691776
 30
0.0
 11
376.29
 21
0.576019
 31
0.0
  0
LINE
  8
0
 62
     0
 10
376.29
 20
0.576019
 30
0.0
 11
376.075
 21
0.4768
 31
0.0
  0
LINE
  8
0
 62
     0
 10
376.075
 20
0.4768
 30
0.0
 11
375.857
 21
0.396875
 31
0.0
  0
LINE
  8
0
 62
     0
 10
375.857
 20
0.396875
 30
0.0
 11
375.627
 21
0.332107
 31
0.0
  0
LINE
  8
0
 62
     0
 10
375.627
 20
0.332107
 30
0.0
 11
375.398
 21
0.286632
 31
0.0
  0
LINE
  8
0
 62
     0
 10
375.398
 20
0.286632
 30
0.0
 11
375.165
 21
0.257693
 31
0.0
  0
LINE
  8
0
 62
     0
 10
375.165
 20
0.257693
 30
0.0
 11
374.929
 21
0.249425
 31
0.0
  0
LINE
  8
0
 62
     0
 10
374.929
 20
0.249425
 30
0.0
 11
3.09507
 21
0.249425
 31
0.0
  0
LINE
  8
0
 62
     0
 10
3.09507
 20
0.249425
 30
0.0
 11
2.85943
 21
0.257693
 31
0.0
  0
LINE
  8
0
 62
     0
 10
2.85943
 20
0.257693
 30
0.0
 11
2.62516
 21
0.286632
 31
0.0
  0
LINE
  8
0
 62
     0
 10
2.62516
 20
0.286632
 30
0.0
 11
2.39503
 21
0.332107
 31
0.0
  0
LINE
  8
0
 62
     0
 10
2.39503
 20
0.332107
 30
0.0
 11
2.16765
 21
0.396875
 31
0.0
  0
LINE
  8
0
 62
     0
 10
2.16765
 20
0.396875
 30
0.0
 11
1.94717
 21
0.4768
 31
0.0
  0
LINE
  8
0
 62
     0
 10
1.94717
 20
0.4768
 30
0.0
 11
1.73357
 21
0.576019
 31
0.0
  0
LINE
  8
0
 62
     0
 10
1.73357
 20
0.576019
 30
0.0
 11
1.52687
 21
0.691776
 31
0.0
  0
LINE
  8
0
 62
     0
 10
1.52687
 20
0.691776
 30
0.0
 11
1.33119
 21
0.822688
 31
0.0
  0
LINE
  8
0
 62
     0
 10
1.33119
 20
0.822688
 30
0.0
 11
1.14653
 21
0.96876
 31
0.0
  0
LINE
  8
0
 62
     0
 10
1.14653
 20
0.96876
 30
0.0
 11
0.972894
 21
1.12861
 31
0.0
  0
LINE
  8
0
 62
     0
 10
0.972894
 20
1.12861
 30
0.0
 11
0.813043
 21
1.30087
 31
0.0
  0
LINE
  8
0
 62
     0
 10
0.813043
 20
1.30087
 30
0.0
 11
0.666972
 21
1.4869
 31
0.0
  0
LINE
  8
0
 62
     0
 10
0.666972
 20
1.4869
 30
0.0
 11
0.537436
 21
1.68258
 31
0.0
  0
LINE
  8
0
 62
     0
 10
0.537436
 20
1.68258
 30
0.0
 11
0.421679
 21
1.88791
 31
0.0
  0
LINE
  8
0
 62
     0
 10
0.421679
 20
1.88791
 30
0.0
 11
0.323839
 21
2.10151
 31
0.0
  0
LINE
  8
0
 62
     0
 10
0.323839
 20
2.10151
 30
0.0
 11
0.241157
 21
2.32199
 31
0.0
  0
LINE
  8
0
 62
     0
 10
0.241157
 20
2.32199
 30
0.0
 11
0.177767
 21
2.54937
 31
0.0
  0
LINE
  8
0
 62
     0
 10
0.177767
 20
2.54937
 30
0.0
 11
0.130914
 21
2.78088
 31
0.0
  0
LINE
  8
0
 62
     0
 10
0.130914
 20
2.78088
 30
0.0
 11
0.104731
 21
3.01377
 31
0.0
  0
LINE
  8
0
 62
     0
 10
0.104731
 20
3.01377
 30
0.0
 11
0.0950846
 21
3.24942
 31
0.0
  0
LINE
  8
0
 62
     0
 10
0.0950846
 20
3.24942
 30
0.0
 11
0.0950846
 21
146.483
 31
0.0
  0
LINE
  8
0
 62
     0
 10
0.0950846
 20
146.483
 30
0.0
 11
0.104731
 21
146.719
 31
0.0
  0
LINE
  8
0
 62
     0
 10
0.104731
 20
146.719
 30
0.0
 11
0.130914
 21
146.953
 31
0.0
  0
LINE
  8
0
 62
     0
 10
0.130914
 20
146.953
 30
0.0
 11
0.177767
 21
147.183
 31
0.0
  0
LINE
  8
0
 62
     0
 10
0.177767
 20
147.183
 30
0.0
 11
0.241157
 21
147.41
 31
0.0
  0
LINE
  8
0
 62
     0
 10
0.241157
 20
147.41
 30
0.0
 11
0.323839
 21
147.63
 31
0.0
  0
LINE
  8
0
 62
     0
 10
0.323839
 20
147.63
 30
0.0
 11
0.421679
 21
147.844
 31
0.0
  0
LINE
  8
0
 62
     0
 10
0.421679
 20
147.844
 30
0.0
 11
0.537436
 21
148.051
 31
0.0
  0
LINE
  8
0
 62
     0
 10
0.537436
 20
148.051
 30
0.0
 11
0.666972
 21
148.247
 31
0.0
  0
LINE
  8
0
 62
     0
 10
0.666972
 20
148.247
 30
0.0
 11
0.813043
 21
148.431
 31
0.0
  0
LINE
  8
0
 62
     0
 10
0.813043
 20
148.431
 30
0.0
 11
0.972894
 21
148.605
 31
0.0
  0
LINE
  8
0
 62
     0
 10
0.972894
 20
148.605
 30
0.0
 11
1.14653
 21
148.765
 31
0.0
  0
LINE
  8
0
 62
     0
 10
1.14653
 20
148.765
 30
0.0
 11
1.33119
 21
148.911
 31
0.0
  0
LINE
  8
0
 62
     0
 10
1.33119
 20
148.911
 30
0.0
 11
1.52687
 21
149.04
 31
0.0
  0
LINE
  8
0
 62
     0
 10
1.52687
 20
149.04
 30
0.0
 11
1.73357
 21
149.156
 31
0.0
  0
LINE
  8
0
 62
     0
 10
1.73357
 20
149.156
 30
0.0
 11
1.94717
 21
149.254
 31
0.0
  0
LINE
  8
0
 62
     0
 10
1.94717
 20
149.254
 30
0.0
 11
2.16765
 21
149.336
 31
0.0
  0
LINE
  8
0
 62
     0
 10
2.16765
 20
149.336
 30
0.0
 11
2.39503
 21
149.4
 31
0.0
  0
LINE
  8
0
 62
     0
 10
2.39503
 20
149.4
 30
0.0
 11
2.62516
 21
149.447
 31
0.0
  0
LINE
  8
0
 62
     0
 10
2.62516
 20
149.447
 30
0.0
 11
2.85943
 21
149.473
 31
0.0
  0
LINE
  8
0
 62
     0
 10
2.85943
 20
149.473
 30
0.0
 11
3.09507
 21
149.483
 31
0.0
  0
LINE
  8
0
 62
     0
 10
3.09507
 20
149.483
 30
0.0
 11
374.929
 21
149.483
 31
0.0
  0
LINE
  8
0
 62
     0
 10
6.93289
 20
10.1314
 30
0.0
 11
6.26043
 21
9.78821
 31
0.0
  0
LINE
  8
0
 62
     0
 10
6.26043
 20
9.78821
 30
0.0
 11
5.72714
 21
9.25491
 31
0.0
  0
LINE
  8
0
 62
     0
 10
5.72714
 20
9.25491
 30
0.0
 11
5.38399
 21
8.57966
 31
0.0
  0
LINE
  8
0
 62
     0
 10
5.38399
 20
8.57966
 30
0.0
 11
5.26549
 21
7.83414
 31
0.0
  0
LINE
  8
0
 62
     0
 10
5.26549
 20
7.83414
 30
0.0
 11
5.38399
 21
7.08865
 31
0.0
  0
LINE
  8
0
 62
     0
 10
5.38399
 20
7.08865
 30
0.0
 11
5.72714
 21
6.41477
 31
0.0
  0
LINE
  8
0
 62
     0
 10
5.72714
 20
6.41477
 30
0.0
 11
6.26043
 21
5.8801
 31
0.0
  0
LINE
  8
0
 62
     0
 10
6.26043
 20
5.8801
 30
0.0
 11
6.93289
 21
5.53695
 31
0.0
  0
LINE
  8
0
 62
     0
 10
6.93289
 20
5.53695
 30
0.0
 11
7.6798
 21
5.41983
 31
0.0
  0
LINE
  8
0
 62
     0
 10
7.6798
 20
5.41983
 30
0.0
 11
8.4267
 21
5.53695
 31
0.0
  0
LINE
  8
0
 62
     0
 10
8.4267
 20
5.53695
 30
0.0
 11
9.0992
 21
5.8801
 31
0.0
  0
LINE
  8
0
 62
     0
 10
9.0992
 20
5.8801
 30
0.0
 11
9.63387
 21
6.41477
 31
0.0
  0
LINE
  8
0
 62
     0
 10
9.63387
 20
6.41477
 30
0.0
 11
9.97701
 21
7.08865
 31
0.0
  0
LINE
  8
0
 62
     0
 10
9.97701
 20
7.08865
 30
0.0
 11
10.0955
 21
7.83414
 31
0.0
  0
LINE
  8
0
 62
     0
 10
10.0955
 20
7.83414
 30
0.0
 11
9.97701
 21
8.57966
 31
0.0
  0
LINE
  8
0
 62
     0
 10
9.97701
 20
8.57966
 30
0.0
 11
9.63387
 21
9.25491
 31
0.0
  0
LINE
  8
0
 62
     0
 10
9.63387
 20
9.25491
 30
0.0
 11
9.0992
 21
9.78821
 31
0.0
  0
LINE
  8
0
 62
     0
 10
9.0992
 20
9.78821
 30
0.0
 11
8.4267
 21
10.1314
 31
0.0
  0
LINE
  8
0
 62
     0
 10
8.4267
 20
10.1314
 30
0.0
 11
7.6798
 21
10.2499
 31
0.0
  0
LINE
  8
0
 62
     0
 10
7.6798
 20
10.2499
 30
0.0
 11
6.93289
 21
10.1314
 31
0.0
  0
LINE
  8
0
 62
     0
 10
97.5995
 20
10.1314
 30
0.0
 11
96.9271
 21
9.78821
 31
0.0
  0
LINE
  8
0
 62
     0
 10
96.9271
 20
9.78821
 30
0.0
 11
96.3923
 21
9.25491
 31
0.0
  0
LINE
  8
0
 62
     0
 10
96.3923
 20
9.25491
 30
0.0
 11
96.0494
 21
8.57966
 31
0.0
  0
LINE
  8
0
 62
     0
 10
96.0494
 20
8.57966
 30
0.0
 11
95.9309
 21
7.83414
 31
0.0
  0
LINE
  8
0
 62
     0
 10
95.9309
 20
7.83414
 30
0.0
 11
96.0494
 21
7.08865
 31
0.0
  0
LINE
  8
0
 62
     0
 10
96.0494
 20
7.08865
 30
0.0
 11
96.3923
 21
6.41477
 31
0.0
  0
LINE
  8
0
 62
     0
 10
96.3923
 20
6.41477
 30
0.0
 11
96.9271
 21
5.8801
 31
0.0
  0
LINE
  8
0
 62
     0
 10
96.9271
 20
5.8801
 30
0.0
 11
97.5995
 21
5.53695
 31
0.0
  0
LINE
  8
0
 62
     0
 10
97.5995
 20
5.53695
 30
0.0
 11
98.3449
 21
5.41983
 31
0.0
  0
LINE
  8
0
 62
     0
 10
98.3449
 20
5.41983
 30
0.0
 11
99.0921
 21
5.53695
 31
0.0
  0
LINE
  8
0
 62
     0
 10
99.0921
 20
5.53695
 30
0.0
 11
99.7659
 21
5.8801
 31
0.0
  0
LINE
  8
0
 62
     0
 10
99.7659
 20
5.8801
 30
0.0
 11
100.299
 21
6.41477
 31
0.0
  0
LINE
  8
0
 62
     0
 10
100.299
 20
6.41477
 30
0.0
 11
100.642
 21
7.08865
 31
0.0
  0
LINE
  8
0
 62
     0
 10
100.642
 20
7.08865
 30
0.0
 11
100.761
 21
7.83414
 31
0.0
  0
LINE
  8
0
 62
     0
 10
100.761
 20
7.83414
 30
0.0
 11
100.642
 21
8.57966
 31
0.0
  0
LINE
  8
0
 62
     0
 10
100.642
 20
8.57966
 30
0.0
 11
100.299
 21
9.25491
 31
0.0
  0
LINE
  8
0
 62
     0
 10
100.299
 20
9.25491
 30
0.0
 11
99.7659
 21
9.78821
 31
0.0
  0
LINE
  8
0
 62
     0
 10
99.7659
 20
9.78821
 30
0.0
 11
99.0921
 21
10.1314
 31
0.0
  0
LINE
  8
0
 62
     0
 10
99.0921
 20
10.1314
 30
0.0
 11
98.3449
 21
10.2499
 31
0.0
  0
LINE
  8
0
 62
     0
 10
98.3449
 20
10.2499
 30
0.0
 11
97.5995
 21
10.1314
 31
0.0
  0
LINE
  8
0
 62
     0
 10
188.265
 20
10.1314
 30
0.0
 11
187.592
 21
9.78821
 31
0.0
  0
LINE
  8
0
 62
     0
 10
187.592
 20
9.78821
 30
0.0
 11
187.058
 21
9.25491
 31
0.0
  0
LINE
  8
0
 62
     0
 10
187.058
 20
9.25491
 30
0.0
 11
186.715
 21
8.57966
 31
0.0
  0
LINE
  8
0
 62
     0
 10
186.715
 20
8.57966
 30
0.0
 11
186.596
 21
7.83414
 31
0.0
  0
LINE
  8
0
 62
     0
 10
186.596
 20
7.83414
 30
0.0
 11
186.715
 21
7.08865
 31
0.0
  0
LINE
  8
0
 62
     0
 10
186.715
 20
7.08865
 30
0.0
 11
187.058
 21
6.41477
 31
0.0
  0
LINE
  8
0
 62
     0
 10
187.058
 20
6.41477
 30
0.0
 11
187.592
 21
5.8801
 31
0.0
  0
LINE
  8
0
 62
     0
 10
187.592
 20
5.8801
 30
0.0
 11
188.265
 21
5.53695
 31
0.0
  0
LINE
  8
0
 62
     0
 10
188.265
 20
5.53695
 30
0.0
 11
189.012
 21
5.41983
 31
0.0
  0
LINE
  8
0
 62
     0
 10
189.012
 20
5.41983
 30
0.0
 11
189.758
 21
5.53695
 31
0.0
  0
LINE
  8
0
 62
     0
 10
189.758
 20
5.53695
 30
0.0
 11
190.431
 21
5.8801
 31
0.0
  0
LINE
  8
0
 62
     0
 10
190.431
 20
5.8801
 30
0.0
 11
190.966
 21
6.41477
 31
0.0
  0
LINE
  8
0
 62
     0
 10
190.966
 20
6.41477
 30
0.0
 11
191.309
 21
7.08865
 31
0.0
  0
LINE
  8
0
 62
     0
 10
191.309
 20
7.08865
 30
0.0
 11
191.426
 21
7.83414
 31
0.0
  0
LINE
  8
0
 62
     0
 10
191.426
 20
7.83414
 30
0.0
 11
191.309
 21
8.57966
 31
0.0
  0
LINE
  8
0
 62
     0
 10
191.309
 20
8.57966
 30
0.0
 11
190.966
 21
9.25491
 31
0.0
  0
LINE
  8
0
 62
     0
 10
190.966
 20
9.25491
 30
0.0
 11
190.431
 21
9.78821
 31
0.0
  0
LINE
  8
0
 62
     0
 10
190.431
 20
9.78821
 30
0.0
 11
189.758
 21
10.1314
 31
0.0
  0
LINE
  8
0
 62
     0
 10
189.758
 20
10.1314
 30
0.0
 11
189.012
 21
10.2499
 31
0.0
  0
LINE
  8
0
 62
     0
 10
189.012
 20
10.2499
 30
0.0
 11
188.265
 21
10.1314
 31
0.0
  0
LINE
  8
0
 62
     0
 10
278.932
 20
10.1314
 30
0.0
 11
278.259
 21
9.78821
 31
0.0
  0
LINE
  8
0
 62
     0
 10
278.259
 20
9.78821
 30
0.0
 11
277.723
 21
9.25491
 31
0.0
  0
LINE
  8
0
 62
     0
 10
277.723
 20
9.25491
 30
0.0
 11
277.381
 21
8.57966
 31
0.0
  0
LINE
  8
0
 62
     0
 10
277.381
 20
8.57966
 30
0.0
 11
277.263
 21
7.83414
 31
0.0
  0
LINE
  8
0
 62
     0
 10
277.263
 20
7.83414
 30
0.0
 11
277.381
 21
7.08865
 31
0.0
  0
LINE
  8
0
 62
     0
 10
277.381
 20
7.08865
 30
0.0
 11
277.723
 21
6.41477
 31
0.0
  0
LINE
  8
0
 62
     0
 10
277.723
 20
6.41477
 30
0.0
 11
278.259
 21
5.8801
 31
0.0
  0
LINE
  8
0
 62
     0
 10
278.259
 20
5.8801
 30
0.0
 11
278.932
 21
5.53695
 31
0.0
  0
LINE
  8
0
 62
     0
 10
278.932
 20
5.53695
 30
0.0
 11
279.677
 21
5.41983
 31
0.0
  0
LINE
  8
0
 62
     0
 10
279.677
 20
5.41983
 30
0.0
 11
280.424
 21
5.53695
 31
0.0
  0
LINE
  8
0
 62
     0
 10
280.424
 20
5.53695
 30
0.0
 11
281.098
 21
5.8801
 31
0.0
  0
LINE
  8
0
 62
     0
 10
281.098
 20
5.8801
 30
0.0
 11
281.631
 21
6.41477
 31
0.0
  0
LINE
  8
0
 62
     0
 10
281.631
 20
6.41477
 30
0.0
 11
281.974
 21
7.08865
 31
0.0
  0
LINE
  8
0
 62
     0
 10
281.974
 20
7.08865
 30
0.0
 11
282.093
 21
7.83414
 31
0.0
  0
LINE
  8
0
 62
     0
 10
282.093
 20
7.83414
 30
0.0
 11
281.974
 21
8.57966
 31
0.0
  0
LINE
  8
0
 62
     0
 10
281.974
 20
8.57966
 30
0.0
 11
281.631
 21
9.25491
 31
0.0
  0
LINE
  8
0
 62
     0
 10
281.631
 20
9.25491
 30
0.0
 11
281.098
 21
9.78821
 31
0.0
  0
LINE
  8
0
 62
     0
 10
281.098
 20
9.78821
 30
0.0
 11
280.424
 21
10.1314
 31
0.0
  0
LINE
  8
0
 62
     0
 10
280.424
 20
10.1314
 30
0.0
 11
279.677
 21
10.2499
 31
0.0
  0
LINE
  8
0
 62
     0
 10
279.677
 20
10.2499
 30
0.0
 11
278.932
 21
10.1314
 31
0.0
  0
LINE
  8
0
 62
     0
 10
369.598
 20
10.1314
 30
0.0
 11
368.924
 21
9.78821
 31
0.0
  0
LINE
  8
0
 62
     0
 10
368.924
 20
9.78821
 30
0.0
 11
368.388
 21
9.25491
 31
0.0
  0
LINE
  8
0
 62
     0
 10
368.388
 20
9.25491
 30
0.0
 11
368.046
 21
8.57966
 31
0.0
  0
LINE
  8
0
 62
     0
 10
368.046
 20
8.57966
 30
0.0
 11
367.93
 21
7.83414
 31
0.0
  0
LINE
  8
0
 62
     0
 10
367.93
 20
7.83414
 30
0.0
 11
368.046
 21
7.08865
 31
0.0
  0
LINE
  8
0
 62
     0
 10
368.046
 20
7.08865
 30
0.0
 11
368.388
 21
6.41477
 31
0.0
  0
LINE
  8
0
 62
     0
 10
368.388
 20
6.41477
 30
0.0
 11
368.924
 21
5.8801
 31
0.0
  0
LINE
  8
0
 62
     0
 10
368.924
 20
5.8801
 30
0.0
 11
369.598
 21
5.53695
 31
0.0
  0
LINE
  8
0
 62
     0
 10
369.598
 20
5.53695
 30
0.0
 11
370.343
 21
5.41983
 31
0.0
  0
LINE
  8
0
 62
     0
 10
370.343
 20
5.41983
 30
0.0
 11
371.09
 21
5.53695
 31
0.0
  0
LINE
  8
0
 62
     0
 10
371.09
 20
5.53695
 30
0.0
 11
371.764
 21
5.8801
 31
0.0
  0
LINE
  8
0
 62
     0
 10
371.764
 20
5.8801
 30
0.0
 11
372.297
 21
6.41477
 31
0.0
  0
LINE
  8
0
 62
     0
 10
372.297
 20
6.41477
 30
0.0
 11
372.639
 21
7.08865
 31
0.0
  0
LINE
  8
0
 62
     0
 10
372.639
 20
7.08865
 30
0.0
 11
372.759
 21
7.83414
 31
0.0
  0
LINE
  8
0
 62
     0
 10
372.759
 20
7.83414
 30
0.0
 11
372.639
 21
8.57966
 31
0.0
  0
LINE
  8
0
 62
     0
 10
372.639
 20
8.57966
 30
0.0
 11
372.297
 21
9.25491
 31
0.0
  0
LINE
  8
0
 62
     0
 10
372.297
 20
9.25491
 30
0.0
 11
371.764
 21
9.78821
 31
0.0
  0
LINE
  8
0
 62
     0
 10
371.764
 20
9.78821
 30
0.0
 11
371.09
 21
10.1314
 31
0.0
  0
LINE
  8
0
 62
     0
 10
371.09
 20
10.1314
 30
0.0
 11
370.343
 21
10.2499
 31
0.0
  0
LINE
  8
0
 62
     0
 10
370.343
 20
10.2499
 30
0.0
 11
369.598
 21
10.1314
 31
0.0
  0
LINE
  8
0
 62
     0
 10
6.93289
 20
77.1631
 30
0.0
 11
6.26043
 21
76.8202
 31
0.0
  0
LINE
  8
0
 62
     0
 10
6.26043
 20
76.8202
 30
0.0
 11
5.72714
 21
76.2854
 31
0.0
  0
LINE
  8
0
 62
     0
 10
5.72714
 20
76.2854
 30
0.0
 11
5.38399
 21
75.613
 31
0.0
  0
LINE
  8
0
 62
     0
 10
5.38399
 20
75.613
 30
0.0
 11
5.26549
 21
74.8661
 31
0.0
  0
LINE
  8
0
 62
     0
 10
5.26549
 20
74.8661
 30
0.0
 11
5.38399
 21
74.1193
 31
0.0
  0
LINE
  8
0
 62
     0
 10
5.38399
 20
74.1193
 30
0.0
 11
5.72714
 21
73.4466
 31
0.0
  0
LINE
  8
0
 62
     0
 10
5.72714
 20
73.4466
 30
0.0
 11
6.26043
 21
72.9121
 31
0.0
  0
LINE
  8
0
 62
     0
 10
6.26043
 20
72.9121
 30
0.0
 11
6.93289
 21
72.5689
 31
0.0
  0
LINE
  8
0
 62
     0
 10
6.93289
 20
72.5689
 30
0.0
 11
7.6798
 21
72.4517
 31
0.0
  0
LINE
  8
0
 62
     0
 10
7.6798
 20
72.4517
 30
0.0
 11
8.4267
 21
72.5689
 31
0.0
  0
LINE
  8
0
 62
     0
 10
8.4267
 20
72.5689
 30
0.0
 11
9.0992
 21
72.9121
 31
0.0
  0
LINE
  8
0
 62
     0
 10
9.0992
 20
72.9121
 30
0.0
 11
9.63387
 21
73.4466
 31
0.0
  0
LINE
  8
0
 62
     0
 10
9.63387
 20
73.4466
 30
0.0
 11
9.97701
 21
74.1193
 31
0.0
  0
LINE
  8
0
 62
     0
 10
9.97701
 20
74.1193
 30
0.0
 11
10.0955
 21
74.8661
 31
0.0
  0
LINE
  8
0
 62
     0
 10
10.0955
 20
74.8661
 30
0.0
 11
9.97701
 21
75.613
 31
0.0
  0
LINE
  8
0
 62
     0
 10
9.97701
 20
75.613
 30
0.0
 11
9.63387
 21
76.2854
 31
0.0
  0
LINE
  8
0
 62
     0
 10
9.63387
 20
76.2854
 30
0.0
 11
9.0992
 21
76.8202
 31
0.0
  0
LINE
  8
0
 62
     0
 10
9.0992
 20
76.8202
 30
0.0
 11
8.4267
 21
77.1631
 31
0.0
  0
LINE
  8
0
 62
     0
 10
8.4267
 20
77.1631
 30
0.0
 11
7.6798
 21
77.2816
 31
0.0
  0
LINE
  8
0
 62
     0
 10
7.6798
 20
77.2816
 30
0.0
 11
6.93289
 21
77.1631
 31
0.0
  0
LINE
  8
0
 62
     0
 10
369.598
 20
77.1631
 30
0.0
 11
368.924
 21
76.8202
 31
0.0
  0
LINE
  8
0
 62
     0
 10
368.924
 20
76.8202
 30
0.0
 11
368.388
 21
76.2854
 31
0.0
  0
LINE
  8
0
 62
     0
 10
368.388
 20
76.2854
 30
0.0
 11
368.046
 21
75.613
 31
0.0
  0
LINE
  8
0
 62
     0
 10
368.046
 20
75.613
 30
0.0
 11
367.93
 21
74.8661
 31
0.0
  0
LINE
  8
0
 62
     0
 10
367.93
 20
74.8661
 30
0.0
 11
368.046
 21
74.1193
 31
0.0
  0
LINE
  8
0
 62
     0
 10
368.046
 20
74.1193
 30
0.0
 11
368.388
 21
73.4466
 31
0.0
  0
LINE
  8
0
 62
     0
 10
368.388
 20
73.4466
 30
0.0
 11
368.924
 21
72.9121
 31
0.0
  0
LINE
  8
0
 62
     0
 10
368.924
 20
72.9121
 30
0.0
 11
369.598
 21
72.5689
 31
0.0
  0
LINE
  8
0
 62
     0
 10
369.598
 20
72.5689
 30
0.0
 11
370.343
 21
72.4517
 31
0.0
  0
LINE
  8
0
 62
     0
 10
370.343
 20
72.4517
 30
0.0
 11
371.09
 21
72.5689
 31
0.0
  0
LINE
  8
0
 62
     0
 10
371.09
 20
72.5689
 30
0.0
 11
371.764
 21
72.9121
 31
0.0
  0
LINE
  8
0
 62
     0
 10
371.764
 20
72.9121
 30
0.0
 11
372.297
 21
73.4466
 31
0.0
  0
LINE
  8
0
 62
     0
 10
372.297
 20
73.4466
 30
0.0
 11
372.639
 21
74.1193
 31
0.0
  0
LINE
  8
0
 62
     0
 10
372.639
 20
74.1193
 30
0.0
 11
372.759
 21
74.8661
 31
0.0
  0
LINE
  8
0
 62
     0
 10
372.759
 20
74.8661
 30
0.0
 11
372.639
 21
75.613
 31
0.0
  0
LINE
  8
0
 62
     0
 10
372.639
 20
75.613
 30
0.0
 11
372.297
 21
76.2854
 31
0.0
  0
LINE
  8
0
 62
     0
 10
372.297
 20
76.2854
 30
0.0
 11
371.764
 21
76.8202
 31
0.0
  0
LINE
  8
0
 62
     0
 10
371.764
 20
76.8202
 30
0.0
 11
371.09
 21
77.1631
 31
0.0
  0
LINE
  8
0
 62
     0
 10
371.09
 20
77.1631
 30
0.0
 11
370.343
 21
77.2816
 31
0.0
  0
LINE
  8
0
 62
     0
 10
370.343
 20
77.2816
 30
0.0
 11
369.598
 21
77.1631
 31
0.0
  0
LINE
  8
0
 62
     0
 10
6.93289
 20
144.194
 30
0.0
 11
6.26043
 21
143.851
 31
0.0
  0
LINE
  8
0
 62
     0
 10
6.26043
 20
143.851
 30
0.0
 11
5.72714
 21
143.317
 31
0.0
  0
LINE
  8
0
 62
     0
 10
5.72714
 20
143.317
 30
0.0
 11
5.38399
 21
142.645
 31
0.0
  0
LINE
  8
0
 62
     0
 10
5.38399
 20
142.645
 30
0.0
 11
5.26549
 21
141.898
 31
0.0
  0
LINE
  8
0
 62
     0
 10
5.26549
 20
141.898
 30
0.0
 11
5.38399
 21
141.151
 31
0.0
  0
LINE
  8
0
 62
     0
 10
5.38399
 20
141.151
 30
0.0
 11
5.72714
 21
140.479
 31
0.0
  0
LINE
  8
0
 62
     0
 10
5.72714
 20
140.479
 30
0.0
 11
6.26043
 21
139.944
 31
0.0
  0
LINE
  8
0
 62
     0
 10
6.26043
 20
139.944
 30
0.0
 11
6.93289
 21
139.601
 31
0.0
  0
LINE
  8
0
 62
     0
 10
6.93289
 20
139.601
 30
0.0
 11
7.6798
 21
139.482
 31
0.0
  0
LINE
  8
0
 62
     0
 10
7.6798
 20
139.482
 30
0.0
 11
8.4267
 21
139.601
 31
0.0
  0
LINE
  8
0
 62
     0
 10
8.4267
 20
139.601
 30
0.0
 11
9.0992
 21
139.944
 31
0.0
  0
LINE
  8
0
 62
     0
 10
9.0992
 20
139.944
 30
0.0
 11
9.63387
 21
140.479
 31
0.0
  0
LINE
  8
0
 62
     0
 10
9.63387
 20
140.479
 30
0.0
 11
9.97701
 21
141.151
 31
0.0
  0
LINE
  8
0
 62
     0
 10
9.97701
 20
141.151
 30
0.0
 11
10.0955
 21
141.898
 31
0.0
  0
LINE
  8
0
 62
     0
 10
10.0955
 20
141.898
 30
0.0
 11
9.97701
 21
142.645
 31
0.0
  0
LINE
  8
0
 62
     0
 10
9.97701
 20
142.645
 30
0.0
 11
9.63387
 21
143.317
 31
0.0
  0
LINE
  8
0
 62
     0
 10
9.63387
 20
143.317
 30
0.0
 11
9.0992
 21
143.851
 31
0.0
  0
LINE
  8
0
 62
     0
 10
9.0992
 20
143.851
 30
0.0
 11
8.4267
 21
144.194
 31
0.0
  0
LINE
  8
0
 62
     0
 10
8.4267
 20
144.194
 30
0.0
 11
7.6798
 21
144.312
 31
0.0
  0
LINE
  8
0
 62
     0
 10
7.6798
 20
144.312
 30
0.0
 11
6.93289
 21
144.194
 31
0.0
  0
LINE
  8
0
 62
     0
 10
369.598
 20
144.194
 30
0.0
 11
368.924
 21
143.851
 31
0.0
  0
LINE
  8
0
 62
     0
 10
368.924
 20
143.851
 30
0.0
 11
368.388
 21
143.317
 31
0.0
  0
LINE
  8
0
 62
     0
 10
368.388
 20
143.317
 30
0.0
 11
368.046
 21
142.645
 31
0.0
  0
LINE
  8
0
 62
     0
 10
368.046
 20
142.645
 30
0.0
 11
367.93
 21
141.898
 31
0.0
  0
LINE
  8
0
 62
     0
 10
367.93
 20
141.898
 30
0.0
 11
368.046
 21
141.151
 31
0.0
  0
LINE
  8
0
 62
     0
 10
368.046
 20
141.151
 30
0.0
 11
368.388
 21
140.479
 31
0.0
  0
LINE
  8
0
 62
     0
 10
368.388
 20
140.479
 30
0.0
 11
368.924
 21
139.944
 31
0.0
  0
LINE
  8
0
 62
     0
 10
368.924
 20
139.944
 30
0.0
 11
369.598
 21
139.601
 31
0.0
  0
LINE
  8
0
 62
     0
 10
369.598
 20
139.601
 30
0.0
 11
370.343
 21
139.482
 31
0.0
  0
LINE
  8
0
 62
     0
 10
370.343
 20
139.482
 30
0.0
 11
371.09
 21
139.601
 31
0.0
  0
LINE
  8
0
 62
     0
 10
371.09
 20
139.601
 30
0.0
 11
371.764
 21
139.944
 31
0.0
  0
LINE
  8
0
 62
     0
 10
371.764
 20
139.944
 30
0.0
 11
372.297
 21
140.479
 31
0.0
  0
LINE
  8
0
 62
     0
 10
372.297
 20
140.479
 30
0.0
 11
372.639
 21
141.151
 31
0.0
  0
LINE
  8
0
 62
     0
 10
372.639
 20
141.151
 30
0.0
 11
372.759
 21
141.898
 31
0.0
  0
LINE
  8
0
 62
     0
 10
372.759
 20
141.898
 30
0.0
 11
372.639
 21
142.645
 31
0.0
  0
LINE
  8
0
 62
     0
 10
372.639
 20
142.645
 30
0.0
 11
372.297
 21
143.317
 31
0.0
  0
LINE
  8
0
 62
     0
 10
372.297
 20
143.317
 30
0.0
 11
371.764
 21
143.851
 31
0.0
  0
LINE
  8
0
 62
     0
 10
371.764
 20
143.851
 30
0.0
 11
371.09
 21
144.194
 31
0.0
  0
LINE
  8
0
 62
     0
 10
371.09
 20
144.194
 30
0.0
 11
370.343
 21
144.312
 31
0.0
  0
LINE
  8
0
 62
     0
 10
370.343
 20
144.312
 30
0.0
 11
369.598
 21
144.194
 31
0.0
  0
LINE
  8
0
 62
     0
 10
278.932
 20
144.194
 30
0.0
 11
278.259
 21
143.851
 31
0.0
  0
LINE
  8
0
 62
     0
 10
278.259
 20
143.851
 30
0.0
 11
277.723
 21
143.317
 31
0.0
  0
LINE
  8
0
 62
     0
 10
277.723
 20
143.317
 30
0.0
 11
277.381
 21
142.645
 31
0.0
  0
LINE
  8
0
 62
     0
 10
277.381
 20
142.645
 30
0.0
 11
277.263
 21
141.898
 31
0.0
  0
LINE
  8
0
 62
     0
 10
277.263
 20
141.898
 30
0.0
 11
277.381
 21
141.151
 31
0.0
  0
LINE
  8
0
 62
     0
 10
277.381
 20
141.151
 30
0.0
 11
277.723
 21
140.479
 31
0.0
  0
LINE
  8
0
 62
     0
 10
277.723
 20
140.479
 30
0.0
 11
278.259
 21
139.944
 31
0.0
  0
LINE
  8
0
 62
     0
 10
278.259
 20
139.944
 30
0.0
 11
278.932
 21
139.601
 31
0.0
  0
LINE
  8
0
 62
     0
 10
278.932
 20
139.601
 30
0.0
 11
279.677
 21
139.482
 31
0.0
  0
LINE
  8
0
 62
     0
 10
279.677
 20
139.482
 30
0.0
 11
280.424
 21
139.601
 31
0.0
  0
LINE
  8
0
 62
     0
 10
280.424
 20
139.601
 30
0.0
 11
281.098
 21
139.944
 31
0.0
  0
LINE
  8
0
 62
     0
 10
281.098
 20
139.944
 30
0.0
 11
281.631
 21
140.479
 31
0.0
  0
LINE
  8
0
 62
     0
 10
281.631
 20
140.479
 30
0.0
 11
281.974
 21
141.151
 31
0.0
  0
LINE
  8
0
 62
     0
 10
281.974
 20
141.151
 30
0.0
 11
282.093
 21
141.898
 31
0.0
  0
LINE
  8
0
 62
     0
 10
282.093
 20
141.898
 30
0.0
 11
281.974
 21
142.645
 31
0.0
  0
LINE
  8
0
 62
     0
 10
281.974
 20
142.645
 30
0.0
 11
281.631
 21
143.317
 31
0.0
  0
LINE
  8
0
 62
     0
 10
281.631
 20
143.317
 30
0.0
 11
281.098
 21
143.851
 31
0.0
  0
LINE
  8
0
 62
     0
 10
281.098
 20
143.851
 30
0.0
 11
280.424
 21
144.194
 31
0.0
  0
LINE
  8
0
 62
     0
 10
280.424
 20
144.194
 30
0.0
 11
279.677
 21
144.312
 31
0.0
  0
LINE
  8
0
 62
     0
 10
279.677
 20
144.312
 30
0.0
 11
278.932
 21
144.194
 31
0.0
  0
LINE
  8
0
 62
     0
 10
188.265
 20
144.194
 30
0.0
 11
187.592
 21
143.851
 31
0.0
  0
LINE
  8
0
 62
     0
 10
187.592
 20
143.851
 30
0.0
 11
187.058
 21
143.317
 31
0.0
  0
LINE
  8
0
 62
     0
 10
187.058
 20
143.317
 30
0.0
 11
186.715
 21
142.645
 31
0.0
  0
LINE
  8
0
 62
     0
 10
186.715
 20
142.645
 30
0.0
 11
186.596
 21
141.898
 31
0.0
  0
LINE
  8
0
 62
     0
 10
186.596
 20
141.898
 30
0.0
 11
186.715
 21
141.151
 31
0.0
  0
LINE
  8
0
 62
     0
 10
186.715
 20
141.151
 30
0.0
 11
187.058
 21
140.479
 31
0.0
  0
LINE
  8
0
 62
     0
 10
187.058
 20
140.479
 30
0.0
 11
187.592
 21
139.944
 31
0.0
  0
LINE
  8
0
 62
     0
 10
187.592
 20
139.944
 30
0.0
 11
188.265
 21
139.601
 31
0.0
  0
LINE
  8
0
 62
     0
 10
188.265
 20
139.601
 30
0.0
 11
189.012
 21
139.482
 31
0.0
  0
LINE
  8
0
 62
     0
 10
189.012
 20
139.482
 30
0.0
 11
189.758
 21
139.601
 31
0.0
  0
LINE
  8
0
 62
     0
 10
189.758
 20
139.601
 30
0.0
 11
190.431
 21
139.944
 31
0.0
  0
LINE
  8
0
 62
     0
 10
190.431
 20
139.944
 30
0.0
 11
190.966
 21
140.479
 31
0.0
  0
LINE
  8
0
 62
     0
 10
190.966
 20
140.479
 30
0.0
 11
191.309
 21
141.151
 31
0.0
  0
LINE
  8
0
 62
     0
 10
191.309
 20
141.151
 30
0.0
 11
191.426
 21
141.898
 31
0.0
  0
LINE
  8
0
 62
     0
 10
191.426
 20
141.898
 30
0.0
 11
191.309
 21
142.645
 31
0.0
  0
LINE
  8
0
 62
     0
 10
191.309
 20
142.645
 30
0.0
 11
190.966
 21
143.317
 31
0.0
  0
LINE
  8
0
 62
     0
 10
190.966
 20
143.317
 30
0.0
 11
190.431
 21
143.851
 31
0.0
  0
LINE
  8
0
 62
     0
 10
190.431
 20
143.851
 30
0.0
 11
189.758
 21
144.194
 31
0.0
  0
LINE
  8
0
 62
     0
 10
189.758
 20
144.194
 30
0.0
 11
189.012
 21
144.312
 31
0.0
  0
LINE
  8
0
 62
     0
 10
189.012
 20
144.312
 30
0.0
 11
188.265
 21
144.194
 31
0.0
  0
LINE
  8
0
 62
     0
 10
97.5995
 20
144.194
 30
0.0
 11
96.9271
 21
143.851
 31
0.0
  0
LINE
  8
0
 62
     0
 10
96.9271
 20
143.851
 30
0.0
 11
96.3923
 21
143.317
 31
0.0
  0
LINE
  8
0
 62
     0
 10
96.3923
 20
143.317
 30
0.0
 11
96.0494
 21
142.645
 31
0.0
  0
LINE
  8
0
 62
     0
 10
96.0494
 20
142.645
 30
0.0
 11
95.9309
 21
141.898
 31
0.0
  0
LINE
  8
0
 62
     0
 10
95.9309
 20
141.898
 30
0.0
 11
96.0494
 21
141.151
 31
0.0
  0
LINE
  8
0
 62
     0
 10
96.0494
 20
141.151
 30
0.0
 11
96.3923
 21
140.479
 31
0.0
  0
LINE
  8
0
 62
     0
 10
96.3923
 20
140.479
 30
0.0
 11
96.9271
 21
139.944
 31
0.0
  0
LINE
  8
0
 62
     0
 10
96.9271
 20
139.944
 30
0.0
 11
97.5995
 21
139.601
 31
0.0
  0
LINE
  8
0
 62
     0
 10
97.5995
 20
139.601
 30
0.0
 11
98.3449
 21
139.482
 31
0.0
  0
LINE
  8
0
 62
     0
 10
98.3449
 20
139.482
 30
0.0
 11
99.0921
 21
139.601
 31
0.0
  0
LINE
  8
0
 62
     0
 10
99.0921
 20
139.601
 30
0.0
 11
99.7659
 21
139.944
 31
0.0
  0
LINE
  8
0
 62
     0
 10
99.7659
 20
139.944
 30
0.0
 11
100.299
 21
140.479
 31
0.0
  0
LINE
  8
0
 62
     0
 10
100.299
 20
140.479
 30
0.0
 11
100.642
 21
141.151
 31
0.0
  0
LINE
  8
0
 62
     0
 10
100.642
 20
141.151
 30
0.0
 11
100.761
 21
141.898
 31
0.0
  0
LINE
  8
0
 62
     0
 10
100.761
 20
141.898
 30
0.0
 11
100.642
 21
142.645
 31
0.0
  0
LINE
  8
0
 62
     0
 10
100.642
 20
142.645
 30
0.0
 11
100.299
 21
143.317
 31
0.0
  0
LINE
  8
0
 62
     0
 10
100.299
 20
143.317
 30
0.0
 11
99.7659
 21
143.851
 31
0.0
  0
LINE
  8
0
 62
     0
 10
99.7659
 20
143.851
 30
0.0
 11
99.0921
 21
144.194
 31
0.0
  0
LINE
  8
0
 62
     0
 10
99.0921
 20
144.194
 30
0.0
 11
98.3449
 21
144.312
 31
0.0
  0
LINE
  8
0
 62
     0
 10
98.3449
 20
144.312
 30
0.0
 11
97.5995
 21
144.194
 31
0.0
  0
ENDSEC
  0
EOF
