  0
SECTION
  2
HEADER
  9
$ACADVER
  1
AC1009
  9
$EXTMIN
 10
0.0
 20
0.0
 30
0.0
  9
$EXTMAX
 10
1000.0
 20
1000.0
 30
0.0
  9
$FILLMODE
 70
 0
  9
$SPLFRAME
 70
 1
  0
ENDSEC
  0
SECTION
  2
TABLES
  0
TABLE
  2
LAYER
 70
1
  0
LAYER
  2
0
 70
     0
 62
     7
  6
CONTINUOUS
  0
ENDTAB
  0
ENDSEC
  0
SECTION
  2
ENTITIES
  0
LINE
  8
0
 62
     0
 10
374.865
 20
149.483
 30
0.0
 11
375.098
 21
149.473
 31
0.0
  0
LINE
  8
0
 62
     0
 10
375.098
 20
149.473
 30
0.0
 11
375.331
 21
149.447
 31
0.0
  0
LINE
  8
0
 62
     0
 10
375.331
 20
149.447
 30
0.0
 11
375.564
 21
149.4
 31
0.0
  0
LINE
  8
0
 62
     0
 10
375.564
 20
149.4
 30
0.0
 11
375.789
 21
149.336
 31
0.0
  0
LINE
  8
0
 62
     0
 10
375.789
 20
149.336
 30
0.0
 11
376.012
 21
149.254
 31
0.0
  0
LINE
  8
0
 62
     0
 10
376.012
 20
149.254
 30
0.0
 11
376.223
 21
149.156
 31
0.0
  0
LINE
  8
0
 62
     0
 10
376.223
 20
149.156
 30
0.0
 11
376.432
 21
149.04
 31
0.0
  0
LINE
  8
0
 62
     0
 10
376.432
 20
149.04
 30
0.0
 11
376.626
 21
148.911
 31
0.0
  0
LINE
  8
0
 62
     0
 10
376.626
 20
148.911
 30
0.0
 11
376.813
 21
148.765
 31
0.0
  0
LINE
  8
0
 62
     0
 10
376.813
 20
148.765
 30
0.0
 11
376.985
 21
148.605
 31
0.0
  0
LINE
  8
0
 62
     0
 10
376.985
 20
148.605
 30
0.0
 11
377.144
 21
148.431
 31
0.0
  0
LINE
  8
0
 62
     0
 10
377.144
 20
148.431
 30
0.0
 11
377.289
 21
148.247
 31
0.0
  0
LINE
  8
0
 62
     0
 10
377.289
 20
148.247
 30
0.0
 11
377.423
 21
148.051
 31
0.0
  0
LINE
  8
0
 62
     0
 10
377.423
 20
148.051
 30
0.0
 11
377.536
 21
147.844
 31
0.0
  0
LINE
  8
0
 62
     0
 10
377.536
 20
147.844
 30
0.0
 11
377.634
 21
147.63
 31
0.0
  0
LINE
  8
0
 62
     0
 10
377.634
 20
147.63
 30
0.0
 11
377.716
 21
147.41
 31
0.0
  0
LINE
  8
0
 62
     0
 10
377.716
 20
147.41
 30
0.0
 11
377.783
 21
147.183
 31
0.0
  0
LINE
  8
0
 62
     0
 10
377.783
 20
147.183
 30
0.0
 11
377.825
 21
146.953
 31
0.0
  0
LINE
  8
0
 62
     0
 10
377.825
 20
146.953
 30
0.0
 11
377.853
 21
146.719
 31
0.0
  0
LINE
  8
0
 62
     0
 10
377.853
 20
146.719
 30
0.0
 11
377.864
 21
146.483
 31
0.0
  0
LINE
  8
0
 62
     0
 10
377.864
 20
146.483
 30
0.0
 11
377.864
 21
3.31418
 31
0.0
  0
LINE
  8
0
 62
     0
 10
377.864
 20
3.31418
 30
0.0
 11
377.853
 21
3.07992
 31
0.0
  0
LINE
  8
0
 62
     0
 10
377.853
 20
3.07992
 30
0.0
 11
377.825
 21
2.84565
 31
0.0
  0
LINE
  8
0
 62
     0
 10
377.825
 20
2.84565
 30
0.0
 11
377.783
 21
2.61414
 31
0.0
  0
LINE
  8
0
 62
     0
 10
377.783
 20
2.61414
 30
0.0
 11
377.716
 21
2.38676
 31
0.0
  0
LINE
  8
0
 62
     0
 10
377.716
 20
2.38676
 30
0.0
 11
377.634
 21
2.16628
 31
0.0
  0
LINE
  8
0
 62
     0
 10
377.634
 20
2.16628
 30
0.0
 11
377.536
 21
1.95268
 31
0.0
  0
LINE
  8
0
 62
     0
 10
377.536
 20
1.95268
 30
0.0
 11
377.423
 21
1.74735
 31
0.0
  0
LINE
  8
0
 62
     0
 10
377.423
 20
1.74735
 30
0.0
 11
377.289
 21
1.55167
 31
0.0
  0
LINE
  8
0
 62
     0
 10
377.289
 20
1.55167
 30
0.0
 11
377.144
 21
1.36563
 31
0.0
  0
LINE
  8
0
 62
     0
 10
377.144
 20
1.36563
 30
0.0
 11
376.985
 21
1.19338
 31
0.0
  0
LINE
  8
0
 62
     0
 10
376.985
 20
1.19338
 30
0.0
 11
376.813
 21
1.03353
 31
0.0
  0
LINE
  8
0
 62
     0
 10
376.813
 20
1.03353
 30
0.0
 11
376.626
 21
0.887458
 31
0.0
  0
LINE
  8
0
 62
     0
 10
376.626
 20
0.887458
 30
0.0
 11
376.432
 21
0.756543
 31
0.0
  0
LINE
  8
0
 62
     0
 10
376.432
 20
0.756543
 30
0.0
 11
376.223
 21
0.640789
 31
0.0
  0
LINE
  8
0
 62
     0
 10
376.223
 20
0.640789
 30
0.0
 11
376.012
 21
0.542946
 31
0.0
  0
LINE
  8
0
 62
     0
 10
376.012
 20
0.542946
 30
0.0
 11
375.789
 21
0.461641
 31
0.0
  0
LINE
  8
0
 62
     0
 10
375.789
 20
0.461641
 30
0.0
 11
375.564
 21
0.396875
 31
0.0
  0
LINE
  8
0
 62
     0
 10
375.564
 20
0.396875
 30
0.0
 11
375.331
 21
0.3514
 31
0.0
  0
LINE
  8
0
 62
     0
 10
375.331
 20
0.3514
 30
0.0
 11
375.098
 21
0.323839
 31
0.0
  0
LINE
  8
0
 62
     0
 10
375.098
 20
0.323839
 30
0.0
 11
374.865
 21
0.314193
 31
0.0
  0
LINE
  8
0
 62
     0
 10
374.865
 20
0.314193
 30
0.0
 11
3.09507
 21
0.314193
 31
0.0
  0
LINE
  8
0
 62
     0
 10
3.09507
 20
0.314193
 30
0.0
 11
2.85943
 21
0.323839
 31
0.0
  0
LINE
  8
0
 62
     0
 10
2.85943
 20
0.323839
 30
0.0
 11
2.62516
 21
0.3514
 31
0.0
  0
LINE
  8
0
 62
     0
 10
2.62516
 20
0.3514
 30
0.0
 11
2.39503
 21
0.396875
 31
0.0
  0
LINE
  8
0
 62
     0
 10
2.39503
 20
0.396875
 30
0.0
 11
2.16765
 21
0.461641
 31
0.0
  0
LINE
  8
0
 62
     0
 10
2.16765
 20
0.461641
 30
0.0
 11
1.94717
 21
0.542946
 31
0.0
  0
LINE
  8
0
 62
     0
 10
1.94717
 20
0.542946
 30
0.0
 11
1.73357
 21
0.640789
 31
0.0
  0
LINE
  8
0
 62
     0
 10
1.73357
 20
0.640789
 30
0.0
 11
1.52687
 21
0.756543
 31
0.0
  0
LINE
  8
0
 62
     0
 10
1.52687
 20
0.756543
 30
0.0
 11
1.33119
 21
0.887458
 31
0.0
  0
LINE
  8
0
 62
     0
 10
1.33119
 20
0.887458
 30
0.0
 11
1.14653
 21
1.03353
 31
0.0
  0
LINE
  8
0
 62
     0
 10
1.14653
 20
1.03353
 30
0.0
 11
0.972894
 21
1.19338
 31
0.0
  0
LINE
  8
0
 62
     0
 10
0.972894
 20
1.19338
 30
0.0
 11
0.813043
 21
1.36563
 31
0.0
  0
LINE
  8
0
 62
     0
 10
0.813043
 20
1.36563
 30
0.0
 11
0.666972
 21
1.55167
 31
0.0
  0
LINE
  8
0
 62
     0
 10
0.666972
 20
1.55167
 30
0.0
 11
0.537436
 21
1.74735
 31
0.0
  0
LINE
  8
0
 62
     0
 10
0.537436
 20
1.74735
 30
0.0
 11
0.421679
 21
1.95268
 31
0.0
  0
LINE
  8
0
 62
     0
 10
0.421679
 20
1.95268
 30
0.0
 11
0.323839
 21
2.16628
 31
0.0
  0
LINE
  8
0
 62
     0
 10
0.323839
 20
2.16628
 30
0.0
 11
0.241157
 21
2.38676
 31
0.0
  0
LINE
  8
0
 62
     0
 10
0.241157
 20
2.38676
 30
0.0
 11
0.177767
 21
2.61414
 31
0.0
  0
LINE
  8
0
 62
     0
 10
0.177767
 20
2.61414
 30
0.0
 11
0.130914
 21
2.84565
 31
0.0
  0
LINE
  8
0
 62
     0
 10
0.130914
 20
2.84565
 30
0.0
 11
0.104731
 21
3.07992
 31
0.0
  0
LINE
  8
0
 62
     0
 10
0.104731
 20
3.07992
 30
0.0
 11
0.0950846
 21
3.31418
 31
0.0
  0
LINE
  8
0
 62
     0
 10
0.0950846
 20
3.31418
 30
0.0
 11
0.0950846
 21
146.483
 31
0.0
  0
LINE
  8
0
 62
     0
 10
0.0950846
 20
146.483
 30
0.0
 11
0.104731
 21
146.719
 31
0.0
  0
LINE
  8
0
 62
     0
 10
0.104731
 20
146.719
 30
0.0
 11
0.130914
 21
146.953
 31
0.0
  0
LINE
  8
0
 62
     0
 10
0.130914
 20
146.953
 30
0.0
 11
0.177767
 21
147.183
 31
0.0
  0
LINE
  8
0
 62
     0
 10
0.177767
 20
147.183
 30
0.0
 11
0.241157
 21
147.41
 31
0.0
  0
LINE
  8
0
 62
     0
 10
0.241157
 20
147.41
 30
0.0
 11
0.323839
 21
147.63
 31
0.0
  0
LINE
  8
0
 62
     0
 10
0.323839
 20
147.63
 30
0.0
 11
0.421679
 21
147.844
 31
0.0
  0
LINE
  8
0
 62
     0
 10
0.421679
 20
147.844
 30
0.0
 11
0.537436
 21
148.051
 31
0.0
  0
LINE
  8
0
 62
     0
 10
0.537436
 20
148.051
 30
0.0
 11
0.666972
 21
148.247
 31
0.0
  0
LINE
  8
0
 62
     0
 10
0.666972
 20
148.247
 30
0.0
 11
0.813043
 21
148.431
 31
0.0
  0
LINE
  8
0
 62
     0
 10
0.813043
 20
148.431
 30
0.0
 11
0.972894
 21
148.605
 31
0.0
  0
LINE
  8
0
 62
     0
 10
0.972894
 20
148.605
 30
0.0
 11
1.14653
 21
148.765
 31
0.0
  0
LINE
  8
0
 62
     0
 10
1.14653
 20
148.765
 30
0.0
 11
1.33119
 21
148.911
 31
0.0
  0
LINE
  8
0
 62
     0
 10
1.33119
 20
148.911
 30
0.0
 11
1.52687
 21
149.04
 31
0.0
  0
LINE
  8
0
 62
     0
 10
1.52687
 20
149.04
 30
0.0
 11
1.73357
 21
149.156
 31
0.0
  0
LINE
  8
0
 62
     0
 10
1.73357
 20
149.156
 30
0.0
 11
1.94717
 21
149.254
 31
0.0
  0
LINE
  8
0
 62
     0
 10
1.94717
 20
149.254
 30
0.0
 11
2.16765
 21
149.336
 31
0.0
  0
LINE
  8
0
 62
     0
 10
2.16765
 20
149.336
 30
0.0
 11
2.39503
 21
149.4
 31
0.0
  0
LINE
  8
0
 62
     0
 10
2.39503
 20
149.4
 30
0.0
 11
2.62516
 21
149.447
 31
0.0
  0
LINE
  8
0
 62
     0
 10
2.62516
 20
149.447
 30
0.0
 11
2.85943
 21
149.473
 31
0.0
  0
LINE
  8
0
 62
     0
 10
2.85943
 20
149.473
 30
0.0
 11
3.09507
 21
149.483
 31
0.0
  0
LINE
  8
0
 62
     0
 10
3.09507
 20
149.483
 30
0.0
 11
374.865
 21
149.483
 31
0.0
  0
LINE
  8
0
 62
     0
 10
6.89158
 20
10.1947
 30
0.0
 11
6.20808
 21
9.84747
 31
0.0
  0
LINE
  8
0
 62
     0
 10
6.20808
 20
9.84747
 30
0.0
 11
5.66787
 21
9.30589
 31
0.0
  0
LINE
  8
0
 62
     0
 10
5.66787
 20
9.30589
 30
0.0
 11
5.31922
 21
8.62376
 31
0.0
  0
LINE
  8
0
 62
     0
 10
5.31922
 20
8.62376
 30
0.0
 11
5.20072
 21
7.86585
 31
0.0
  0
LINE
  8
0
 62
     0
 10
5.20072
 20
7.86585
 30
0.0
 11
5.31922
 21
7.11069
 31
0.0
  0
LINE
  8
0
 62
     0
 10
5.31922
 20
7.11069
 30
0.0
 11
5.66787
 21
6.42856
 31
0.0
  0
LINE
  8
0
 62
     0
 10
5.66787
 20
6.42856
 30
0.0
 11
6.20808
 21
5.88698
 31
0.0
  0
LINE
  8
0
 62
     0
 10
6.20808
 20
5.88698
 30
0.0
 11
6.89158
 21
5.5397
 31
0.0
  0
LINE
  8
0
 62
     0
 10
6.89158
 20
5.5397
 30
0.0
 11
7.64812
 21
5.41983
 31
0.0
  0
LINE
  8
0
 62
     0
 10
7.64812
 20
5.41983
 30
0.0
 11
8.40327
 21
5.5397
 31
0.0
  0
LINE
  8
0
 62
     0
 10
8.40327
 20
5.5397
 30
0.0
 11
9.08678
 21
5.88698
 31
0.0
  0
LINE
  8
0
 62
     0
 10
9.08678
 20
5.88698
 30
0.0
 11
9.62699
 21
6.42856
 31
0.0
  0
LINE
  8
0
 62
     0
 10
9.62699
 20
6.42856
 30
0.0
 11
9.9756
 21
7.11069
 31
0.0
  0
LINE
  8
0
 62
     0
 10
9.9756
 20
7.11069
 30
0.0
 11
10.0955
 21
7.86585
 31
0.0
  0
LINE
  8
0
 62
     0
 10
10.0955
 20
7.86585
 30
0.0
 11
9.9756
 21
8.62376
 31
0.0
  0
LINE
  8
0
 62
     0
 10
9.9756
 20
8.62376
 30
0.0
 11
9.62699
 21
9.30589
 31
0.0
  0
LINE
  8
0
 62
     0
 10
9.62699
 20
9.30589
 30
0.0
 11
9.08678
 21
9.84747
 31
0.0
  0
LINE
  8
0
 62
     0
 10
9.08678
 20
9.84747
 30
0.0
 11
8.40327
 21
10.1947
 31
0.0
  0
LINE
  8
0
 62
     0
 10
8.40327
 20
10.1947
 30
0.0
 11
7.64812
 21
10.3146
 31
0.0
  0
LINE
  8
0
 62
     0
 10
7.64812
 20
10.3146
 30
0.0
 11
6.89158
 21
10.1947
 31
0.0
  0
LINE
  8
0
 62
     0
 10
97.5568
 20
10.1947
 30
0.0
 11
96.8745
 21
9.84747
 31
0.0
  0
LINE
  8
0
 62
     0
 10
96.8745
 20
9.84747
 30
0.0
 11
96.333
 21
9.30589
 31
0.0
  0
LINE
  8
0
 62
     0
 10
96.333
 20
9.30589
 30
0.0
 11
95.9859
 21
8.62376
 31
0.0
  0
LINE
  8
0
 62
     0
 10
95.9859
 20
8.62376
 30
0.0
 11
95.866
 21
7.86585
 31
0.0
  0
LINE
  8
0
 62
     0
 10
95.866
 20
7.86585
 30
0.0
 11
95.9859
 21
7.11069
 31
0.0
  0
LINE
  8
0
 62
     0
 10
95.9859
 20
7.11069
 30
0.0
 11
96.333
 21
6.42856
 31
0.0
  0
LINE
  8
0
 62
     0
 10
96.333
 20
6.42856
 30
0.0
 11
96.8745
 21
5.88698
 31
0.0
  0
LINE
  8
0
 62
     0
 10
96.8745
 20
5.88698
 30
0.0
 11
97.5568
 21
5.5397
 31
0.0
  0
LINE
  8
0
 62
     0
 10
97.5568
 20
5.5397
 30
0.0
 11
98.3135
 21
5.41983
 31
0.0
  0
LINE
  8
0
 62
     0
 10
98.3135
 20
5.41983
 30
0.0
 11
99.0699
 21
5.5397
 31
0.0
  0
LINE
  8
0
 62
     0
 10
99.0699
 20
5.5397
 30
0.0
 11
99.7521
 21
5.88698
 31
0.0
  0
LINE
  8
0
 62
     0
 10
99.7521
 20
5.88698
 30
0.0
 11
100.294
 21
6.42856
 31
0.0
  0
LINE
  8
0
 62
     0
 10
100.294
 20
6.42856
 30
0.0
 11
100.641
 21
7.11069
 31
0.0
  0
LINE
  8
0
 62
     0
 10
100.641
 20
7.11069
 30
0.0
 11
100.761
 21
7.86585
 31
0.0
  0
LINE
  8
0
 62
     0
 10
100.761
 20
7.86585
 30
0.0
 11
100.641
 21
8.62376
 31
0.0
  0
LINE
  8
0
 62
     0
 10
100.641
 20
8.62376
 30
0.0
 11
100.294
 21
9.30589
 31
0.0
  0
LINE
  8
0
 62
     0
 10
100.294
 20
9.30589
 30
0.0
 11
99.7521
 21
9.84747
 31
0.0
  0
LINE
  8
0
 62
     0
 10
99.7521
 20
9.84747
 30
0.0
 11
99.0699
 21
10.1947
 31
0.0
  0
LINE
  8
0
 62
     0
 10
99.0699
 20
10.1947
 30
0.0
 11
98.3135
 21
10.3146
 31
0.0
  0
LINE
  8
0
 62
     0
 10
98.3135
 20
10.3146
 30
0.0
 11
97.5568
 21
10.1947
 31
0.0
  0
LINE
  8
0
 62
     0
 10
188.222
 20
10.1947
 30
0.0
 11
187.54
 21
9.84747
 31
0.0
  0
LINE
  8
0
 62
     0
 10
187.54
 20
9.84747
 30
0.0
 11
187
 21
9.30589
 31
0.0
  0
LINE
  8
0
 62
     0
 10
187
 20
9.30589
 30
0.0
 11
186.651
 21
8.62376
 31
0.0
  0
LINE
  8
0
 62
     0
 10
186.651
 20
8.62376
 30
0.0
 11
186.531
 21
7.86585
 31
0.0
  0
LINE
  8
0
 62
     0
 10
186.531
 20
7.86585
 30
0.0
 11
186.651
 21
7.11069
 31
0.0
  0
LINE
  8
0
 62
     0
 10
186.651
 20
7.11069
 30
0.0
 11
187
 21
6.42856
 31
0.0
  0
LINE
  8
0
 62
     0
 10
187
 20
6.42856
 30
0.0
 11
187.54
 21
5.88698
 31
0.0
  0
LINE
  8
0
 62
     0
 10
187.54
 20
5.88698
 30
0.0
 11
188.222
 21
5.5397
 31
0.0
  0
LINE
  8
0
 62
     0
 10
188.222
 20
5.5397
 30
0.0
 11
188.98
 21
5.41983
 31
0.0
  0
LINE
  8
0
 62
     0
 10
188.98
 20
5.41983
 30
0.0
 11
189.735
 21
5.5397
 31
0.0
  0
LINE
  8
0
 62
     0
 10
189.735
 20
5.5397
 30
0.0
 11
190.417
 21
5.88698
 31
0.0
  0
LINE
  8
0
 62
     0
 10
190.417
 20
5.88698
 30
0.0
 11
190.959
 21
6.42856
 31
0.0
  0
LINE
  8
0
 62
     0
 10
190.959
 20
6.42856
 30
0.0
 11
191.306
 21
7.11069
 31
0.0
  0
LINE
  8
0
 62
     0
 10
191.306
 20
7.11069
 30
0.0
 11
191.426
 21
7.86585
 31
0.0
  0
LINE
  8
0
 62
     0
 10
191.426
 20
7.86585
 30
0.0
 11
191.306
 21
8.62376
 31
0.0
  0
LINE
  8
0
 62
     0
 10
191.306
 20
8.62376
 30
0.0
 11
190.959
 21
9.30589
 31
0.0
  0
LINE
  8
0
 62
     0
 10
190.959
 20
9.30589
 30
0.0
 11
190.417
 21
9.84747
 31
0.0
  0
LINE
  8
0
 62
     0
 10
190.417
 20
9.84747
 30
0.0
 11
189.735
 21
10.1947
 31
0.0
  0
LINE
  8
0
 62
     0
 10
189.735
 20
10.1947
 30
0.0
 11
188.98
 21
10.3146
 31
0.0
  0
LINE
  8
0
 62
     0
 10
188.98
 20
10.3146
 30
0.0
 11
188.222
 21
10.1947
 31
0.0
  0
LINE
  8
0
 62
     0
 10
278.889
 20
10.1947
 30
0.0
 11
278.207
 21
9.84747
 31
0.0
  0
LINE
  8
0
 62
     0
 10
278.207
 20
9.84747
 30
0.0
 11
277.665
 21
9.30589
 31
0.0
  0
LINE
  8
0
 62
     0
 10
277.665
 20
9.30589
 30
0.0
 11
277.318
 21
8.62376
 31
0.0
  0
LINE
  8
0
 62
     0
 10
277.318
 20
8.62376
 30
0.0
 11
277.198
 21
7.86585
 31
0.0
  0
LINE
  8
0
 62
     0
 10
277.198
 20
7.86585
 30
0.0
 11
277.318
 21
7.11069
 31
0.0
  0
LINE
  8
0
 62
     0
 10
277.318
 20
7.11069
 30
0.0
 11
277.665
 21
6.42856
 31
0.0
  0
LINE
  8
0
 62
     0
 10
277.665
 20
6.42856
 30
0.0
 11
278.207
 21
5.88698
 31
0.0
  0
LINE
  8
0
 62
     0
 10
278.207
 20
5.88698
 30
0.0
 11
278.889
 21
5.5397
 31
0.0
  0
LINE
  8
0
 62
     0
 10
278.889
 20
5.5397
 30
0.0
 11
279.645
 21
5.41983
 31
0.0
  0
LINE
  8
0
 62
     0
 10
279.645
 20
5.41983
 30
0.0
 11
280.402
 21
5.5397
 31
0.0
  0
LINE
  8
0
 62
     0
 10
280.402
 20
5.5397
 30
0.0
 11
281.084
 21
5.88698
 31
0.0
  0
LINE
  8
0
 62
     0
 10
281.084
 20
5.88698
 30
0.0
 11
281.626
 21
6.42856
 31
0.0
  0
LINE
  8
0
 62
     0
 10
281.626
 20
6.42856
 30
0.0
 11
281.973
 21
7.11069
 31
0.0
  0
LINE
  8
0
 62
     0
 10
281.973
 20
7.11069
 30
0.0
 11
282.093
 21
7.86585
 31
0.0
  0
LINE
  8
0
 62
     0
 10
282.093
 20
7.86585
 30
0.0
 11
281.973
 21
8.62376
 31
0.0
  0
LINE
  8
0
 62
     0
 10
281.973
 20
8.62376
 30
0.0
 11
281.626
 21
9.30589
 31
0.0
  0
LINE
  8
0
 62
     0
 10
281.626
 20
9.30589
 30
0.0
 11
281.084
 21
9.84747
 31
0.0
  0
LINE
  8
0
 62
     0
 10
281.084
 20
9.84747
 30
0.0
 11
280.402
 21
10.1947
 31
0.0
  0
LINE
  8
0
 62
     0
 10
280.402
 20
10.1947
 30
0.0
 11
279.645
 21
10.3146
 31
0.0
  0
LINE
  8
0
 62
     0
 10
279.645
 20
10.3146
 30
0.0
 11
278.889
 21
10.1947
 31
0.0
  0
LINE
  8
0
 62
     0
 10
369.552
 20
10.1947
 30
0.0
 11
368.871
 21
9.84747
 31
0.0
  0
LINE
  8
0
 62
     0
 10
368.871
 20
9.84747
 30
0.0
 11
368.332
 21
9.30589
 31
0.0
  0
LINE
  8
0
 62
     0
 10
368.332
 20
9.30589
 30
0.0
 11
367.982
 21
8.62376
 31
0.0
  0
LINE
  8
0
 62
     0
 10
367.982
 20
8.62376
 30
0.0
 11
367.863
 21
7.86585
 31
0.0
  0
LINE
  8
0
 62
     0
 10
367.863
 20
7.86585
 30
0.0
 11
367.982
 21
7.11069
 31
0.0
  0
LINE
  8
0
 62
     0
 10
367.982
 20
7.11069
 30
0.0
 11
368.332
 21
6.42856
 31
0.0
  0
LINE
  8
0
 62
     0
 10
368.332
 20
6.42856
 30
0.0
 11
368.871
 21
5.88698
 31
0.0
  0
LINE
  8
0
 62
     0
 10
368.871
 20
5.88698
 30
0.0
 11
369.552
 21
5.5397
 31
0.0
  0
LINE
  8
0
 62
     0
 10
369.552
 20
5.5397
 30
0.0
 11
370.311
 21
5.41983
 31
0.0
  0
LINE
  8
0
 62
     0
 10
370.311
 20
5.41983
 30
0.0
 11
371.066
 21
5.5397
 31
0.0
  0
LINE
  8
0
 62
     0
 10
371.066
 20
5.5397
 30
0.0
 11
371.75
 21
5.88698
 31
0.0
  0
LINE
  8
0
 62
     0
 10
371.75
 20
5.88698
 30
0.0
 11
372.29
 21
6.42856
 31
0.0
  0
LINE
  8
0
 62
     0
 10
372.29
 20
6.42856
 30
0.0
 11
372.639
 21
7.11069
 31
0.0
  0
LINE
  8
0
 62
     0
 10
372.639
 20
7.11069
 30
0.0
 11
372.759
 21
7.86585
 31
0.0
  0
LINE
  8
0
 62
     0
 10
372.759
 20
7.86585
 30
0.0
 11
372.639
 21
8.62376
 31
0.0
  0
LINE
  8
0
 62
     0
 10
372.639
 20
8.62376
 30
0.0
 11
372.29
 21
9.30589
 31
0.0
  0
LINE
  8
0
 62
     0
 10
372.29
 20
9.30589
 30
0.0
 11
371.75
 21
9.84747
 31
0.0
  0
LINE
  8
0
 62
     0
 10
371.75
 20
9.84747
 30
0.0
 11
371.066
 21
10.1947
 31
0.0
  0
LINE
  8
0
 62
     0
 10
371.066
 20
10.1947
 30
0.0
 11
370.311
 21
10.3146
 31
0.0
  0
LINE
  8
0
 62
     0
 10
370.311
 20
10.3146
 30
0.0
 11
369.552
 21
10.1947
 31
0.0
  0
LINE
  8
0
 62
     0
 10
15.1997
 20
134.377
 30
0.0
 11
362.758
 21
134.377
 31
0.0
  0
LINE
  8
0
 62
     0
 10
362.758
 20
134.377
 30
0.0
 11
362.758
 21
15.4189
 31
0.0
  0
LINE
  8
0
 62
     0
 10
362.758
 20
15.4189
 30
0.0
 11
15.1997
 21
15.4189
 31
0.0
  0
LINE
  8
0
 62
     0
 10
15.1997
 20
15.4189
 30
0.0
 11
15.1997
 21
134.377
 31
0.0
  0
LINE
  8
0
 62
     0
 10
6.89158
 20
77.2266
 30
0.0
 11
6.20808
 21
76.878
 31
0.0
  0
LINE
  8
0
 62
     0
 10
6.20808
 20
76.878
 30
0.0
 11
5.66787
 21
76.3379
 31
0.0
  0
LINE
  8
0
 62
     0
 10
5.66787
 20
76.3379
 30
0.0
 11
5.31922
 21
75.6557
 31
0.0
  0
LINE
  8
0
 62
     0
 10
5.31922
 20
75.6557
 30
0.0
 11
5.20072
 21
74.8979
 31
0.0
  0
LINE
  8
0
 62
     0
 10
5.20072
 20
74.8979
 30
0.0
 11
5.31922
 21
74.1426
 31
0.0
  0
LINE
  8
0
 62
     0
 10
5.31922
 20
74.1426
 30
0.0
 11
5.66787
 21
73.4603
 31
0.0
  0
LINE
  8
0
 62
     0
 10
5.66787
 20
73.4603
 30
0.0
 11
6.20808
 21
72.9188
 31
0.0
  0
LINE
  8
0
 62
     0
 10
6.20808
 20
72.9188
 30
0.0
 11
6.89158
 21
72.5717
 31
0.0
  0
LINE
  8
0
 62
     0
 10
6.89158
 20
72.5717
 30
0.0
 11
7.64812
 21
72.4517
 31
0.0
  0
LINE
  8
0
 62
     0
 10
7.64812
 20
72.4517
 30
0.0
 11
8.40327
 21
72.5717
 31
0.0
  0
LINE
  8
0
 62
     0
 10
8.40327
 20
72.5717
 30
0.0
 11
9.08678
 21
72.9188
 31
0.0
  0
LINE
  8
0
 62
     0
 10
9.08678
 20
72.9188
 30
0.0
 11
9.62699
 21
73.4603
 31
0.0
  0
LINE
  8
0
 62
     0
 10
9.62699
 20
73.4603
 30
0.0
 11
9.9756
 21
74.1426
 31
0.0
  0
LINE
  8
0
 62
     0
 10
9.9756
 20
74.1426
 30
0.0
 11
10.0955
 21
74.8979
 31
0.0
  0
LINE
  8
0
 62
     0
 10
10.0955
 20
74.8979
 30
0.0
 11
9.9756
 21
75.6557
 31
0.0
  0
LINE
  8
0
 62
     0
 10
9.9756
 20
75.6557
 30
0.0
 11
9.62699
 21
76.3379
 31
0.0
  0
LINE
  8
0
 62
     0
 10
9.62699
 20
76.3379
 30
0.0
 11
9.08678
 21
76.878
 31
0.0
  0
LINE
  8
0
 62
     0
 10
9.08678
 20
76.878
 30
0.0
 11
8.40327
 21
77.2266
 31
0.0
  0
LINE
  8
0
 62
     0
 10
8.40327
 20
77.2266
 30
0.0
 11
7.64812
 21
77.3465
 31
0.0
  0
LINE
  8
0
 62
     0
 10
7.64812
 20
77.3465
 30
0.0
 11
6.89158
 21
77.2266
 31
0.0
  0
LINE
  8
0
 62
     0
 10
369.552
 20
77.2266
 30
0.0
 11
368.871
 21
76.878
 31
0.0
  0
LINE
  8
0
 62
     0
 10
368.871
 20
76.878
 30
0.0
 11
368.332
 21
76.3379
 31
0.0
  0
LINE
  8
0
 62
     0
 10
368.332
 20
76.3379
 30
0.0
 11
367.982
 21
75.6557
 31
0.0
  0
LINE
  8
0
 62
     0
 10
367.982
 20
75.6557
 30
0.0
 11
367.863
 21
74.8979
 31
0.0
  0
LINE
  8
0
 62
     0
 10
367.863
 20
74.8979
 30
0.0
 11
367.982
 21
74.1426
 31
0.0
  0
LINE
  8
0
 62
     0
 10
367.982
 20
74.1426
 30
0.0
 11
368.332
 21
73.4603
 31
0.0
  0
LINE
  8
0
 62
     0
 10
368.332
 20
73.4603
 30
0.0
 11
368.871
 21
72.9188
 31
0.0
  0
LINE
  8
0
 62
     0
 10
368.871
 20
72.9188
 30
0.0
 11
369.552
 21
72.5717
 31
0.0
  0
LINE
  8
0
 62
     0
 10
369.552
 20
72.5717
 30
0.0
 11
370.311
 21
72.4517
 31
0.0
  0
LINE
  8
0
 62
     0
 10
370.311
 20
72.4517
 30
0.0
 11
371.066
 21
72.5717
 31
0.0
  0
LINE
  8
0
 62
     0
 10
371.066
 20
72.5717
 30
0.0
 11
371.75
 21
72.9188
 31
0.0
  0
LINE
  8
0
 62
     0
 10
371.75
 20
72.9188
 30
0.0
 11
372.29
 21
73.4603
 31
0.0
  0
LINE
  8
0
 62
     0
 10
372.29
 20
73.4603
 30
0.0
 11
372.639
 21
74.1426
 31
0.0
  0
LINE
  8
0
 62
     0
 10
372.639
 20
74.1426
 30
0.0
 11
372.759
 21
74.8979
 31
0.0
  0
LINE
  8
0
 62
     0
 10
372.759
 20
74.8979
 30
0.0
 11
372.639
 21
75.6557
 31
0.0
  0
LINE
  8
0
 62
     0
 10
372.639
 20
75.6557
 30
0.0
 11
372.29
 21
76.3379
 31
0.0
  0
LINE
  8
0
 62
     0
 10
372.29
 20
76.3379
 30
0.0
 11
371.75
 21
76.878
 31
0.0
  0
LINE
  8
0
 62
     0
 10
371.75
 20
76.878
 30
0.0
 11
371.066
 21
77.2266
 31
0.0
  0
LINE
  8
0
 62
     0
 10
371.066
 20
77.2266
 30
0.0
 11
370.311
 21
77.3465
 31
0.0
  0
LINE
  8
0
 62
     0
 10
370.311
 20
77.3465
 30
0.0
 11
369.552
 21
77.2266
 31
0.0
  0
LINE
  8
0
 62
     0
 10
369.552
 20
144.259
 30
0.0
 11
368.871
 21
143.91
 31
0.0
  0
LINE
  8
0
 62
     0
 10
368.871
 20
143.91
 30
0.0
 11
368.332
 21
143.37
 31
0.0
  0
LINE
  8
0
 62
     0
 10
368.332
 20
143.37
 30
0.0
 11
367.982
 21
142.686
 31
0.0
  0
LINE
  8
0
 62
     0
 10
367.982
 20
142.686
 30
0.0
 11
367.863
 21
141.93
 31
0.0
  0
LINE
  8
0
 62
     0
 10
367.863
 20
141.93
 30
0.0
 11
367.982
 21
141.175
 31
0.0
  0
LINE
  8
0
 62
     0
 10
367.982
 20
141.175
 30
0.0
 11
368.332
 21
140.491
 31
0.0
  0
LINE
  8
0
 62
     0
 10
368.332
 20
140.491
 30
0.0
 11
368.871
 21
139.951
 31
0.0
  0
LINE
  8
0
 62
     0
 10
368.871
 20
139.951
 30
0.0
 11
369.552
 21
139.602
 31
0.0
  0
LINE
  8
0
 62
     0
 10
369.552
 20
139.602
 30
0.0
 11
370.311
 21
139.482
 31
0.0
  0
LINE
  8
0
 62
     0
 10
370.311
 20
139.482
 30
0.0
 11
371.066
 21
139.602
 31
0.0
  0
LINE
  8
0
 62
     0
 10
371.066
 20
139.602
 30
0.0
 11
371.75
 21
139.951
 31
0.0
  0
LINE
  8
0
 62
     0
 10
371.75
 20
139.951
 30
0.0
 11
372.29
 21
140.491
 31
0.0
  0
LINE
  8
0
 62
     0
 10
372.29
 20
140.491
 30
0.0
 11
372.639
 21
141.175
 31
0.0
  0
LINE
  8
0
 62
     0
 10
372.639
 20
141.175
 30
0.0
 11
372.759
 21
141.93
 31
0.0
  0
LINE
  8
0
 62
     0
 10
372.759
 20
141.93
 30
0.0
 11
372.639
 21
142.686
 31
0.0
  0
LINE
  8
0
 62
     0
 10
372.639
 20
142.686
 30
0.0
 11
372.29
 21
143.37
 31
0.0
  0
LINE
  8
0
 62
     0
 10
372.29
 20
143.37
 30
0.0
 11
371.75
 21
143.91
 31
0.0
  0
LINE
  8
0
 62
     0
 10
371.75
 20
143.91
 30
0.0
 11
371.066
 21
144.259
 31
0.0
  0
LINE
  8
0
 62
     0
 10
371.066
 20
144.259
 30
0.0
 11
370.311
 21
144.377
 31
0.0
  0
LINE
  8
0
 62
     0
 10
370.311
 20
144.377
 30
0.0
 11
369.552
 21
144.259
 31
0.0
  0
LINE
  8
0
 62
     0
 10
278.889
 20
144.259
 30
0.0
 11
278.207
 21
143.91
 31
0.0
  0
LINE
  8
0
 62
     0
 10
278.207
 20
143.91
 30
0.0
 11
277.665
 21
143.37
 31
0.0
  0
LINE
  8
0
 62
     0
 10
277.665
 20
143.37
 30
0.0
 11
277.318
 21
142.686
 31
0.0
  0
LINE
  8
0
 62
     0
 10
277.318
 20
142.686
 30
0.0
 11
277.198
 21
141.93
 31
0.0
  0
LINE
  8
0
 62
     0
 10
277.198
 20
141.93
 30
0.0
 11
277.318
 21
141.175
 31
0.0
  0
LINE
  8
0
 62
     0
 10
277.318
 20
141.175
 30
0.0
 11
277.665
 21
140.491
 31
0.0
  0
LINE
  8
0
 62
     0
 10
277.665
 20
140.491
 30
0.0
 11
278.207
 21
139.951
 31
0.0
  0
LINE
  8
0
 62
     0
 10
278.207
 20
139.951
 30
0.0
 11
278.889
 21
139.602
 31
0.0
  0
LINE
  8
0
 62
     0
 10
278.889
 20
139.602
 30
0.0
 11
279.645
 21
139.482
 31
0.0
  0
LINE
  8
0
 62
     0
 10
279.645
 20
139.482
 30
0.0
 11
280.402
 21
139.602
 31
0.0
  0
LINE
  8
0
 62
     0
 10
280.402
 20
139.602
 30
0.0
 11
281.084
 21
139.951
 31
0.0
  0
LINE
  8
0
 62
     0
 10
281.084
 20
139.951
 30
0.0
 11
281.626
 21
140.491
 31
0.0
  0
LINE
  8
0
 62
     0
 10
281.626
 20
140.491
 30
0.0
 11
281.973
 21
141.175
 31
0.0
  0
LINE
  8
0
 62
     0
 10
281.973
 20
141.175
 30
0.0
 11
282.093
 21
141.93
 31
0.0
  0
LINE
  8
0
 62
     0
 10
282.093
 20
141.93
 30
0.0
 11
281.973
 21
142.686
 31
0.0
  0
LINE
  8
0
 62
     0
 10
281.973
 20
142.686
 30
0.0
 11
281.626
 21
143.37
 31
0.0
  0
LINE
  8
0
 62
     0
 10
281.626
 20
143.37
 30
0.0
 11
281.084
 21
143.91
 31
0.0
  0
LINE
  8
0
 62
     0
 10
281.084
 20
143.91
 30
0.0
 11
280.402
 21
144.259
 31
0.0
  0
LINE
  8
0
 62
     0
 10
280.402
 20
144.259
 30
0.0
 11
279.645
 21
144.377
 31
0.0
  0
LINE
  8
0
 62
     0
 10
279.645
 20
144.377
 30
0.0
 11
278.889
 21
144.259
 31
0.0
  0
LINE
  8
0
 62
     0
 10
188.222
 20
144.259
 30
0.0
 11
187.54
 21
143.91
 31
0.0
  0
LINE
  8
0
 62
     0
 10
187.54
 20
143.91
 30
0.0
 11
187
 21
143.37
 31
0.0
  0
LINE
  8
0
 62
     0
 10
187
 20
143.37
 30
0.0
 11
186.651
 21
142.686
 31
0.0
  0
LINE
  8
0
 62
     0
 10
186.651
 20
142.686
 30
0.0
 11
186.531
 21
141.93
 31
0.0
  0
LINE
  8
0
 62
     0
 10
186.531
 20
141.93
 30
0.0
 11
186.651
 21
141.175
 31
0.0
  0
LINE
  8
0
 62
     0
 10
186.651
 20
141.175
 30
0.0
 11
187
 21
140.491
 31
0.0
  0
LINE
  8
0
 62
     0
 10
187
 20
140.491
 30
0.0
 11
187.54
 21
139.951
 31
0.0
  0
LINE
  8
0
 62
     0
 10
187.54
 20
139.951
 30
0.0
 11
188.222
 21
139.602
 31
0.0
  0
LINE
  8
0
 62
     0
 10
188.222
 20
139.602
 30
0.0
 11
188.98
 21
139.482
 31
0.0
  0
LINE
  8
0
 62
     0
 10
188.98
 20
139.482
 30
0.0
 11
189.735
 21
139.602
 31
0.0
  0
LINE
  8
0
 62
     0
 10
189.735
 20
139.602
 30
0.0
 11
190.417
 21
139.951
 31
0.0
  0
LINE
  8
0
 62
     0
 10
190.417
 20
139.951
 30
0.0
 11
190.959
 21
140.491
 31
0.0
  0
LINE
  8
0
 62
     0
 10
190.959
 20
140.491
 30
0.0
 11
191.306
 21
141.175
 31
0.0
  0
LINE
  8
0
 62
     0
 10
191.306
 20
141.175
 30
0.0
 11
191.426
 21
141.93
 31
0.0
  0
LINE
  8
0
 62
     0
 10
191.426
 20
141.93
 30
0.0
 11
191.306
 21
142.686
 31
0.0
  0
LINE
  8
0
 62
     0
 10
191.306
 20
142.686
 30
0.0
 11
190.959
 21
143.37
 31
0.0
  0
LINE
  8
0
 62
     0
 10
190.959
 20
143.37
 30
0.0
 11
190.417
 21
143.91
 31
0.0
  0
LINE
  8
0
 62
     0
 10
190.417
 20
143.91
 30
0.0
 11
189.735
 21
144.259
 31
0.0
  0
LINE
  8
0
 62
     0
 10
189.735
 20
144.259
 30
0.0
 11
188.98
 21
144.377
 31
0.0
  0
LINE
  8
0
 62
     0
 10
188.98
 20
144.377
 30
0.0
 11
188.222
 21
144.259
 31
0.0
  0
LINE
  8
0
 62
     0
 10
97.5568
 20
144.259
 30
0.0
 11
96.8745
 21
143.91
 31
0.0
  0
LINE
  8
0
 62
     0
 10
96.8745
 20
143.91
 30
0.0
 11
96.333
 21
143.37
 31
0.0
  0
LINE
  8
0
 62
     0
 10
96.333
 20
143.37
 30
0.0
 11
95.9859
 21
142.686
 31
0.0
  0
LINE
  8
0
 62
     0
 10
95.9859
 20
142.686
 30
0.0
 11
95.866
 21
141.93
 31
0.0
  0
LINE
  8
0
 62
     0
 10
95.866
 20
141.93
 30
0.0
 11
95.9859
 21
141.175
 31
0.0
  0
LINE
  8
0
 62
     0
 10
95.9859
 20
141.175
 30
0.0
 11
96.333
 21
140.491
 31
0.0
  0
LINE
  8
0
 62
     0
 10
96.333
 20
140.491
 30
0.0
 11
96.8745
 21
139.951
 31
0.0
  0
LINE
  8
0
 62
     0
 10
96.8745
 20
139.951
 30
0.0
 11
97.5568
 21
139.602
 31
0.0
  0
LINE
  8
0
 62
     0
 10
97.5568
 20
139.602
 30
0.0
 11
98.3135
 21
139.482
 31
0.0
  0
LINE
  8
0
 62
     0
 10
98.3135
 20
139.482
 30
0.0
 11
99.0699
 21
139.602
 31
0.0
  0
LINE
  8
0
 62
     0
 10
99.0699
 20
139.602
 30
0.0
 11
99.7521
 21
139.951
 31
0.0
  0
LINE
  8
0
 62
     0
 10
99.7521
 20
139.951
 30
0.0
 11
100.294
 21
140.491
 31
0.0
  0
LINE
  8
0
 62
     0
 10
100.294
 20
140.491
 30
0.0
 11
100.641
 21
141.175
 31
0.0
  0
LINE
  8
0
 62
     0
 10
100.641
 20
141.175
 30
0.0
 11
100.761
 21
141.93
 31
0.0
  0
LINE
  8
0
 62
     0
 10
100.761
 20
141.93
 30
0.0
 11
100.641
 21
142.686
 31
0.0
  0
LINE
  8
0
 62
     0
 10
100.641
 20
142.686
 30
0.0
 11
100.294
 21
143.37
 31
0.0
  0
LINE
  8
0
 62
     0
 10
100.294
 20
143.37
 30
0.0
 11
99.7521
 21
143.91
 31
0.0
  0
LINE
  8
0
 62
     0
 10
99.7521
 20
143.91
 30
0.0
 11
99.0699
 21
144.259
 31
0.0
  0
LINE
  8
0
 62
     0
 10
99.0699
 20
144.259
 30
0.0
 11
98.3135
 21
144.377
 31
0.0
  0
LINE
  8
0
 62
     0
 10
98.3135
 20
144.377
 30
0.0
 11
97.5568
 21
144.259
 31
0.0
  0
LINE
  8
0
 62
     0
 10
6.89158
 20
144.259
 30
0.0
 11
6.20808
 21
143.91
 31
0.0
  0
LINE
  8
0
 62
     0
 10
6.20808
 20
143.91
 30
0.0
 11
5.66787
 21
143.37
 31
0.0
  0
LINE
  8
0
 62
     0
 10
5.66787
 20
143.37
 30
0.0
 11
5.31922
 21
142.686
 31
0.0
  0
LINE
  8
0
 62
     0
 10
5.31922
 20
142.686
 30
0.0
 11
5.20072
 21
141.93
 31
0.0
  0
LINE
  8
0
 62
     0
 10
5.20072
 20
141.93
 30
0.0
 11
5.31922
 21
141.175
 31
0.0
  0
LINE
  8
0
 62
     0
 10
5.31922
 20
141.175
 30
0.0
 11
5.66787
 21
140.491
 31
0.0
  0
LINE
  8
0
 62
     0
 10
5.66787
 20
140.491
 30
0.0
 11
6.20808
 21
139.951
 31
0.0
  0
LINE
  8
0
 62
     0
 10
6.20808
 20
139.951
 30
0.0
 11
6.89158
 21
139.602
 31
0.0
  0
LINE
  8
0
 62
     0
 10
6.89158
 20
139.602
 30
0.0
 11
7.64812
 21
139.484
 31
0.0
  0
LINE
  8
0
 62
     0
 10
7.64812
 20
139.484
 30
0.0
 11
8.40327
 21
139.602
 31
0.0
  0
LINE
  8
0
 62
     0
 10
8.40327
 20
139.602
 30
0.0
 11
9.08678
 21
139.951
 31
0.0
  0
LINE
  8
0
 62
     0
 10
9.08678
 20
139.951
 30
0.0
 11
9.62699
 21
140.491
 31
0.0
  0
LINE
  8
0
 62
     0
 10
9.62699
 20
140.491
 30
0.0
 11
9.9756
 21
141.175
 31
0.0
  0
LINE
  8
0
 62
     0
 10
9.9756
 20
141.175
 30
0.0
 11
10.0955
 21
141.93
 31
0.0
  0
LINE
  8
0
 62
     0
 10
10.0955
 20
141.93
 30
0.0
 11
9.9756
 21
142.686
 31
0.0
  0
LINE
  8
0
 62
     0
 10
9.9756
 20
142.686
 30
0.0
 11
9.62699
 21
143.37
 31
0.0
  0
LINE
  8
0
 62
     0
 10
9.62699
 20
143.37
 30
0.0
 11
9.08678
 21
143.91
 31
0.0
  0
LINE
  8
0
 62
     0
 10
9.08678
 20
143.91
 30
0.0
 11
8.40327
 21
144.259
 31
0.0
  0
LINE
  8
0
 62
     0
 10
8.40327
 20
144.259
 30
0.0
 11
7.64812
 21
144.379
 31
0.0
  0
LINE
  8
0
 62
     0
 10
7.64812
 20
144.379
 30
0.0
 11
6.89158
 21
144.259
 31
0.0
  0
ENDSEC
  0
EOF
