999
dxfrw 0.6.3
  0
SECTION
  2
HEADER
  9
$ACADVER
  1
AC1021
  9
$DWGCODEPAGE
  3
ANSI_1252
  9
$INSBASE
 10
0
 20
0
 30
0
  9
$EXTMIN
 10
0.09508460000000001
 20
0.314193
 30
0
  9
$EXTMAX
 10
377.864
 20
149.483
 30
0
  9
$LIMMIN
 10
0
 20
0
  9
$LIMMAX
 10
420
 20
297
  9
$ORTHOMODE
 70
    0
  9
$REGENMODE
 70
    1
  9
$FILLMODE
 70
    0
  9
$QTEXTMODE
 70
    0
  9
$MIRRTEXT
 70
    0
  9
$LTSCALE
 40
1
  9
$ATTMODE
 70
    0
  9
$TEXTSIZE
 40
2.5
  9
$TRACEWID
 40
15.68
  9
$TEXTSTYLE
  7
STANDARD
  9
$CLAYER
  8
0
  9
$CELTYPE
  6
BYLAYER
  9
$CECOLOR
 62
  256
  9
$CELTSCALE
 40
1
  9
$DISPSILH
 70
    0
  9
$DIMSCALE
 40
2.5
  9
$DIMASZ
 40
2.5
  9
$DIMEXO
 40
0.625
  9
$DIMDLI
 40
3.75
  9
$DIMRND
 40
0
  9
$DIMDLE
 40
0
  9
$DIMEXE
 40
1.25
  9
$DIMTP
 40
0
  9
$DIMTM
 40
0
  9
$DIMTXT
 40
2.5
  9
$DIMCEN
 40
2.5
  9
$DIMTSZ
 40
0
  9
$DIMTOL
 70
    0
  9
$DIMLIM
 70
    0
  9
$DIMTIH
 70
    0
  9
$DIMTOH
 70
    0
  9
$DIMSE1
 70
    0
  9
$DIMSE2
 70
    0
  9
$DIMTAD
 70
    1
  9
$DIMZIN
 70
    8
  9
$DIMBLK
  1

  9
$DIMASO
 70
    1
  9
$DIMSHO
 70
    1
  9
$DIMPOST
  1

  9
$DIMAPOST
  1

  9
$DIMALT
 70
    0
  9
$DIMALTD
 70
    3
  9
$DIMALTF
 40
0.03937
  9
$DIMLFAC
 40
1
  9
$DIMTOFL
 70
    1
  9
$DIMTVP
 40
0
  9
$DIMTIX
 70
    0
  9
$DIMSOXD
 70
    0
  9
$DIMSAH
 70
    0
  9
$DIMBLK1
  1

  9
$DIMBLK2
  1

  9
$DIMSTYLE
  2
Standard
  9
$DIMCLRD
 70
    0
  9
$DIMCLRE
 70
    0
  9
$DIMCLRT
 70
    0
  9
$DIMTFAC
 40
1
  9
$DIMGAP
 40
0.625
  9
$DIMJUST
 70
    0
  9
$DIMSD1
 70
    0
  9
$DIMSD2
 70
    0
  9
$DIMTOLJ
 70
    0
  9
$DIMTZIN
 70
    8
  9
$DIMALTZ
 70
    0
  9
$DIMALTTZ
 70
    0
  9
$DIMUPT
 70
    0
  9
$DIMDEC
 70
    2
  9
$DIMTDEC
 70
    2
  9
$DIMALTU
 70
    2
  9
$DIMALTTD
 70
    3
  9
$DIMTXSTY
  7
STANDARD
  9
$DIMAUNIT
 70
    0
  9
$DIMADEC
 70
    0
  9
$DIMALTRND
 40
0
  9
$DIMAZIN
 70
    0
  9
$DIMDSEP
 70
   44
  9
$DIMATFIT
 70
    3
  9
$DIMFRAC
 70
    0
  9
$DIMLDRBLK
  1
STANDARD
  9
$DIMLUNIT
 70
    2
  9
$DIMLWD
 70
   -2
  9
$DIMLWE
 70
   -2
  9
$DIMTMOVE
 70
    0
  9
$DIMFXL
 40
1
  9
$DIMFXLON
 70
    0
  9
$DIMJOGANG
 40
0.7854
  9
$DIMTFILL
 70
    0
  9
$DIMTFILLCLR
 70
    0
  9
$DIMARCSYM
 70
    0
  9
$DIMLTYPE
  6

  9
$DIMLTEX1
  6

  9
$DIMLTEX2
  6

  9
$LUNITS
 70
    2
  9
$LUPREC
 70
    4
  9
$SKETCHINC
 40
1
  9
$FILLETRAD
 40
0
  9
$AUNITS
 70
    0
  9
$AUPREC
 70
    2
  9
$MENU
  1
.
  9
$ELEVATION
 40
0
  9
$PELEVATION
 40
0
  9
$THICKNESS
 40
0
  9
$LIMCHECK
 70
    0
  9
$CHAMFERA
 40
0
  9
$CHAMFERB
 40
0
  9
$CHAMFERC
 40
0
  9
$CHAMFERD
 40
0
  9
$SKPOLY
 70
    0
  9
$USRTIMER
 70
    1
  9
$ANGBASE
 50
0
  9
$ANGDIR
 70
    0
  9
$PDMODE
 70
   34
  9
$PDSIZE
 40
0
  9
$PLINEWID
 40
0
  9
$SPLFRAME
 70
    1
  9
$SPLINETYPE
 70
    2
  9
$SPLINESEGS
 70
    8
  9
$HANDSEED
  5
20000
  9
$SURFTAB1
 70
    6
  9
$SURFTAB2
 70
    6
  9
$SURFTYPE
 70
    6
  9
$SURFU
 70
    6
  9
$SURFV
 70
    6
  9
$UCSBASE
  2

  9
$UCSNAME
  2

  9
$UCSORG
 10
0
 20
0
 30
0
  9
$UCSXDIR
 10
1
 20
0
 30
0
  9
$UCSYDIR
 10
0
 20
1
 30
0
  9
$UCSORTHOREF
  2

  9
$UCSORTHOVIEW
 70
    0
  9
$UCSORGTOP
 10
0
 20
0
 30
0
  9
$UCSORGBOTTOM
 10
0
 20
0
 30
0
  9
$UCSORGLEFT
 10
0
 20
0
 30
0
  9
$UCSORGRIGHT
 10
0
 20
0
 30
0
  9
$UCSORGFRONT
 10
0
 20
0
 30
0
  9
$UCSORGBACK
 10
0
 20
0
 30
0
  9
$PUCSBASE
  2

  9
$PUCSNAME
  2

  9
$PUCSORG
 10
0
 20
0
 30
0
  9
$PUCSXDIR
 10
1
 20
0
 30
0
  9
$PUCSYDIR
 10
0
 20
1
 30
0
  9
$PUCSORTHOREF
  2

  9
$PUCSORTHOVIEW
 70
    0
  9
$PUCSORGTOP
 10
0
 20
0
 30
0
  9
$PUCSORGBOTTOM
 10
0
 20
0
 30
0
  9
$PUCSORGLEFT
 10
0
 20
0
 30
0
  9
$PUCSORGRIGHT
 10
0
 20
0
 30
0
  9
$PUCSORGFRONT
 10
0
 20
0
 30
0
  9
$PUCSORGBACK
 10
0
 20
0
 30
0
  9
$USERI1
 70
    0
  9
$USERI2
 70
    0
  9
$USERI3
 70
    0
  9
$USERI4
 70
    0
  9
$USERI5
 70
    0
  9
$USERR1
 40
0
  9
$USERR2
 40
0
  9
$USERR3
 40
0
  9
$USERR4
 40
0
  9
$USERR5
 40
0
  9
$WORLDVIEW
 70
    1
  9
$SHADEDGE
 70
    3
  9
$SHADEDIF
 70
   70
  9
$TILEMODE
 70
    1
  9
$MAXACTVP
 70
   64
  9
$PINSBASE
 10
0
 20
0
 30
0
  9
$PLIMCHECK
 70
    0
  9
$PEXTMIN
 10
0
 20
0
 30
0
  9
$PEXTMAX
 10
0
 20
0
 30
0
  9
$GRIDMODE
 70
    1
  9
$SNAPSTYLE
 70
    0
  9
$PLIMMIN
 10
0
 20
0
  9
$PLIMMAX
 10
210
 20
297
  9
$UNITMODE
 70
    0
  9
$VISRETAIN
 70
    1
  9
$PLINEGEN
 70
    0
  9
$PSLTSCALE
 70
    1
  9
$TREEDEPTH
 70
 3020
  9
$CMLSTYLE
  2
Standard
  9
$CMLJUST
 70
    0
  9
$CMLSCALE
 40
20
  9
$PROXYGRAPHICS
 70
    1
  9
$MEASUREMENT
 70
    1
  9
$CELWEIGHT
370
   -1
  9
$ENDCAPS
280
    0
  9
$JOINSTYLE
280
    0
  9
$LWDISPLAY
290
    0
  9
$INSUNITS
 70
    4
  9
$HYPERLINKBASE
  1

  9
$STYLESHEET
  1

  9
$XEDIT
290
    1
  9
$CEPSNTYPE
380
    0
  9
$PSTYLEMODE
290
    1
  9
$EXTNAMES
290
    1
  9
$PSVPSCALE
 40
1
  9
$OLESTARTUP
290
    0
  9
$SORTENTS
280
  127
  9
$INDEXCTL
280
    0
  9
$HIDETEXT
280
    1
  9
$XCLIPFRAME
290
    0
  9
$HALOGAP
280
    0
  9
$OBSCOLOR
 70
  257
  9
$OBSLTYPE
280
    0
  9
$INTERSECTIONDISPLAY
280
    0
  9
$INTERSECTIONCOLOR
 70
  257
  9
$DIMASSOC
280
    1
  9
$PROJECTNAME
  1

  9
$CAMERADISPLAY
290
    0
  9
$LENSLENGTH
 40
50
  9
$CAMERAHEIGHT
 40
0
  9
$STEPSPERSEC
 40
2
  9
$STEPSIZE
 40
50
  9
$3DDWFPREC
 40
2
  9
$PSOLWIDTH
 40
5
  9
$PSOLHEIGHT
 40
80
  9
$LOFTANG1
 40
1.570796326794897
  9
$LOFTANG2
 40
1.570796326794897
  9
$LOFTMAG1
 40
0
  9
$LOFTMAG2
 40
0
  9
$LOFTPARAM
 70
    7
  9
$LOFTNORMALS
280
    1
  9
$LATITUDE
 40
1
  9
$LONGITUDE
 40
1
  9
$NORTHDIRECTION
 40
0
  9
$TIMEZONE
 70
-8000
  9
$LIGHTGLYPHDISPLAY
280
    1
  9
$TILEMODELIGHTSYNCH
280
    1
  9
$SOLIDHIST
280
    1
  9
$SHOWHIST
280
    1
  9
$DWFFRAME
280
    2
  9
$DGNFRAME
280
    0
  9
$REALWORLDSCALE
290
    1
  9
$INTERFERECOLOR
 62
    1
  9
$CSHADOW
280
    0
  9
$SHADOWPLANELOCATION
 40
0
  0
ENDSEC
  0
SECTION
  2
CLASSES
  0
ENDSEC
  0
SECTION
  2
TABLES
  0
TABLE
  2
VPORT
  5
8
330
0
100
AcDbSymbolTable
 70
    1
  0
VPORT
  5
31
330
2
100
AcDbSymbolTableRecord
100
AcDbViewportTableRecord
  2
*ACTIVE
 70
    0
 10
0
 20
0
 11
1
 21
1
 12
235.5480060944169
 22
108.0360589575017
 13
0
 23
0
 14
10
 24
10
 15
10
 25
10
 16
0
 26
0
 36
1
 17
0
 27
0
 37
0
 40
311.6142108706171
 41
1.889150943396226
 42
50
 43
0
 44
0
 50
0
 51
0
 71
    0
 72
  100
 73
    1
 74
    3
 75
    0
 76
    1
 77
    0
 78
    0
281
    0
 65
    1
110
0
120
0
130
0
111
1
121
0
131
0
112
0
122
1
132
0
 79
    0
146
0
348
10020
 60
    7
 61
    5
292
1
282
    1
141
0
142
0
 63
  250
421
3358443
  0
ENDTAB
  0
TABLE
  2
LTYPE
  5
5
330
0
100
AcDbSymbolTable
 70
    4
  0
LTYPE
  5
14
330
5
100
AcDbSymbolTableRecord
100
AcDbLinetypeTableRecord
  2
ByBlock
 70
    0
  3

 72
   65
 73
    0
 40
0
  0
LTYPE
  5
15
330
5
100
AcDbSymbolTableRecord
100
AcDbLinetypeTableRecord
  2
ByLayer
 70
    0
  3

 72
   65
 73
    0
 40
0
  0
LTYPE
  5
16
330
5
100
AcDbSymbolTableRecord
100
AcDbLinetypeTableRecord
  2
Continuous
 70
    0
  3
Solid line
 72
   65
 73
    0
 40
0
  0
LTYPE
  5
32
330
5
100
AcDbSymbolTableRecord
100
AcDbLinetypeTableRecord
  2
DOT
 70
    0
  3
Dot . . . . . . . . . . . . . . . . . . . . . .
 72
   65
 73
    2
 40
6.35
 49
0
 74
    0
 49
-6.35
 74
    0
  0
LTYPE
  5
33
330
5
100
AcDbSymbolTableRecord
100
AcDbLinetypeTableRecord
  2
DOTTINY
 70
    0
  3
Dot (.15x) .....................................
 72
   65
 73
    2
 40
0.9525
 49
0
 74
    0
 49
-0.9525
 74
    0
  0
LTYPE
  5
34
330
5
100
AcDbSymbolTableRecord
100
AcDbLinetypeTableRecord
  2
DOT2
 70
    0
  3
Dot (.5x) .....................................
 72
   65
 73
    2
 40
3.175
 49
0
 74
    0
 49
-3.175
 74
    0
  0
LTYPE
  5
35
330
5
100
AcDbSymbolTableRecord
100
AcDbLinetypeTableRecord
  2
DOTX2
 70
    0
  3
Dot (2x) .  .  .  .  .  .  .  .  .  .  .  .  .
 72
   65
 73
    2
 40
12.7
 49
0
 74
    0
 49
-12.7
 74
    0
  0
LTYPE
  5
36
330
5
100
AcDbSymbolTableRecord
100
AcDbLinetypeTableRecord
  2
DASHED
 70
    0
  3
Dashed _ _ _ _ _ _ _ _ _ _ _ _ _ _ _ _ _
 72
   65
 73
    2
 40
19.05
 49
12.7
 74
    0
 49
-6.35
 74
    0
  0
LTYPE
  5
37
330
5
100
AcDbSymbolTableRecord
100
AcDbLinetypeTableRecord
  2
DASHEDTINY
 70
    0
  3
Dashed (.15x) _ _ _ _ _ _ _ _ _ _ _ _ _ _ _ _ _
 72
   65
 73
    2
 40
2.8575
 49
1.905
 74
    0
 49
-0.9525
 74
    0
  0
LTYPE
  5
38
330
5
100
AcDbSymbolTableRecord
100
AcDbLinetypeTableRecord
  2
DASHED2
 70
    0
  3
Dashed (.5x) _ _ _ _ _ _ _ _ _ _ _ _ _ _ _ _ _
 72
   65
 73
    2
 40
9.524999999999999
 49
6.35
 74
    0
 49
-3.175
 74
    0
  0
LTYPE
  5
39
330
5
100
AcDbSymbolTableRecord
100
AcDbLinetypeTableRecord
  2
DASHEDX2
 70
    0
  3
Dashed (2x) ____  ____  ____  ____  ____  ___
 72
   65
 73
    2
 40
38.09999999999999
 49
25.4
 74
    0
 49
-12.7
 74
    0
  0
LTYPE
  5
3A
330
5
100
AcDbSymbolTableRecord
100
AcDbLinetypeTableRecord
  2
DASHDOT
 70
    0
  3
Dash dot __ . __ . __ . __ . __ . __ . __ . __
 72
   65
 73
    4
 40
25.4
 49
12.7
 74
    0
 49
-6.35
 74
    0
 49
0
 74
    0
 49
-6.35
 74
    0
  0
LTYPE
  5
3B
330
5
100
AcDbSymbolTableRecord
100
AcDbLinetypeTableRecord
  2
DASHDOTTINY
 70
    0
  3
Dash dot (.15x) _._._._._._._._._._._._._._._.
 72
   65
 73
    4
 40
3.81
 49
1.905
 74
    0
 49
-0.9525
 74
    0
 49
0
 74
    0
 49
-0.9525
 74
    0
  0
LTYPE
  5
3C
330
5
100
AcDbSymbolTableRecord
100
AcDbLinetypeTableRecord
  2
DASHDOT2
 70
    0
  3
Dash dot (.5x) _._._._._._._._._._._._._._._.
 72
   65
 73
    4
 40
12.7
 49
6.35
 74
    0
 49
-3.175
 74
    0
 49
0
 74
    0
 49
-3.175
 74
    0
  0
LTYPE
  5
3D
330
5
100
AcDbSymbolTableRecord
100
AcDbLinetypeTableRecord
  2
DASHDOTX2
 70
    0
  3
Dash dot (2x) ____  .  ____  .  ____  .  ___
 72
   65
 73
    4
 40
50.8
 49
25.4
 74
    0
 49
-12.7
 74
    0
 49
0
 74
    0
 49
-12.7
 74
    0
  0
LTYPE
  5
3E
330
5
100
AcDbSymbolTableRecord
100
AcDbLinetypeTableRecord
  2
DIVIDE
 70
    0
  3
Divide ____ . . ____ . . ____ . . ____ . . ____
 72
   65
 73
    6
 40
31.75
 49
12.7
 74
    0
 49
-6.35
 74
    0
 49
0
 74
    0
 49
-6.35
 74
    0
 49
0
 74
    0
 49
-6.35
 74
    0
  0
LTYPE
  5
3F
330
5
100
AcDbSymbolTableRecord
100
AcDbLinetypeTableRecord
  2
DIVIDETINY
 70
    0
  3
Divide (.15x) __..__..__..__..__..__..__..__.._
 72
   65
 73
    6
 40
4.7625
 49
1.905
 74
    0
 49
-0.9525
 74
    0
 49
0
 74
    0
 49
-0.9525
 74
    0
 49
0
 74
    0
 49
-0.9525
 74
    0
  0
LTYPE
  5
40
330
5
100
AcDbSymbolTableRecord
100
AcDbLinetypeTableRecord
  2
DIVIDE2
 70
    0
  3
Divide (.5x) __..__..__..__..__..__..__..__.._
 72
   65
 73
    6
 40
15.875
 49
6.35
 74
    0
 49
-3.175
 74
    0
 49
0
 74
    0
 49
-3.175
 74
    0
 49
0
 74
    0
 49
-3.175
 74
    0
  0
LTYPE
  5
41
330
5
100
AcDbSymbolTableRecord
100
AcDbLinetypeTableRecord
  2
DIVIDEX2
 70
    0
  3
Divide (2x) ________  .  .  ________  .  .  _
 72
   65
 73
    6
 40
63.5
 49
25.4
 74
    0
 49
-12.7
 74
    0
 49
0
 74
    0
 49
-12.7
 74
    0
 49
0
 74
    0
 49
-12.7
 74
    0
  0
LTYPE
  5
42
330
5
100
AcDbSymbolTableRecord
100
AcDbLinetypeTableRecord
  2
BORDER
 70
    0
  3
Border __ __ . __ __ . __ __ . __ __ . __ __ .
 72
   65
 73
    6
 40
44.45
 49
12.7
 74
    0
 49
-6.35
 74
    0
 49
12.7
 74
    0
 49
-6.35
 74
    0
 49
0
 74
    0
 49
-6.35
 74
    0
  0
LTYPE
  5
43
330
5
100
AcDbSymbolTableRecord
100
AcDbLinetypeTableRecord
  2
BORDERTINY
 70
    0
  3
Border (.15x) __.__.__.__.__.__.__.__.__.__.__.
 72
   65
 73
    6
 40
6.6675
 49
1.905
 74
    0
 49
-0.9525
 74
    0
 49
1.905
 74
    0
 49
-0.9525
 74
    0
 49
0
 74
    0
 49
-0.9525
 74
    0
  0
LTYPE
  5
44
330
5
100
AcDbSymbolTableRecord
100
AcDbLinetypeTableRecord
  2
BORDER2
 70
    0
  3
Border (.5x) __.__.__.__.__.__.__.__.__.__.__.
 72
   65
 73
    6
 40
22.225
 49
6.35
 74
    0
 49
-3.175
 74
    0
 49
6.35
 74
    0
 49
-3.175
 74
    0
 49
0
 74
    0
 49
-3.175
 74
    0
  0
LTYPE
  5
45
330
5
100
AcDbSymbolTableRecord
100
AcDbLinetypeTableRecord
  2
BORDERX2
 70
    0
  3
Border (2x) ____  ____  .  ____  ____  .  ___
 72
   65
 73
    6
 40
88.89999999999999
 49
25.4
 74
    0
 49
-12.7
 74
    0
 49
25.4
 74
    0
 49
-12.7
 74
    0
 49
0
 74
    0
 49
-12.7
 74
    0
  0
LTYPE
  5
46
330
5
100
AcDbSymbolTableRecord
100
AcDbLinetypeTableRecord
  2
CENTER
 70
    0
  3
Center ____ _ ____ _ ____ _ ____ _ ____ _ ____
 72
   65
 73
    4
 40
50.8
 49
31.75
 74
    0
 49
-6.35
 74
    0
 49
6.35
 74
    0
 49
-6.35
 74
    0
  0
LTYPE
  5
47
330
5
100
AcDbSymbolTableRecord
100
AcDbLinetypeTableRecord
  2
CENTERTINY
 70
    0
  3
Center (.15x) ___ _ ___ _ ___ _ ___ _ ___ _ ___
 72
   65
 73
    4
 40
7.62
 49
4.7625
 74
    0
 49
-0.9525
 74
    0
 49
0.9525
 74
    0
 49
-0.9525
 74
    0
  0
LTYPE
  5
48
330
5
100
AcDbSymbolTableRecord
100
AcDbLinetypeTableRecord
  2
CENTER2
 70
    0
  3
Center (.5x) ___ _ ___ _ ___ _ ___ _ ___ _ ___
 72
   65
 73
    4
 40
28.575
 49
19.05
 74
    0
 49
-3.175
 74
    0
 49
3.175
 74
    0
 49
-3.175
 74
    0
  0
LTYPE
  5
49
330
5
100
AcDbSymbolTableRecord
100
AcDbLinetypeTableRecord
  2
CENTERX2
 70
    0
  3
Center (2x) ________  __  ________  __  _____
 72
   65
 73
    4
 40
101.6
 49
63.5
 74
    0
 49
-12.7
 74
    0
 49
12.7
 74
    0
 49
-12.7
 74
    0
  0
ENDTAB
  0
TABLE
  2
LAYER
  5
2
330
0
100
AcDbSymbolTable
 70
    1
  0
LAYER
  5
10
330
2
100
AcDbSymbolTableRecord
100
AcDbLayerTableRecord
  2
0
 70
    0
 62
    7
  6
CONTINUOUS
370
   -3
390
F
  0
ENDTAB
  0
TABLE
  2
STYLE
  5
3
330
0
100
AcDbSymbolTable
 70
    3
  0
STYLE
  5
4A
330
2
100
AcDbSymbolTableRecord
100
AcDbTextStyleTableRecord
  2
Standard
 70
    0
 40
0
 41
1
 50
0
 71
    0
 42
1
  3
txt
  4

  0
ENDTAB
  0
TABLE
  2
VIEW
  5
6
330
0
100
AcDbSymbolTable
 70
    0
  0
ENDTAB
  0
TABLE
  2
UCS
  5
7
330
0
100
AcDbSymbolTable
 70
    0
  0
ENDTAB
  0
TABLE
  2
APPID
  5
9
330
0
100
AcDbSymbolTable
 70
    1
  0
APPID
  5
12
330
9
100
AcDbSymbolTableRecord
100
AcDbRegAppTableRecord
  2
ACAD
 70
    0
  0
APPID
  5
4B
330
9
100
AcDbSymbolTableRecord
100
AcDbRegAppTableRecord
  2
LibreCad
 70
    0
  0
ENDTAB
  0
TABLE
  2
DIMSTYLE
  5
A
330
0
100
AcDbSymbolTable
 70
    1
100
AcDbDimStyleTable
 71
    1
  0
DIMSTYLE
105
4C
330
A
100
AcDbSymbolTableRecord
100
AcDbDimStyleTableRecord
  2
Standard
 70
    0
 40
1
 41
2.5
 42
0.625
 43
0.38
 44
1.25
 45
0
 46
0
 47
0
 48
0
 49
1
140
2.5
141
0.09
142
2.5
143
25.4
144
1
145
0
146
1
147
0.625
148
0
 71
    0
 72
    0
 73
    0
 74
    1
 75
    0
 76
    0
 77
    0
 78
    1
 79
    0
170
    0
171
    2
172
    0
173
    0
174
    0
175
    0
176
    0
177
    0
178
    0
179
    0
271
    2
272
    4
273
    2
274
    2
275
    0
276
    0
277
    2
278
    0
279
    0
280
    0
281
    0
282
    0
283
    1
284
    0
285
    0
286
    0
288
    0
289
    3
340
standard
341

371
   -2
372
   -2
  0
ENDTAB
  0
TABLE
  2
BLOCK_RECORD
  5
1
330
0
100
AcDbSymbolTable
 70
    2
  0
BLOCK_RECORD
  5
1F
330
1
100
AcDbSymbolTableRecord
100
AcDbBlockTableRecord
  2
*Model_Space
 70
    0
280
    1
281
    0
  0
BLOCK_RECORD
  5
1E
330
1
100
AcDbSymbolTableRecord
100
AcDbBlockTableRecord
  2
*Paper_Space
 70
    0
280
    1
281
    0
  0
ENDTAB
  0
ENDSEC
  0
SECTION
  2
BLOCKS
  0
BLOCK
  5
20
330
1F
100
AcDbEntity
  8
0
100
AcDbBlockBegin
  2
*Model_Space
 70
    0
 10
0
 20
0
 30
0
  3
*Model_Space
  1

  0
ENDBLK
  5
21
330
1F
100
AcDbEntity
  8
0
100
AcDbBlockEnd
  0
BLOCK
  5
1C
330
1B
100
AcDbEntity
  8
0
100
AcDbBlockBegin
  2
*Paper_Space
 70
    0
 10
0
 20
0
 30
0
  3
*Paper_Space
  1

  0
ENDBLK
  5
1D
330
1F
100
AcDbEntity
  8
0
100
AcDbBlockEnd
  0
ENDSEC
  0
SECTION
  2
ENTITIES
  0
LINE
  5
4D
100
AcDbEntity
  8
0
  6
ByLayer
 62
    0
370
   -1
100
AcDbLine
 10
375.864
 20
149.483
 11
376.022
 21
149.476
  0
LINE
  5
4E
100
AcDbEntity
  8
0
  6
ByLayer
 62
    0
370
   -1
100
AcDbLine
 10
376.022
 20
149.476
 11
376.178
 21
149.458
  0
LINE
  5
4F
100
AcDbEntity
  8
0
  6
ByLayer
 62
    0
370
   -1
100
AcDbLine
 10
376.178
 20
149.458
 11
376.329
 21
149.427
  0
LINE
  5
50
100
AcDbEntity
  8
0
  6
ByLayer
 62
    0
370
   -1
100
AcDbLine
 10
376.329
 20
149.427
 11
376.481
 21
149.385
  0
LINE
  5
51
100
AcDbEntity
  8
0
  6
ByLayer
 62
    0
370
   -1
100
AcDbLine
 10
376.481
 20
149.385
 11
376.629
 21
149.33
  0
LINE
  5
52
100
AcDbEntity
  8
0
  6
ByLayer
 62
    0
370
   -1
100
AcDbLine
 10
376.629
 20
149.33
 11
376.77
 21
149.265
  0
LINE
  5
53
100
AcDbEntity
  8
0
  6
ByLayer
 62
    0
370
   -1
100
AcDbLine
 10
376.77
 20
149.265
 11
376.908
 21
149.188
  0
LINE
  5
54
100
AcDbEntity
  8
0
  6
ByLayer
 62
    0
370
   -1
100
AcDbLine
 10
376.908
 20
149.188
 11
377.038
 21
149.101
  0
LINE
  5
55
100
AcDbEntity
  8
0
  6
ByLayer
 62
    0
370
   -1
100
AcDbLine
 10
377.038
 20
149.101
 11
377.162
 21
149.003
  0
LINE
  5
56
100
AcDbEntity
  8
0
  6
ByLayer
 62
    0
370
   -1
100
AcDbLine
 10
377.162
 20
149.003
 11
377.278
 21
148.897
  0
LINE
  5
57
100
AcDbEntity
  8
0
  6
ByLayer
 62
    0
370
   -1
100
AcDbLine
 10
377.278
 20
148.897
 11
377.384
 21
148.781
  0
LINE
  5
58
100
AcDbEntity
  8
0
  6
ByLayer
 62
    0
370
   -1
100
AcDbLine
 10
377.384
 20
148.781
 11
377.483
 21
148.659
  0
LINE
  5
59
100
AcDbEntity
  8
0
  6
ByLayer
 62
    0
370
   -1
100
AcDbLine
 10
377.483
 20
148.659
 11
377.567
 21
148.528
  0
LINE
  5
5A
100
AcDbEntity
  8
0
  6
ByLayer
 62
    0
370
   -1
100
AcDbLine
 10
377.567
 20
148.528
 11
377.645
 21
148.39
  0
LINE
  5
5B
100
AcDbEntity
  8
0
  6
ByLayer
 62
    0
370
   -1
100
AcDbLine
 10
377.645
 20
148.39
 11
377.712
 21
148.248
  0
LINE
  5
5C
100
AcDbEntity
  8
0
  6
ByLayer
 62
    0
370
   -1
100
AcDbLine
 10
377.712
 20
148.248
 11
377.765
 21
148.102
  0
LINE
  5
5D
100
AcDbEntity
  8
0
  6
ByLayer
 62
    0
370
   -1
100
AcDbLine
 10
377.765
 20
148.102
 11
377.807
 21
147.949
  0
LINE
  5
5E
100
AcDbEntity
  8
0
  6
ByLayer
 62
    0
370
   -1
100
AcDbLine
 10
377.807
 20
147.949
 11
377.839
 21
147.796
  0
LINE
  5
5F
100
AcDbEntity
  8
0
  6
ByLayer
 62
    0
370
   -1
100
AcDbLine
 10
377.839
 20
147.796
 11
377.857
 21
147.639
  0
LINE
  5
60
100
AcDbEntity
  8
0
  6
ByLayer
 62
    0
370
   -1
100
AcDbLine
 10
377.857
 20
147.639
 11
377.864
 21
147.482
  0
LINE
  5
61
100
AcDbEntity
  8
0
  6
ByLayer
 62
    0
370
   -1
100
AcDbLine
 10
377.864
 20
147.482
 11
377.864
 21
2.31372
  0
LINE
  5
62
100
AcDbEntity
  8
0
  6
ByLayer
 62
    0
370
   -1
100
AcDbLine
 10
377.864
 20
2.31372
 11
377.857
 21
2.15663
  0
LINE
  5
63
100
AcDbEntity
  8
0
  6
ByLayer
 62
    0
370
   -1
100
AcDbLine
 10
377.857
 20
2.15663
 11
377.839
 21
2.00091
  0
LINE
  5
64
100
AcDbEntity
  8
0
  6
ByLayer
 62
    0
370
   -1
100
AcDbLine
 10
377.839
 20
2.00091
 11
377.807
 21
1.84795
  0
LINE
  5
65
100
AcDbEntity
  8
0
  6
ByLayer
 62
    0
370
   -1
100
AcDbLine
 10
377.807
 20
1.84795
 11
377.765
 21
1.69636
  0
LINE
  5
66
100
AcDbEntity
  8
0
  6
ByLayer
 62
    0
370
   -1
100
AcDbLine
 10
377.765
 20
1.69636
 11
377.712
 21
1.54892
  0
LINE
  5
67
100
AcDbEntity
  8
0
  6
ByLayer
 62
    0
370
   -1
100
AcDbLine
 10
377.712
 20
1.54892
 11
377.645
 21
1.40698
  0
LINE
  5
68
100
AcDbEntity
  8
0
  6
ByLayer
 62
    0
370
   -1
100
AcDbLine
 10
377.645
 20
1.40698
 11
377.567
 21
1.26917
  0
LINE
  5
69
100
AcDbEntity
  8
0
  6
ByLayer
 62
    0
370
   -1
100
AcDbLine
 10
377.567
 20
1.26917
 11
377.483
 21
1.13826
  0
LINE
  5
6A
100
AcDbEntity
  8
0
  6
ByLayer
 62
    0
370
   -1
100
AcDbLine
 10
377.483
 20
1.13826
 11
377.384
 21
1.01562
  0
LINE
  5
6B
100
AcDbEntity
  8
0
  6
ByLayer
 62
    0
370
   -1
100
AcDbLine
 10
377.384
 20
1.01562
 11
377.278
 21
0.899859
  0
LINE
  5
6C
100
AcDbEntity
  8
0
  6
ByLayer
 62
    0
370
   -1
100
AcDbLine
 10
377.278
 20
0.899859
 11
377.162
 21
0.79375
  0
LINE
  5
6D
100
AcDbEntity
  8
0
  6
ByLayer
 62
    0
370
   -1
100
AcDbLine
 10
377.162
 20
0.79375
 11
377.038
 21
0.6959109999999999
  0
LINE
  5
6E
100
AcDbEntity
  8
0
  6
ByLayer
 62
    0
370
   -1
100
AcDbLine
 10
377.038
 20
0.6959109999999999
 11
376.908
 21
0.609092
  0
LINE
  5
6F
100
AcDbEntity
  8
0
  6
ByLayer
 62
    0
370
   -1
100
AcDbLine
 10
376.908
 20
0.609092
 11
376.77
 21
0.531922
  0
LINE
  5
70
100
AcDbEntity
  8
0
  6
ByLayer
 62
    0
370
   -1
100
AcDbLine
 10
376.77
 20
0.531922
 11
376.629
 21
0.465776
  0
LINE
  5
71
100
AcDbEntity
  8
0
  6
ByLayer
 62
    0
370
   -1
100
AcDbLine
 10
376.629
 20
0.465776
 11
376.481
 21
0.412034
  0
LINE
  5
72
100
AcDbEntity
  8
0
  6
ByLayer
 62
    0
370
   -1
100
AcDbLine
 10
376.481
 20
0.412034
 11
376.329
 21
0.369316
  0
LINE
  5
73
100
AcDbEntity
  8
0
  6
ByLayer
 62
    0
370
   -1
100
AcDbLine
 10
376.329
 20
0.369316
 11
376.178
 21
0.338998
  0
LINE
  5
74
100
AcDbEntity
  8
0
  6
ByLayer
 62
    0
370
   -1
100
AcDbLine
 10
376.178
 20
0.338998
 11
376.022
 21
0.319705
  0
LINE
  5
75
100
AcDbEntity
  8
0
  6
ByLayer
 62
    0
370
   -1
100
AcDbLine
 10
376.022
 20
0.319705
 11
375.864
 21
0.314193
  0
LINE
  5
76
100
AcDbEntity
  8
0
  6
ByLayer
 62
    0
370
   -1
100
AcDbLine
 10
375.864
 20
0.314193
 11
2.096
 21
0.314193
  0
LINE
  5
77
100
AcDbEntity
  8
0
  6
ByLayer
 62
    0
370
   -1
100
AcDbLine
 10
2.096
 20
0.314193
 11
1.9389
 21
0.319705
  0
LINE
  5
78
100
AcDbEntity
  8
0
  6
ByLayer
 62
    0
370
   -1
100
AcDbLine
 10
1.9389
 20
0.319705
 11
1.7818
 21
0.338998
  0
LINE
  5
79
100
AcDbEntity
  8
0
  6
ByLayer
 62
    0
370
   -1
100
AcDbLine
 10
1.7818
 20
0.338998
 11
1.62884
 21
0.369316
  0
LINE
  5
7A
100
AcDbEntity
  8
0
  6
ByLayer
 62
    0
370
   -1
100
AcDbLine
 10
1.62884
 20
0.369316
 11
1.47588
 21
0.412034
  0
LINE
  5
7B
100
AcDbEntity
  8
0
  6
ByLayer
 62
    0
370
   -1
100
AcDbLine
 10
1.47588
 20
0.412034
 11
1.32981
 21
0.465776
  0
LINE
  5
7C
100
AcDbEntity
  8
0
  6
ByLayer
 62
    0
370
   -1
100
AcDbLine
 10
1.32981
 20
0.465776
 11
1.18787
 21
0.531922
  0
LINE
  5
7D
100
AcDbEntity
  8
0
  6
ByLayer
 62
    0
370
   -1
100
AcDbLine
 10
1.18787
 20
0.531922
 11
1.05006
 21
0.609092
  0
LINE
  5
7E
100
AcDbEntity
  8
0
  6
ByLayer
 62
    0
370
   -1
100
AcDbLine
 10
1.05006
 20
0.609092
 11
0.919152
 21
0.6959109999999999
  0
LINE
  5
7F
100
AcDbEntity
  8
0
  6
ByLayer
 62
    0
370
   -1
100
AcDbLine
 10
0.919152
 20
0.6959109999999999
 11
0.796505
 21
0.79375
  0
LINE
  5
80
100
AcDbEntity
  8
0
  6
ByLayer
 62
    0
370
   -1
100
AcDbLine
 10
0.796505
 20
0.79375
 11
0.680752
 21
0.899859
  0
LINE
  5
81
100
AcDbEntity
  8
0
  6
ByLayer
 62
    0
370
   -1
100
AcDbLine
 10
0.680752
 20
0.899859
 11
0.574643
 21
1.01562
  0
LINE
  5
82
100
AcDbEntity
  8
0
  6
ByLayer
 62
    0
370
   -1
100
AcDbLine
 10
0.574643
 20
1.01562
 11
0.4768
 21
1.13826
  0
LINE
  5
83
100
AcDbEntity
  8
0
  6
ByLayer
 62
    0
370
   -1
100
AcDbLine
 10
0.4768
 20
1.13826
 11
0.389985
 21
1.26917
  0
LINE
  5
84
100
AcDbEntity
  8
0
  6
ByLayer
 62
    0
370
   -1
100
AcDbLine
 10
0.389985
 20
1.26917
 11
0.312815
 21
1.40698
  0
LINE
  5
85
100
AcDbEntity
  8
0
  6
ByLayer
 62
    0
370
   -1
100
AcDbLine
 10
0.312815
 20
1.40698
 11
0.248047
 21
1.54892
  0
LINE
  5
86
100
AcDbEntity
  8
0
  6
ByLayer
 62
    0
370
   -1
100
AcDbLine
 10
0.248047
 20
1.54892
 11
0.192925
 21
1.69636
  0
LINE
  5
87
100
AcDbEntity
  8
0
  6
ByLayer
 62
    0
370
   -1
100
AcDbLine
 10
0.192925
 20
1.69636
 11
0.150206
 21
1.84795
  0
LINE
  5
88
100
AcDbEntity
  8
0
  6
ByLayer
 62
    0
370
   -1
100
AcDbLine
 10
0.150206
 20
1.84795
 11
0.119889
 21
2.00091
  0
LINE
  5
89
100
AcDbEntity
  8
0
  6
ByLayer
 62
    0
370
   -1
100
AcDbLine
 10
0.119889
 20
2.00091
 11
0.101975
 21
2.15663
  0
LINE
  5
8A
100
AcDbEntity
  8
0
  6
ByLayer
 62
    0
370
   -1
100
AcDbLine
 10
0.101975
 20
2.15663
 11
0.09508460000000001
 21
2.31372
  0
LINE
  5
8B
100
AcDbEntity
  8
0
  6
ByLayer
 62
    0
370
   -1
100
AcDbLine
 10
0.09508460000000001
 20
2.31372
 11
0.09508460000000001
 21
147.482
  0
LINE
  5
8C
100
AcDbEntity
  8
0
  6
ByLayer
 62
    0
370
   -1
100
AcDbLine
 10
0.09508460000000001
 20
147.482
 11
0.101975
 21
147.639
  0
LINE
  5
8D
100
AcDbEntity
  8
0
  6
ByLayer
 62
    0
370
   -1
100
AcDbLine
 10
0.101975
 20
147.639
 11
0.119889
 21
147.796
  0
LINE
  5
8E
100
AcDbEntity
  8
0
  6
ByLayer
 62
    0
370
   -1
100
AcDbLine
 10
0.119889
 20
147.796
 11
0.150206
 21
147.949
  0
LINE
  5
8F
100
AcDbEntity
  8
0
  6
ByLayer
 62
    0
370
   -1
100
AcDbLine
 10
0.150206
 20
147.949
 11
0.192925
 21
148.102
  0
LINE
  5
90
100
AcDbEntity
  8
0
  6
ByLayer
 62
    0
370
   -1
100
AcDbLine
 10
0.192925
 20
148.102
 11
0.248047
 21
148.248
  0
LINE
  5
91
100
AcDbEntity
  8
0
  6
ByLayer
 62
    0
370
   -1
100
AcDbLine
 10
0.248047
 20
148.248
 11
0.312815
 21
148.39
  0
LINE
  5
92
100
AcDbEntity
  8
0
  6
ByLayer
 62
    0
370
   -1
100
AcDbLine
 10
0.312815
 20
148.39
 11
0.389985
 21
148.528
  0
LINE
  5
93
100
AcDbEntity
  8
0
  6
ByLayer
 62
    0
370
   -1
100
AcDbLine
 10
0.389985
 20
148.528
 11
0.4768
 21
148.659
  0
LINE
  5
94
100
AcDbEntity
  8
0
  6
ByLayer
 62
    0
370
   -1
100
AcDbLine
 10
0.4768
 20
148.659
 11
0.574643
 21
148.781
  0
LINE
  5
95
100
AcDbEntity
  8
0
  6
ByLayer
 62
    0
370
   -1
100
AcDbLine
 10
0.574643
 20
148.781
 11
0.680752
 21
148.897
  0
LINE
  5
96
100
AcDbEntity
  8
0
  6
ByLayer
 62
    0
370
   -1
100
AcDbLine
 10
0.680752
 20
148.897
 11
0.796505
 21
149.003
  0
LINE
  5
97
100
AcDbEntity
  8
0
  6
ByLayer
 62
    0
370
   -1
100
AcDbLine
 10
0.796505
 20
149.003
 11
0.919152
 21
149.101
  0
LINE
  5
98
100
AcDbEntity
  8
0
  6
ByLayer
 62
    0
370
   -1
100
AcDbLine
 10
0.919152
 20
149.101
 11
1.05006
 21
149.188
  0
LINE
  5
99
100
AcDbEntity
  8
0
  6
ByLayer
 62
    0
370
   -1
100
AcDbLine
 10
1.05006
 20
149.188
 11
1.18787
 21
149.265
  0
LINE
  5
9A
100
AcDbEntity
  8
0
  6
ByLayer
 62
    0
370
   -1
100
AcDbLine
 10
1.18787
 20
149.265
 11
1.32981
 21
149.33
  0
LINE
  5
9B
100
AcDbEntity
  8
0
  6
ByLayer
 62
    0
370
   -1
100
AcDbLine
 10
1.32981
 20
149.33
 11
1.47588
 21
149.385
  0
LINE
  5
9C
100
AcDbEntity
  8
0
  6
ByLayer
 62
    0
370
   -1
100
AcDbLine
 10
1.47588
 20
149.385
 11
1.62884
 21
149.427
  0
LINE
  5
9D
100
AcDbEntity
  8
0
  6
ByLayer
 62
    0
370
   -1
100
AcDbLine
 10
1.62884
 20
149.427
 11
1.7818
 21
149.458
  0
LINE
  5
9E
100
AcDbEntity
  8
0
  6
ByLayer
 62
    0
370
   -1
100
AcDbLine
 10
1.7818
 20
149.458
 11
1.9389
 21
149.476
  0
LINE
  5
9F
100
AcDbEntity
  8
0
  6
ByLayer
 62
    0
370
   -1
100
AcDbLine
 10
1.9389
 20
149.476
 11
2.096
 21
149.483
  0
LINE
  5
A0
100
AcDbEntity
  8
0
  6
ByLayer
 62
    0
370
   -1
100
AcDbLine
 10
2.096
 20
149.483
 11
375.864
 21
149.483
  0
LINE
  5
A1
100
AcDbEntity
  8
0
  6
ByLayer
 62
    0
370
   -1
100
AcDbLine
 10
6.89158
 20
10.1947
 11
6.20808
 21
9.84747
  0
LINE
  5
A2
100
AcDbEntity
  8
0
  6
ByLayer
 62
    0
370
   -1
100
AcDbLine
 10
6.20808
 20
9.84747
 11
5.66787
 21
9.30589
  0
LINE
  5
A3
100
AcDbEntity
  8
0
  6
ByLayer
 62
    0
370
   -1
100
AcDbLine
 10
5.66787
 20
9.30589
 11
5.31922
 21
8.623760000000001
  0
LINE
  5
A4
100
AcDbEntity
  8
0
  6
ByLayer
 62
    0
370
   -1
100
AcDbLine
 10
5.31922
 20
8.623760000000001
 11
5.20072
 21
7.86585
  0
LINE
  5
A5
100
AcDbEntity
  8
0
  6
ByLayer
 62
    0
370
   -1
100
AcDbLine
 10
5.20072
 20
7.86585
 11
5.31922
 21
7.11069
  0
LINE
  5
A6
100
AcDbEntity
  8
0
  6
ByLayer
 62
    0
370
   -1
100
AcDbLine
 10
5.31922
 20
7.11069
 11
5.66787
 21
6.42856
  0
LINE
  5
A7
100
AcDbEntity
  8
0
  6
ByLayer
 62
    0
370
   -1
100
AcDbLine
 10
5.66787
 20
6.42856
 11
6.20808
 21
5.88698
  0
LINE
  5
A8
100
AcDbEntity
  8
0
  6
ByLayer
 62
    0
370
   -1
100
AcDbLine
 10
6.20808
 20
5.88698
 11
6.89158
 21
5.5397
  0
LINE
  5
A9
100
AcDbEntity
  8
0
  6
ByLayer
 62
    0
370
   -1
100
AcDbLine
 10
6.89158
 20
5.5397
 11
7.64812
 21
5.41983
  0
LINE
  5
AA
100
AcDbEntity
  8
0
  6
ByLayer
 62
    0
370
   -1
100
AcDbLine
 10
7.64812
 20
5.41983
 11
8.403269999999999
 21
5.5397
  0
LINE
  5
AB
100
AcDbEntity
  8
0
  6
ByLayer
 62
    0
370
   -1
100
AcDbLine
 10
8.403269999999999
 20
5.5397
 11
9.086779999999999
 21
5.88698
  0
LINE
  5
AC
100
AcDbEntity
  8
0
  6
ByLayer
 62
    0
370
   -1
100
AcDbLine
 10
9.086779999999999
 20
5.88698
 11
9.626989999999999
 21
6.42856
  0
LINE
  5
AD
100
AcDbEntity
  8
0
  6
ByLayer
 62
    0
370
   -1
100
AcDbLine
 10
9.626989999999999
 20
6.42856
 11
9.9756
 21
7.11069
  0
LINE
  5
AE
100
AcDbEntity
  8
0
  6
ByLayer
 62
    0
370
   -1
100
AcDbLine
 10
9.9756
 20
7.11069
 11
10.0955
 21
7.86585
  0
LINE
  5
AF
100
AcDbEntity
  8
0
  6
ByLayer
 62
    0
370
   -1
100
AcDbLine
 10
10.0955
 20
7.86585
 11
9.9756
 21
8.623760000000001
  0
LINE
  5
B0
100
AcDbEntity
  8
0
  6
ByLayer
 62
    0
370
   -1
100
AcDbLine
 10
9.9756
 20
8.623760000000001
 11
9.626989999999999
 21
9.30589
  0
LINE
  5
B1
100
AcDbEntity
  8
0
  6
ByLayer
 62
    0
370
   -1
100
AcDbLine
 10
9.626989999999999
 20
9.30589
 11
9.086779999999999
 21
9.84747
  0
LINE
  5
B2
100
AcDbEntity
  8
0
  6
ByLayer
 62
    0
370
   -1
100
AcDbLine
 10
9.086779999999999
 20
9.84747
 11
8.403269999999999
 21
10.1947
  0
LINE
  5
B3
100
AcDbEntity
  8
0
  6
ByLayer
 62
    0
370
   -1
100
AcDbLine
 10
8.403269999999999
 20
10.1947
 11
7.64812
 21
10.3146
  0
LINE
  5
B4
100
AcDbEntity
  8
0
  6
ByLayer
 62
    0
370
   -1
100
AcDbLine
 10
7.64812
 20
10.3146
 11
6.89158
 21
10.1947
  0
LINE
  5
B5
100
AcDbEntity
  8
0
  6
ByLayer
 62
    0
370
   -1
100
AcDbLine
 10
97.5568
 20
10.1947
 11
96.8745
 21
9.84747
  0
LINE
  5
B6
100
AcDbEntity
  8
0
  6
ByLayer
 62
    0
370
   -1
100
AcDbLine
 10
96.8745
 20
9.84747
 11
96.333
 21
9.30589
  0
LINE
  5
B7
100
AcDbEntity
  8
0
  6
ByLayer
 62
    0
370
   -1
100
AcDbLine
 10
96.333
 20
9.30589
 11
95.9859
 21
8.623760000000001
  0
LINE
  5
B8
100
AcDbEntity
  8
0
  6
ByLayer
 62
    0
370
   -1
100
AcDbLine
 10
95.9859
 20
8.623760000000001
 11
95.866
 21
7.86585
  0
LINE
  5
B9
100
AcDbEntity
  8
0
  6
ByLayer
 62
    0
370
   -1
100
AcDbLine
 10
95.866
 20
7.86585
 11
95.9859
 21
7.11069
  0
LINE
  5
BA
100
AcDbEntity
  8
0
  6
ByLayer
 62
    0
370
   -1
100
AcDbLine
 10
95.9859
 20
7.11069
 11
96.333
 21
6.42856
  0
LINE
  5
BB
100
AcDbEntity
  8
0
  6
ByLayer
 62
    0
370
   -1
100
AcDbLine
 10
96.333
 20
6.42856
 11
96.8745
 21
5.88698
  0
LINE
  5
BC
100
AcDbEntity
  8
0
  6
ByLayer
 62
    0
370
   -1
100
AcDbLine
 10
96.8745
 20
5.88698
 11
97.5568
 21
5.5397
  0
LINE
  5
BD
100
AcDbEntity
  8
0
  6
ByLayer
 62
    0
370
   -1
100
AcDbLine
 10
97.5568
 20
5.5397
 11
98.3135
 21
5.41983
  0
LINE
  5
BE
100
AcDbEntity
  8
0
  6
ByLayer
 62
    0
370
   -1
100
AcDbLine
 10
98.3135
 20
5.41983
 11
99.0699
 21
5.5397
  0
LINE
  5
BF
100
AcDbEntity
  8
0
  6
ByLayer
 62
    0
370
   -1
100
AcDbLine
 10
99.0699
 20
5.5397
 11
99.7521
 21
5.88698
  0
LINE
  5
C0
100
AcDbEntity
  8
0
  6
ByLayer
 62
    0
370
   -1
100
AcDbLine
 10
99.7521
 20
5.88698
 11
100.294
 21
6.42856
  0
LINE
  5
C1
100
AcDbEntity
  8
0
  6
ByLayer
 62
    0
370
   -1
100
AcDbLine
 10
100.294
 20
6.42856
 11
100.641
 21
7.11069
  0
LINE
  5
C2
100
AcDbEntity
  8
0
  6
ByLayer
 62
    0
370
   -1
100
AcDbLine
 10
100.641
 20
7.11069
 11
100.761
 21
7.86585
  0
LINE
  5
C3
100
AcDbEntity
  8
0
  6
ByLayer
 62
    0
370
   -1
100
AcDbLine
 10
100.761
 20
7.86585
 11
100.641
 21
8.623760000000001
  0
LINE
  5
C4
100
AcDbEntity
  8
0
  6
ByLayer
 62
    0
370
   -1
100
AcDbLine
 10
100.641
 20
8.623760000000001
 11
100.294
 21
9.30589
  0
LINE
  5
C5
100
AcDbEntity
  8
0
  6
ByLayer
 62
    0
370
   -1
100
AcDbLine
 10
100.294
 20
9.30589
 11
99.7521
 21
9.84747
  0
LINE
  5
C6
100
AcDbEntity
  8
0
  6
ByLayer
 62
    0
370
   -1
100
AcDbLine
 10
99.7521
 20
9.84747
 11
99.0699
 21
10.1947
  0
LINE
  5
C7
100
AcDbEntity
  8
0
  6
ByLayer
 62
    0
370
   -1
100
AcDbLine
 10
99.0699
 20
10.1947
 11
98.3135
 21
10.3146
  0
LINE
  5
C8
100
AcDbEntity
  8
0
  6
ByLayer
 62
    0
370
   -1
100
AcDbLine
 10
98.3135
 20
10.3146
 11
97.5568
 21
10.1947
  0
LINE
  5
C9
100
AcDbEntity
  8
0
  6
ByLayer
 62
    0
370
   -1
100
AcDbLine
 10
188.222
 20
10.1947
 11
187.54
 21
9.84747
  0
LINE
  5
CA
100
AcDbEntity
  8
0
  6
ByLayer
 62
    0
370
   -1
100
AcDbLine
 10
187.54
 20
9.84747
 11
187
 21
9.30589
  0
LINE
  5
CB
100
AcDbEntity
  8
0
  6
ByLayer
 62
    0
370
   -1
100
AcDbLine
 10
187
 20
9.30589
 11
186.651
 21
8.623760000000001
  0
LINE
  5
CC
100
AcDbEntity
  8
0
  6
ByLayer
 62
    0
370
   -1
100
AcDbLine
 10
186.651
 20
8.623760000000001
 11
186.531
 21
7.86585
  0
LINE
  5
CD
100
AcDbEntity
  8
0
  6
ByLayer
 62
    0
370
   -1
100
AcDbLine
 10
186.531
 20
7.86585
 11
186.651
 21
7.11069
  0
LINE
  5
CE
100
AcDbEntity
  8
0
  6
ByLayer
 62
    0
370
   -1
100
AcDbLine
 10
186.651
 20
7.11069
 11
187
 21
6.42856
  0
LINE
  5
CF
100
AcDbEntity
  8
0
  6
ByLayer
 62
    0
370
   -1
100
AcDbLine
 10
187
 20
6.42856
 11
187.54
 21
5.88698
  0
LINE
  5
D0
100
AcDbEntity
  8
0
  6
ByLayer
 62
    0
370
   -1
100
AcDbLine
 10
187.54
 20
5.88698
 11
188.222
 21
5.5397
  0
LINE
  5
D1
100
AcDbEntity
  8
0
  6
ByLayer
 62
    0
370
   -1
100
AcDbLine
 10
188.222
 20
5.5397
 11
188.98
 21
5.41983
  0
LINE
  5
D2
100
AcDbEntity
  8
0
  6
ByLayer
 62
    0
370
   -1
100
AcDbLine
 10
188.98
 20
5.41983
 11
189.735
 21
5.5397
  0
LINE
  5
D3
100
AcDbEntity
  8
0
  6
ByLayer
 62
    0
370
   -1
100
AcDbLine
 10
189.735
 20
5.5397
 11
190.417
 21
5.88698
  0
LINE
  5
D4
100
AcDbEntity
  8
0
  6
ByLayer
 62
    0
370
   -1
100
AcDbLine
 10
190.417
 20
5.88698
 11
190.959
 21
6.42856
  0
LINE
  5
D5
100
AcDbEntity
  8
0
  6
ByLayer
 62
    0
370
   -1
100
AcDbLine
 10
190.959
 20
6.42856
 11
191.306
 21
7.11069
  0
LINE
  5
D6
100
AcDbEntity
  8
0
  6
ByLayer
 62
    0
370
   -1
100
AcDbLine
 10
191.306
 20
7.11069
 11
191.426
 21
7.86585
  0
LINE
  5
D7
100
AcDbEntity
  8
0
  6
ByLayer
 62
    0
370
   -1
100
AcDbLine
 10
191.426
 20
7.86585
 11
191.306
 21
8.623760000000001
  0
LINE
  5
D8
100
AcDbEntity
  8
0
  6
ByLayer
 62
    0
370
   -1
100
AcDbLine
 10
191.306
 20
8.623760000000001
 11
190.959
 21
9.30589
  0
LINE
  5
D9
100
AcDbEntity
  8
0
  6
ByLayer
 62
    0
370
   -1
100
AcDbLine
 10
190.959
 20
9.30589
 11
190.417
 21
9.84747
  0
LINE
  5
DA
100
AcDbEntity
  8
0
  6
ByLayer
 62
    0
370
   -1
100
AcDbLine
 10
190.417
 20
9.84747
 11
189.735
 21
10.1947
  0
LINE
  5
DB
100
AcDbEntity
  8
0
  6
ByLayer
 62
    0
370
   -1
100
AcDbLine
 10
189.735
 20
10.1947
 11
188.98
 21
10.3146
  0
LINE
  5
DC
100
AcDbEntity
  8
0
  6
ByLayer
 62
    0
370
   -1
100
AcDbLine
 10
188.98
 20
10.3146
 11
188.222
 21
10.1947
  0
LINE
  5
DD
100
AcDbEntity
  8
0
  6
ByLayer
 62
    0
370
   -1
100
AcDbLine
 10
278.889
 20
10.1947
 11
278.207
 21
9.84747
  0
LINE
  5
DE
100
AcDbEntity
  8
0
  6
ByLayer
 62
    0
370
   -1
100
AcDbLine
 10
278.207
 20
9.84747
 11
277.665
 21
9.30589
  0
LINE
  5
DF
100
AcDbEntity
  8
0
  6
ByLayer
 62
    0
370
   -1
100
AcDbLine
 10
277.665
 20
9.30589
 11
277.318
 21
8.623760000000001
  0
LINE
  5
E0
100
AcDbEntity
  8
0
  6
ByLayer
 62
    0
370
   -1
100
AcDbLine
 10
277.318
 20
8.623760000000001
 11
277.198
 21
7.86585
  0
LINE
  5
E1
100
AcDbEntity
  8
0
  6
ByLayer
 62
    0
370
   -1
100
AcDbLine
 10
277.198
 20
7.86585
 11
277.318
 21
7.11069
  0
LINE
  5
E2
100
AcDbEntity
  8
0
  6
ByLayer
 62
    0
370
   -1
100
AcDbLine
 10
277.318
 20
7.11069
 11
277.665
 21
6.42856
  0
LINE
  5
E3
100
AcDbEntity
  8
0
  6
ByLayer
 62
    0
370
   -1
100
AcDbLine
 10
277.665
 20
6.42856
 11
278.207
 21
5.88698
  0
LINE
  5
E4
100
AcDbEntity
  8
0
  6
ByLayer
 62
    0
370
   -1
100
AcDbLine
 10
278.207
 20
5.88698
 11
278.889
 21
5.5397
  0
LINE
  5
E5
100
AcDbEntity
  8
0
  6
ByLayer
 62
    0
370
   -1
100
AcDbLine
 10
278.889
 20
5.5397
 11
279.645
 21
5.41983
  0
LINE
  5
E6
100
AcDbEntity
  8
0
  6
ByLayer
 62
    0
370
   -1
100
AcDbLine
 10
279.645
 20
5.41983
 11
280.402
 21
5.5397
  0
LINE
  5
E7
100
AcDbEntity
  8
0
  6
ByLayer
 62
    0
370
   -1
100
AcDbLine
 10
280.402
 20
5.5397
 11
281.084
 21
5.88698
  0
LINE
  5
E8
100
AcDbEntity
  8
0
  6
ByLayer
 62
    0
370
   -1
100
AcDbLine
 10
281.084
 20
5.88698
 11
281.626
 21
6.42856
  0
LINE
  5
E9
100
AcDbEntity
  8
0
  6
ByLayer
 62
    0
370
   -1
100
AcDbLine
 10
281.626
 20
6.42856
 11
281.973
 21
7.11069
  0
LINE
  5
EA
100
AcDbEntity
  8
0
  6
ByLayer
 62
    0
370
   -1
100
AcDbLine
 10
281.973
 20
7.11069
 11
282.093
 21
7.86585
  0
LINE
  5
EB
100
AcDbEntity
  8
0
  6
ByLayer
 62
    0
370
   -1
100
AcDbLine
 10
282.093
 20
7.86585
 11
281.973
 21
8.623760000000001
  0
LINE
  5
EC
100
AcDbEntity
  8
0
  6
ByLayer
 62
    0
370
   -1
100
AcDbLine
 10
281.973
 20
8.623760000000001
 11
281.626
 21
9.30589
  0
LINE
  5
ED
100
AcDbEntity
  8
0
  6
ByLayer
 62
    0
370
   -1
100
AcDbLine
 10
281.626
 20
9.30589
 11
281.084
 21
9.84747
  0
LINE
  5
EE
100
AcDbEntity
  8
0
  6
ByLayer
 62
    0
370
   -1
100
AcDbLine
 10
281.084
 20
9.84747
 11
280.402
 21
10.1947
  0
LINE
  5
EF
100
AcDbEntity
  8
0
  6
ByLayer
 62
    0
370
   -1
100
AcDbLine
 10
280.402
 20
10.1947
 11
279.645
 21
10.3146
  0
LINE
  5
F0
100
AcDbEntity
  8
0
  6
ByLayer
 62
    0
370
   -1
100
AcDbLine
 10
279.645
 20
10.3146
 11
278.889
 21
10.1947
  0
LINE
  5
F1
100
AcDbEntity
  8
0
  6
ByLayer
 62
    0
370
   -1
100
AcDbLine
 10
369.552
 20
10.1947
 11
368.871
 21
9.84747
  0
LINE
  5
F2
100
AcDbEntity
  8
0
  6
ByLayer
 62
    0
370
   -1
100
AcDbLine
 10
368.871
 20
9.84747
 11
368.332
 21
9.30589
  0
LINE
  5
F3
100
AcDbEntity
  8
0
  6
ByLayer
 62
    0
370
   -1
100
AcDbLine
 10
368.332
 20
9.30589
 11
367.982
 21
8.623760000000001
  0
LINE
  5
F4
100
AcDbEntity
  8
0
  6
ByLayer
 62
    0
370
   -1
100
AcDbLine
 10
367.982
 20
8.623760000000001
 11
367.863
 21
7.86585
  0
LINE
  5
F5
100
AcDbEntity
  8
0
  6
ByLayer
 62
    0
370
   -1
100
AcDbLine
 10
367.863
 20
7.86585
 11
367.982
 21
7.11069
  0
LINE
  5
F6
100
AcDbEntity
  8
0
  6
ByLayer
 62
    0
370
   -1
100
AcDbLine
 10
367.982
 20
7.11069
 11
368.332
 21
6.42856
  0
LINE
  5
F7
100
AcDbEntity
  8
0
  6
ByLayer
 62
    0
370
   -1
100
AcDbLine
 10
368.332
 20
6.42856
 11
368.871
 21
5.88698
  0
LINE
  5
F8
100
AcDbEntity
  8
0
  6
ByLayer
 62
    0
370
   -1
100
AcDbLine
 10
368.871
 20
5.88698
 11
369.552
 21
5.5397
  0
LINE
  5
F9
100
AcDbEntity
  8
0
  6
ByLayer
 62
    0
370
   -1
100
AcDbLine
 10
369.552
 20
5.5397
 11
370.311
 21
5.41983
  0
LINE
  5
FA
100
AcDbEntity
  8
0
  6
ByLayer
 62
    0
370
   -1
100
AcDbLine
 10
370.311
 20
5.41983
 11
371.066
 21
5.5397
  0
LINE
  5
FB
100
AcDbEntity
  8
0
  6
ByLayer
 62
    0
370
   -1
100
AcDbLine
 10
371.066
 20
5.5397
 11
371.75
 21
5.88698
  0
LINE
  5
FC
100
AcDbEntity
  8
0
  6
ByLayer
 62
    0
370
   -1
100
AcDbLine
 10
371.75
 20
5.88698
 11
372.29
 21
6.42856
  0
LINE
  5
FD
100
AcDbEntity
  8
0
  6
ByLayer
 62
    0
370
   -1
100
AcDbLine
 10
372.29
 20
6.42856
 11
372.639
 21
7.11069
  0
LINE
  5
FE
100
AcDbEntity
  8
0
  6
ByLayer
 62
    0
370
   -1
100
AcDbLine
 10
372.639
 20
7.11069
 11
372.759
 21
7.86585
  0
LINE
  5
FF
100
AcDbEntity
  8
0
  6
ByLayer
 62
    0
370
   -1
100
AcDbLine
 10
372.759
 20
7.86585
 11
372.639
 21
8.623760000000001
  0
LINE
  5
100
100
AcDbEntity
  8
0
  6
ByLayer
 62
    0
370
   -1
100
AcDbLine
 10
372.639
 20
8.623760000000001
 11
372.29
 21
9.30589
  0
LINE
  5
101
100
AcDbEntity
  8
0
  6
ByLayer
 62
    0
370
   -1
100
AcDbLine
 10
372.29
 20
9.30589
 11
371.75
 21
9.84747
  0
LINE
  5
102
100
AcDbEntity
  8
0
  6
ByLayer
 62
    0
370
   -1
100
AcDbLine
 10
371.75
 20
9.84747
 11
371.066
 21
10.1947
  0
LINE
  5
103
100
AcDbEntity
  8
0
  6
ByLayer
 62
    0
370
   -1
100
AcDbLine
 10
371.066
 20
10.1947
 11
370.311
 21
10.3146
  0
LINE
  5
104
100
AcDbEntity
  8
0
  6
ByLayer
 62
    0
370
   -1
100
AcDbLine
 10
370.311
 20
10.3146
 11
369.552
 21
10.1947
  0
LINE
  5
105
100
AcDbEntity
  8
0
  6
ByLayer
 62
    0
370
   -1
100
AcDbLine
 10
139.168
 20
31.8409
 11
139.168
 21
27.1405
  0
LINE
  5
106
100
AcDbEntity
  8
0
  6
ByLayer
 62
    0
370
   -1
100
AcDbLine
 10
139.168
 20
27.1405
 11
99.4378
 21
27.1405
  0
LINE
  5
107
100
AcDbEntity
  8
0
  6
ByLayer
 62
    0
370
   -1
100
AcDbLine
 10
99.4378
 20
27.1405
 11
99.4378
 21
30.3706
  0
LINE
  5
108
100
AcDbEntity
  8
0
  6
ByLayer
 62
    0
370
   -1
100
AcDbLine
 10
99.4378
 20
30.3706
 11
92.7929
 21
30.3706
  0
LINE
  5
109
100
AcDbEntity
  8
0
  6
ByLayer
 62
    0
370
   -1
100
AcDbLine
 10
92.7929
 20
30.3706
 11
92.7929
 21
27.1405
  0
LINE
  5
10A
100
AcDbEntity
  8
0
  6
ByLayer
 62
    0
370
   -1
100
AcDbLine
 10
92.7929
 20
27.1405
 11
91.9688
 21
27.1405
  0
LINE
  5
10B
100
AcDbEntity
  8
0
  6
ByLayer
 62
    0
370
   -1
100
AcDbLine
 10
91.9688
 20
27.1405
 11
91.9688
 21
24.445
  0
LINE
  5
10C
100
AcDbEntity
  8
0
  6
ByLayer
 62
    0
370
   -1
100
AcDbLine
 10
91.9688
 20
24.445
 11
92.7929
 21
24.445
  0
LINE
  5
10D
100
AcDbEntity
  8
0
  6
ByLayer
 62
    0
370
   -1
100
AcDbLine
 10
92.7929
 20
24.445
 11
92.7929
 21
18.1749
  0
LINE
  5
10E
100
AcDbEntity
  8
0
  6
ByLayer
 62
    0
370
   -1
100
AcDbLine
 10
92.7929
 20
18.1749
 11
94.5183
 21
18.1749
  0
LINE
  5
10F
100
AcDbEntity
  8
0
  6
ByLayer
 62
    0
370
   -1
100
AcDbLine
 10
94.5183
 20
18.1749
 11
94.5183
 21
16.9747
  0
LINE
  5
110
100
AcDbEntity
  8
0
  6
ByLayer
 62
    0
370
   -1
100
AcDbLine
 10
94.5183
 20
16.9747
 11
97.71380000000001
 21
16.9747
  0
LINE
  5
111
100
AcDbEntity
  8
0
  6
ByLayer
 62
    0
370
   -1
100
AcDbLine
 10
97.71380000000001
 20
16.9747
 11
97.71380000000001
 21
18.1749
  0
LINE
  5
112
100
AcDbEntity
  8
0
  6
ByLayer
 62
    0
370
   -1
100
AcDbLine
 10
97.71380000000001
 20
18.1749
 11
99.4378
 21
18.1749
  0
LINE
  5
113
100
AcDbEntity
  8
0
  6
ByLayer
 62
    0
370
   -1
100
AcDbLine
 10
99.4378
 20
18.1749
 11
99.4378
 21
22.6453
  0
LINE
  5
114
100
AcDbEntity
  8
0
  6
ByLayer
 62
    0
370
   -1
100
AcDbLine
 10
99.4378
 20
22.6453
 11
139.168
 21
22.6453
  0
LINE
  5
115
100
AcDbEntity
  8
0
  6
ByLayer
 62
    0
370
   -1
100
AcDbLine
 10
139.168
 20
22.6453
 11
139.168
 21
17.9448
  0
LINE
  5
116
100
AcDbEntity
  8
0
  6
ByLayer
 62
    0
370
   -1
100
AcDbLine
 10
139.168
 20
17.9448
 11
153.063
 21
17.9448
  0
LINE
  5
117
100
AcDbEntity
  8
0
  6
ByLayer
 62
    0
370
   -1
100
AcDbLine
 10
153.063
 20
17.9448
 11
153.063
 21
22.6453
  0
LINE
  5
118
100
AcDbEntity
  8
0
  6
ByLayer
 62
    0
370
   -1
100
AcDbLine
 10
153.063
 20
22.6453
 11
192.793
 21
22.6453
  0
LINE
  5
119
100
AcDbEntity
  8
0
  6
ByLayer
 62
    0
370
   -1
100
AcDbLine
 10
192.793
 20
22.6453
 11
192.793
 21
18.1749
  0
LINE
  5
11A
100
AcDbEntity
  8
0
  6
ByLayer
 62
    0
370
   -1
100
AcDbLine
 10
192.793
 20
18.1749
 11
194.518
 21
18.1749
  0
LINE
  5
11B
100
AcDbEntity
  8
0
  6
ByLayer
 62
    0
370
   -1
100
AcDbLine
 10
194.518
 20
18.1749
 11
194.518
 21
16.9747
  0
LINE
  5
11C
100
AcDbEntity
  8
0
  6
ByLayer
 62
    0
370
   -1
100
AcDbLine
 10
194.518
 20
16.9747
 11
197.714
 21
16.9747
  0
LINE
  5
11D
100
AcDbEntity
  8
0
  6
ByLayer
 62
    0
370
   -1
100
AcDbLine
 10
197.714
 20
16.9747
 11
197.714
 21
18.1749
  0
LINE
  5
11E
100
AcDbEntity
  8
0
  6
ByLayer
 62
    0
370
   -1
100
AcDbLine
 10
197.714
 20
18.1749
 11
199.438
 21
18.1749
  0
LINE
  5
11F
100
AcDbEntity
  8
0
  6
ByLayer
 62
    0
370
   -1
100
AcDbLine
 10
199.438
 20
18.1749
 11
199.438
 21
24.445
  0
LINE
  5
120
100
AcDbEntity
  8
0
  6
ByLayer
 62
    0
370
   -1
100
AcDbLine
 10
199.438
 20
24.445
 11
200.263
 21
24.445
  0
LINE
  5
121
100
AcDbEntity
  8
0
  6
ByLayer
 62
    0
370
   -1
100
AcDbLine
 10
200.263
 20
24.445
 11
200.263
 21
27.1405
  0
LINE
  5
122
100
AcDbEntity
  8
0
  6
ByLayer
 62
    0
370
   -1
100
AcDbLine
 10
200.263
 20
27.1405
 11
199.438
 21
27.1405
  0
LINE
  5
123
100
AcDbEntity
  8
0
  6
ByLayer
 62
    0
370
   -1
100
AcDbLine
 10
199.438
 20
27.1405
 11
199.438
 21
30.3706
  0
LINE
  5
124
100
AcDbEntity
  8
0
  6
ByLayer
 62
    0
370
   -1
100
AcDbLine
 10
199.438
 20
30.3706
 11
192.793
 21
30.3706
  0
LINE
  5
125
100
AcDbEntity
  8
0
  6
ByLayer
 62
    0
370
   -1
100
AcDbLine
 10
192.793
 20
30.3706
 11
192.793
 21
27.1405
  0
LINE
  5
126
100
AcDbEntity
  8
0
  6
ByLayer
 62
    0
370
   -1
100
AcDbLine
 10
192.793
 20
27.1405
 11
153.063
 21
27.1405
  0
LINE
  5
127
100
AcDbEntity
  8
0
  6
ByLayer
 62
    0
370
   -1
100
AcDbLine
 10
153.063
 20
27.1405
 11
153.063
 21
31.8409
  0
LINE
  5
128
100
AcDbEntity
  8
0
  6
ByLayer
 62
    0
370
   -1
100
AcDbLine
 10
153.063
 20
31.8409
 11
139.168
 21
31.8409
  0
LINE
  5
129
100
AcDbEntity
  8
0
  6
ByLayer
 62
    0
370
   -1
100
AcDbLine
 10
346.337
 20
31.8409
 11
360.232
 21
31.8409
  0
LINE
  5
12A
100
AcDbEntity
  8
0
  6
ByLayer
 62
    0
370
   -1
100
AcDbLine
 10
360.232
 20
31.8409
 11
360.232
 21
17.9448
  0
LINE
  5
12B
100
AcDbEntity
  8
0
  6
ByLayer
 62
    0
370
   -1
100
AcDbLine
 10
360.232
 20
17.9448
 11
346.337
 21
17.9448
  0
LINE
  5
12C
100
AcDbEntity
  8
0
  6
ByLayer
 62
    0
370
   -1
100
AcDbLine
 10
346.337
 20
17.9448
 11
346.337
 21
31.8409
  0
LINE
  5
12D
100
AcDbEntity
  8
0
  6
ByLayer
 62
    0
370
   -1
100
AcDbLine
 10
327.287
 20
31.8409
 11
341.183
 21
31.8409
  0
LINE
  5
12E
100
AcDbEntity
  8
0
  6
ByLayer
 62
    0
370
   -1
100
AcDbLine
 10
341.183
 20
31.8409
 11
341.183
 21
17.9448
  0
LINE
  5
12F
100
AcDbEntity
  8
0
  6
ByLayer
 62
    0
370
   -1
100
AcDbLine
 10
341.183
 20
17.9448
 11
327.287
 21
17.9448
  0
LINE
  5
130
100
AcDbEntity
  8
0
  6
ByLayer
 62
    0
370
   -1
100
AcDbLine
 10
327.287
 20
17.9448
 11
327.287
 21
31.8409
  0
LINE
  5
131
100
AcDbEntity
  8
0
  6
ByLayer
 62
    0
370
   -1
100
AcDbLine
 10
308.237
 20
31.8409
 11
322.133
 21
31.8409
  0
LINE
  5
132
100
AcDbEntity
  8
0
  6
ByLayer
 62
    0
370
   -1
100
AcDbLine
 10
322.133
 20
31.8409
 11
322.133
 21
17.9448
  0
LINE
  5
133
100
AcDbEntity
  8
0
  6
ByLayer
 62
    0
370
   -1
100
AcDbLine
 10
322.133
 20
17.9448
 11
308.237
 21
17.9448
  0
LINE
  5
134
100
AcDbEntity
  8
0
  6
ByLayer
 62
    0
370
   -1
100
AcDbLine
 10
308.237
 20
17.9448
 11
308.237
 21
31.8409
  0
LINE
  5
135
100
AcDbEntity
  8
0
  6
ByLayer
 62
    0
370
   -1
100
AcDbLine
 10
282.043
 20
31.8409
 11
295.938
 21
31.8409
  0
LINE
  5
136
100
AcDbEntity
  8
0
  6
ByLayer
 62
    0
370
   -1
100
AcDbLine
 10
295.938
 20
31.8409
 11
295.938
 21
17.9448
  0
LINE
  5
137
100
AcDbEntity
  8
0
  6
ByLayer
 62
    0
370
   -1
100
AcDbLine
 10
295.938
 20
17.9448
 11
282.043
 21
17.9448
  0
LINE
  5
138
100
AcDbEntity
  8
0
  6
ByLayer
 62
    0
370
   -1
100
AcDbLine
 10
282.043
 20
17.9448
 11
282.043
 21
31.8409
  0
LINE
  5
139
100
AcDbEntity
  8
0
  6
ByLayer
 62
    0
370
   -1
100
AcDbLine
 10
258.232
 20
31.8409
 11
272.127
 21
31.8409
  0
LINE
  5
13A
100
AcDbEntity
  8
0
  6
ByLayer
 62
    0
370
   -1
100
AcDbLine
 10
272.127
 20
31.8409
 11
272.127
 21
17.9448
  0
LINE
  5
13B
100
AcDbEntity
  8
0
  6
ByLayer
 62
    0
370
   -1
100
AcDbLine
 10
272.127
 20
17.9448
 11
258.232
 21
17.9448
  0
LINE
  5
13C
100
AcDbEntity
  8
0
  6
ByLayer
 62
    0
370
   -1
100
AcDbLine
 10
258.232
 20
17.9448
 11
258.232
 21
31.8409
  0
LINE
  5
13D
100
AcDbEntity
  8
0
  6
ByLayer
 62
    0
370
   -1
100
AcDbLine
 10
234.418
 20
31.8409
 11
248.313
 21
31.8409
  0
LINE
  5
13E
100
AcDbEntity
  8
0
  6
ByLayer
 62
    0
370
   -1
100
AcDbLine
 10
248.313
 20
31.8409
 11
248.313
 21
17.9448
  0
LINE
  5
13F
100
AcDbEntity
  8
0
  6
ByLayer
 62
    0
370
   -1
100
AcDbLine
 10
248.313
 20
17.9448
 11
234.418
 21
17.9448
  0
LINE
  5
140
100
AcDbEntity
  8
0
  6
ByLayer
 62
    0
370
   -1
100
AcDbLine
 10
234.418
 20
17.9448
 11
234.418
 21
31.8409
  0
LINE
  5
141
100
AcDbEntity
  8
0
  6
ByLayer
 62
    0
370
   -1
100
AcDbLine
 10
210.607
 20
31.8409
 11
224.502
 21
31.8409
  0
LINE
  5
142
100
AcDbEntity
  8
0
  6
ByLayer
 62
    0
370
   -1
100
AcDbLine
 10
224.502
 20
31.8409
 11
224.502
 21
17.9448
  0
LINE
  5
143
100
AcDbEntity
  8
0
  6
ByLayer
 62
    0
370
   -1
100
AcDbLine
 10
224.502
 20
17.9448
 11
210.607
 21
17.9448
  0
LINE
  5
144
100
AcDbEntity
  8
0
  6
ByLayer
 62
    0
370
   -1
100
AcDbLine
 10
210.607
 20
17.9448
 11
210.607
 21
31.8409
  0
LINE
  5
145
100
AcDbEntity
  8
0
  6
ByLayer
 62
    0
370
   -1
100
AcDbLine
 10
67.7319
 20
31.8409
 11
81.6268
 21
31.8409
  0
LINE
  5
146
100
AcDbEntity
  8
0
  6
ByLayer
 62
    0
370
   -1
100
AcDbLine
 10
81.6268
 20
31.8409
 11
81.6268
 21
17.9448
  0
LINE
  5
147
100
AcDbEntity
  8
0
  6
ByLayer
 62
    0
370
   -1
100
AcDbLine
 10
81.6268
 20
17.9448
 11
67.7319
 21
17.9448
  0
LINE
  5
148
100
AcDbEntity
  8
0
  6
ByLayer
 62
    0
370
   -1
100
AcDbLine
 10
67.7319
 20
17.9448
 11
67.7319
 21
31.8409
  0
LINE
  5
149
100
AcDbEntity
  8
0
  6
ByLayer
 62
    0
370
   -1
100
AcDbLine
 10
43.918
 20
31.8409
 11
57.8129
 21
31.8409
  0
LINE
  5
14A
100
AcDbEntity
  8
0
  6
ByLayer
 62
    0
370
   -1
100
AcDbLine
 10
57.8129
 20
31.8409
 11
57.8129
 21
17.9448
  0
LINE
  5
14B
100
AcDbEntity
  8
0
  6
ByLayer
 62
    0
370
   -1
100
AcDbLine
 10
57.8129
 20
17.9448
 11
43.918
 21
17.9448
  0
LINE
  5
14C
100
AcDbEntity
  8
0
  6
ByLayer
 62
    0
370
   -1
100
AcDbLine
 10
43.918
 20
17.9448
 11
43.918
 21
31.8409
  0
LINE
  5
14D
100
AcDbEntity
  8
0
  6
ByLayer
 62
    0
370
   -1
100
AcDbLine
 10
20.107
 20
31.8409
 11
34.0017
 21
31.8409
  0
LINE
  5
14E
100
AcDbEntity
  8
0
  6
ByLayer
 62
    0
370
   -1
100
AcDbLine
 10
34.0017
 20
31.8409
 11
34.0017
 21
17.9448
  0
LINE
  5
14F
100
AcDbEntity
  8
0
  6
ByLayer
 62
    0
370
   -1
100
AcDbLine
 10
34.0017
 20
17.9448
 11
20.107
 21
17.9448
  0
LINE
  5
150
100
AcDbEntity
  8
0
  6
ByLayer
 62
    0
370
   -1
100
AcDbLine
 10
20.107
 20
17.9448
 11
20.107
 21
31.8409
  0
LINE
  5
151
100
AcDbEntity
  8
0
  6
ByLayer
 62
    0
370
   -1
100
AcDbLine
 10
259.482
 20
49.4206
 11
259.482
 21
46.1906
  0
LINE
  5
152
100
AcDbEntity
  8
0
  6
ByLayer
 62
    0
370
   -1
100
AcDbLine
 10
259.482
 20
46.1906
 11
258.656
 21
46.1906
  0
LINE
  5
153
100
AcDbEntity
  8
0
  6
ByLayer
 62
    0
370
   -1
100
AcDbLine
 10
258.656
 20
46.1906
 11
258.656
 21
43.495
  0
LINE
  5
154
100
AcDbEntity
  8
0
  6
ByLayer
 62
    0
370
   -1
100
AcDbLine
 10
258.656
 20
43.495
 11
259.482
 21
43.495
  0
LINE
  5
155
100
AcDbEntity
  8
0
  6
ByLayer
 62
    0
370
   -1
100
AcDbLine
 10
259.482
 20
43.495
 11
259.482
 21
37.2251
  0
LINE
  5
156
100
AcDbEntity
  8
0
  6
ByLayer
 62
    0
370
   -1
100
AcDbLine
 10
259.482
 20
37.2251
 11
261.207
 21
37.2251
  0
LINE
  5
157
100
AcDbEntity
  8
0
  6
ByLayer
 62
    0
370
   -1
100
AcDbLine
 10
261.207
 20
37.2251
 11
261.207
 21
36.0246
  0
LINE
  5
158
100
AcDbEntity
  8
0
  6
ByLayer
 62
    0
370
   -1
100
AcDbLine
 10
261.207
 20
36.0246
 11
264.401
 21
36.0246
  0
LINE
  5
159
100
AcDbEntity
  8
0
  6
ByLayer
 62
    0
370
   -1
100
AcDbLine
 10
285.006
 20
36.0246
 11
288.201
 21
36.0246
  0
LINE
  5
15A
100
AcDbEntity
  8
0
  6
ByLayer
 62
    0
370
   -1
100
AcDbLine
 10
288.201
 20
36.0246
 11
288.201
 21
37.2251
  0
LINE
  5
15B
100
AcDbEntity
  8
0
  6
ByLayer
 62
    0
370
   -1
100
AcDbLine
 10
288.201
 20
37.2251
 11
289.927
 21
37.2251
  0
LINE
  5
15C
100
AcDbEntity
  8
0
  6
ByLayer
 62
    0
370
   -1
100
AcDbLine
 10
289.927
 20
37.2251
 11
289.927
 21
43.495
  0
LINE
  5
15D
100
AcDbEntity
  8
0
  6
ByLayer
 62
    0
370
   -1
100
AcDbLine
 10
289.927
 20
43.495
 11
290.751
 21
43.495
  0
LINE
  5
15E
100
AcDbEntity
  8
0
  6
ByLayer
 62
    0
370
   -1
100
AcDbLine
 10
290.751
 20
43.495
 11
290.751
 21
46.1906
  0
LINE
  5
15F
100
AcDbEntity
  8
0
  6
ByLayer
 62
    0
370
   -1
100
AcDbLine
 10
290.751
 20
46.1906
 11
289.927
 21
46.1906
  0
LINE
  5
160
100
AcDbEntity
  8
0
  6
ByLayer
 62
    0
370
   -1
100
AcDbLine
 10
289.927
 20
46.1906
 11
289.927
 21
49.4206
  0
LINE
  5
161
100
AcDbEntity
  8
0
  6
ByLayer
 62
    0
370
   -1
100
AcDbLine
 10
281.652
 20
50.891
 11
267.757
 21
50.891
  0
LINE
  5
162
100
AcDbEntity
  8
0
  6
ByLayer
 62
    0
370
   -1
100
AcDbLine
 10
327.287
 20
50.891
 11
341.183
 21
50.891
  0
LINE
  5
163
100
AcDbEntity
  8
0
  6
ByLayer
 62
    0
370
   -1
100
AcDbLine
 10
341.183
 20
50.891
 11
341.183
 21
36.9947
  0
LINE
  5
164
100
AcDbEntity
  8
0
  6
ByLayer
 62
    0
370
   -1
100
AcDbLine
 10
341.183
 20
36.9947
 11
327.287
 21
36.9947
  0
LINE
  5
165
100
AcDbEntity
  8
0
  6
ByLayer
 62
    0
370
   -1
100
AcDbLine
 10
327.287
 20
36.9947
 11
327.287
 21
50.891
  0
LINE
  5
166
100
AcDbEntity
  8
0
  6
ByLayer
 62
    0
370
   -1
100
AcDbLine
 10
232.037
 20
50.891
 11
245.933
 21
50.891
  0
LINE
  5
167
100
AcDbEntity
  8
0
  6
ByLayer
 62
    0
370
   -1
100
AcDbLine
 10
245.933
 20
50.891
 11
245.933
 21
36.9947
  0
LINE
  5
168
100
AcDbEntity
  8
0
  6
ByLayer
 62
    0
370
   -1
100
AcDbLine
 10
245.933
 20
36.9947
 11
232.037
 21
36.9947
  0
LINE
  5
169
100
AcDbEntity
  8
0
  6
ByLayer
 62
    0
370
   -1
100
AcDbLine
 10
232.037
 20
36.9947
 11
232.037
 21
50.891
  0
LINE
  5
16A
100
AcDbEntity
  8
0
  6
ByLayer
 62
    0
370
   -1
100
AcDbLine
 10
212.987
 20
50.891
 11
226.883
 21
50.891
  0
LINE
  5
16B
100
AcDbEntity
  8
0
  6
ByLayer
 62
    0
370
   -1
100
AcDbLine
 10
226.883
 20
50.891
 11
226.883
 21
36.9947
  0
LINE
  5
16C
100
AcDbEntity
  8
0
  6
ByLayer
 62
    0
370
   -1
100
AcDbLine
 10
226.883
 20
36.9947
 11
212.987
 21
36.9947
  0
LINE
  5
16D
100
AcDbEntity
  8
0
  6
ByLayer
 62
    0
370
   -1
100
AcDbLine
 10
212.987
 20
36.9947
 11
212.987
 21
50.891
  0
LINE
  5
16E
100
AcDbEntity
  8
0
  6
ByLayer
 62
    0
370
   -1
100
AcDbLine
 10
193.937
 20
50.891
 11
207.833
 21
50.891
  0
LINE
  5
16F
100
AcDbEntity
  8
0
  6
ByLayer
 62
    0
370
   -1
100
AcDbLine
 10
207.833
 20
50.891
 11
207.833
 21
36.9947
  0
LINE
  5
170
100
AcDbEntity
  8
0
  6
ByLayer
 62
    0
370
   -1
100
AcDbLine
 10
207.833
 20
36.9947
 11
193.937
 21
36.9947
  0
LINE
  5
171
100
AcDbEntity
  8
0
  6
ByLayer
 62
    0
370
   -1
100
AcDbLine
 10
193.937
 20
36.9947
 11
193.937
 21
50.891
  0
LINE
  5
172
100
AcDbEntity
  8
0
  6
ByLayer
 62
    0
370
   -1
100
AcDbLine
 10
174.887
 20
50.891
 11
188.783
 21
50.891
  0
LINE
  5
173
100
AcDbEntity
  8
0
  6
ByLayer
 62
    0
370
   -1
100
AcDbLine
 10
188.783
 20
50.891
 11
188.783
 21
36.9947
  0
LINE
  5
174
100
AcDbEntity
  8
0
  6
ByLayer
 62
    0
370
   -1
100
AcDbLine
 10
188.783
 20
36.9947
 11
174.887
 21
36.9947
  0
LINE
  5
175
100
AcDbEntity
  8
0
  6
ByLayer
 62
    0
370
   -1
100
AcDbLine
 10
174.887
 20
36.9947
 11
174.887
 21
50.891
  0
LINE
  5
176
100
AcDbEntity
  8
0
  6
ByLayer
 62
    0
370
   -1
100
AcDbLine
 10
155.837
 20
50.891
 11
169.733
 21
50.891
  0
LINE
  5
177
100
AcDbEntity
  8
0
  6
ByLayer
 62
    0
370
   -1
100
AcDbLine
 10
169.733
 20
50.891
 11
169.733
 21
36.9947
  0
LINE
  5
178
100
AcDbEntity
  8
0
  6
ByLayer
 62
    0
370
   -1
100
AcDbLine
 10
169.733
 20
36.9947
 11
155.837
 21
36.9947
  0
LINE
  5
179
100
AcDbEntity
  8
0
  6
ByLayer
 62
    0
370
   -1
100
AcDbLine
 10
155.837
 20
36.9947
 11
155.837
 21
50.891
  0
LINE
  5
17A
100
AcDbEntity
  8
0
  6
ByLayer
 62
    0
370
   -1
100
AcDbLine
 10
136.787
 20
50.891
 11
150.683
 21
50.891
  0
LINE
  5
17B
100
AcDbEntity
  8
0
  6
ByLayer
 62
    0
370
   -1
100
AcDbLine
 10
150.683
 20
50.891
 11
150.683
 21
36.9947
  0
LINE
  5
17C
100
AcDbEntity
  8
0
  6
ByLayer
 62
    0
370
   -1
100
AcDbLine
 10
150.683
 20
36.9947
 11
136.787
 21
36.9947
  0
LINE
  5
17D
100
AcDbEntity
  8
0
  6
ByLayer
 62
    0
370
   -1
100
AcDbLine
 10
136.787
 20
36.9947
 11
136.787
 21
50.891
  0
LINE
  5
17E
100
AcDbEntity
  8
0
  6
ByLayer
 62
    0
370
   -1
100
AcDbLine
 10
117.737
 20
50.891
 11
131.633
 21
50.891
  0
LINE
  5
17F
100
AcDbEntity
  8
0
  6
ByLayer
 62
    0
370
   -1
100
AcDbLine
 10
131.633
 20
50.891
 11
131.633
 21
36.9947
  0
LINE
  5
180
100
AcDbEntity
  8
0
  6
ByLayer
 62
    0
370
   -1
100
AcDbLine
 10
131.633
 20
36.9947
 11
117.737
 21
36.9947
  0
LINE
  5
181
100
AcDbEntity
  8
0
  6
ByLayer
 62
    0
370
   -1
100
AcDbLine
 10
117.737
 20
36.9947
 11
117.737
 21
50.891
  0
LINE
  5
182
100
AcDbEntity
  8
0
  6
ByLayer
 62
    0
370
   -1
100
AcDbLine
 10
98.68680000000001
 20
50.891
 11
112.583
 21
50.891
  0
LINE
  5
183
100
AcDbEntity
  8
0
  6
ByLayer
 62
    0
370
   -1
100
AcDbLine
 10
112.583
 20
50.891
 11
112.583
 21
36.9947
  0
LINE
  5
184
100
AcDbEntity
  8
0
  6
ByLayer
 62
    0
370
   -1
100
AcDbLine
 10
112.583
 20
36.9947
 11
98.68680000000001
 21
36.9947
  0
LINE
  5
185
100
AcDbEntity
  8
0
  6
ByLayer
 62
    0
370
   -1
100
AcDbLine
 10
98.68680000000001
 20
36.9947
 11
98.68680000000001
 21
50.891
  0
LINE
  5
186
100
AcDbEntity
  8
0
  6
ByLayer
 62
    0
370
   -1
100
AcDbLine
 10
79.63679999999999
 20
50.891
 11
93.533
 21
50.891
  0
LINE
  5
187
100
AcDbEntity
  8
0
  6
ByLayer
 62
    0
370
   -1
100
AcDbLine
 10
93.533
 20
50.891
 11
93.533
 21
36.9947
  0
LINE
  5
188
100
AcDbEntity
  8
0
  6
ByLayer
 62
    0
370
   -1
100
AcDbLine
 10
93.533
 20
36.9947
 11
79.63679999999999
 21
36.9947
  0
LINE
  5
189
100
AcDbEntity
  8
0
  6
ByLayer
 62
    0
370
   -1
100
AcDbLine
 10
79.63679999999999
 20
36.9947
 11
79.63679999999999
 21
50.891
  0
LINE
  5
18A
100
AcDbEntity
  8
0
  6
ByLayer
 62
    0
370
   -1
100
AcDbLine
 10
60.5868
 20
50.891
 11
74.483
 21
50.891
  0
LINE
  5
18B
100
AcDbEntity
  8
0
  6
ByLayer
 62
    0
370
   -1
100
AcDbLine
 10
74.483
 20
50.891
 11
74.483
 21
36.9947
  0
LINE
  5
18C
100
AcDbEntity
  8
0
  6
ByLayer
 62
    0
370
   -1
100
AcDbLine
 10
74.483
 20
36.9947
 11
60.5868
 21
36.9947
  0
LINE
  5
18D
100
AcDbEntity
  8
0
  6
ByLayer
 62
    0
370
   -1
100
AcDbLine
 10
60.5868
 20
36.9947
 11
60.5868
 21
50.891
  0
LINE
  5
18E
100
AcDbEntity
  8
0
  6
ByLayer
 62
    0
370
   -1
100
AcDbLine
 10
41.5368
 20
50.891
 11
55.433
 21
50.891
  0
LINE
  5
18F
100
AcDbEntity
  8
0
  6
ByLayer
 62
    0
370
   -1
100
AcDbLine
 10
55.433
 20
50.891
 11
55.433
 21
36.9947
  0
LINE
  5
190
100
AcDbEntity
  8
0
  6
ByLayer
 62
    0
370
   -1
100
AcDbLine
 10
55.433
 20
36.9947
 11
41.5368
 21
36.9947
  0
LINE
  5
191
100
AcDbEntity
  8
0
  6
ByLayer
 62
    0
370
   -1
100
AcDbLine
 10
41.5368
 20
36.9947
 11
41.5368
 21
50.891
  0
LINE
  5
192
100
AcDbEntity
  8
0
  6
ByLayer
 62
    0
370
   -1
100
AcDbLine
 10
20.107
 20
50.891
 11
34.0017
 21
50.891
  0
LINE
  5
193
100
AcDbEntity
  8
0
  6
ByLayer
 62
    0
370
   -1
100
AcDbLine
 10
34.0017
 20
50.891
 11
34.0017
 21
36.9947
  0
LINE
  5
194
100
AcDbEntity
  8
0
  6
ByLayer
 62
    0
370
   -1
100
AcDbLine
 10
34.0017
 20
36.9947
 11
20.107
 21
36.9947
  0
LINE
  5
195
100
AcDbEntity
  8
0
  6
ByLayer
 62
    0
370
   -1
100
AcDbLine
 10
20.107
 20
36.9947
 11
20.107
 21
50.891
  0
LINE
  5
196
100
AcDbEntity
  8
0
  6
ByLayer
 62
    0
370
   -1
100
AcDbLine
 10
260.612
 20
69.941
 11
274.508
 21
69.941
  0
LINE
  5
197
100
AcDbEntity
  8
0
  6
ByLayer
 62
    0
370
   -1
100
AcDbLine
 10
274.508
 20
69.941
 11
274.508
 21
56.0447
  0
LINE
  5
198
100
AcDbEntity
  8
0
  6
ByLayer
 62
    0
370
   -1
100
AcDbLine
 10
274.508
 20
56.0447
 11
260.612
 21
56.0447
  0
LINE
  5
199
100
AcDbEntity
  8
0
  6
ByLayer
 62
    0
370
   -1
100
AcDbLine
 10
260.612
 20
56.0447
 11
260.612
 21
69.941
  0
LINE
  5
19A
100
AcDbEntity
  8
0
  6
ByLayer
 62
    0
370
   -1
100
AcDbLine
 10
241.562
 20
69.941
 11
255.458
 21
69.941
  0
LINE
  5
19B
100
AcDbEntity
  8
0
  6
ByLayer
 62
    0
370
   -1
100
AcDbLine
 10
255.458
 20
69.941
 11
255.458
 21
56.0447
  0
LINE
  5
19C
100
AcDbEntity
  8
0
  6
ByLayer
 62
    0
370
   -1
100
AcDbLine
 10
255.458
 20
56.0447
 11
241.562
 21
56.0447
  0
LINE
  5
19D
100
AcDbEntity
  8
0
  6
ByLayer
 62
    0
370
   -1
100
AcDbLine
 10
241.562
 20
56.0447
 11
241.562
 21
69.941
  0
LINE
  5
19E
100
AcDbEntity
  8
0
  6
ByLayer
 62
    0
370
   -1
100
AcDbLine
 10
222.512
 20
69.941
 11
236.408
 21
69.941
  0
LINE
  5
19F
100
AcDbEntity
  8
0
  6
ByLayer
 62
    0
370
   -1
100
AcDbLine
 10
236.408
 20
69.941
 11
236.408
 21
56.0447
  0
LINE
  5
1A0
100
AcDbEntity
  8
0
  6
ByLayer
 62
    0
370
   -1
100
AcDbLine
 10
236.408
 20
56.0447
 11
222.512
 21
56.0447
  0
LINE
  5
1A1
100
AcDbEntity
  8
0
  6
ByLayer
 62
    0
370
   -1
100
AcDbLine
 10
222.512
 20
56.0447
 11
222.512
 21
69.941
  0
LINE
  5
1A2
100
AcDbEntity
  8
0
  6
ByLayer
 62
    0
370
   -1
100
AcDbLine
 10
203.462
 20
69.941
 11
217.358
 21
69.941
  0
LINE
  5
1A3
100
AcDbEntity
  8
0
  6
ByLayer
 62
    0
370
   -1
100
AcDbLine
 10
217.358
 20
69.941
 11
217.358
 21
56.0447
  0
LINE
  5
1A4
100
AcDbEntity
  8
0
  6
ByLayer
 62
    0
370
   -1
100
AcDbLine
 10
217.358
 20
56.0447
 11
203.462
 21
56.0447
  0
LINE
  5
1A5
100
AcDbEntity
  8
0
  6
ByLayer
 62
    0
370
   -1
100
AcDbLine
 10
203.462
 20
56.0447
 11
203.462
 21
69.941
  0
LINE
  5
1A6
100
AcDbEntity
  8
0
  6
ByLayer
 62
    0
370
   -1
100
AcDbLine
 10
184.412
 20
69.941
 11
198.308
 21
69.941
  0
LINE
  5
1A7
100
AcDbEntity
  8
0
  6
ByLayer
 62
    0
370
   -1
100
AcDbLine
 10
198.308
 20
69.941
 11
198.308
 21
56.0447
  0
LINE
  5
1A8
100
AcDbEntity
  8
0
  6
ByLayer
 62
    0
370
   -1
100
AcDbLine
 10
198.308
 20
56.0447
 11
184.412
 21
56.0447
  0
LINE
  5
1A9
100
AcDbEntity
  8
0
  6
ByLayer
 62
    0
370
   -1
100
AcDbLine
 10
184.412
 20
56.0447
 11
184.412
 21
69.941
  0
LINE
  5
1AA
100
AcDbEntity
  8
0
  6
ByLayer
 62
    0
370
   -1
100
AcDbLine
 10
165.362
 20
69.941
 11
179.258
 21
69.941
  0
LINE
  5
1AB
100
AcDbEntity
  8
0
  6
ByLayer
 62
    0
370
   -1
100
AcDbLine
 10
179.258
 20
69.941
 11
179.258
 21
56.0447
  0
LINE
  5
1AC
100
AcDbEntity
  8
0
  6
ByLayer
 62
    0
370
   -1
100
AcDbLine
 10
179.258
 20
56.0447
 11
165.362
 21
56.0447
  0
LINE
  5
1AD
100
AcDbEntity
  8
0
  6
ByLayer
 62
    0
370
   -1
100
AcDbLine
 10
165.362
 20
56.0447
 11
165.362
 21
69.941
  0
LINE
  5
1AE
100
AcDbEntity
  8
0
  6
ByLayer
 62
    0
370
   -1
100
AcDbLine
 10
146.312
 20
69.941
 11
160.208
 21
69.941
  0
LINE
  5
1AF
100
AcDbEntity
  8
0
  6
ByLayer
 62
    0
370
   -1
100
AcDbLine
 10
160.208
 20
69.941
 11
160.208
 21
56.0447
  0
LINE
  5
1B0
100
AcDbEntity
  8
0
  6
ByLayer
 62
    0
370
   -1
100
AcDbLine
 10
160.208
 20
56.0447
 11
146.312
 21
56.0447
  0
LINE
  5
1B1
100
AcDbEntity
  8
0
  6
ByLayer
 62
    0
370
   -1
100
AcDbLine
 10
146.312
 20
56.0447
 11
146.312
 21
69.941
  0
LINE
  5
1B2
100
AcDbEntity
  8
0
  6
ByLayer
 62
    0
370
   -1
100
AcDbLine
 10
127.262
 20
69.941
 11
141.158
 21
69.941
  0
LINE
  5
1B3
100
AcDbEntity
  8
0
  6
ByLayer
 62
    0
370
   -1
100
AcDbLine
 10
141.158
 20
69.941
 11
141.158
 21
56.0447
  0
LINE
  5
1B4
100
AcDbEntity
  8
0
  6
ByLayer
 62
    0
370
   -1
100
AcDbLine
 10
141.158
 20
56.0447
 11
127.262
 21
56.0447
  0
LINE
  5
1B5
100
AcDbEntity
  8
0
  6
ByLayer
 62
    0
370
   -1
100
AcDbLine
 10
127.262
 20
56.0447
 11
127.262
 21
69.941
  0
LINE
  5
1B6
100
AcDbEntity
  8
0
  6
ByLayer
 62
    0
370
   -1
100
AcDbLine
 10
108.212
 20
69.941
 11
122.108
 21
69.941
  0
LINE
  5
1B7
100
AcDbEntity
  8
0
  6
ByLayer
 62
    0
370
   -1
100
AcDbLine
 10
122.108
 20
69.941
 11
122.108
 21
56.0447
  0
LINE
  5
1B8
100
AcDbEntity
  8
0
  6
ByLayer
 62
    0
370
   -1
100
AcDbLine
 10
122.108
 20
56.0447
 11
108.212
 21
56.0447
  0
LINE
  5
1B9
100
AcDbEntity
  8
0
  6
ByLayer
 62
    0
370
   -1
100
AcDbLine
 10
108.212
 20
56.0447
 11
108.212
 21
69.941
  0
LINE
  5
1BA
100
AcDbEntity
  8
0
  6
ByLayer
 62
    0
370
   -1
100
AcDbLine
 10
89.1618
 20
69.941
 11
103.058
 21
69.941
  0
LINE
  5
1BB
100
AcDbEntity
  8
0
  6
ByLayer
 62
    0
370
   -1
100
AcDbLine
 10
103.058
 20
69.941
 11
103.058
 21
56.0447
  0
LINE
  5
1BC
100
AcDbEntity
  8
0
  6
ByLayer
 62
    0
370
   -1
100
AcDbLine
 10
103.058
 20
56.0447
 11
89.1618
 21
56.0447
  0
LINE
  5
1BD
100
AcDbEntity
  8
0
  6
ByLayer
 62
    0
370
   -1
100
AcDbLine
 10
89.1618
 20
56.0447
 11
89.1618
 21
69.941
  0
LINE
  5
1BE
100
AcDbEntity
  8
0
  6
ByLayer
 62
    0
370
   -1
100
AcDbLine
 10
70.1118
 20
69.941
 11
84.008
 21
69.941
  0
LINE
  5
1BF
100
AcDbEntity
  8
0
  6
ByLayer
 62
    0
370
   -1
100
AcDbLine
 10
84.008
 20
69.941
 11
84.008
 21
56.0447
  0
LINE
  5
1C0
100
AcDbEntity
  8
0
  6
ByLayer
 62
    0
370
   -1
100
AcDbLine
 10
84.008
 20
56.0447
 11
70.1118
 21
56.0447
  0
LINE
  5
1C1
100
AcDbEntity
  8
0
  6
ByLayer
 62
    0
370
   -1
100
AcDbLine
 10
70.1118
 20
56.0447
 11
70.1118
 21
69.941
  0
LINE
  5
1C2
100
AcDbEntity
  8
0
  6
ByLayer
 62
    0
370
   -1
100
AcDbLine
 10
51.0618
 20
69.941
 11
64.958
 21
69.941
  0
LINE
  5
1C3
100
AcDbEntity
  8
0
  6
ByLayer
 62
    0
370
   -1
100
AcDbLine
 10
64.958
 20
69.941
 11
64.958
 21
56.0447
  0
LINE
  5
1C4
100
AcDbEntity
  8
0
  6
ByLayer
 62
    0
370
   -1
100
AcDbLine
 10
64.958
 20
56.0447
 11
51.0618
 21
56.0447
  0
LINE
  5
1C5
100
AcDbEntity
  8
0
  6
ByLayer
 62
    0
370
   -1
100
AcDbLine
 10
51.0618
 20
56.0447
 11
51.0618
 21
69.941
  0
LINE
  5
1C6
100
AcDbEntity
  8
0
  6
ByLayer
 62
    0
370
   -1
100
AcDbLine
 10
24.8681
 20
69.941
 11
38.7629
 21
69.941
  0
LINE
  5
1C7
100
AcDbEntity
  8
0
  6
ByLayer
 62
    0
370
   -1
100
AcDbLine
 10
38.7629
 20
69.941
 11
38.7629
 21
56.0447
  0
LINE
  5
1C8
100
AcDbEntity
  8
0
  6
ByLayer
 62
    0
370
   -1
100
AcDbLine
 10
38.7629
 20
56.0447
 11
24.8681
 21
56.0447
  0
LINE
  5
1C9
100
AcDbEntity
  8
0
  6
ByLayer
 62
    0
370
   -1
100
AcDbLine
 10
24.8681
 20
56.0447
 11
24.8681
 21
69.941
  0
LINE
  5
1CA
100
AcDbEntity
  8
0
  6
ByLayer
 62
    0
370
   -1
100
AcDbLine
 10
288.543
 20
88.5652
 11
288.543
 21
87.7397
  0
LINE
  5
1CB
100
AcDbEntity
  8
0
  6
ByLayer
 62
    0
370
   -1
100
AcDbLine
 10
288.543
 20
87.7397
 11
282.273
 21
87.7397
  0
LINE
  5
1CC
100
AcDbEntity
  8
0
  6
ByLayer
 62
    0
370
   -1
100
AcDbLine
 10
282.273
 20
87.7397
 11
282.273
 21
86.0157
  0
LINE
  5
1CD
100
AcDbEntity
  8
0
  6
ByLayer
 62
    0
370
   -1
100
AcDbLine
 10
282.273
 20
86.0157
 11
281.073
 21
86.0157
  0
LINE
  5
1CE
100
AcDbEntity
  8
0
  6
ByLayer
 62
    0
370
   -1
100
AcDbLine
 10
281.073
 20
86.0157
 11
281.073
 21
82.8202
  0
LINE
  5
1CF
100
AcDbEntity
  8
0
  6
ByLayer
 62
    0
370
   -1
100
AcDbLine
 10
281.073
 20
62.2155
 11
281.073
 21
59.0201
  0
LINE
  5
1D0
100
AcDbEntity
  8
0
  6
ByLayer
 62
    0
370
   -1
100
AcDbLine
 10
281.073
 20
59.0201
 11
282.273
 21
59.0201
  0
LINE
  5
1D1
100
AcDbEntity
  8
0
  6
ByLayer
 62
    0
370
   -1
100
AcDbLine
 10
282.273
 20
59.0201
 11
282.273
 21
57.2946
  0
LINE
  5
1D2
100
AcDbEntity
  8
0
  6
ByLayer
 62
    0
370
   -1
100
AcDbLine
 10
282.273
 20
57.2946
 11
288.543
 21
57.2946
  0
LINE
  5
1D3
100
AcDbEntity
  8
0
  6
ByLayer
 62
    0
370
   -1
100
AcDbLine
 10
288.543
 20
57.2946
 11
288.543
 21
56.4706
  0
LINE
  5
1D4
100
AcDbEntity
  8
0
  6
ByLayer
 62
    0
370
   -1
100
AcDbLine
 10
288.543
 20
56.4706
 11
291.239
 21
56.4706
  0
LINE
  5
1D5
100
AcDbEntity
  8
0
  6
ByLayer
 62
    0
370
   -1
100
AcDbLine
 10
291.239
 20
56.4706
 11
291.239
 21
57.2946
  0
LINE
  5
1D6
100
AcDbEntity
  8
0
  6
ByLayer
 62
    0
370
   -1
100
AcDbLine
 10
291.239
 20
57.2946
 11
294.469
 21
57.2946
  0
LINE
  5
1D7
100
AcDbEntity
  8
0
  6
ByLayer
 62
    0
370
   -1
100
AcDbLine
 10
295.938
 20
65.5697
 11
295.938
 21
79.46599999999999
  0
LINE
  5
1D8
100
AcDbEntity
  8
0
  6
ByLayer
 62
    0
370
   -1
100
AcDbLine
 10
294.469
 20
87.7397
 11
291.239
 21
87.7397
  0
LINE
  5
1D9
100
AcDbEntity
  8
0
  6
ByLayer
 62
    0
370
   -1
100
AcDbLine
 10
291.239
 20
87.7397
 11
291.239
 21
88.5652
  0
LINE
  5
1DA
100
AcDbEntity
  8
0
  6
ByLayer
 62
    0
370
   -1
100
AcDbLine
 10
291.239
 20
88.5652
 11
288.543
 21
88.5652
  0
LINE
  5
1DB
100
AcDbEntity
  8
0
  6
ByLayer
 62
    0
370
   -1
100
AcDbLine
 10
6.89158
 20
77.2266
 11
6.20808
 21
76.878
  0
LINE
  5
1DC
100
AcDbEntity
  8
0
  6
ByLayer
 62
    0
370
   -1
100
AcDbLine
 10
6.20808
 20
76.878
 11
5.66787
 21
76.3379
  0
LINE
  5
1DD
100
AcDbEntity
  8
0
  6
ByLayer
 62
    0
370
   -1
100
AcDbLine
 10
5.66787
 20
76.3379
 11
5.31922
 21
75.6557
  0
LINE
  5
1DE
100
AcDbEntity
  8
0
  6
ByLayer
 62
    0
370
   -1
100
AcDbLine
 10
5.31922
 20
75.6557
 11
5.20072
 21
74.89790000000001
  0
LINE
  5
1DF
100
AcDbEntity
  8
0
  6
ByLayer
 62
    0
370
   -1
100
AcDbLine
 10
5.20072
 20
74.89790000000001
 11
5.31922
 21
74.1426
  0
LINE
  5
1E0
100
AcDbEntity
  8
0
  6
ByLayer
 62
    0
370
   -1
100
AcDbLine
 10
5.31922
 20
74.1426
 11
5.66787
 21
73.4603
  0
LINE
  5
1E1
100
AcDbEntity
  8
0
  6
ByLayer
 62
    0
370
   -1
100
AcDbLine
 10
5.66787
 20
73.4603
 11
6.20808
 21
72.9188
  0
LINE
  5
1E2
100
AcDbEntity
  8
0
  6
ByLayer
 62
    0
370
   -1
100
AcDbLine
 10
6.20808
 20
72.9188
 11
6.89158
 21
72.57170000000001
  0
LINE
  5
1E3
100
AcDbEntity
  8
0
  6
ByLayer
 62
    0
370
   -1
100
AcDbLine
 10
6.89158
 20
72.57170000000001
 11
7.64812
 21
72.4517
  0
LINE
  5
1E4
100
AcDbEntity
  8
0
  6
ByLayer
 62
    0
370
   -1
100
AcDbLine
 10
7.64812
 20
72.4517
 11
8.403269999999999
 21
72.57170000000001
  0
LINE
  5
1E5
100
AcDbEntity
  8
0
  6
ByLayer
 62
    0
370
   -1
100
AcDbLine
 10
8.403269999999999
 20
72.57170000000001
 11
9.086779999999999
 21
72.9188
  0
LINE
  5
1E6
100
AcDbEntity
  8
0
  6
ByLayer
 62
    0
370
   -1
100
AcDbLine
 10
9.086779999999999
 20
72.9188
 11
9.626989999999999
 21
73.4603
  0
LINE
  5
1E7
100
AcDbEntity
  8
0
  6
ByLayer
 62
    0
370
   -1
100
AcDbLine
 10
9.626989999999999
 20
73.4603
 11
9.9756
 21
74.1426
  0
LINE
  5
1E8
100
AcDbEntity
  8
0
  6
ByLayer
 62
    0
370
   -1
100
AcDbLine
 10
9.9756
 20
74.1426
 11
10.0955
 21
74.89790000000001
  0
LINE
  5
1E9
100
AcDbEntity
  8
0
  6
ByLayer
 62
    0
370
   -1
100
AcDbLine
 10
10.0955
 20
74.89790000000001
 11
9.9756
 21
75.6557
  0
LINE
  5
1EA
100
AcDbEntity
  8
0
  6
ByLayer
 62
    0
370
   -1
100
AcDbLine
 10
9.9756
 20
75.6557
 11
9.626989999999999
 21
76.3379
  0
LINE
  5
1EB
100
AcDbEntity
  8
0
  6
ByLayer
 62
    0
370
   -1
100
AcDbLine
 10
9.626989999999999
 20
76.3379
 11
9.086779999999999
 21
76.878
  0
LINE
  5
1EC
100
AcDbEntity
  8
0
  6
ByLayer
 62
    0
370
   -1
100
AcDbLine
 10
9.086779999999999
 20
76.878
 11
8.403269999999999
 21
77.2266
  0
LINE
  5
1ED
100
AcDbEntity
  8
0
  6
ByLayer
 62
    0
370
   -1
100
AcDbLine
 10
8.403269999999999
 20
77.2266
 11
7.64812
 21
77.34650000000001
  0
LINE
  5
1EE
100
AcDbEntity
  8
0
  6
ByLayer
 62
    0
370
   -1
100
AcDbLine
 10
7.64812
 20
77.34650000000001
 11
6.89158
 21
77.2266
  0
LINE
  5
1EF
100
AcDbEntity
  8
0
  6
ByLayer
 62
    0
370
   -1
100
AcDbLine
 10
369.552
 20
77.2266
 11
368.871
 21
76.878
  0
LINE
  5
1F0
100
AcDbEntity
  8
0
  6
ByLayer
 62
    0
370
   -1
100
AcDbLine
 10
368.871
 20
76.878
 11
368.332
 21
76.3379
  0
LINE
  5
1F1
100
AcDbEntity
  8
0
  6
ByLayer
 62
    0
370
   -1
100
AcDbLine
 10
368.332
 20
76.3379
 11
367.982
 21
75.6557
  0
LINE
  5
1F2
100
AcDbEntity
  8
0
  6
ByLayer
 62
    0
370
   -1
100
AcDbLine
 10
367.982
 20
75.6557
 11
367.863
 21
74.89790000000001
  0
LINE
  5
1F3
100
AcDbEntity
  8
0
  6
ByLayer
 62
    0
370
   -1
100
AcDbLine
 10
367.863
 20
74.89790000000001
 11
367.982
 21
74.1426
  0
LINE
  5
1F4
100
AcDbEntity
  8
0
  6
ByLayer
 62
    0
370
   -1
100
AcDbLine
 10
367.982
 20
74.1426
 11
368.332
 21
73.4603
  0
LINE
  5
1F5
100
AcDbEntity
  8
0
  6
ByLayer
 62
    0
370
   -1
100
AcDbLine
 10
368.332
 20
73.4603
 11
368.871
 21
72.9188
  0
LINE
  5
1F6
100
AcDbEntity
  8
0
  6
ByLayer
 62
    0
370
   -1
100
AcDbLine
 10
368.871
 20
72.9188
 11
369.552
 21
72.57170000000001
  0
LINE
  5
1F7
100
AcDbEntity
  8
0
  6
ByLayer
 62
    0
370
   -1
100
AcDbLine
 10
369.552
 20
72.57170000000001
 11
370.311
 21
72.4517
  0
LINE
  5
1F8
100
AcDbEntity
  8
0
  6
ByLayer
 62
    0
370
   -1
100
AcDbLine
 10
370.311
 20
72.4517
 11
371.066
 21
72.57170000000001
  0
LINE
  5
1F9
100
AcDbEntity
  8
0
  6
ByLayer
 62
    0
370
   -1
100
AcDbLine
 10
371.066
 20
72.57170000000001
 11
371.75
 21
72.9188
  0
LINE
  5
1FA
100
AcDbEntity
  8
0
  6
ByLayer
 62
    0
370
   -1
100
AcDbLine
 10
371.75
 20
72.9188
 11
372.29
 21
73.4603
  0
LINE
  5
1FB
100
AcDbEntity
  8
0
  6
ByLayer
 62
    0
370
   -1
100
AcDbLine
 10
372.29
 20
73.4603
 11
372.639
 21
74.1426
  0
LINE
  5
1FC
100
AcDbEntity
  8
0
  6
ByLayer
 62
    0
370
   -1
100
AcDbLine
 10
372.639
 20
74.1426
 11
372.759
 21
74.89790000000001
  0
LINE
  5
1FD
100
AcDbEntity
  8
0
  6
ByLayer
 62
    0
370
   -1
100
AcDbLine
 10
372.759
 20
74.89790000000001
 11
372.639
 21
75.6557
  0
LINE
  5
1FE
100
AcDbEntity
  8
0
  6
ByLayer
 62
    0
370
   -1
100
AcDbLine
 10
372.639
 20
75.6557
 11
372.29
 21
76.3379
  0
LINE
  5
1FF
100
AcDbEntity
  8
0
  6
ByLayer
 62
    0
370
   -1
100
AcDbLine
 10
372.29
 20
76.3379
 11
371.75
 21
76.878
  0
LINE
  5
200
100
AcDbEntity
  8
0
  6
ByLayer
 62
    0
370
   -1
100
AcDbLine
 10
371.75
 20
76.878
 11
371.066
 21
77.2266
  0
LINE
  5
201
100
AcDbEntity
  8
0
  6
ByLayer
 62
    0
370
   -1
100
AcDbLine
 10
371.066
 20
77.2266
 11
370.311
 21
77.34650000000001
  0
LINE
  5
202
100
AcDbEntity
  8
0
  6
ByLayer
 62
    0
370
   -1
100
AcDbLine
 10
370.311
 20
77.34650000000001
 11
369.552
 21
77.2266
  0
LINE
  5
203
100
AcDbEntity
  8
0
  6
ByLayer
 62
    0
370
   -1
100
AcDbLine
 10
346.337
 20
88.991
 11
360.232
 21
88.991
  0
LINE
  5
204
100
AcDbEntity
  8
0
  6
ByLayer
 62
    0
370
   -1
100
AcDbLine
 10
360.232
 20
88.991
 11
360.232
 21
75.0947
  0
LINE
  5
205
100
AcDbEntity
  8
0
  6
ByLayer
 62
    0
370
   -1
100
AcDbLine
 10
360.232
 20
75.0947
 11
346.337
 21
75.0947
  0
LINE
  5
206
100
AcDbEntity
  8
0
  6
ByLayer
 62
    0
370
   -1
100
AcDbLine
 10
346.337
 20
75.0947
 11
346.337
 21
88.991
  0
LINE
  5
207
100
AcDbEntity
  8
0
  6
ByLayer
 62
    0
370
   -1
100
AcDbLine
 10
327.287
 20
88.991
 11
341.183
 21
88.991
  0
LINE
  5
208
100
AcDbEntity
  8
0
  6
ByLayer
 62
    0
370
   -1
100
AcDbLine
 10
341.183
 20
88.991
 11
341.183
 21
75.0947
  0
LINE
  5
209
100
AcDbEntity
  8
0
  6
ByLayer
 62
    0
370
   -1
100
AcDbLine
 10
341.183
 20
75.0947
 11
327.287
 21
75.0947
  0
LINE
  5
20A
100
AcDbEntity
  8
0
  6
ByLayer
 62
    0
370
   -1
100
AcDbLine
 10
327.287
 20
75.0947
 11
327.287
 21
88.991
  0
LINE
  5
20B
100
AcDbEntity
  8
0
  6
ByLayer
 62
    0
370
   -1
100
AcDbLine
 10
308.237
 20
88.991
 11
322.133
 21
88.991
  0
LINE
  5
20C
100
AcDbEntity
  8
0
  6
ByLayer
 62
    0
370
   -1
100
AcDbLine
 10
322.133
 20
88.991
 11
322.133
 21
75.0947
  0
LINE
  5
20D
100
AcDbEntity
  8
0
  6
ByLayer
 62
    0
370
   -1
100
AcDbLine
 10
322.133
 20
75.0947
 11
308.237
 21
75.0947
  0
LINE
  5
20E
100
AcDbEntity
  8
0
  6
ByLayer
 62
    0
370
   -1
100
AcDbLine
 10
308.237
 20
75.0947
 11
308.237
 21
88.991
  0
LINE
  5
20F
100
AcDbEntity
  8
0
  6
ByLayer
 62
    0
370
   -1
100
AcDbLine
 10
255.851
 20
88.991
 11
269.746
 21
88.991
  0
LINE
  5
210
100
AcDbEntity
  8
0
  6
ByLayer
 62
    0
370
   -1
100
AcDbLine
 10
269.746
 20
88.991
 11
269.746
 21
75.0947
  0
LINE
  5
211
100
AcDbEntity
  8
0
  6
ByLayer
 62
    0
370
   -1
100
AcDbLine
 10
269.746
 20
75.0947
 11
255.851
 21
75.0947
  0
LINE
  5
212
100
AcDbEntity
  8
0
  6
ByLayer
 62
    0
370
   -1
100
AcDbLine
 10
255.851
 20
75.0947
 11
255.851
 21
88.991
  0
LINE
  5
213
100
AcDbEntity
  8
0
  6
ByLayer
 62
    0
370
   -1
100
AcDbLine
 10
236.801
 20
88.991
 11
250.696
 21
88.991
  0
LINE
  5
214
100
AcDbEntity
  8
0
  6
ByLayer
 62
    0
370
   -1
100
AcDbLine
 10
250.696
 20
88.991
 11
250.696
 21
75.0947
  0
LINE
  5
215
100
AcDbEntity
  8
0
  6
ByLayer
 62
    0
370
   -1
100
AcDbLine
 10
250.696
 20
75.0947
 11
236.801
 21
75.0947
  0
LINE
  5
216
100
AcDbEntity
  8
0
  6
ByLayer
 62
    0
370
   -1
100
AcDbLine
 10
236.801
 20
75.0947
 11
236.801
 21
88.991
  0
LINE
  5
217
100
AcDbEntity
  8
0
  6
ByLayer
 62
    0
370
   -1
100
AcDbLine
 10
217.751
 20
88.991
 11
231.646
 21
88.991
  0
LINE
  5
218
100
AcDbEntity
  8
0
  6
ByLayer
 62
    0
370
   -1
100
AcDbLine
 10
231.646
 20
88.991
 11
231.646
 21
75.0947
  0
LINE
  5
219
100
AcDbEntity
  8
0
  6
ByLayer
 62
    0
370
   -1
100
AcDbLine
 10
231.646
 20
75.0947
 11
217.751
 21
75.0947
  0
LINE
  5
21A
100
AcDbEntity
  8
0
  6
ByLayer
 62
    0
370
   -1
100
AcDbLine
 10
217.751
 20
75.0947
 11
217.751
 21
88.991
  0
LINE
  5
21B
100
AcDbEntity
  8
0
  6
ByLayer
 62
    0
370
   -1
100
AcDbLine
 10
198.701
 20
88.991
 11
212.596
 21
88.991
  0
LINE
  5
21C
100
AcDbEntity
  8
0
  6
ByLayer
 62
    0
370
   -1
100
AcDbLine
 10
212.596
 20
88.991
 11
212.596
 21
75.0947
  0
LINE
  5
21D
100
AcDbEntity
  8
0
  6
ByLayer
 62
    0
370
   -1
100
AcDbLine
 10
212.596
 20
75.0947
 11
198.701
 21
75.0947
  0
LINE
  5
21E
100
AcDbEntity
  8
0
  6
ByLayer
 62
    0
370
   -1
100
AcDbLine
 10
198.701
 20
75.0947
 11
198.701
 21
88.991
  0
LINE
  5
21F
100
AcDbEntity
  8
0
  6
ByLayer
 62
    0
370
   -1
100
AcDbLine
 10
179.651
 20
88.991
 11
193.546
 21
88.991
  0
LINE
  5
220
100
AcDbEntity
  8
0
  6
ByLayer
 62
    0
370
   -1
100
AcDbLine
 10
193.546
 20
88.991
 11
193.546
 21
75.0947
  0
LINE
  5
221
100
AcDbEntity
  8
0
  6
ByLayer
 62
    0
370
   -1
100
AcDbLine
 10
193.546
 20
75.0947
 11
179.651
 21
75.0947
  0
LINE
  5
222
100
AcDbEntity
  8
0
  6
ByLayer
 62
    0
370
   -1
100
AcDbLine
 10
179.651
 20
75.0947
 11
179.651
 21
88.991
  0
LINE
  5
223
100
AcDbEntity
  8
0
  6
ByLayer
 62
    0
370
   -1
100
AcDbLine
 10
160.601
 20
88.991
 11
174.496
 21
88.991
  0
LINE
  5
224
100
AcDbEntity
  8
0
  6
ByLayer
 62
    0
370
   -1
100
AcDbLine
 10
174.496
 20
88.991
 11
174.496
 21
75.0947
  0
LINE
  5
225
100
AcDbEntity
  8
0
  6
ByLayer
 62
    0
370
   -1
100
AcDbLine
 10
174.496
 20
75.0947
 11
160.601
 21
75.0947
  0
LINE
  5
226
100
AcDbEntity
  8
0
  6
ByLayer
 62
    0
370
   -1
100
AcDbLine
 10
160.601
 20
75.0947
 11
160.601
 21
88.991
  0
LINE
  5
227
100
AcDbEntity
  8
0
  6
ByLayer
 62
    0
370
   -1
100
AcDbLine
 10
141.551
 20
88.991
 11
155.446
 21
88.991
  0
LINE
  5
228
100
AcDbEntity
  8
0
  6
ByLayer
 62
    0
370
   -1
100
AcDbLine
 10
155.446
 20
88.991
 11
155.446
 21
75.0947
  0
LINE
  5
229
100
AcDbEntity
  8
0
  6
ByLayer
 62
    0
370
   -1
100
AcDbLine
 10
155.446
 20
75.0947
 11
141.551
 21
75.0947
  0
LINE
  5
22A
100
AcDbEntity
  8
0
  6
ByLayer
 62
    0
370
   -1
100
AcDbLine
 10
141.551
 20
75.0947
 11
141.551
 21
88.991
  0
LINE
  5
22B
100
AcDbEntity
  8
0
  6
ByLayer
 62
    0
370
   -1
100
AcDbLine
 10
122.499
 20
88.991
 11
136.394
 21
88.991
  0
LINE
  5
22C
100
AcDbEntity
  8
0
  6
ByLayer
 62
    0
370
   -1
100
AcDbLine
 10
136.394
 20
88.991
 11
136.394
 21
75.0947
  0
LINE
  5
22D
100
AcDbEntity
  8
0
  6
ByLayer
 62
    0
370
   -1
100
AcDbLine
 10
136.394
 20
75.0947
 11
122.499
 21
75.0947
  0
LINE
  5
22E
100
AcDbEntity
  8
0
  6
ByLayer
 62
    0
370
   -1
100
AcDbLine
 10
122.499
 20
75.0947
 11
122.499
 21
88.991
  0
LINE
  5
22F
100
AcDbEntity
  8
0
  6
ByLayer
 62
    0
370
   -1
100
AcDbLine
 10
103.449
 20
88.991
 11
117.346
 21
88.991
  0
LINE
  5
230
100
AcDbEntity
  8
0
  6
ByLayer
 62
    0
370
   -1
100
AcDbLine
 10
117.346
 20
88.991
 11
117.346
 21
75.0947
  0
LINE
  5
231
100
AcDbEntity
  8
0
  6
ByLayer
 62
    0
370
   -1
100
AcDbLine
 10
117.346
 20
75.0947
 11
103.449
 21
75.0947
  0
LINE
  5
232
100
AcDbEntity
  8
0
  6
ByLayer
 62
    0
370
   -1
100
AcDbLine
 10
103.449
 20
75.0947
 11
103.449
 21
88.991
  0
LINE
  5
233
100
AcDbEntity
  8
0
  6
ByLayer
 62
    0
370
   -1
100
AcDbLine
 10
84.3993
 20
88.991
 11
98.2955
 21
88.991
  0
LINE
  5
234
100
AcDbEntity
  8
0
  6
ByLayer
 62
    0
370
   -1
100
AcDbLine
 10
98.2955
 20
88.991
 11
98.2955
 21
75.0947
  0
LINE
  5
235
100
AcDbEntity
  8
0
  6
ByLayer
 62
    0
370
   -1
100
AcDbLine
 10
98.2955
 20
75.0947
 11
84.3993
 21
75.0947
  0
LINE
  5
236
100
AcDbEntity
  8
0
  6
ByLayer
 62
    0
370
   -1
100
AcDbLine
 10
84.3993
 20
75.0947
 11
84.3993
 21
88.991
  0
LINE
  5
237
100
AcDbEntity
  8
0
  6
ByLayer
 62
    0
370
   -1
100
AcDbLine
 10
65.3507
 20
88.991
 11
79.24550000000001
 21
88.991
  0
LINE
  5
238
100
AcDbEntity
  8
0
  6
ByLayer
 62
    0
370
   -1
100
AcDbLine
 10
79.24550000000001
 20
88.991
 11
79.24550000000001
 21
75.0947
  0
LINE
  5
239
100
AcDbEntity
  8
0
  6
ByLayer
 62
    0
370
   -1
100
AcDbLine
 10
79.24550000000001
 20
75.0947
 11
65.3507
 21
75.0947
  0
LINE
  5
23A
100
AcDbEntity
  8
0
  6
ByLayer
 62
    0
370
   -1
100
AcDbLine
 10
65.3507
 20
75.0947
 11
65.3507
 21
88.991
  0
LINE
  5
23B
100
AcDbEntity
  8
0
  6
ByLayer
 62
    0
370
   -1
100
AcDbLine
 10
46.3007
 20
88.991
 11
60.1941
 21
88.991
  0
LINE
  5
23C
100
AcDbEntity
  8
0
  6
ByLayer
 62
    0
370
   -1
100
AcDbLine
 10
60.1941
 20
88.991
 11
60.1941
 21
75.0947
  0
LINE
  5
23D
100
AcDbEntity
  8
0
  6
ByLayer
 62
    0
370
   -1
100
AcDbLine
 10
60.1941
 20
75.0947
 11
46.3007
 21
75.0947
  0
LINE
  5
23E
100
AcDbEntity
  8
0
  6
ByLayer
 62
    0
370
   -1
100
AcDbLine
 10
46.3007
 20
75.0947
 11
46.3007
 21
88.991
  0
LINE
  5
23F
100
AcDbEntity
  8
0
  6
ByLayer
 62
    0
370
   -1
100
AcDbLine
 10
22.4868
 20
88.991
 11
36.383
 21
88.991
  0
LINE
  5
240
100
AcDbEntity
  8
0
  6
ByLayer
 62
    0
370
   -1
100
AcDbLine
 10
36.383
 20
88.991
 11
36.383
 21
75.0947
  0
LINE
  5
241
100
AcDbEntity
  8
0
  6
ByLayer
 62
    0
370
   -1
100
AcDbLine
 10
36.383
 20
75.0947
 11
22.4868
 21
75.0947
  0
LINE
  5
242
100
AcDbEntity
  8
0
  6
ByLayer
 62
    0
370
   -1
100
AcDbLine
 10
22.4868
 20
75.0947
 11
22.4868
 21
88.991
  0
LINE
  5
243
100
AcDbEntity
  8
0
  6
ByLayer
 62
    0
370
   -1
100
AcDbLine
 10
266.626
 20
106.571
 11
266.626
 21
103.341
  0
LINE
  5
244
100
AcDbEntity
  8
0
  6
ByLayer
 62
    0
370
   -1
100
AcDbLine
 10
266.626
 20
103.341
 11
265.8
 21
103.341
  0
LINE
  5
245
100
AcDbEntity
  8
0
  6
ByLayer
 62
    0
370
   -1
100
AcDbLine
 10
265.8
 20
103.341
 11
265.8
 21
100.645
  0
LINE
  5
246
100
AcDbEntity
  8
0
  6
ByLayer
 62
    0
370
   -1
100
AcDbLine
 10
265.8
 20
100.645
 11
266.626
 21
100.645
  0
LINE
  5
247
100
AcDbEntity
  8
0
  6
ByLayer
 62
    0
370
   -1
100
AcDbLine
 10
266.626
 20
100.645
 11
266.626
 21
94.3751
  0
LINE
  5
248
100
AcDbEntity
  8
0
  6
ByLayer
 62
    0
370
   -1
100
AcDbLine
 10
266.626
 20
94.3751
 11
268.351
 21
94.3751
  0
LINE
  5
249
100
AcDbEntity
  8
0
  6
ByLayer
 62
    0
370
   -1
100
AcDbLine
 10
268.351
 20
94.3751
 11
268.351
 21
93.1746
  0
LINE
  5
24A
100
AcDbEntity
  8
0
  6
ByLayer
 62
    0
370
   -1
100
AcDbLine
 10
268.351
 20
93.1746
 11
271.545
 21
93.1746
  0
LINE
  5
24B
100
AcDbEntity
  8
0
  6
ByLayer
 62
    0
370
   -1
100
AcDbLine
 10
292.151
 20
93.1746
 11
295.345
 21
93.1746
  0
LINE
  5
24C
100
AcDbEntity
  8
0
  6
ByLayer
 62
    0
370
   -1
100
AcDbLine
 10
295.345
 20
93.1746
 11
295.345
 21
94.3751
  0
LINE
  5
24D
100
AcDbEntity
  8
0
  6
ByLayer
 62
    0
370
   -1
100
AcDbLine
 10
295.345
 20
94.3751
 11
297.071
 21
94.3751
  0
LINE
  5
24E
100
AcDbEntity
  8
0
  6
ByLayer
 62
    0
370
   -1
100
AcDbLine
 10
297.071
 20
94.3751
 11
297.071
 21
100.645
  0
LINE
  5
24F
100
AcDbEntity
  8
0
  6
ByLayer
 62
    0
370
   -1
100
AcDbLine
 10
297.071
 20
100.645
 11
297.896
 21
100.645
  0
LINE
  5
250
100
AcDbEntity
  8
0
  6
ByLayer
 62
    0
370
   -1
100
AcDbLine
 10
297.896
 20
100.645
 11
297.896
 21
103.341
  0
LINE
  5
251
100
AcDbEntity
  8
0
  6
ByLayer
 62
    0
370
   -1
100
AcDbLine
 10
297.896
 20
103.341
 11
297.071
 21
103.341
  0
LINE
  5
252
100
AcDbEntity
  8
0
  6
ByLayer
 62
    0
370
   -1
100
AcDbLine
 10
297.071
 20
103.341
 11
297.071
 21
106.571
  0
LINE
  5
253
100
AcDbEntity
  8
0
  6
ByLayer
 62
    0
370
   -1
100
AcDbLine
 10
288.796
 20
108.041
 11
274.901
 21
108.041
  0
LINE
  5
254
100
AcDbEntity
  8
0
  6
ByLayer
 62
    0
370
   -1
100
AcDbLine
 10
346.337
 20
108.041
 11
360.232
 21
108.041
  0
LINE
  5
255
100
AcDbEntity
  8
0
  6
ByLayer
 62
    0
370
   -1
100
AcDbLine
 10
360.232
 20
108.041
 11
360.232
 21
94.1447
  0
LINE
  5
256
100
AcDbEntity
  8
0
  6
ByLayer
 62
    0
370
   -1
100
AcDbLine
 10
360.232
 20
94.1447
 11
346.337
 21
94.1447
  0
LINE
  5
257
100
AcDbEntity
  8
0
  6
ByLayer
 62
    0
370
   -1
100
AcDbLine
 10
346.337
 20
94.1447
 11
346.337
 21
108.041
  0
LINE
  5
258
100
AcDbEntity
  8
0
  6
ByLayer
 62
    0
370
   -1
100
AcDbLine
 10
327.287
 20
108.041
 11
341.183
 21
108.041
  0
LINE
  5
259
100
AcDbEntity
  8
0
  6
ByLayer
 62
    0
370
   -1
100
AcDbLine
 10
341.183
 20
108.041
 11
341.183
 21
94.1447
  0
LINE
  5
25A
100
AcDbEntity
  8
0
  6
ByLayer
 62
    0
370
   -1
100
AcDbLine
 10
341.183
 20
94.1447
 11
327.287
 21
94.1447
  0
LINE
  5
25B
100
AcDbEntity
  8
0
  6
ByLayer
 62
    0
370
   -1
100
AcDbLine
 10
327.287
 20
94.1447
 11
327.287
 21
108.041
  0
LINE
  5
25C
100
AcDbEntity
  8
0
  6
ByLayer
 62
    0
370
   -1
100
AcDbLine
 10
308.237
 20
108.041
 11
322.133
 21
108.041
  0
LINE
  5
25D
100
AcDbEntity
  8
0
  6
ByLayer
 62
    0
370
   -1
100
AcDbLine
 10
322.133
 20
108.041
 11
322.133
 21
94.1447
  0
LINE
  5
25E
100
AcDbEntity
  8
0
  6
ByLayer
 62
    0
370
   -1
100
AcDbLine
 10
322.133
 20
94.1447
 11
308.237
 21
94.1447
  0
LINE
  5
25F
100
AcDbEntity
  8
0
  6
ByLayer
 62
    0
370
   -1
100
AcDbLine
 10
308.237
 20
94.1447
 11
308.237
 21
108.041
  0
LINE
  5
260
100
AcDbEntity
  8
0
  6
ByLayer
 62
    0
370
   -1
100
AcDbLine
 10
246.326
 20
108.041
 11
260.221
 21
108.041
  0
LINE
  5
261
100
AcDbEntity
  8
0
  6
ByLayer
 62
    0
370
   -1
100
AcDbLine
 10
260.221
 20
108.041
 11
260.221
 21
94.1447
  0
LINE
  5
262
100
AcDbEntity
  8
0
  6
ByLayer
 62
    0
370
   -1
100
AcDbLine
 10
260.221
 20
94.1447
 11
246.326
 21
94.1447
  0
LINE
  5
263
100
AcDbEntity
  8
0
  6
ByLayer
 62
    0
370
   -1
100
AcDbLine
 10
246.326
 20
94.1447
 11
246.326
 21
108.041
  0
LINE
  5
264
100
AcDbEntity
  8
0
  6
ByLayer
 62
    0
370
   -1
100
AcDbLine
 10
227.276
 20
108.041
 11
241.171
 21
108.041
  0
LINE
  5
265
100
AcDbEntity
  8
0
  6
ByLayer
 62
    0
370
   -1
100
AcDbLine
 10
241.171
 20
108.041
 11
241.171
 21
94.1447
  0
LINE
  5
266
100
AcDbEntity
  8
0
  6
ByLayer
 62
    0
370
   -1
100
AcDbLine
 10
241.171
 20
94.1447
 11
227.276
 21
94.1447
  0
LINE
  5
267
100
AcDbEntity
  8
0
  6
ByLayer
 62
    0
370
   -1
100
AcDbLine
 10
227.276
 20
94.1447
 11
227.276
 21
108.041
  0
LINE
  5
268
100
AcDbEntity
  8
0
  6
ByLayer
 62
    0
370
   -1
100
AcDbLine
 10
208.226
 20
108.041
 11
222.121
 21
108.041
  0
LINE
  5
269
100
AcDbEntity
  8
0
  6
ByLayer
 62
    0
370
   -1
100
AcDbLine
 10
222.121
 20
108.041
 11
222.121
 21
94.1447
  0
LINE
  5
26A
100
AcDbEntity
  8
0
  6
ByLayer
 62
    0
370
   -1
100
AcDbLine
 10
222.121
 20
94.1447
 11
208.226
 21
94.1447
  0
LINE
  5
26B
100
AcDbEntity
  8
0
  6
ByLayer
 62
    0
370
   -1
100
AcDbLine
 10
208.226
 20
94.1447
 11
208.226
 21
108.041
  0
LINE
  5
26C
100
AcDbEntity
  8
0
  6
ByLayer
 62
    0
370
   -1
100
AcDbLine
 10
189.176
 20
108.041
 11
203.071
 21
108.041
  0
LINE
  5
26D
100
AcDbEntity
  8
0
  6
ByLayer
 62
    0
370
   -1
100
AcDbLine
 10
203.071
 20
108.041
 11
203.071
 21
94.1447
  0
LINE
  5
26E
100
AcDbEntity
  8
0
  6
ByLayer
 62
    0
370
   -1
100
AcDbLine
 10
203.071
 20
94.1447
 11
189.176
 21
94.1447
  0
LINE
  5
26F
100
AcDbEntity
  8
0
  6
ByLayer
 62
    0
370
   -1
100
AcDbLine
 10
189.176
 20
94.1447
 11
189.176
 21
108.041
  0
LINE
  5
270
100
AcDbEntity
  8
0
  6
ByLayer
 62
    0
370
   -1
100
AcDbLine
 10
170.126
 20
108.041
 11
184.021
 21
108.041
  0
LINE
  5
271
100
AcDbEntity
  8
0
  6
ByLayer
 62
    0
370
   -1
100
AcDbLine
 10
184.021
 20
108.041
 11
184.021
 21
94.1447
  0
LINE
  5
272
100
AcDbEntity
  8
0
  6
ByLayer
 62
    0
370
   -1
100
AcDbLine
 10
184.021
 20
94.1447
 11
170.126
 21
94.1447
  0
LINE
  5
273
100
AcDbEntity
  8
0
  6
ByLayer
 62
    0
370
   -1
100
AcDbLine
 10
170.126
 20
94.1447
 11
170.126
 21
108.041
  0
LINE
  5
274
100
AcDbEntity
  8
0
  6
ByLayer
 62
    0
370
   -1
100
AcDbLine
 10
151.076
 20
108.041
 11
164.971
 21
108.041
  0
LINE
  5
275
100
AcDbEntity
  8
0
  6
ByLayer
 62
    0
370
   -1
100
AcDbLine
 10
164.971
 20
108.041
 11
164.971
 21
94.1447
  0
LINE
  5
276
100
AcDbEntity
  8
0
  6
ByLayer
 62
    0
370
   -1
100
AcDbLine
 10
164.971
 20
94.1447
 11
151.076
 21
94.1447
  0
LINE
  5
277
100
AcDbEntity
  8
0
  6
ByLayer
 62
    0
370
   -1
100
AcDbLine
 10
151.076
 20
94.1447
 11
151.076
 21
108.041
  0
LINE
  5
278
100
AcDbEntity
  8
0
  6
ByLayer
 62
    0
370
   -1
100
AcDbLine
 10
132.026
 20
108.041
 11
145.921
 21
108.041
  0
LINE
  5
279
100
AcDbEntity
  8
0
  6
ByLayer
 62
    0
370
   -1
100
AcDbLine
 10
145.921
 20
108.041
 11
145.921
 21
94.1447
  0
LINE
  5
27A
100
AcDbEntity
  8
0
  6
ByLayer
 62
    0
370
   -1
100
AcDbLine
 10
145.921
 20
94.1447
 11
132.026
 21
94.1447
  0
LINE
  5
27B
100
AcDbEntity
  8
0
  6
ByLayer
 62
    0
370
   -1
100
AcDbLine
 10
132.026
 20
94.1447
 11
132.026
 21
108.041
  0
LINE
  5
27C
100
AcDbEntity
  8
0
  6
ByLayer
 62
    0
370
   -1
100
AcDbLine
 10
112.974
 20
108.041
 11
126.869
 21
108.041
  0
LINE
  5
27D
100
AcDbEntity
  8
0
  6
ByLayer
 62
    0
370
   -1
100
AcDbLine
 10
126.869
 20
108.041
 11
126.869
 21
94.1447
  0
LINE
  5
27E
100
AcDbEntity
  8
0
  6
ByLayer
 62
    0
370
   -1
100
AcDbLine
 10
126.869
 20
94.1447
 11
112.974
 21
94.1447
  0
LINE
  5
27F
100
AcDbEntity
  8
0
  6
ByLayer
 62
    0
370
   -1
100
AcDbLine
 10
112.974
 20
94.1447
 11
112.974
 21
108.041
  0
LINE
  5
280
100
AcDbEntity
  8
0
  6
ByLayer
 62
    0
370
   -1
100
AcDbLine
 10
93.9243
 20
108.041
 11
107.821
 21
108.041
  0
LINE
  5
281
100
AcDbEntity
  8
0
  6
ByLayer
 62
    0
370
   -1
100
AcDbLine
 10
107.821
 20
108.041
 11
107.821
 21
94.1447
  0
LINE
  5
282
100
AcDbEntity
  8
0
  6
ByLayer
 62
    0
370
   -1
100
AcDbLine
 10
107.821
 20
94.1447
 11
93.9243
 21
94.1447
  0
LINE
  5
283
100
AcDbEntity
  8
0
  6
ByLayer
 62
    0
370
   -1
100
AcDbLine
 10
93.9243
 20
94.1447
 11
93.9243
 21
108.041
  0
LINE
  5
284
100
AcDbEntity
  8
0
  6
ByLayer
 62
    0
370
   -1
100
AcDbLine
 10
74.87430000000001
 20
108.041
 11
88.7705
 21
108.041
  0
LINE
  5
285
100
AcDbEntity
  8
0
  6
ByLayer
 62
    0
370
   -1
100
AcDbLine
 10
88.7705
 20
108.041
 11
88.7705
 21
94.1447
  0
LINE
  5
286
100
AcDbEntity
  8
0
  6
ByLayer
 62
    0
370
   -1
100
AcDbLine
 10
88.7705
 20
94.1447
 11
74.87430000000001
 21
94.1447
  0
LINE
  5
287
100
AcDbEntity
  8
0
  6
ByLayer
 62
    0
370
   -1
100
AcDbLine
 10
74.87430000000001
 20
94.1447
 11
74.87430000000001
 21
108.041
  0
LINE
  5
288
100
AcDbEntity
  8
0
  6
ByLayer
 62
    0
370
   -1
100
AcDbLine
 10
55.8257
 20
108.041
 11
69.7205
 21
108.041
  0
LINE
  5
289
100
AcDbEntity
  8
0
  6
ByLayer
 62
    0
370
   -1
100
AcDbLine
 10
69.7205
 20
108.041
 11
69.7205
 21
94.1447
  0
LINE
  5
28A
100
AcDbEntity
  8
0
  6
ByLayer
 62
    0
370
   -1
100
AcDbLine
 10
69.7205
 20
94.1447
 11
55.8257
 21
94.1447
  0
LINE
  5
28B
100
AcDbEntity
  8
0
  6
ByLayer
 62
    0
370
   -1
100
AcDbLine
 10
55.8257
 20
94.1447
 11
55.8257
 21
108.041
  0
LINE
  5
28C
100
AcDbEntity
  8
0
  6
ByLayer
 62
    0
370
   -1
100
AcDbLine
 10
36.7757
 20
108.041
 11
50.6691
 21
108.041
  0
LINE
  5
28D
100
AcDbEntity
  8
0
  6
ByLayer
 62
    0
370
   -1
100
AcDbLine
 10
50.6691
 20
108.041
 11
50.6691
 21
94.1447
  0
LINE
  5
28E
100
AcDbEntity
  8
0
  6
ByLayer
 62
    0
370
   -1
100
AcDbLine
 10
50.6691
 20
94.1447
 11
36.7757
 21
94.1447
  0
LINE
  5
28F
100
AcDbEntity
  8
0
  6
ByLayer
 62
    0
370
   -1
100
AcDbLine
 10
36.7757
 20
94.1447
 11
36.7757
 21
108.041
  0
LINE
  5
290
100
AcDbEntity
  8
0
  6
ByLayer
 62
    0
370
   -1
100
AcDbLine
 10
17.7257
 20
108.041
 11
31.6205
 21
108.041
  0
LINE
  5
291
100
AcDbEntity
  8
0
  6
ByLayer
 62
    0
370
   -1
100
AcDbLine
 10
31.6205
 20
108.041
 11
31.6205
 21
94.1447
  0
LINE
  5
292
100
AcDbEntity
  8
0
  6
ByLayer
 62
    0
370
   -1
100
AcDbLine
 10
31.6205
 20
94.1447
 11
17.7257
 21
94.1447
  0
LINE
  5
293
100
AcDbEntity
  8
0
  6
ByLayer
 62
    0
370
   -1
100
AcDbLine
 10
17.7257
 20
94.1447
 11
17.7257
 21
108.041
  0
LINE
  5
294
100
AcDbEntity
  8
0
  6
ByLayer
 62
    0
370
   -1
100
AcDbLine
 10
346.337
 20
131.852
 11
360.232
 21
131.852
  0
LINE
  5
295
100
AcDbEntity
  8
0
  6
ByLayer
 62
    0
370
   -1
100
AcDbLine
 10
360.232
 20
131.852
 11
360.232
 21
117.957
  0
LINE
  5
296
100
AcDbEntity
  8
0
  6
ByLayer
 62
    0
370
   -1
100
AcDbLine
 10
360.232
 20
117.957
 11
346.337
 21
117.957
  0
LINE
  5
297
100
AcDbEntity
  8
0
  6
ByLayer
 62
    0
370
   -1
100
AcDbLine
 10
346.337
 20
117.957
 11
346.337
 21
131.852
  0
LINE
  5
298
100
AcDbEntity
  8
0
  6
ByLayer
 62
    0
370
   -1
100
AcDbLine
 10
327.287
 20
131.852
 11
341.183
 21
131.852
  0
LINE
  5
299
100
AcDbEntity
  8
0
  6
ByLayer
 62
    0
370
   -1
100
AcDbLine
 10
341.183
 20
131.852
 11
341.183
 21
117.957
  0
LINE
  5
29A
100
AcDbEntity
  8
0
  6
ByLayer
 62
    0
370
   -1
100
AcDbLine
 10
341.183
 20
117.957
 11
327.287
 21
117.957
  0
LINE
  5
29B
100
AcDbEntity
  8
0
  6
ByLayer
 62
    0
370
   -1
100
AcDbLine
 10
327.287
 20
117.957
 11
327.287
 21
131.852
  0
LINE
  5
29C
100
AcDbEntity
  8
0
  6
ByLayer
 62
    0
370
   -1
100
AcDbLine
 10
308.237
 20
131.852
 11
322.133
 21
131.852
  0
LINE
  5
29D
100
AcDbEntity
  8
0
  6
ByLayer
 62
    0
370
   -1
100
AcDbLine
 10
322.133
 20
131.852
 11
322.133
 21
117.957
  0
LINE
  5
29E
100
AcDbEntity
  8
0
  6
ByLayer
 62
    0
370
   -1
100
AcDbLine
 10
322.133
 20
117.957
 11
308.237
 21
117.957
  0
LINE
  5
29F
100
AcDbEntity
  8
0
  6
ByLayer
 62
    0
370
   -1
100
AcDbLine
 10
308.237
 20
117.957
 11
308.237
 21
131.852
  0
LINE
  5
2A0
100
AcDbEntity
  8
0
  6
ByLayer
 62
    0
370
   -1
100
AcDbLine
 10
284.426
 20
131.852
 11
298.321
 21
131.852
  0
LINE
  5
2A1
100
AcDbEntity
  8
0
  6
ByLayer
 62
    0
370
   -1
100
AcDbLine
 10
298.321
 20
131.852
 11
298.321
 21
117.957
  0
LINE
  5
2A2
100
AcDbEntity
  8
0
  6
ByLayer
 62
    0
370
   -1
100
AcDbLine
 10
298.321
 20
117.957
 11
284.426
 21
117.957
  0
LINE
  5
2A3
100
AcDbEntity
  8
0
  6
ByLayer
 62
    0
370
   -1
100
AcDbLine
 10
284.426
 20
117.957
 11
284.426
 21
131.852
  0
LINE
  5
2A4
100
AcDbEntity
  8
0
  6
ByLayer
 62
    0
370
   -1
100
AcDbLine
 10
265.376
 20
131.852
 11
279.271
 21
131.852
  0
LINE
  5
2A5
100
AcDbEntity
  8
0
  6
ByLayer
 62
    0
370
   -1
100
AcDbLine
 10
279.271
 20
131.852
 11
279.271
 21
117.957
  0
LINE
  5
2A6
100
AcDbEntity
  8
0
  6
ByLayer
 62
    0
370
   -1
100
AcDbLine
 10
279.271
 20
117.957
 11
265.376
 21
117.957
  0
LINE
  5
2A7
100
AcDbEntity
  8
0
  6
ByLayer
 62
    0
370
   -1
100
AcDbLine
 10
265.376
 20
117.957
 11
265.376
 21
131.852
  0
LINE
  5
2A8
100
AcDbEntity
  8
0
  6
ByLayer
 62
    0
370
   -1
100
AcDbLine
 10
246.326
 20
131.852
 11
260.221
 21
131.852
  0
LINE
  5
2A9
100
AcDbEntity
  8
0
  6
ByLayer
 62
    0
370
   -1
100
AcDbLine
 10
260.221
 20
131.852
 11
260.221
 21
117.957
  0
LINE
  5
2AA
100
AcDbEntity
  8
0
  6
ByLayer
 62
    0
370
   -1
100
AcDbLine
 10
260.221
 20
117.957
 11
246.326
 21
117.957
  0
LINE
  5
2AB
100
AcDbEntity
  8
0
  6
ByLayer
 62
    0
370
   -1
100
AcDbLine
 10
246.326
 20
117.957
 11
246.326
 21
131.852
  0
LINE
  5
2AC
100
AcDbEntity
  8
0
  6
ByLayer
 62
    0
370
   -1
100
AcDbLine
 10
227.276
 20
131.852
 11
241.171
 21
131.852
  0
LINE
  5
2AD
100
AcDbEntity
  8
0
  6
ByLayer
 62
    0
370
   -1
100
AcDbLine
 10
241.171
 20
131.852
 11
241.171
 21
117.957
  0
LINE
  5
2AE
100
AcDbEntity
  8
0
  6
ByLayer
 62
    0
370
   -1
100
AcDbLine
 10
241.171
 20
117.957
 11
227.276
 21
117.957
  0
LINE
  5
2AF
100
AcDbEntity
  8
0
  6
ByLayer
 62
    0
370
   -1
100
AcDbLine
 10
227.276
 20
117.957
 11
227.276
 21
131.852
  0
LINE
  5
2B0
100
AcDbEntity
  8
0
  6
ByLayer
 62
    0
370
   -1
100
AcDbLine
 10
198.701
 20
131.852
 11
212.596
 21
131.852
  0
LINE
  5
2B1
100
AcDbEntity
  8
0
  6
ByLayer
 62
    0
370
   -1
100
AcDbLine
 10
212.596
 20
131.852
 11
212.596
 21
117.957
  0
LINE
  5
2B2
100
AcDbEntity
  8
0
  6
ByLayer
 62
    0
370
   -1
100
AcDbLine
 10
212.596
 20
117.957
 11
198.701
 21
117.957
  0
LINE
  5
2B3
100
AcDbEntity
  8
0
  6
ByLayer
 62
    0
370
   -1
100
AcDbLine
 10
198.701
 20
117.957
 11
198.701
 21
131.852
  0
LINE
  5
2B4
100
AcDbEntity
  8
0
  6
ByLayer
 62
    0
370
   -1
100
AcDbLine
 10
179.651
 20
131.852
 11
193.546
 21
131.852
  0
LINE
  5
2B5
100
AcDbEntity
  8
0
  6
ByLayer
 62
    0
370
   -1
100
AcDbLine
 10
193.546
 20
131.852
 11
193.546
 21
117.957
  0
LINE
  5
2B6
100
AcDbEntity
  8
0
  6
ByLayer
 62
    0
370
   -1
100
AcDbLine
 10
193.546
 20
117.957
 11
179.651
 21
117.957
  0
LINE
  5
2B7
100
AcDbEntity
  8
0
  6
ByLayer
 62
    0
370
   -1
100
AcDbLine
 10
179.651
 20
117.957
 11
179.651
 21
131.852
  0
LINE
  5
2B8
100
AcDbEntity
  8
0
  6
ByLayer
 62
    0
370
   -1
100
AcDbLine
 10
160.601
 20
131.852
 11
174.496
 21
131.852
  0
LINE
  5
2B9
100
AcDbEntity
  8
0
  6
ByLayer
 62
    0
370
   -1
100
AcDbLine
 10
174.496
 20
131.852
 11
174.496
 21
117.957
  0
LINE
  5
2BA
100
AcDbEntity
  8
0
  6
ByLayer
 62
    0
370
   -1
100
AcDbLine
 10
174.496
 20
117.957
 11
160.601
 21
117.957
  0
LINE
  5
2BB
100
AcDbEntity
  8
0
  6
ByLayer
 62
    0
370
   -1
100
AcDbLine
 10
160.601
 20
117.957
 11
160.601
 21
131.852
  0
LINE
  5
2BC
100
AcDbEntity
  8
0
  6
ByLayer
 62
    0
370
   -1
100
AcDbLine
 10
141.551
 20
131.852
 11
155.446
 21
131.852
  0
LINE
  5
2BD
100
AcDbEntity
  8
0
  6
ByLayer
 62
    0
370
   -1
100
AcDbLine
 10
155.446
 20
131.852
 11
155.446
 21
117.957
  0
LINE
  5
2BE
100
AcDbEntity
  8
0
  6
ByLayer
 62
    0
370
   -1
100
AcDbLine
 10
155.446
 20
117.957
 11
141.551
 21
117.957
  0
LINE
  5
2BF
100
AcDbEntity
  8
0
  6
ByLayer
 62
    0
370
   -1
100
AcDbLine
 10
141.551
 20
117.957
 11
141.551
 21
131.852
  0
LINE
  5
2C0
100
AcDbEntity
  8
0
  6
ByLayer
 62
    0
370
   -1
100
AcDbLine
 10
112.976
 20
131.852
 11
126.871
 21
131.852
  0
LINE
  5
2C1
100
AcDbEntity
  8
0
  6
ByLayer
 62
    0
370
   -1
100
AcDbLine
 10
126.871
 20
131.852
 11
126.871
 21
117.957
  0
LINE
  5
2C2
100
AcDbEntity
  8
0
  6
ByLayer
 62
    0
370
   -1
100
AcDbLine
 10
126.871
 20
117.957
 11
112.976
 21
117.957
  0
LINE
  5
2C3
100
AcDbEntity
  8
0
  6
ByLayer
 62
    0
370
   -1
100
AcDbLine
 10
112.976
 20
117.957
 11
112.976
 21
131.852
  0
LINE
  5
2C4
100
AcDbEntity
  8
0
  6
ByLayer
 62
    0
370
   -1
100
AcDbLine
 10
93.92570000000001
 20
131.852
 11
107.821
 21
131.852
  0
LINE
  5
2C5
100
AcDbEntity
  8
0
  6
ByLayer
 62
    0
370
   -1
100
AcDbLine
 10
107.821
 20
131.852
 11
107.821
 21
117.957
  0
LINE
  5
2C6
100
AcDbEntity
  8
0
  6
ByLayer
 62
    0
370
   -1
100
AcDbLine
 10
107.821
 20
117.957
 11
93.92570000000001
 21
117.957
  0
LINE
  5
2C7
100
AcDbEntity
  8
0
  6
ByLayer
 62
    0
370
   -1
100
AcDbLine
 10
93.92570000000001
 20
117.957
 11
93.92570000000001
 21
131.852
  0
LINE
  5
2C8
100
AcDbEntity
  8
0
  6
ByLayer
 62
    0
370
   -1
100
AcDbLine
 10
74.87569999999999
 20
131.852
 11
88.7705
 21
131.852
  0
LINE
  5
2C9
100
AcDbEntity
  8
0
  6
ByLayer
 62
    0
370
   -1
100
AcDbLine
 10
88.7705
 20
131.852
 11
88.7705
 21
117.957
  0
LINE
  5
2CA
100
AcDbEntity
  8
0
  6
ByLayer
 62
    0
370
   -1
100
AcDbLine
 10
88.7705
 20
117.957
 11
74.87569999999999
 21
117.957
  0
LINE
  5
2CB
100
AcDbEntity
  8
0
  6
ByLayer
 62
    0
370
   -1
100
AcDbLine
 10
74.87569999999999
 20
117.957
 11
74.87569999999999
 21
131.852
  0
LINE
  5
2CC
100
AcDbEntity
  8
0
  6
ByLayer
 62
    0
370
   -1
100
AcDbLine
 10
55.8257
 20
131.852
 11
69.7205
 21
131.852
  0
LINE
  5
2CD
100
AcDbEntity
  8
0
  6
ByLayer
 62
    0
370
   -1
100
AcDbLine
 10
69.7205
 20
131.852
 11
69.7205
 21
117.957
  0
LINE
  5
2CE
100
AcDbEntity
  8
0
  6
ByLayer
 62
    0
370
   -1
100
AcDbLine
 10
69.7205
 20
117.957
 11
55.8257
 21
117.957
  0
LINE
  5
2CF
100
AcDbEntity
  8
0
  6
ByLayer
 62
    0
370
   -1
100
AcDbLine
 10
55.8257
 20
117.957
 11
55.8257
 21
131.852
  0
LINE
  5
2D0
100
AcDbEntity
  8
0
  6
ByLayer
 62
    0
370
   -1
100
AcDbLine
 10
17.7257
 20
131.852
 11
31.6205
 21
131.852
  0
LINE
  5
2D1
100
AcDbEntity
  8
0
  6
ByLayer
 62
    0
370
   -1
100
AcDbLine
 10
31.6205
 20
131.852
 11
31.6205
 21
117.957
  0
LINE
  5
2D2
100
AcDbEntity
  8
0
  6
ByLayer
 62
    0
370
   -1
100
AcDbLine
 10
31.6205
 20
117.957
 11
17.7257
 21
117.957
  0
LINE
  5
2D3
100
AcDbEntity
  8
0
  6
ByLayer
 62
    0
370
   -1
100
AcDbLine
 10
17.7257
 20
117.957
 11
17.7257
 21
131.852
  0
LINE
  5
2D4
100
AcDbEntity
  8
0
  6
ByLayer
 62
    0
370
   -1
100
AcDbLine
 10
369.552
 20
144.259
 11
368.871
 21
143.91
  0
LINE
  5
2D5
100
AcDbEntity
  8
0
  6
ByLayer
 62
    0
370
   -1
100
AcDbLine
 10
368.871
 20
143.91
 11
368.332
 21
143.37
  0
LINE
  5
2D6
100
AcDbEntity
  8
0
  6
ByLayer
 62
    0
370
   -1
100
AcDbLine
 10
368.332
 20
143.37
 11
367.982
 21
142.686
  0
LINE
  5
2D7
100
AcDbEntity
  8
0
  6
ByLayer
 62
    0
370
   -1
100
AcDbLine
 10
367.982
 20
142.686
 11
367.863
 21
141.93
  0
LINE
  5
2D8
100
AcDbEntity
  8
0
  6
ByLayer
 62
    0
370
   -1
100
AcDbLine
 10
367.863
 20
141.93
 11
367.982
 21
141.175
  0
LINE
  5
2D9
100
AcDbEntity
  8
0
  6
ByLayer
 62
    0
370
   -1
100
AcDbLine
 10
367.982
 20
141.175
 11
368.332
 21
140.491
  0
LINE
  5
2DA
100
AcDbEntity
  8
0
  6
ByLayer
 62
    0
370
   -1
100
AcDbLine
 10
368.332
 20
140.491
 11
368.871
 21
139.951
  0
LINE
  5
2DB
100
AcDbEntity
  8
0
  6
ByLayer
 62
    0
370
   -1
100
AcDbLine
 10
368.871
 20
139.951
 11
369.552
 21
139.602
  0
LINE
  5
2DC
100
AcDbEntity
  8
0
  6
ByLayer
 62
    0
370
   -1
100
AcDbLine
 10
369.552
 20
139.602
 11
370.311
 21
139.482
  0
LINE
  5
2DD
100
AcDbEntity
  8
0
  6
ByLayer
 62
    0
370
   -1
100
AcDbLine
 10
370.311
 20
139.482
 11
371.066
 21
139.602
  0
LINE
  5
2DE
100
AcDbEntity
  8
0
  6
ByLayer
 62
    0
370
   -1
100
AcDbLine
 10
371.066
 20
139.602
 11
371.75
 21
139.951
  0
LINE
  5
2DF
100
AcDbEntity
  8
0
  6
ByLayer
 62
    0
370
   -1
100
AcDbLine
 10
371.75
 20
139.951
 11
372.29
 21
140.491
  0
LINE
  5
2E0
100
AcDbEntity
  8
0
  6
ByLayer
 62
    0
370
   -1
100
AcDbLine
 10
372.29
 20
140.491
 11
372.639
 21
141.175
  0
LINE
  5
2E1
100
AcDbEntity
  8
0
  6
ByLayer
 62
    0
370
   -1
100
AcDbLine
 10
372.639
 20
141.175
 11
372.759
 21
141.93
  0
LINE
  5
2E2
100
AcDbEntity
  8
0
  6
ByLayer
 62
    0
370
   -1
100
AcDbLine
 10
372.759
 20
141.93
 11
372.639
 21
142.686
  0
LINE
  5
2E3
100
AcDbEntity
  8
0
  6
ByLayer
 62
    0
370
   -1
100
AcDbLine
 10
372.639
 20
142.686
 11
372.29
 21
143.37
  0
LINE
  5
2E4
100
AcDbEntity
  8
0
  6
ByLayer
 62
    0
370
   -1
100
AcDbLine
 10
372.29
 20
143.37
 11
371.75
 21
143.91
  0
LINE
  5
2E5
100
AcDbEntity
  8
0
  6
ByLayer
 62
    0
370
   -1
100
AcDbLine
 10
371.75
 20
143.91
 11
371.066
 21
144.259
  0
LINE
  5
2E6
100
AcDbEntity
  8
0
  6
ByLayer
 62
    0
370
   -1
100
AcDbLine
 10
371.066
 20
144.259
 11
370.311
 21
144.377
  0
LINE
  5
2E7
100
AcDbEntity
  8
0
  6
ByLayer
 62
    0
370
   -1
100
AcDbLine
 10
370.311
 20
144.377
 11
369.552
 21
144.259
  0
LINE
  5
2E8
100
AcDbEntity
  8
0
  6
ByLayer
 62
    0
370
   -1
100
AcDbLine
 10
278.889
 20
144.259
 11
278.207
 21
143.91
  0
LINE
  5
2E9
100
AcDbEntity
  8
0
  6
ByLayer
 62
    0
370
   -1
100
AcDbLine
 10
278.207
 20
143.91
 11
277.665
 21
143.37
  0
LINE
  5
2EA
100
AcDbEntity
  8
0
  6
ByLayer
 62
    0
370
   -1
100
AcDbLine
 10
277.665
 20
143.37
 11
277.318
 21
142.686
  0
LINE
  5
2EB
100
AcDbEntity
  8
0
  6
ByLayer
 62
    0
370
   -1
100
AcDbLine
 10
277.318
 20
142.686
 11
277.198
 21
141.93
  0
LINE
  5
2EC
100
AcDbEntity
  8
0
  6
ByLayer
 62
    0
370
   -1
100
AcDbLine
 10
277.198
 20
141.93
 11
277.318
 21
141.175
  0
LINE
  5
2ED
100
AcDbEntity
  8
0
  6
ByLayer
 62
    0
370
   -1
100
AcDbLine
 10
277.318
 20
141.175
 11
277.665
 21
140.491
  0
LINE
  5
2EE
100
AcDbEntity
  8
0
  6
ByLayer
 62
    0
370
   -1
100
AcDbLine
 10
277.665
 20
140.491
 11
278.207
 21
139.951
  0
LINE
  5
2EF
100
AcDbEntity
  8
0
  6
ByLayer
 62
    0
370
   -1
100
AcDbLine
 10
278.207
 20
139.951
 11
278.889
 21
139.602
  0
LINE
  5
2F0
100
AcDbEntity
  8
0
  6
ByLayer
 62
    0
370
   -1
100
AcDbLine
 10
278.889
 20
139.602
 11
279.645
 21
139.482
  0
LINE
  5
2F1
100
AcDbEntity
  8
0
  6
ByLayer
 62
    0
370
   -1
100
AcDbLine
 10
279.645
 20
139.482
 11
280.402
 21
139.602
  0
LINE
  5
2F2
100
AcDbEntity
  8
0
  6
ByLayer
 62
    0
370
   -1
100
AcDbLine
 10
280.402
 20
139.602
 11
281.084
 21
139.951
  0
LINE
  5
2F3
100
AcDbEntity
  8
0
  6
ByLayer
 62
    0
370
   -1
100
AcDbLine
 10
281.084
 20
139.951
 11
281.626
 21
140.491
  0
LINE
  5
2F4
100
AcDbEntity
  8
0
  6
ByLayer
 62
    0
370
   -1
100
AcDbLine
 10
281.626
 20
140.491
 11
281.973
 21
141.175
  0
LINE
  5
2F5
100
AcDbEntity
  8
0
  6
ByLayer
 62
    0
370
   -1
100
AcDbLine
 10
281.973
 20
141.175
 11
282.093
 21
141.93
  0
LINE
  5
2F6
100
AcDbEntity
  8
0
  6
ByLayer
 62
    0
370
   -1
100
AcDbLine
 10
282.093
 20
141.93
 11
281.973
 21
142.686
  0
LINE
  5
2F7
100
AcDbEntity
  8
0
  6
ByLayer
 62
    0
370
   -1
100
AcDbLine
 10
281.973
 20
142.686
 11
281.626
 21
143.37
  0
LINE
  5
2F8
100
AcDbEntity
  8
0
  6
ByLayer
 62
    0
370
   -1
100
AcDbLine
 10
281.626
 20
143.37
 11
281.084
 21
143.91
  0
LINE
  5
2F9
100
AcDbEntity
  8
0
  6
ByLayer
 62
    0
370
   -1
100
AcDbLine
 10
281.084
 20
143.91
 11
280.402
 21
144.259
  0
LINE
  5
2FA
100
AcDbEntity
  8
0
  6
ByLayer
 62
    0
370
   -1
100
AcDbLine
 10
280.402
 20
144.259
 11
279.645
 21
144.377
  0
LINE
  5
2FB
100
AcDbEntity
  8
0
  6
ByLayer
 62
    0
370
   -1
100
AcDbLine
 10
279.645
 20
144.377
 11
278.889
 21
144.259
  0
LINE
  5
2FC
100
AcDbEntity
  8
0
  6
ByLayer
 62
    0
370
   -1
100
AcDbLine
 10
188.222
 20
144.259
 11
187.54
 21
143.91
  0
LINE
  5
2FD
100
AcDbEntity
  8
0
  6
ByLayer
 62
    0
370
   -1
100
AcDbLine
 10
187.54
 20
143.91
 11
187
 21
143.37
  0
LINE
  5
2FE
100
AcDbEntity
  8
0
  6
ByLayer
 62
    0
370
   -1
100
AcDbLine
 10
187
 20
143.37
 11
186.651
 21
142.686
  0
LINE
  5
2FF
100
AcDbEntity
  8
0
  6
ByLayer
 62
    0
370
   -1
100
AcDbLine
 10
186.651
 20
142.686
 11
186.531
 21
141.93
  0
LINE
  5
300
100
AcDbEntity
  8
0
  6
ByLayer
 62
    0
370
   -1
100
AcDbLine
 10
186.531
 20
141.93
 11
186.651
 21
141.175
  0
LINE
  5
301
100
AcDbEntity
  8
0
  6
ByLayer
 62
    0
370
   -1
100
AcDbLine
 10
186.651
 20
141.175
 11
187
 21
140.491
  0
LINE
  5
302
100
AcDbEntity
  8
0
  6
ByLayer
 62
    0
370
   -1
100
AcDbLine
 10
187
 20
140.491
 11
187.54
 21
139.951
  0
LINE
  5
303
100
AcDbEntity
  8
0
  6
ByLayer
 62
    0
370
   -1
100
AcDbLine
 10
187.54
 20
139.951
 11
188.222
 21
139.602
  0
LINE
  5
304
100
AcDbEntity
  8
0
  6
ByLayer
 62
    0
370
   -1
100
AcDbLine
 10
188.222
 20
139.602
 11
188.98
 21
139.482
  0
LINE
  5
305
100
AcDbEntity
  8
0
  6
ByLayer
 62
    0
370
   -1
100
AcDbLine
 10
188.98
 20
139.482
 11
189.735
 21
139.602
  0
LINE
  5
306
100
AcDbEntity
  8
0
  6
ByLayer
 62
    0
370
   -1
100
AcDbLine
 10
189.735
 20
139.602
 11
190.417
 21
139.951
  0
LINE
  5
307
100
AcDbEntity
  8
0
  6
ByLayer
 62
    0
370
   -1
100
AcDbLine
 10
190.417
 20
139.951
 11
190.959
 21
140.491
  0
LINE
  5
308
100
AcDbEntity
  8
0
  6
ByLayer
 62
    0
370
   -1
100
AcDbLine
 10
190.959
 20
140.491
 11
191.306
 21
141.175
  0
LINE
  5
309
100
AcDbEntity
  8
0
  6
ByLayer
 62
    0
370
   -1
100
AcDbLine
 10
191.306
 20
141.175
 11
191.426
 21
141.93
  0
LINE
  5
30A
100
AcDbEntity
  8
0
  6
ByLayer
 62
    0
370
   -1
100
AcDbLine
 10
191.426
 20
141.93
 11
191.306
 21
142.686
  0
LINE
  5
30B
100
AcDbEntity
  8
0
  6
ByLayer
 62
    0
370
   -1
100
AcDbLine
 10
191.306
 20
142.686
 11
190.959
 21
143.37
  0
LINE
  5
30C
100
AcDbEntity
  8
0
  6
ByLayer
 62
    0
370
   -1
100
AcDbLine
 10
190.959
 20
143.37
 11
190.417
 21
143.91
  0
LINE
  5
30D
100
AcDbEntity
  8
0
  6
ByLayer
 62
    0
370
   -1
100
AcDbLine
 10
190.417
 20
143.91
 11
189.735
 21
144.259
  0
LINE
  5
30E
100
AcDbEntity
  8
0
  6
ByLayer
 62
    0
370
   -1
100
AcDbLine
 10
189.735
 20
144.259
 11
188.98
 21
144.377
  0
LINE
  5
30F
100
AcDbEntity
  8
0
  6
ByLayer
 62
    0
370
   -1
100
AcDbLine
 10
188.98
 20
144.377
 11
188.222
 21
144.259
  0
LINE
  5
310
100
AcDbEntity
  8
0
  6
ByLayer
 62
    0
370
   -1
100
AcDbLine
 10
97.5568
 20
144.259
 11
96.8745
 21
143.91
  0
LINE
  5
311
100
AcDbEntity
  8
0
  6
ByLayer
 62
    0
370
   -1
100
AcDbLine
 10
96.8745
 20
143.91
 11
96.333
 21
143.37
  0
LINE
  5
312
100
AcDbEntity
  8
0
  6
ByLayer
 62
    0
370
   -1
100
AcDbLine
 10
96.333
 20
143.37
 11
95.9859
 21
142.686
  0
LINE
  5
313
100
AcDbEntity
  8
0
  6
ByLayer
 62
    0
370
   -1
100
AcDbLine
 10
95.9859
 20
142.686
 11
95.866
 21
141.93
  0
LINE
  5
314
100
AcDbEntity
  8
0
  6
ByLayer
 62
    0
370
   -1
100
AcDbLine
 10
95.866
 20
141.93
 11
95.9859
 21
141.175
  0
LINE
  5
315
100
AcDbEntity
  8
0
  6
ByLayer
 62
    0
370
   -1
100
AcDbLine
 10
95.9859
 20
141.175
 11
96.333
 21
140.491
  0
LINE
  5
316
100
AcDbEntity
  8
0
  6
ByLayer
 62
    0
370
   -1
100
AcDbLine
 10
96.333
 20
140.491
 11
96.8745
 21
139.951
  0
LINE
  5
317
100
AcDbEntity
  8
0
  6
ByLayer
 62
    0
370
   -1
100
AcDbLine
 10
96.8745
 20
139.951
 11
97.5568
 21
139.602
  0
LINE
  5
318
100
AcDbEntity
  8
0
  6
ByLayer
 62
    0
370
   -1
100
AcDbLine
 10
97.5568
 20
139.602
 11
98.3135
 21
139.482
  0
LINE
  5
319
100
AcDbEntity
  8
0
  6
ByLayer
 62
    0
370
   -1
100
AcDbLine
 10
98.3135
 20
139.482
 11
99.0699
 21
139.602
  0
LINE
  5
31A
100
AcDbEntity
  8
0
  6
ByLayer
 62
    0
370
   -1
100
AcDbLine
 10
99.0699
 20
139.602
 11
99.7521
 21
139.951
  0
LINE
  5
31B
100
AcDbEntity
  8
0
  6
ByLayer
 62
    0
370
   -1
100
AcDbLine
 10
99.7521
 20
139.951
 11
100.294
 21
140.491
  0
LINE
  5
31C
100
AcDbEntity
  8
0
  6
ByLayer
 62
    0
370
   -1
100
AcDbLine
 10
100.294
 20
140.491
 11
100.641
 21
141.175
  0
LINE
  5
31D
100
AcDbEntity
  8
0
  6
ByLayer
 62
    0
370
   -1
100
AcDbLine
 10
100.641
 20
141.175
 11
100.761
 21
141.93
  0
LINE
  5
31E
100
AcDbEntity
  8
0
  6
ByLayer
 62
    0
370
   -1
100
AcDbLine
 10
100.761
 20
141.93
 11
100.641
 21
142.686
  0
LINE
  5
31F
100
AcDbEntity
  8
0
  6
ByLayer
 62
    0
370
   -1
100
AcDbLine
 10
100.641
 20
142.686
 11
100.294
 21
143.37
  0
LINE
  5
320
100
AcDbEntity
  8
0
  6
ByLayer
 62
    0
370
   -1
100
AcDbLine
 10
100.294
 20
143.37
 11
99.7521
 21
143.91
  0
LINE
  5
321
100
AcDbEntity
  8
0
  6
ByLayer
 62
    0
370
   -1
100
AcDbLine
 10
99.7521
 20
143.91
 11
99.0699
 21
144.259
  0
LINE
  5
322
100
AcDbEntity
  8
0
  6
ByLayer
 62
    0
370
   -1
100
AcDbLine
 10
99.0699
 20
144.259
 11
98.3135
 21
144.377
  0
LINE
  5
323
100
AcDbEntity
  8
0
  6
ByLayer
 62
    0
370
   -1
100
AcDbLine
 10
98.3135
 20
144.377
 11
97.5568
 21
144.259
  0
LINE
  5
324
100
AcDbEntity
  8
0
  6
ByLayer
 62
    0
370
   -1
100
AcDbLine
 10
6.89158
 20
144.259
 11
6.20808
 21
143.91
  0
LINE
  5
325
100
AcDbEntity
  8
0
  6
ByLayer
 62
    0
370
   -1
100
AcDbLine
 10
6.20808
 20
143.91
 11
5.66787
 21
143.37
  0
LINE
  5
326
100
AcDbEntity
  8
0
  6
ByLayer
 62
    0
370
   -1
100
AcDbLine
 10
5.66787
 20
143.37
 11
5.31922
 21
142.686
  0
LINE
  5
327
100
AcDbEntity
  8
0
  6
ByLayer
 62
    0
370
   -1
100
AcDbLine
 10
5.31922
 20
142.686
 11
5.20072
 21
141.93
  0
LINE
  5
328
100
AcDbEntity
  8
0
  6
ByLayer
 62
    0
370
   -1
100
AcDbLine
 10
5.20072
 20
141.93
 11
5.31922
 21
141.175
  0
LINE
  5
329
100
AcDbEntity
  8
0
  6
ByLayer
 62
    0
370
   -1
100
AcDbLine
 10
5.31922
 20
141.175
 11
5.66787
 21
140.491
  0
LINE
  5
32A
100
AcDbEntity
  8
0
  6
ByLayer
 62
    0
370
   -1
100
AcDbLine
 10
5.66787
 20
140.491
 11
6.20808
 21
139.951
  0
LINE
  5
32B
100
AcDbEntity
  8
0
  6
ByLayer
 62
    0
370
   -1
100
AcDbLine
 10
6.20808
 20
139.951
 11
6.89158
 21
139.602
  0
LINE
  5
32C
100
AcDbEntity
  8
0
  6
ByLayer
 62
    0
370
   -1
100
AcDbLine
 10
6.89158
 20
139.602
 11
7.64812
 21
139.484
  0
LINE
  5
32D
100
AcDbEntity
  8
0
  6
ByLayer
 62
    0
370
   -1
100
AcDbLine
 10
7.64812
 20
139.484
 11
8.403269999999999
 21
139.602
  0
LINE
  5
32E
100
AcDbEntity
  8
0
  6
ByLayer
 62
    0
370
   -1
100
AcDbLine
 10
8.403269999999999
 20
139.602
 11
9.086779999999999
 21
139.951
  0
LINE
  5
32F
100
AcDbEntity
  8
0
  6
ByLayer
 62
    0
370
   -1
100
AcDbLine
 10
9.086779999999999
 20
139.951
 11
9.626989999999999
 21
140.491
  0
LINE
  5
330
100
AcDbEntity
  8
0
  6
ByLayer
 62
    0
370
   -1
100
AcDbLine
 10
9.626989999999999
 20
140.491
 11
9.9756
 21
141.175
  0
LINE
  5
331
100
AcDbEntity
  8
0
  6
ByLayer
 62
    0
370
   -1
100
AcDbLine
 10
9.9756
 20
141.175
 11
10.0955
 21
141.93
  0
LINE
  5
332
100
AcDbEntity
  8
0
  6
ByLayer
 62
    0
370
   -1
100
AcDbLine
 10
10.0955
 20
141.93
 11
9.9756
 21
142.686
  0
LINE
  5
333
100
AcDbEntity
  8
0
  6
ByLayer
 62
    0
370
   -1
100
AcDbLine
 10
9.9756
 20
142.686
 11
9.626989999999999
 21
143.37
  0
LINE
  5
334
100
AcDbEntity
  8
0
  6
ByLayer
 62
    0
370
   -1
100
AcDbLine
 10
9.626989999999999
 20
143.37
 11
9.086779999999999
 21
143.91
  0
LINE
  5
335
100
AcDbEntity
  8
0
  6
ByLayer
 62
    0
370
   -1
100
AcDbLine
 10
9.086779999999999
 20
143.91
 11
8.403269999999999
 21
144.259
  0
LINE
  5
336
100
AcDbEntity
  8
0
  6
ByLayer
 62
    0
370
   -1
100
AcDbLine
 10
8.403269999999999
 20
144.259
 11
7.64812
 21
144.379
  0
LINE
  5
337
100
AcDbEntity
  8
0
  6
ByLayer
 62
    0
370
   -1
100
AcDbLine
 10
7.64812
 20
144.379
 11
6.89158
 21
144.259
  0
LINE
  5
338
100
AcDbEntity
  8
0
  6
ByLayer
 62
    0
370
   -1
100
AcDbLine
 10
288.796
 20
106.571
 11
288.796
 21
108.041
  0
LINE
  5
339
100
AcDbEntity
  8
0
  6
ByLayer
 62
    0
370
   -1
100
AcDbLine
 10
297.071
 20
106.571
 11
288.796
 21
106.571
  0
LINE
  5
33A
100
AcDbEntity
  8
0
  6
ByLayer
 62
    0
370
   -1
100
AcDbLine
 10
274.901
 20
108.041
 11
274.901
 21
106.571
  0
LINE
  5
33B
100
AcDbEntity
  8
0
  6
ByLayer
 62
    0
370
   -1
100
AcDbLine
 10
274.901
 20
106.571
 11
266.626
 21
106.571
  0
LINE
  5
33C
100
AcDbEntity
  8
0
  6
ByLayer
 62
    0
370
   -1
100
AcDbLine
 10
271.545
 20
93.1746
 11
271.545
 21
94.1447
  0
LINE
  5
33D
100
AcDbEntity
  8
0
  6
ByLayer
 62
    0
370
   -1
100
AcDbLine
 10
271.545
 20
94.1447
 11
292.151
 21
94.1447
  0
LINE
  5
33E
100
AcDbEntity
  8
0
  6
ByLayer
 62
    0
370
   -1
100
AcDbLine
 10
292.151
 20
94.1447
 11
292.151
 21
93.1746
  0
LINE
  5
33F
100
AcDbEntity
  8
0
  6
ByLayer
 62
    0
370
   -1
100
AcDbLine
 10
282.043
 20
82.8202
 11
282.043
 21
62.21549999999999
  0
LINE
  5
340
100
AcDbEntity
  8
0
  6
ByLayer
 62
    0
370
   -1
100
AcDbLine
 10
282.043
 20
62.2155
 11
281.073
 21
62.2155
  0
LINE
  5
341
100
AcDbEntity
  8
0
  6
ByLayer
 62
    0
370
   -1
100
AcDbLine
 10
281.073
 20
82.8202
 11
282.043
 21
82.8202
  0
LINE
  5
342
100
AcDbEntity
  8
0
  6
ByLayer
 62
    0
370
   -1
100
AcDbLine
 10
295.938
 20
79.46599999999999
 11
294.469
 21
79.46599999999999
  0
LINE
  5
343
100
AcDbEntity
  8
0
  6
ByLayer
 62
    0
370
   -1
100
AcDbLine
 10
294.469
 20
79.46599999999999
 11
294.469
 21
87.7397
  0
LINE
  5
344
100
AcDbEntity
  8
0
  6
ByLayer
 62
    0
370
   -1
100
AcDbLine
 10
294.469
 20
65.5697
 11
295.938
 21
65.5697
  0
LINE
  5
345
100
AcDbEntity
  8
0
  6
ByLayer
 62
    0
370
   -1
100
AcDbLine
 10
294.469
 20
57.2946
 11
294.469
 21
65.5697
  0
LINE
  5
346
100
AcDbEntity
  8
0
  6
ByLayer
 62
    0
370
   -1
100
AcDbLine
 10
267.757
 20
50.891
 11
267.757
 21
49.4206
  0
LINE
  5
347
100
AcDbEntity
  8
0
  6
ByLayer
 62
    0
370
   -1
100
AcDbLine
 10
267.757
 20
49.4206
 11
259.482
 21
49.4206
  0
LINE
  5
348
100
AcDbEntity
  8
0
  6
ByLayer
 62
    0
370
   -1
100
AcDbLine
 10
264.401
 20
36.0246
 11
264.401
 21
36.9947
  0
LINE
  5
349
100
AcDbEntity
  8
0
  6
ByLayer
 62
    0
370
   -1
100
AcDbLine
 10
264.401
 20
36.9947
 11
285.006
 21
36.9947
  0
LINE
  5
34A
100
AcDbEntity
  8
0
  6
ByLayer
 62
    0
370
   -1
100
AcDbLine
 10
285.006
 20
36.9947
 11
285.006
 21
36.0246
  0
LINE
  5
34B
100
AcDbEntity
  8
0
  6
ByLayer
 62
    0
370
   -1
100
AcDbLine
 10
289.927
 20
49.4206
 11
281.652
 21
49.4206
  0
LINE
  5
34C
100
AcDbEntity
  8
0
  6
ByLayer
 62
    0
370
   -1
100
AcDbLine
 10
281.652
 20
49.4206
 11
281.652
 21
50.891
  0
ENDSEC
  0
SECTION
  2
OBJECTS
  0
DICTIONARY
  5
C
330
0
100
AcDbDictionary
281
    1
  3
ACAD_GROUP
350
D
  0
DICTIONARY
  5
D
330
C
100
AcDbDictionary
281
    1
  0
ENDSEC
  0
EOF
