  0
SECTION
  2
HEADER
  9
$ACADVER
  1
AC1009
  9
$EXTMIN
 10
0.0
 20
0.0
 30
0.0
  9
$EXTMAX
 10
1000.0
 20
1000.0
 30
0.0
  9
$FILLMODE
 70
 0
  9
$SPLFRAME
 70
 1
  0
ENDSEC
  0
SECTION
  2
TABLES
  0
TABLE
  2
LAYER
 70
1
  0
LAYER
  2
0
 70
     0
 62
     7
  6
CONTINUOUS
  0
ENDTAB
  0
ENDSEC
  0
SECTION
  2
ENTITIES
  0
LINE
  8
0
 62
     0
 10
375.758
 20
149.483
 30
0.0
 11
375.916
 21
149.476
 31
0.0
  0
LINE
  8
0
 62
     0
 10
375.916
 20
149.476
 30
0.0
 11
376.072
 21
149.458
 31
0.0
  0
LINE
  8
0
 62
     0
 10
376.072
 20
149.458
 30
0.0
 11
376.223
 21
149.427
 31
0.0
  0
LINE
  8
0
 62
     0
 10
376.223
 20
149.427
 30
0.0
 11
376.375
 21
149.385
 31
0.0
  0
LINE
  8
0
 62
     0
 10
376.375
 20
149.385
 30
0.0
 11
376.523
 21
149.33
 31
0.0
  0
LINE
  8
0
 62
     0
 10
376.523
 20
149.33
 30
0.0
 11
376.664
 21
149.265
 31
0.0
  0
LINE
  8
0
 62
     0
 10
376.664
 20
149.265
 30
0.0
 11
376.805
 21
149.188
 31
0.0
  0
LINE
  8
0
 62
     0
 10
376.805
 20
149.188
 30
0.0
 11
376.936
 21
149.101
 31
0.0
  0
LINE
  8
0
 62
     0
 10
376.936
 20
149.101
 30
0.0
 11
377.056
 21
149.003
 31
0.0
  0
LINE
  8
0
 62
     0
 10
377.056
 20
149.003
 30
0.0
 11
377.172
 21
148.897
 31
0.0
  0
LINE
  8
0
 62
     0
 10
377.172
 20
148.897
 30
0.0
 11
377.278
 21
148.781
 31
0.0
  0
LINE
  8
0
 62
     0
 10
377.278
 20
148.781
 30
0.0
 11
377.377
 21
148.659
 31
0.0
  0
LINE
  8
0
 62
     0
 10
377.377
 20
148.659
 30
0.0
 11
377.465
 21
148.528
 31
0.0
  0
LINE
  8
0
 62
     0
 10
377.465
 20
148.528
 30
0.0
 11
377.543
 21
148.39
 31
0.0
  0
LINE
  8
0
 62
     0
 10
377.543
 20
148.39
 30
0.0
 11
377.606
 21
148.248
 31
0.0
  0
LINE
  8
0
 62
     0
 10
377.606
 20
148.248
 30
0.0
 11
377.663
 21
148.102
 31
0.0
  0
LINE
  8
0
 62
     0
 10
377.663
 20
148.102
 30
0.0
 11
377.705
 21
147.949
 31
0.0
  0
LINE
  8
0
 62
     0
 10
377.705
 20
147.949
 30
0.0
 11
377.733
 21
147.796
 31
0.0
  0
LINE
  8
0
 62
     0
 10
377.733
 20
147.796
 30
0.0
 11
377.751
 21
147.639
 31
0.0
  0
LINE
  8
0
 62
     0
 10
377.751
 20
147.639
 30
0.0
 11
377.758
 21
147.482
 31
0.0
  0
LINE
  8
0
 62
     0
 10
377.758
 20
147.482
 30
0.0
 11
377.758
 21
2.41984
 31
0.0
  0
LINE
  8
0
 62
     0
 10
377.758
 20
2.41984
 30
0.0
 11
377.751
 21
2.26274
 31
0.0
  0
LINE
  8
0
 62
     0
 10
377.751
 20
2.26274
 30
0.0
 11
377.733
 21
2.10564
 31
0.0
  0
LINE
  8
0
 62
     0
 10
377.733
 20
2.10564
 30
0.0
 11
377.705
 21
1.95268
 31
0.0
  0
LINE
  8
0
 62
     0
 10
377.705
 20
1.95268
 30
0.0
 11
377.663
 21
1.8011
 31
0.0
  0
LINE
  8
0
 62
     0
 10
377.663
 20
1.8011
 30
0.0
 11
377.606
 21
1.65365
 31
0.0
  0
LINE
  8
0
 62
     0
 10
377.606
 20
1.65365
 30
0.0
 11
377.543
 21
1.51171
 31
0.0
  0
LINE
  8
0
 62
     0
 10
377.543
 20
1.51171
 30
0.0
 11
377.465
 21
1.3739
 31
0.0
  0
LINE
  8
0
 62
     0
 10
377.465
 20
1.3739
 30
0.0
 11
377.377
 21
1.24299
 31
0.0
  0
LINE
  8
0
 62
     0
 10
377.377
 20
1.24299
 30
0.0
 11
377.278
 21
1.12034
 31
0.0
  0
LINE
  8
0
 62
     0
 10
377.278
 20
1.12034
 30
0.0
 11
377.172
 21
1.00597
 31
0.0
  0
LINE
  8
0
 62
     0
 10
377.172
 20
1.00597
 30
0.0
 11
377.056
 21
0.898483
 31
0.0
  0
LINE
  8
0
 62
     0
 10
377.056
 20
0.898483
 30
0.0
 11
376.936
 21
0.80064
 31
0.0
  0
LINE
  8
0
 62
     0
 10
376.936
 20
0.80064
 30
0.0
 11
376.805
 21
0.713825
 31
0.0
  0
LINE
  8
0
 62
     0
 10
376.805
 20
0.713825
 30
0.0
 11
376.664
 21
0.636655
 31
0.0
  0
LINE
  8
0
 62
     0
 10
376.664
 20
0.636655
 30
0.0
 11
376.523
 21
0.571885
 31
0.0
  0
LINE
  8
0
 62
     0
 10
376.523
 20
0.571885
 30
0.0
 11
376.375
 21
0.516763
 31
0.0
  0
LINE
  8
0
 62
     0
 10
376.375
 20
0.516763
 30
0.0
 11
376.223
 21
0.474045
 31
0.0
  0
LINE
  8
0
 62
     0
 10
376.223
 20
0.474045
 30
0.0
 11
376.072
 21
0.443727
 31
0.0
  0
LINE
  8
0
 62
     0
 10
376.072
 20
0.443727
 30
0.0
 11
375.916
 21
0.425813
 31
0.0
  0
LINE
  8
0
 62
     0
 10
375.916
 20
0.425813
 30
0.0
 11
375.758
 21
0.418924
 31
0.0
  0
LINE
  8
0
 62
     0
 10
375.758
 20
0.418924
 30
0.0
 11
2.096
 21
0.418924
 31
0.0
  0
LINE
  8
0
 62
     0
 10
2.096
 20
0.418924
 30
0.0
 11
1.9389
 21
0.425813
 31
0.0
  0
LINE
  8
0
 62
     0
 10
1.9389
 20
0.425813
 30
0.0
 11
1.7818
 21
0.443727
 31
0.0
  0
LINE
  8
0
 62
     0
 10
1.7818
 20
0.443727
 30
0.0
 11
1.62884
 21
0.474045
 31
0.0
  0
LINE
  8
0
 62
     0
 10
1.62884
 20
0.474045
 30
0.0
 11
1.47588
 21
0.516763
 31
0.0
  0
LINE
  8
0
 62
     0
 10
1.47588
 20
0.516763
 30
0.0
 11
1.32981
 21
0.571885
 31
0.0
  0
LINE
  8
0
 62
     0
 10
1.32981
 20
0.571885
 30
0.0
 11
1.18787
 21
0.636655
 31
0.0
  0
LINE
  8
0
 62
     0
 10
1.18787
 20
0.636655
 30
0.0
 11
1.05006
 21
0.713825
 31
0.0
  0
LINE
  8
0
 62
     0
 10
1.05006
 20
0.713825
 30
0.0
 11
0.919152
 21
0.80064
 31
0.0
  0
LINE
  8
0
 62
     0
 10
0.919152
 20
0.80064
 30
0.0
 11
0.796505
 21
0.898483
 31
0.0
  0
LINE
  8
0
 62
     0
 10
0.796505
 20
0.898483
 30
0.0
 11
0.680752
 21
1.00597
 31
0.0
  0
LINE
  8
0
 62
     0
 10
0.680752
 20
1.00597
 30
0.0
 11
0.574643
 21
1.12034
 31
0.0
  0
LINE
  8
0
 62
     0
 10
0.574643
 20
1.12034
 30
0.0
 11
0.4768
 21
1.24299
 31
0.0
  0
LINE
  8
0
 62
     0
 10
0.4768
 20
1.24299
 30
0.0
 11
0.389985
 21
1.3739
 31
0.0
  0
LINE
  8
0
 62
     0
 10
0.389985
 20
1.3739
 30
0.0
 11
0.312815
 21
1.51171
 31
0.0
  0
LINE
  8
0
 62
     0
 10
0.312815
 20
1.51171
 30
0.0
 11
0.248047
 21
1.65365
 31
0.0
  0
LINE
  8
0
 62
     0
 10
0.248047
 20
1.65365
 30
0.0
 11
0.192925
 21
1.8011
 31
0.0
  0
LINE
  8
0
 62
     0
 10
0.192925
 20
1.8011
 30
0.0
 11
0.150206
 21
1.95268
 31
0.0
  0
LINE
  8
0
 62
     0
 10
0.150206
 20
1.95268
 30
0.0
 11
0.119889
 21
2.10564
 31
0.0
  0
LINE
  8
0
 62
     0
 10
0.119889
 20
2.10564
 30
0.0
 11
0.101975
 21
2.26274
 31
0.0
  0
LINE
  8
0
 62
     0
 10
0.101975
 20
2.26274
 30
0.0
 11
0.0950846
 21
2.41984
 31
0.0
  0
LINE
  8
0
 62
     0
 10
0.0950846
 20
2.41984
 30
0.0
 11
0.0950846
 21
147.482
 31
0.0
  0
LINE
  8
0
 62
     0
 10
0.0950846
 20
147.482
 30
0.0
 11
0.101975
 21
147.639
 31
0.0
  0
LINE
  8
0
 62
     0
 10
0.101975
 20
147.639
 30
0.0
 11
0.119889
 21
147.796
 31
0.0
  0
LINE
  8
0
 62
     0
 10
0.119889
 20
147.796
 30
0.0
 11
0.150206
 21
147.949
 31
0.0
  0
LINE
  8
0
 62
     0
 10
0.150206
 20
147.949
 30
0.0
 11
0.192925
 21
148.102
 31
0.0
  0
LINE
  8
0
 62
     0
 10
0.192925
 20
148.102
 30
0.0
 11
0.248047
 21
148.248
 31
0.0
  0
LINE
  8
0
 62
     0
 10
0.248047
 20
148.248
 30
0.0
 11
0.312815
 21
148.39
 31
0.0
  0
LINE
  8
0
 62
     0
 10
0.312815
 20
148.39
 30
0.0
 11
0.389985
 21
148.528
 31
0.0
  0
LINE
  8
0
 62
     0
 10
0.389985
 20
148.528
 30
0.0
 11
0.4768
 21
148.659
 31
0.0
  0
LINE
  8
0
 62
     0
 10
0.4768
 20
148.659
 30
0.0
 11
0.574643
 21
148.781
 31
0.0
  0
LINE
  8
0
 62
     0
 10
0.574643
 20
148.781
 30
0.0
 11
0.680752
 21
148.897
 31
0.0
  0
LINE
  8
0
 62
     0
 10
0.680752
 20
148.897
 30
0.0
 11
0.796505
 21
149.003
 31
0.0
  0
LINE
  8
0
 62
     0
 10
0.796505
 20
149.003
 30
0.0
 11
0.919152
 21
149.101
 31
0.0
  0
LINE
  8
0
 62
     0
 10
0.919152
 20
149.101
 30
0.0
 11
1.05006
 21
149.188
 31
0.0
  0
LINE
  8
0
 62
     0
 10
1.05006
 20
149.188
 30
0.0
 11
1.18787
 21
149.265
 31
0.0
  0
LINE
  8
0
 62
     0
 10
1.18787
 20
149.265
 30
0.0
 11
1.32981
 21
149.33
 31
0.0
  0
LINE
  8
0
 62
     0
 10
1.32981
 20
149.33
 30
0.0
 11
1.47588
 21
149.385
 31
0.0
  0
LINE
  8
0
 62
     0
 10
1.47588
 20
149.385
 30
0.0
 11
1.62884
 21
149.427
 31
0.0
  0
LINE
  8
0
 62
     0
 10
1.62884
 20
149.427
 30
0.0
 11
1.7818
 21
149.458
 31
0.0
  0
LINE
  8
0
 62
     0
 10
1.7818
 20
149.458
 30
0.0
 11
1.9389
 21
149.476
 31
0.0
  0
LINE
  8
0
 62
     0
 10
1.9389
 20
149.476
 30
0.0
 11
2.096
 21
149.483
 31
0.0
  0
LINE
  8
0
 62
     0
 10
2.096
 20
149.483
 30
0.0
 11
375.758
 21
149.483
 31
0.0
  0
LINE
  8
0
 62
     0
 10
6.82265
 20
10.2967
 30
0.0
 11
6.12539
 21
9.94255
 31
0.0
  0
LINE
  8
0
 62
     0
 10
6.12539
 20
9.94255
 30
0.0
 11
5.5728
 21
9.38858
 31
0.0
  0
LINE
  8
0
 62
     0
 10
5.5728
 20
9.38858
 30
0.0
 11
5.21727
 21
8.69266
 31
0.0
  0
LINE
  8
0
 62
     0
 10
5.21727
 20
8.69266
 30
0.0
 11
5.09598
 21
7.91958
 31
0.0
  0
LINE
  8
0
 62
     0
 10
5.09598
 20
7.91958
 30
0.0
 11
5.21727
 21
7.1465
 31
0.0
  0
LINE
  8
0
 62
     0
 10
5.21727
 20
7.1465
 30
0.0
 11
5.5728
 21
6.45061
 31
0.0
  0
LINE
  8
0
 62
     0
 10
5.5728
 20
6.45061
 30
0.0
 11
6.12539
 21
5.89661
 31
0.0
  0
LINE
  8
0
 62
     0
 10
6.12539
 20
5.89661
 30
0.0
 11
6.82265
 21
5.54108
 31
0.0
  0
LINE
  8
0
 62
     0
 10
6.82265
 20
5.54108
 30
0.0
 11
7.59576
 21
5.41983
 31
0.0
  0
LINE
  8
0
 62
     0
 10
7.59576
 20
5.41983
 30
0.0
 11
8.36747
 21
5.54108
 31
0.0
  0
LINE
  8
0
 62
     0
 10
8.36747
 20
5.54108
 30
0.0
 11
9.06473
 21
5.89661
 31
0.0
  0
LINE
  8
0
 62
     0
 10
9.06473
 20
5.89661
 30
0.0
 11
9.61732
 21
6.45061
 31
0.0
  0
LINE
  8
0
 62
     0
 10
9.61732
 20
6.45061
 30
0.0
 11
9.97285
 21
7.1465
 31
0.0
  0
LINE
  8
0
 62
     0
 10
9.97285
 20
7.1465
 30
0.0
 11
10.0955
 21
7.91958
 31
0.0
  0
LINE
  8
0
 62
     0
 10
10.0955
 20
7.91958
 30
0.0
 11
9.97285
 21
8.69266
 31
0.0
  0
LINE
  8
0
 62
     0
 10
9.97285
 20
8.69266
 30
0.0
 11
9.61732
 21
9.38858
 31
0.0
  0
LINE
  8
0
 62
     0
 10
9.61732
 20
9.38858
 30
0.0
 11
9.06473
 21
9.94255
 31
0.0
  0
LINE
  8
0
 62
     0
 10
9.06473
 20
9.94255
 30
0.0
 11
8.36747
 21
10.2967
 31
0.0
  0
LINE
  8
0
 62
     0
 10
8.36747
 20
10.2967
 30
0.0
 11
7.59576
 21
10.4194
 31
0.0
  0
LINE
  8
0
 62
     0
 10
7.59576
 20
10.4194
 30
0.0
 11
6.82265
 21
10.2967
 31
0.0
  0
LINE
  8
0
 62
     0
 10
97.488
 20
10.2967
 30
0.0
 11
96.792
 21
9.94255
 31
0.0
  0
LINE
  8
0
 62
     0
 10
96.792
 20
9.94255
 30
0.0
 11
96.2381
 21
9.38858
 31
0.0
  0
LINE
  8
0
 62
     0
 10
96.2381
 20
9.38858
 30
0.0
 11
95.8839
 21
8.69266
 31
0.0
  0
LINE
  8
0
 62
     0
 10
95.8839
 20
8.69266
 30
0.0
 11
95.7598
 21
7.91958
 31
0.0
  0
LINE
  8
0
 62
     0
 10
95.7598
 20
7.91958
 30
0.0
 11
95.8839
 21
7.1465
 31
0.0
  0
LINE
  8
0
 62
     0
 10
95.8839
 20
7.1465
 30
0.0
 11
96.2381
 21
6.45061
 31
0.0
  0
LINE
  8
0
 62
     0
 10
96.2381
 20
6.45061
 30
0.0
 11
96.792
 21
5.89661
 31
0.0
  0
LINE
  8
0
 62
     0
 10
96.792
 20
5.89661
 30
0.0
 11
97.488
 21
5.54108
 31
0.0
  0
LINE
  8
0
 62
     0
 10
97.488
 20
5.54108
 30
0.0
 11
98.261
 21
5.41983
 31
0.0
  0
LINE
  8
0
 62
     0
 10
98.261
 20
5.41983
 30
0.0
 11
99.0342
 21
5.54108
 31
0.0
  0
LINE
  8
0
 62
     0
 10
99.0342
 20
5.54108
 30
0.0
 11
99.7299
 21
5.89661
 31
0.0
  0
LINE
  8
0
 62
     0
 10
99.7299
 20
5.89661
 30
0.0
 11
100.284
 21
6.45061
 31
0.0
  0
LINE
  8
0
 62
     0
 10
100.284
 20
6.45061
 30
0.0
 11
100.638
 21
7.1465
 31
0.0
  0
LINE
  8
0
 62
     0
 10
100.638
 20
7.1465
 30
0.0
 11
100.761
 21
7.91958
 31
0.0
  0
LINE
  8
0
 62
     0
 10
100.761
 20
7.91958
 30
0.0
 11
100.638
 21
8.69266
 31
0.0
  0
LINE
  8
0
 62
     0
 10
100.638
 20
8.69266
 30
0.0
 11
100.284
 21
9.38858
 31
0.0
  0
LINE
  8
0
 62
     0
 10
100.284
 20
9.38858
 30
0.0
 11
99.7299
 21
9.94255
 31
0.0
  0
LINE
  8
0
 62
     0
 10
99.7299
 20
9.94255
 30
0.0
 11
99.0342
 21
10.2967
 31
0.0
  0
LINE
  8
0
 62
     0
 10
99.0342
 20
10.2967
 30
0.0
 11
98.261
 21
10.4194
 31
0.0
  0
LINE
  8
0
 62
     0
 10
98.261
 20
10.4194
 30
0.0
 11
97.488
 21
10.2967
 31
0.0
  0
LINE
  8
0
 62
     0
 10
188.155
 20
10.2967
 30
0.0
 11
187.457
 21
9.94255
 31
0.0
  0
LINE
  8
0
 62
     0
 10
187.457
 20
9.94255
 30
0.0
 11
186.905
 21
9.38858
 31
0.0
  0
LINE
  8
0
 62
     0
 10
186.905
 20
9.38858
 30
0.0
 11
186.549
 21
8.69266
 31
0.0
  0
LINE
  8
0
 62
     0
 10
186.549
 20
8.69266
 30
0.0
 11
186.426
 21
7.91958
 31
0.0
  0
LINE
  8
0
 62
     0
 10
186.426
 20
7.91958
 30
0.0
 11
186.549
 21
7.1465
 31
0.0
  0
LINE
  8
0
 62
     0
 10
186.549
 20
7.1465
 30
0.0
 11
186.905
 21
6.45061
 31
0.0
  0
LINE
  8
0
 62
     0
 10
186.905
 20
6.45061
 30
0.0
 11
187.457
 21
5.89661
 31
0.0
  0
LINE
  8
0
 62
     0
 10
187.457
 20
5.89661
 30
0.0
 11
188.155
 21
5.54108
 31
0.0
  0
LINE
  8
0
 62
     0
 10
188.155
 20
5.54108
 30
0.0
 11
188.926
 21
5.41983
 31
0.0
  0
LINE
  8
0
 62
     0
 10
188.926
 20
5.41983
 30
0.0
 11
189.699
 21
5.54108
 31
0.0
  0
LINE
  8
0
 62
     0
 10
189.699
 20
5.54108
 30
0.0
 11
190.397
 21
5.89661
 31
0.0
  0
LINE
  8
0
 62
     0
 10
190.397
 20
5.89661
 30
0.0
 11
190.949
 21
6.45061
 31
0.0
  0
LINE
  8
0
 62
     0
 10
190.949
 20
6.45061
 30
0.0
 11
191.305
 21
7.1465
 31
0.0
  0
LINE
  8
0
 62
     0
 10
191.305
 20
7.1465
 30
0.0
 11
191.426
 21
7.91958
 31
0.0
  0
LINE
  8
0
 62
     0
 10
191.426
 20
7.91958
 30
0.0
 11
191.305
 21
8.69266
 31
0.0
  0
LINE
  8
0
 62
     0
 10
191.305
 20
8.69266
 30
0.0
 11
190.949
 21
9.38858
 31
0.0
  0
LINE
  8
0
 62
     0
 10
190.949
 20
9.38858
 30
0.0
 11
190.397
 21
9.94255
 31
0.0
  0
LINE
  8
0
 62
     0
 10
190.397
 20
9.94255
 30
0.0
 11
189.699
 21
10.2967
 31
0.0
  0
LINE
  8
0
 62
     0
 10
189.699
 20
10.2967
 30
0.0
 11
188.926
 21
10.4194
 31
0.0
  0
LINE
  8
0
 62
     0
 10
188.926
 20
10.4194
 30
0.0
 11
188.155
 21
10.2967
 31
0.0
  0
LINE
  8
0
 62
     0
 10
278.82
 20
10.2967
 30
0.0
 11
278.124
 21
9.94255
 31
0.0
  0
LINE
  8
0
 62
     0
 10
278.124
 20
9.94255
 30
0.0
 11
277.57
 21
9.38858
 31
0.0
  0
LINE
  8
0
 62
     0
 10
277.57
 20
9.38858
 30
0.0
 11
277.215
 21
8.69266
 31
0.0
  0
LINE
  8
0
 62
     0
 10
277.215
 20
8.69266
 30
0.0
 11
277.093
 21
7.91958
 31
0.0
  0
LINE
  8
0
 62
     0
 10
277.093
 20
7.91958
 30
0.0
 11
277.215
 21
7.1465
 31
0.0
  0
LINE
  8
0
 62
     0
 10
277.215
 20
7.1465
 30
0.0
 11
277.57
 21
6.45061
 31
0.0
  0
LINE
  8
0
 62
     0
 10
277.57
 20
6.45061
 30
0.0
 11
278.124
 21
5.89661
 31
0.0
  0
LINE
  8
0
 62
     0
 10
278.124
 20
5.89661
 30
0.0
 11
278.82
 21
5.54108
 31
0.0
  0
LINE
  8
0
 62
     0
 10
278.82
 20
5.54108
 30
0.0
 11
279.593
 21
5.41983
 31
0.0
  0
LINE
  8
0
 62
     0
 10
279.593
 20
5.41983
 30
0.0
 11
280.366
 21
5.54108
 31
0.0
  0
LINE
  8
0
 62
     0
 10
280.366
 20
5.54108
 30
0.0
 11
281.062
 21
5.89661
 31
0.0
  0
LINE
  8
0
 62
     0
 10
281.062
 20
5.89661
 30
0.0
 11
281.616
 21
6.45061
 31
0.0
  0
LINE
  8
0
 62
     0
 10
281.616
 20
6.45061
 30
0.0
 11
281.97
 21
7.1465
 31
0.0
  0
LINE
  8
0
 62
     0
 10
281.97
 20
7.1465
 30
0.0
 11
282.093
 21
7.91958
 31
0.0
  0
LINE
  8
0
 62
     0
 10
282.093
 20
7.91958
 30
0.0
 11
281.97
 21
8.69266
 31
0.0
  0
LINE
  8
0
 62
     0
 10
281.97
 20
8.69266
 30
0.0
 11
281.616
 21
9.38858
 31
0.0
  0
LINE
  8
0
 62
     0
 10
281.616
 20
9.38858
 30
0.0
 11
281.062
 21
9.94255
 31
0.0
  0
LINE
  8
0
 62
     0
 10
281.062
 20
9.94255
 30
0.0
 11
280.366
 21
10.2967
 31
0.0
  0
LINE
  8
0
 62
     0
 10
280.366
 20
10.2967
 30
0.0
 11
279.593
 21
10.4194
 31
0.0
  0
LINE
  8
0
 62
     0
 10
279.593
 20
10.4194
 30
0.0
 11
278.82
 21
10.2967
 31
0.0
  0
LINE
  8
0
 62
     0
 10
369.485
 20
10.2967
 30
0.0
 11
368.79
 21
9.94255
 31
0.0
  0
LINE
  8
0
 62
     0
 10
368.79
 20
9.94255
 30
0.0
 11
368.236
 21
9.38858
 31
0.0
  0
LINE
  8
0
 62
     0
 10
368.236
 20
9.38858
 30
0.0
 11
367.88
 21
8.69266
 31
0.0
  0
LINE
  8
0
 62
     0
 10
367.88
 20
8.69266
 30
0.0
 11
367.757
 21
7.91958
 31
0.0
  0
LINE
  8
0
 62
     0
 10
367.757
 20
7.91958
 30
0.0
 11
367.88
 21
7.1465
 31
0.0
  0
LINE
  8
0
 62
     0
 10
367.88
 20
7.1465
 30
0.0
 11
368.236
 21
6.45061
 31
0.0
  0
LINE
  8
0
 62
     0
 10
368.236
 20
6.45061
 30
0.0
 11
368.79
 21
5.89661
 31
0.0
  0
LINE
  8
0
 62
     0
 10
368.79
 20
5.89661
 30
0.0
 11
369.485
 21
5.54108
 31
0.0
  0
LINE
  8
0
 62
     0
 10
369.485
 20
5.54108
 30
0.0
 11
370.258
 21
5.41983
 31
0.0
  0
LINE
  8
0
 62
     0
 10
370.258
 20
5.41983
 30
0.0
 11
371.03
 21
5.54108
 31
0.0
  0
LINE
  8
0
 62
     0
 10
371.03
 20
5.54108
 30
0.0
 11
371.725
 21
5.89661
 31
0.0
  0
LINE
  8
0
 62
     0
 10
371.725
 20
5.89661
 30
0.0
 11
372.283
 21
6.45061
 31
0.0
  0
LINE
  8
0
 62
     0
 10
372.283
 20
6.45061
 30
0.0
 11
372.636
 21
7.1465
 31
0.0
  0
LINE
  8
0
 62
     0
 10
372.636
 20
7.1465
 30
0.0
 11
372.759
 21
7.91958
 31
0.0
  0
LINE
  8
0
 62
     0
 10
372.759
 20
7.91958
 30
0.0
 11
372.636
 21
8.69266
 31
0.0
  0
LINE
  8
0
 62
     0
 10
372.636
 20
8.69266
 30
0.0
 11
372.283
 21
9.38858
 31
0.0
  0
LINE
  8
0
 62
     0
 10
372.283
 20
9.38858
 30
0.0
 11
371.725
 21
9.94255
 31
0.0
  0
LINE
  8
0
 62
     0
 10
371.725
 20
9.94255
 30
0.0
 11
371.03
 21
10.2967
 31
0.0
  0
LINE
  8
0
 62
     0
 10
371.03
 20
10.2967
 30
0.0
 11
370.258
 21
10.4194
 31
0.0
  0
LINE
  8
0
 62
     0
 10
370.258
 20
10.4194
 30
0.0
 11
369.485
 21
10.2967
 31
0.0
  0
LINE
  8
0
 62
     0
 10
139.063
 20
31.9457
 30
0.0
 11
139.063
 21
27.2452
 31
0.0
  0
LINE
  8
0
 62
     0
 10
139.063
 20
27.2452
 30
0.0
 11
99.4378
 21
27.2452
 31
0.0
  0
LINE
  8
0
 62
     0
 10
99.4378
 20
27.2452
 30
0.0
 11
99.4378
 21
30.4753
 31
0.0
  0
LINE
  8
0
 62
     0
 10
99.4378
 20
30.4753
 30
0.0
 11
92.6881
 21
30.4753
 31
0.0
  0
LINE
  8
0
 62
     0
 10
92.6881
 20
30.4753
 30
0.0
 11
92.6881
 21
27.2452
 31
0.0
  0
LINE
  8
0
 62
     0
 10
92.6881
 20
27.2452
 30
0.0
 11
91.864
 21
27.2452
 31
0.0
  0
LINE
  8
0
 62
     0
 10
91.864
 20
27.2452
 30
0.0
 11
91.864
 21
24.445
 31
0.0
  0
LINE
  8
0
 62
     0
 10
91.864
 20
24.445
 30
0.0
 11
92.6881
 21
24.445
 31
0.0
  0
LINE
  8
0
 62
     0
 10
92.6881
 20
24.445
 30
0.0
 11
92.6881
 21
18.1749
 31
0.0
  0
LINE
  8
0
 62
     0
 10
92.6881
 20
18.1749
 30
0.0
 11
94.4136
 21
18.1749
 31
0.0
  0
LINE
  8
0
 62
     0
 10
94.4136
 20
18.1749
 30
0.0
 11
94.4136
 21
16.9747
 31
0.0
  0
LINE
  8
0
 62
     0
 10
94.4136
 20
16.9747
 30
0.0
 11
97.7138
 21
16.9747
 31
0.0
  0
LINE
  8
0
 62
     0
 10
97.7138
 20
16.9747
 30
0.0
 11
97.7138
 21
18.1749
 31
0.0
  0
LINE
  8
0
 62
     0
 10
97.7138
 20
18.1749
 30
0.0
 11
99.4378
 21
18.1749
 31
0.0
  0
LINE
  8
0
 62
     0
 10
99.4378
 20
18.1749
 30
0.0
 11
99.4378
 21
22.6453
 31
0.0
  0
LINE
  8
0
 62
     0
 10
99.4378
 20
22.6453
 30
0.0
 11
139.063
 21
22.6453
 31
0.0
  0
LINE
  8
0
 62
     0
 10
139.063
 20
22.6453
 30
0.0
 11
139.063
 21
17.9448
 31
0.0
  0
LINE
  8
0
 62
     0
 10
139.063
 20
17.9448
 30
0.0
 11
153.063
 21
17.9448
 31
0.0
  0
LINE
  8
0
 62
     0
 10
153.063
 20
17.9448
 30
0.0
 11
153.063
 21
22.6453
 31
0.0
  0
LINE
  8
0
 62
     0
 10
153.063
 20
22.6453
 30
0.0
 11
192.688
 21
22.6453
 31
0.0
  0
LINE
  8
0
 62
     0
 10
192.688
 20
22.6453
 30
0.0
 11
192.688
 21
18.1749
 31
0.0
  0
LINE
  8
0
 62
     0
 10
192.688
 20
18.1749
 30
0.0
 11
194.414
 21
18.1749
 31
0.0
  0
LINE
  8
0
 62
     0
 10
194.414
 20
18.1749
 30
0.0
 11
194.414
 21
16.9747
 31
0.0
  0
LINE
  8
0
 62
     0
 10
194.414
 20
16.9747
 30
0.0
 11
197.714
 21
16.9747
 31
0.0
  0
LINE
  8
0
 62
     0
 10
197.714
 20
16.9747
 30
0.0
 11
197.714
 21
18.1749
 31
0.0
  0
LINE
  8
0
 62
     0
 10
197.714
 20
18.1749
 30
0.0
 11
199.438
 21
18.1749
 31
0.0
  0
LINE
  8
0
 62
     0
 10
199.438
 20
18.1749
 30
0.0
 11
199.438
 21
24.445
 31
0.0
  0
LINE
  8
0
 62
     0
 10
199.438
 20
24.445
 30
0.0
 11
200.263
 21
24.445
 31
0.0
  0
LINE
  8
0
 62
     0
 10
200.263
 20
24.445
 30
0.0
 11
200.263
 21
27.2452
 31
0.0
  0
LINE
  8
0
 62
     0
 10
200.263
 20
27.2452
 30
0.0
 11
199.438
 21
27.2452
 31
0.0
  0
LINE
  8
0
 62
     0
 10
199.438
 20
27.2452
 30
0.0
 11
199.438
 21
30.4753
 31
0.0
  0
LINE
  8
0
 62
     0
 10
199.438
 20
30.4753
 30
0.0
 11
192.688
 21
30.4753
 31
0.0
  0
LINE
  8
0
 62
     0
 10
192.688
 20
30.4753
 30
0.0
 11
192.688
 21
27.2452
 31
0.0
  0
LINE
  8
0
 62
     0
 10
192.688
 20
27.2452
 30
0.0
 11
153.063
 21
27.2452
 31
0.0
  0
LINE
  8
0
 62
     0
 10
153.063
 20
27.2452
 30
0.0
 11
153.063
 21
31.9457
 31
0.0
  0
LINE
  8
0
 62
     0
 10
153.063
 20
31.9457
 30
0.0
 11
139.063
 21
31.9457
 31
0.0
  0
LINE
  8
0
 62
     0
 10
346.232
 20
31.9457
 30
0.0
 11
360.232
 21
31.9457
 31
0.0
  0
LINE
  8
0
 62
     0
 10
360.232
 20
31.9457
 30
0.0
 11
360.232
 21
17.9448
 31
0.0
  0
LINE
  8
0
 62
     0
 10
360.232
 20
17.9448
 30
0.0
 11
346.232
 21
17.9448
 31
0.0
  0
LINE
  8
0
 62
     0
 10
346.232
 20
17.9448
 30
0.0
 11
346.232
 21
31.9457
 31
0.0
  0
LINE
  8
0
 62
     0
 10
327.182
 20
31.9457
 30
0.0
 11
341.183
 21
31.9457
 31
0.0
  0
LINE
  8
0
 62
     0
 10
341.183
 20
31.9457
 30
0.0
 11
341.183
 21
17.9448
 31
0.0
  0
LINE
  8
0
 62
     0
 10
341.183
 20
17.9448
 30
0.0
 11
327.182
 21
17.9448
 31
0.0
  0
LINE
  8
0
 62
     0
 10
327.182
 20
17.9448
 30
0.0
 11
327.182
 21
31.9457
 31
0.0
  0
LINE
  8
0
 62
     0
 10
308.132
 20
31.9457
 30
0.0
 11
322.133
 21
31.9457
 31
0.0
  0
LINE
  8
0
 62
     0
 10
322.133
 20
31.9457
 30
0.0
 11
322.133
 21
17.9448
 31
0.0
  0
LINE
  8
0
 62
     0
 10
322.133
 20
17.9448
 30
0.0
 11
308.132
 21
17.9448
 31
0.0
  0
LINE
  8
0
 62
     0
 10
308.132
 20
17.9448
 30
0.0
 11
308.132
 21
31.9457
 31
0.0
  0
LINE
  8
0
 62
     0
 10
281.938
 20
31.9457
 30
0.0
 11
295.938
 21
31.9457
 31
0.0
  0
LINE
  8
0
 62
     0
 10
295.938
 20
31.9457
 30
0.0
 11
295.938
 21
17.9448
 31
0.0
  0
LINE
  8
0
 62
     0
 10
295.938
 20
17.9448
 30
0.0
 11
281.938
 21
17.9448
 31
0.0
  0
LINE
  8
0
 62
     0
 10
281.938
 20
17.9448
 30
0.0
 11
281.938
 21
31.9457
 31
0.0
  0
LINE
  8
0
 62
     0
 10
258.126
 20
31.9457
 30
0.0
 11
272.127
 21
31.9457
 31
0.0
  0
LINE
  8
0
 62
     0
 10
272.127
 20
31.9457
 30
0.0
 11
272.127
 21
17.9448
 31
0.0
  0
LINE
  8
0
 62
     0
 10
272.127
 20
17.9448
 30
0.0
 11
258.126
 21
17.9448
 31
0.0
  0
LINE
  8
0
 62
     0
 10
258.126
 20
17.9448
 30
0.0
 11
258.126
 21
31.9457
 31
0.0
  0
LINE
  8
0
 62
     0
 10
234.313
 20
31.9457
 30
0.0
 11
248.313
 21
31.9457
 31
0.0
  0
LINE
  8
0
 62
     0
 10
248.313
 20
31.9457
 30
0.0
 11
248.313
 21
17.9448
 31
0.0
  0
LINE
  8
0
 62
     0
 10
248.313
 20
17.9448
 30
0.0
 11
234.313
 21
17.9448
 31
0.0
  0
LINE
  8
0
 62
     0
 10
234.313
 20
17.9448
 30
0.0
 11
234.313
 21
31.9457
 31
0.0
  0
LINE
  8
0
 62
     0
 10
210.501
 20
31.9457
 30
0.0
 11
224.502
 21
31.9457
 31
0.0
  0
LINE
  8
0
 62
     0
 10
224.502
 20
31.9457
 30
0.0
 11
224.502
 21
17.9448
 31
0.0
  0
LINE
  8
0
 62
     0
 10
224.502
 20
17.9448
 30
0.0
 11
210.501
 21
17.9448
 31
0.0
  0
LINE
  8
0
 62
     0
 10
210.501
 20
17.9448
 30
0.0
 11
210.501
 21
31.9457
 31
0.0
  0
LINE
  8
0
 62
     0
 10
67.6257
 20
31.9457
 30
0.0
 11
81.6268
 21
31.9457
 31
0.0
  0
LINE
  8
0
 62
     0
 10
81.6268
 20
31.9457
 30
0.0
 11
81.6268
 21
17.9448
 31
0.0
  0
LINE
  8
0
 62
     0
 10
81.6268
 20
17.9448
 30
0.0
 11
67.6257
 21
17.9448
 31
0.0
  0
LINE
  8
0
 62
     0
 10
67.6257
 20
17.9448
 30
0.0
 11
67.6257
 21
31.9457
 31
0.0
  0
LINE
  8
0
 62
     0
 10
43.8132
 20
31.9457
 30
0.0
 11
57.8129
 21
31.9457
 31
0.0
  0
LINE
  8
0
 62
     0
 10
57.8129
 20
31.9457
 30
0.0
 11
57.8129
 21
17.9448
 31
0.0
  0
LINE
  8
0
 62
     0
 10
57.8129
 20
17.9448
 30
0.0
 11
43.8132
 21
17.9448
 31
0.0
  0
LINE
  8
0
 62
     0
 10
43.8132
 20
17.9448
 30
0.0
 11
43.8132
 21
31.9457
 31
0.0
  0
LINE
  8
0
 62
     0
 10
20.0008
 20
31.9457
 30
0.0
 11
34.0017
 21
31.9457
 31
0.0
  0
LINE
  8
0
 62
     0
 10
34.0017
 20
31.9457
 30
0.0
 11
34.0017
 21
17.9448
 31
0.0
  0
LINE
  8
0
 62
     0
 10
34.0017
 20
17.9448
 30
0.0
 11
20.0008
 21
17.9448
 31
0.0
  0
LINE
  8
0
 62
     0
 10
20.0008
 20
17.9448
 30
0.0
 11
20.0008
 21
31.9457
 31
0.0
  0
LINE
  8
0
 62
     0
 10
267.651
 20
50.9958
 30
0.0
 11
267.651
 21
46.295
 31
0.0
  0
LINE
  8
0
 62
     0
 10
267.651
 20
46.295
 30
0.0
 11
266.127
 21
46.295
 31
0.0
  0
LINE
  8
0
 62
     0
 10
266.127
 20
46.295
 30
0.0
 11
266.127
 21
49.5254
 31
0.0
  0
LINE
  8
0
 62
     0
 10
266.127
 20
49.5254
 30
0.0
 11
259.377
 21
49.5254
 31
0.0
  0
LINE
  8
0
 62
     0
 10
259.377
 20
49.5254
 30
0.0
 11
259.377
 21
46.295
 31
0.0
  0
LINE
  8
0
 62
     0
 10
259.377
 20
46.295
 30
0.0
 11
258.552
 21
46.295
 31
0.0
  0
LINE
  8
0
 62
     0
 10
258.552
 20
46.295
 30
0.0
 11
258.552
 21
43.495
 31
0.0
  0
LINE
  8
0
 62
     0
 10
258.552
 20
43.495
 30
0.0
 11
259.377
 21
43.495
 31
0.0
  0
LINE
  8
0
 62
     0
 10
259.377
 20
43.495
 30
0.0
 11
259.377
 21
37.2251
 31
0.0
  0
LINE
  8
0
 62
     0
 10
259.377
 20
37.2251
 30
0.0
 11
261.101
 21
37.2251
 31
0.0
  0
LINE
  8
0
 62
     0
 10
261.101
 20
37.2251
 30
0.0
 11
261.101
 21
36.0246
 31
0.0
  0
LINE
  8
0
 62
     0
 10
261.101
 20
36.0246
 30
0.0
 11
264.401
 21
36.0246
 31
0.0
  0
LINE
  8
0
 62
     0
 10
264.401
 20
36.0246
 30
0.0
 11
264.401
 21
37.2251
 31
0.0
  0
LINE
  8
0
 62
     0
 10
264.401
 20
37.2251
 30
0.0
 11
266.127
 21
37.2251
 31
0.0
  0
LINE
  8
0
 62
     0
 10
266.127
 20
37.2251
 30
0.0
 11
266.127
 21
41.6952
 31
0.0
  0
LINE
  8
0
 62
     0
 10
266.127
 20
41.6952
 30
0.0
 11
267.651
 21
41.6952
 31
0.0
  0
LINE
  8
0
 62
     0
 10
267.651
 20
41.6952
 30
0.0
 11
267.651
 21
36.9947
 31
0.0
  0
LINE
  8
0
 62
     0
 10
267.651
 20
36.9947
 30
0.0
 11
281.652
 21
36.9947
 31
0.0
  0
LINE
  8
0
 62
     0
 10
281.652
 20
36.9947
 30
0.0
 11
281.652
 21
41.6952
 31
0.0
  0
LINE
  8
0
 62
     0
 10
281.652
 20
41.6952
 30
0.0
 11
283.176
 21
41.6952
 31
0.0
  0
LINE
  8
0
 62
     0
 10
283.176
 20
41.6952
 30
0.0
 11
283.176
 21
37.2251
 31
0.0
  0
LINE
  8
0
 62
     0
 10
283.176
 20
37.2251
 30
0.0
 11
284.901
 21
37.2251
 31
0.0
  0
LINE
  8
0
 62
     0
 10
284.901
 20
37.2251
 30
0.0
 11
284.901
 21
36.0246
 31
0.0
  0
LINE
  8
0
 62
     0
 10
284.901
 20
36.0246
 30
0.0
 11
288.201
 21
36.0246
 31
0.0
  0
LINE
  8
0
 62
     0
 10
288.201
 20
36.0246
 30
0.0
 11
288.201
 21
37.2251
 31
0.0
  0
LINE
  8
0
 62
     0
 10
288.201
 20
37.2251
 30
0.0
 11
289.927
 21
37.2251
 31
0.0
  0
LINE
  8
0
 62
     0
 10
289.927
 20
37.2251
 30
0.0
 11
289.927
 21
43.495
 31
0.0
  0
LINE
  8
0
 62
     0
 10
289.927
 20
43.495
 30
0.0
 11
290.751
 21
43.495
 31
0.0
  0
LINE
  8
0
 62
     0
 10
290.751
 20
43.495
 30
0.0
 11
290.751
 21
46.295
 31
0.0
  0
LINE
  8
0
 62
     0
 10
290.751
 20
46.295
 30
0.0
 11
289.927
 21
46.295
 31
0.0
  0
LINE
  8
0
 62
     0
 10
289.927
 20
46.295
 30
0.0
 11
289.927
 21
49.5254
 31
0.0
  0
LINE
  8
0
 62
     0
 10
289.927
 20
49.5254
 30
0.0
 11
283.176
 21
49.5254
 31
0.0
  0
LINE
  8
0
 62
     0
 10
283.176
 20
49.5254
 30
0.0
 11
283.176
 21
46.295
 31
0.0
  0
LINE
  8
0
 62
     0
 10
283.176
 20
46.295
 30
0.0
 11
281.652
 21
46.295
 31
0.0
  0
LINE
  8
0
 62
     0
 10
281.652
 20
46.295
 30
0.0
 11
281.652
 21
50.9958
 31
0.0
  0
LINE
  8
0
 62
     0
 10
281.652
 20
50.9958
 30
0.0
 11
267.651
 21
50.9958
 31
0.0
  0
LINE
  8
0
 62
     0
 10
327.182
 20
50.9958
 30
0.0
 11
341.183
 21
50.9958
 31
0.0
  0
LINE
  8
0
 62
     0
 10
341.183
 20
50.9958
 30
0.0
 11
341.183
 21
36.9947
 31
0.0
  0
LINE
  8
0
 62
     0
 10
341.183
 20
36.9947
 30
0.0
 11
327.182
 21
36.9947
 31
0.0
  0
LINE
  8
0
 62
     0
 10
327.182
 20
36.9947
 30
0.0
 11
327.182
 21
50.9958
 31
0.0
  0
LINE
  8
0
 62
     0
 10
231.932
 20
50.9958
 30
0.0
 11
245.933
 21
50.9958
 31
0.0
  0
LINE
  8
0
 62
     0
 10
245.933
 20
50.9958
 30
0.0
 11
245.933
 21
36.9947
 31
0.0
  0
LINE
  8
0
 62
     0
 10
245.933
 20
36.9947
 30
0.0
 11
231.932
 21
36.9947
 31
0.0
  0
LINE
  8
0
 62
     0
 10
231.932
 20
36.9947
 30
0.0
 11
231.932
 21
50.9958
 31
0.0
  0
LINE
  8
0
 62
     0
 10
212.882
 20
50.9958
 30
0.0
 11
226.883
 21
50.9958
 31
0.0
  0
LINE
  8
0
 62
     0
 10
226.883
 20
50.9958
 30
0.0
 11
226.883
 21
36.9947
 31
0.0
  0
LINE
  8
0
 62
     0
 10
226.883
 20
36.9947
 30
0.0
 11
212.882
 21
36.9947
 31
0.0
  0
LINE
  8
0
 62
     0
 10
212.882
 20
36.9947
 30
0.0
 11
212.882
 21
50.9958
 31
0.0
  0
LINE
  8
0
 62
     0
 10
193.832
 20
50.9958
 30
0.0
 11
207.833
 21
50.9958
 31
0.0
  0
LINE
  8
0
 62
     0
 10
207.833
 20
50.9958
 30
0.0
 11
207.833
 21
36.9947
 31
0.0
  0
LINE
  8
0
 62
     0
 10
207.833
 20
36.9947
 30
0.0
 11
193.832
 21
36.9947
 31
0.0
  0
LINE
  8
0
 62
     0
 10
193.832
 20
36.9947
 30
0.0
 11
193.832
 21
50.9958
 31
0.0
  0
LINE
  8
0
 62
     0
 10
174.782
 20
50.9958
 30
0.0
 11
188.783
 21
50.9958
 31
0.0
  0
LINE
  8
0
 62
     0
 10
188.783
 20
50.9958
 30
0.0
 11
188.783
 21
36.9947
 31
0.0
  0
LINE
  8
0
 62
     0
 10
188.783
 20
36.9947
 30
0.0
 11
174.782
 21
36.9947
 31
0.0
  0
LINE
  8
0
 62
     0
 10
174.782
 20
36.9947
 30
0.0
 11
174.782
 21
50.9958
 31
0.0
  0
LINE
  8
0
 62
     0
 10
155.732
 20
50.9958
 30
0.0
 11
169.733
 21
50.9958
 31
0.0
  0
LINE
  8
0
 62
     0
 10
169.733
 20
50.9958
 30
0.0
 11
169.733
 21
36.9947
 31
0.0
  0
LINE
  8
0
 62
     0
 10
169.733
 20
36.9947
 30
0.0
 11
155.732
 21
36.9947
 31
0.0
  0
LINE
  8
0
 62
     0
 10
155.732
 20
36.9947
 30
0.0
 11
155.732
 21
50.9958
 31
0.0
  0
LINE
  8
0
 62
     0
 10
136.682
 20
50.9958
 30
0.0
 11
150.683
 21
50.9958
 31
0.0
  0
LINE
  8
0
 62
     0
 10
150.683
 20
50.9958
 30
0.0
 11
150.683
 21
36.9947
 31
0.0
  0
LINE
  8
0
 62
     0
 10
150.683
 20
36.9947
 30
0.0
 11
136.682
 21
36.9947
 31
0.0
  0
LINE
  8
0
 62
     0
 10
136.682
 20
36.9947
 30
0.0
 11
136.682
 21
50.9958
 31
0.0
  0
LINE
  8
0
 62
     0
 10
117.632
 20
50.9958
 30
0.0
 11
131.633
 21
50.9958
 31
0.0
  0
LINE
  8
0
 62
     0
 10
131.633
 20
50.9958
 30
0.0
 11
131.633
 21
36.9947
 31
0.0
  0
LINE
  8
0
 62
     0
 10
131.633
 20
36.9947
 30
0.0
 11
117.632
 21
36.9947
 31
0.0
  0
LINE
  8
0
 62
     0
 10
117.632
 20
36.9947
 30
0.0
 11
117.632
 21
50.9958
 31
0.0
  0
LINE
  8
0
 62
     0
 10
98.582
 20
50.9958
 30
0.0
 11
112.583
 21
50.9958
 31
0.0
  0
LINE
  8
0
 62
     0
 10
112.583
 20
50.9958
 30
0.0
 11
112.583
 21
36.9947
 31
0.0
  0
LINE
  8
0
 62
     0
 10
112.583
 20
36.9947
 30
0.0
 11
98.582
 21
36.9947
 31
0.0
  0
LINE
  8
0
 62
     0
 10
98.582
 20
36.9947
 30
0.0
 11
98.582
 21
50.9958
 31
0.0
  0
LINE
  8
0
 62
     0
 10
79.532
 20
50.9958
 30
0.0
 11
93.533
 21
50.9958
 31
0.0
  0
LINE
  8
0
 62
     0
 10
93.533
 20
50.9958
 30
0.0
 11
93.533
 21
36.9947
 31
0.0
  0
LINE
  8
0
 62
     0
 10
93.533
 20
36.9947
 30
0.0
 11
79.532
 21
36.9947
 31
0.0
  0
LINE
  8
0
 62
     0
 10
79.532
 20
36.9947
 30
0.0
 11
79.532
 21
50.9958
 31
0.0
  0
LINE
  8
0
 62
     0
 10
60.482
 20
50.9958
 30
0.0
 11
74.483
 21
50.9958
 31
0.0
  0
LINE
  8
0
 62
     0
 10
74.483
 20
50.9958
 30
0.0
 11
74.483
 21
36.9947
 31
0.0
  0
LINE
  8
0
 62
     0
 10
74.483
 20
36.9947
 30
0.0
 11
60.482
 21
36.9947
 31
0.0
  0
LINE
  8
0
 62
     0
 10
60.482
 20
36.9947
 30
0.0
 11
60.482
 21
50.9958
 31
0.0
  0
LINE
  8
0
 62
     0
 10
41.432
 20
50.9958
 30
0.0
 11
55.433
 21
50.9958
 31
0.0
  0
LINE
  8
0
 62
     0
 10
55.433
 20
50.9958
 30
0.0
 11
55.433
 21
36.9947
 31
0.0
  0
LINE
  8
0
 62
     0
 10
55.433
 20
36.9947
 30
0.0
 11
41.432
 21
36.9947
 31
0.0
  0
LINE
  8
0
 62
     0
 10
41.432
 20
36.9947
 30
0.0
 11
41.432
 21
50.9958
 31
0.0
  0
LINE
  8
0
 62
     0
 10
20.0008
 20
50.9958
 30
0.0
 11
34.0017
 21
50.9958
 31
0.0
  0
LINE
  8
0
 62
     0
 10
34.0017
 20
50.9958
 30
0.0
 11
34.0017
 21
36.9947
 31
0.0
  0
LINE
  8
0
 62
     0
 10
34.0017
 20
36.9947
 30
0.0
 11
20.0008
 21
36.9947
 31
0.0
  0
LINE
  8
0
 62
     0
 10
20.0008
 20
36.9947
 30
0.0
 11
20.0008
 21
50.9958
 31
0.0
  0
LINE
  8
0
 62
     0
 10
260.507
 20
70.0458
 30
0.0
 11
274.508
 21
70.0458
 31
0.0
  0
LINE
  8
0
 62
     0
 10
274.508
 20
70.0458
 30
0.0
 11
274.508
 21
56.0447
 31
0.0
  0
LINE
  8
0
 62
     0
 10
274.508
 20
56.0447
 30
0.0
 11
260.507
 21
56.0447
 31
0.0
  0
LINE
  8
0
 62
     0
 10
260.507
 20
56.0447
 30
0.0
 11
260.507
 21
70.0458
 31
0.0
  0
LINE
  8
0
 62
     0
 10
241.457
 20
70.0458
 30
0.0
 11
255.458
 21
70.0458
 31
0.0
  0
LINE
  8
0
 62
     0
 10
255.458
 20
70.0458
 30
0.0
 11
255.458
 21
56.0447
 31
0.0
  0
LINE
  8
0
 62
     0
 10
255.458
 20
56.0447
 30
0.0
 11
241.457
 21
56.0447
 31
0.0
  0
LINE
  8
0
 62
     0
 10
241.457
 20
56.0447
 30
0.0
 11
241.457
 21
70.0458
 31
0.0
  0
LINE
  8
0
 62
     0
 10
222.407
 20
70.0458
 30
0.0
 11
236.408
 21
70.0458
 31
0.0
  0
LINE
  8
0
 62
     0
 10
236.408
 20
70.0458
 30
0.0
 11
236.408
 21
56.0447
 31
0.0
  0
LINE
  8
0
 62
     0
 10
236.408
 20
56.0447
 30
0.0
 11
222.407
 21
56.0447
 31
0.0
  0
LINE
  8
0
 62
     0
 10
222.407
 20
56.0447
 30
0.0
 11
222.407
 21
70.0458
 31
0.0
  0
LINE
  8
0
 62
     0
 10
203.357
 20
70.0458
 30
0.0
 11
217.358
 21
70.0458
 31
0.0
  0
LINE
  8
0
 62
     0
 10
217.358
 20
70.0458
 30
0.0
 11
217.358
 21
56.0447
 31
0.0
  0
LINE
  8
0
 62
     0
 10
217.358
 20
56.0447
 30
0.0
 11
203.357
 21
56.0447
 31
0.0
  0
LINE
  8
0
 62
     0
 10
203.357
 20
56.0447
 30
0.0
 11
203.357
 21
70.0458
 31
0.0
  0
LINE
  8
0
 62
     0
 10
184.307
 20
70.0458
 30
0.0
 11
198.308
 21
70.0458
 31
0.0
  0
LINE
  8
0
 62
     0
 10
198.308
 20
70.0458
 30
0.0
 11
198.308
 21
56.0447
 31
0.0
  0
LINE
  8
0
 62
     0
 10
198.308
 20
56.0447
 30
0.0
 11
184.307
 21
56.0447
 31
0.0
  0
LINE
  8
0
 62
     0
 10
184.307
 20
56.0447
 30
0.0
 11
184.307
 21
70.0458
 31
0.0
  0
LINE
  8
0
 62
     0
 10
165.257
 20
70.0458
 30
0.0
 11
179.258
 21
70.0458
 31
0.0
  0
LINE
  8
0
 62
     0
 10
179.258
 20
70.0458
 30
0.0
 11
179.258
 21
56.0447
 31
0.0
  0
LINE
  8
0
 62
     0
 10
179.258
 20
56.0447
 30
0.0
 11
165.257
 21
56.0447
 31
0.0
  0
LINE
  8
0
 62
     0
 10
165.257
 20
56.0447
 30
0.0
 11
165.257
 21
70.0458
 31
0.0
  0
LINE
  8
0
 62
     0
 10
146.207
 20
70.0458
 30
0.0
 11
160.208
 21
70.0458
 31
0.0
  0
LINE
  8
0
 62
     0
 10
160.208
 20
70.0458
 30
0.0
 11
160.208
 21
56.0447
 31
0.0
  0
LINE
  8
0
 62
     0
 10
160.208
 20
56.0447
 30
0.0
 11
146.207
 21
56.0447
 31
0.0
  0
LINE
  8
0
 62
     0
 10
146.207
 20
56.0447
 30
0.0
 11
146.207
 21
70.0458
 31
0.0
  0
LINE
  8
0
 62
     0
 10
127.157
 20
70.0458
 30
0.0
 11
141.158
 21
70.0458
 31
0.0
  0
LINE
  8
0
 62
     0
 10
141.158
 20
70.0458
 30
0.0
 11
141.158
 21
56.0447
 31
0.0
  0
LINE
  8
0
 62
     0
 10
141.158
 20
56.0447
 30
0.0
 11
127.157
 21
56.0447
 31
0.0
  0
LINE
  8
0
 62
     0
 10
127.157
 20
56.0447
 30
0.0
 11
127.157
 21
70.0458
 31
0.0
  0
LINE
  8
0
 62
     0
 10
108.107
 20
70.0458
 30
0.0
 11
122.108
 21
70.0458
 31
0.0
  0
LINE
  8
0
 62
     0
 10
122.108
 20
70.0458
 30
0.0
 11
122.108
 21
56.0447
 31
0.0
  0
LINE
  8
0
 62
     0
 10
122.108
 20
56.0447
 30
0.0
 11
108.107
 21
56.0447
 31
0.0
  0
LINE
  8
0
 62
     0
 10
108.107
 20
56.0447
 30
0.0
 11
108.107
 21
70.0458
 31
0.0
  0
LINE
  8
0
 62
     0
 10
89.057
 20
70.0458
 30
0.0
 11
103.058
 21
70.0458
 31
0.0
  0
LINE
  8
0
 62
     0
 10
103.058
 20
70.0458
 30
0.0
 11
103.058
 21
56.0447
 31
0.0
  0
LINE
  8
0
 62
     0
 10
103.058
 20
56.0447
 30
0.0
 11
89.057
 21
56.0447
 31
0.0
  0
LINE
  8
0
 62
     0
 10
89.057
 20
56.0447
 30
0.0
 11
89.057
 21
70.0458
 31
0.0
  0
LINE
  8
0
 62
     0
 10
70.007
 20
70.0458
 30
0.0
 11
84.008
 21
70.0458
 31
0.0
  0
LINE
  8
0
 62
     0
 10
84.008
 20
70.0458
 30
0.0
 11
84.008
 21
56.0447
 31
0.0
  0
LINE
  8
0
 62
     0
 10
84.008
 20
56.0447
 30
0.0
 11
70.007
 21
56.0447
 31
0.0
  0
LINE
  8
0
 62
     0
 10
70.007
 20
56.0447
 30
0.0
 11
70.007
 21
70.0458
 31
0.0
  0
LINE
  8
0
 62
     0
 10
50.957
 20
70.0458
 30
0.0
 11
64.958
 21
70.0458
 31
0.0
  0
LINE
  8
0
 62
     0
 10
64.958
 20
70.0458
 30
0.0
 11
64.958
 21
56.0447
 31
0.0
  0
LINE
  8
0
 62
     0
 10
64.958
 20
56.0447
 30
0.0
 11
50.957
 21
56.0447
 31
0.0
  0
LINE
  8
0
 62
     0
 10
50.957
 20
56.0447
 30
0.0
 11
50.957
 21
70.0458
 31
0.0
  0
LINE
  8
0
 62
     0
 10
24.7633
 20
70.0458
 30
0.0
 11
38.7629
 21
70.0458
 31
0.0
  0
LINE
  8
0
 62
     0
 10
38.7629
 20
70.0458
 30
0.0
 11
38.7629
 21
56.0447
 31
0.0
  0
LINE
  8
0
 62
     0
 10
38.7629
 20
56.0447
 30
0.0
 11
24.7633
 21
56.0447
 31
0.0
  0
LINE
  8
0
 62
     0
 10
24.7633
 20
56.0447
 30
0.0
 11
24.7633
 21
70.0458
 31
0.0
  0
LINE
  8
0
 62
     0
 10
288.439
 20
88.67
 30
0.0
 11
288.439
 21
87.8459
 31
0.0
  0
LINE
  8
0
 62
     0
 10
288.439
 20
87.8459
 30
0.0
 11
282.169
 21
87.8459
 31
0.0
  0
LINE
  8
0
 62
     0
 10
282.169
 20
87.8459
 30
0.0
 11
282.169
 21
86.1205
 31
0.0
  0
LINE
  8
0
 62
     0
 10
282.169
 20
86.1205
 30
0.0
 11
280.968
 21
86.1205
 31
0.0
  0
LINE
  8
0
 62
     0
 10
280.968
 20
86.1205
 30
0.0
 11
280.968
 21
82.8202
 31
0.0
  0
LINE
  8
0
 62
     0
 10
280.968
 20
82.8202
 30
0.0
 11
282.169
 21
82.8202
 31
0.0
  0
LINE
  8
0
 62
     0
 10
282.169
 20
82.8202
 30
0.0
 11
282.169
 21
81.0948
 31
0.0
  0
LINE
  8
0
 62
     0
 10
282.169
 20
81.0948
 30
0.0
 11
286.639
 21
81.0948
 31
0.0
  0
LINE
  8
0
 62
     0
 10
286.639
 20
81.0948
 30
0.0
 11
286.639
 21
79.5708
 31
0.0
  0
LINE
  8
0
 62
     0
 10
286.639
 20
79.5708
 30
0.0
 11
281.938
 21
79.5708
 31
0.0
  0
LINE
  8
0
 62
     0
 10
281.938
 20
79.5708
 30
0.0
 11
281.938
 21
65.5697
 31
0.0
  0
LINE
  8
0
 62
     0
 10
281.938
 20
65.5697
 30
0.0
 11
286.639
 21
65.5697
 31
0.0
  0
LINE
  8
0
 62
     0
 10
286.639
 20
65.5697
 30
0.0
 11
286.639
 21
64.0457
 31
0.0
  0
LINE
  8
0
 62
     0
 10
286.639
 20
64.0457
 30
0.0
 11
282.169
 21
64.0457
 31
0.0
  0
LINE
  8
0
 62
     0
 10
282.169
 20
64.0457
 30
0.0
 11
282.169
 21
62.3203
 31
0.0
  0
LINE
  8
0
 62
     0
 10
282.169
 20
62.3203
 30
0.0
 11
280.968
 21
62.3203
 31
0.0
  0
LINE
  8
0
 62
     0
 10
280.968
 20
62.3203
 30
0.0
 11
280.968
 21
59.0201
 31
0.0
  0
LINE
  8
0
 62
     0
 10
280.968
 20
59.0201
 30
0.0
 11
282.169
 21
59.0201
 31
0.0
  0
LINE
  8
0
 62
     0
 10
282.169
 20
59.0201
 30
0.0
 11
282.169
 21
57.2946
 31
0.0
  0
LINE
  8
0
 62
     0
 10
282.169
 20
57.2946
 30
0.0
 11
288.439
 21
57.2946
 31
0.0
  0
LINE
  8
0
 62
     0
 10
288.439
 20
57.2946
 30
0.0
 11
288.439
 21
56.4706
 31
0.0
  0
LINE
  8
0
 62
     0
 10
288.439
 20
56.4706
 30
0.0
 11
291.239
 21
56.4706
 31
0.0
  0
LINE
  8
0
 62
     0
 10
291.239
 20
56.4706
 30
0.0
 11
291.239
 21
57.2946
 31
0.0
  0
LINE
  8
0
 62
     0
 10
291.239
 20
57.2946
 30
0.0
 11
294.469
 21
57.2946
 31
0.0
  0
LINE
  8
0
 62
     0
 10
294.469
 20
57.2946
 30
0.0
 11
294.469
 21
64.0457
 31
0.0
  0
LINE
  8
0
 62
     0
 10
294.469
 20
64.0457
 30
0.0
 11
291.239
 21
64.0457
 31
0.0
  0
LINE
  8
0
 62
     0
 10
291.239
 20
64.0457
 30
0.0
 11
291.239
 21
65.5697
 31
0.0
  0
LINE
  8
0
 62
     0
 10
291.239
 20
65.5697
 30
0.0
 11
295.938
 21
65.5697
 31
0.0
  0
LINE
  8
0
 62
     0
 10
295.938
 20
65.5697
 30
0.0
 11
295.938
 21
79.5708
 31
0.0
  0
LINE
  8
0
 62
     0
 10
295.938
 20
79.5708
 30
0.0
 11
291.239
 21
79.5708
 31
0.0
  0
LINE
  8
0
 62
     0
 10
291.239
 20
79.5708
 30
0.0
 11
291.239
 21
81.0948
 31
0.0
  0
LINE
  8
0
 62
     0
 10
291.239
 20
81.0948
 30
0.0
 11
294.469
 21
81.0948
 31
0.0
  0
LINE
  8
0
 62
     0
 10
294.469
 20
81.0948
 30
0.0
 11
294.469
 21
87.8459
 31
0.0
  0
LINE
  8
0
 62
     0
 10
294.469
 20
87.8459
 30
0.0
 11
291.239
 21
87.8459
 31
0.0
  0
LINE
  8
0
 62
     0
 10
291.239
 20
87.8459
 30
0.0
 11
291.239
 21
88.67
 31
0.0
  0
LINE
  8
0
 62
     0
 10
291.239
 20
88.67
 30
0.0
 11
288.439
 21
88.67
 31
0.0
  0
LINE
  8
0
 62
     0
 10
6.82265
 20
77.3285
 30
0.0
 11
6.12539
 21
76.9729
 31
0.0
  0
LINE
  8
0
 62
     0
 10
6.12539
 20
76.9729
 30
0.0
 11
5.5728
 21
76.4205
 31
0.0
  0
LINE
  8
0
 62
     0
 10
5.5728
 20
76.4205
 30
0.0
 11
5.21727
 21
75.723
 31
0.0
  0
LINE
  8
0
 62
     0
 10
5.21727
 20
75.723
 30
0.0
 11
5.09598
 21
74.9515
 31
0.0
  0
LINE
  8
0
 62
     0
 10
5.09598
 20
74.9515
 30
0.0
 11
5.21727
 21
74.1786
 31
0.0
  0
LINE
  8
0
 62
     0
 10
5.21727
 20
74.1786
 30
0.0
 11
5.5728
 21
73.4811
 31
0.0
  0
LINE
  8
0
 62
     0
 10
5.5728
 20
73.4811
 30
0.0
 11
6.12539
 21
72.9287
 31
0.0
  0
LINE
  8
0
 62
     0
 10
6.12539
 20
72.9287
 30
0.0
 11
6.82265
 21
72.5731
 31
0.0
  0
LINE
  8
0
 62
     0
 10
6.82265
 20
72.5731
 30
0.0
 11
7.59576
 21
72.4517
 31
0.0
  0
LINE
  8
0
 62
     0
 10
7.59576
 20
72.4517
 30
0.0
 11
8.36747
 21
72.5731
 31
0.0
  0
LINE
  8
0
 62
     0
 10
8.36747
 20
72.5731
 30
0.0
 11
9.06473
 21
72.9287
 31
0.0
  0
LINE
  8
0
 62
     0
 10
9.06473
 20
72.9287
 30
0.0
 11
9.61732
 21
73.4811
 31
0.0
  0
LINE
  8
0
 62
     0
 10
9.61732
 20
73.4811
 30
0.0
 11
9.97285
 21
74.1786
 31
0.0
  0
LINE
  8
0
 62
     0
 10
9.97285
 20
74.1786
 30
0.0
 11
10.0955
 21
74.9515
 31
0.0
  0
LINE
  8
0
 62
     0
 10
10.0955
 20
74.9515
 30
0.0
 11
9.97285
 21
75.723
 31
0.0
  0
LINE
  8
0
 62
     0
 10
9.97285
 20
75.723
 30
0.0
 11
9.61732
 21
76.4205
 31
0.0
  0
LINE
  8
0
 62
     0
 10
9.61732
 20
76.4205
 30
0.0
 11
9.06473
 21
76.9729
 31
0.0
  0
LINE
  8
0
 62
     0
 10
9.06473
 20
76.9729
 30
0.0
 11
8.36747
 21
77.3285
 31
0.0
  0
LINE
  8
0
 62
     0
 10
8.36747
 20
77.3285
 30
0.0
 11
7.59576
 21
77.4513
 31
0.0
  0
LINE
  8
0
 62
     0
 10
7.59576
 20
77.4513
 30
0.0
 11
6.82265
 21
77.3285
 31
0.0
  0
LINE
  8
0
 62
     0
 10
369.485
 20
77.3285
 30
0.0
 11
368.79
 21
76.9729
 31
0.0
  0
LINE
  8
0
 62
     0
 10
368.79
 20
76.9729
 30
0.0
 11
368.236
 21
76.4205
 31
0.0
  0
LINE
  8
0
 62
     0
 10
368.236
 20
76.4205
 30
0.0
 11
367.88
 21
75.723
 31
0.0
  0
LINE
  8
0
 62
     0
 10
367.88
 20
75.723
 30
0.0
 11
367.757
 21
74.9515
 31
0.0
  0
LINE
  8
0
 62
     0
 10
367.757
 20
74.9515
 30
0.0
 11
367.88
 21
74.1786
 31
0.0
  0
LINE
  8
0
 62
     0
 10
367.88
 20
74.1786
 30
0.0
 11
368.236
 21
73.4811
 31
0.0
  0
LINE
  8
0
 62
     0
 10
368.236
 20
73.4811
 30
0.0
 11
368.79
 21
72.9287
 31
0.0
  0
LINE
  8
0
 62
     0
 10
368.79
 20
72.9287
 30
0.0
 11
369.485
 21
72.5731
 31
0.0
  0
LINE
  8
0
 62
     0
 10
369.485
 20
72.5731
 30
0.0
 11
370.258
 21
72.4517
 31
0.0
  0
LINE
  8
0
 62
     0
 10
370.258
 20
72.4517
 30
0.0
 11
371.03
 21
72.5731
 31
0.0
  0
LINE
  8
0
 62
     0
 10
371.03
 20
72.5731
 30
0.0
 11
371.725
 21
72.9287
 31
0.0
  0
LINE
  8
0
 62
     0
 10
371.725
 20
72.9287
 30
0.0
 11
372.283
 21
73.4811
 31
0.0
  0
LINE
  8
0
 62
     0
 10
372.283
 20
73.4811
 30
0.0
 11
372.636
 21
74.1786
 31
0.0
  0
LINE
  8
0
 62
     0
 10
372.636
 20
74.1786
 30
0.0
 11
372.759
 21
74.9515
 31
0.0
  0
LINE
  8
0
 62
     0
 10
372.759
 20
74.9515
 30
0.0
 11
372.636
 21
75.723
 31
0.0
  0
LINE
  8
0
 62
     0
 10
372.636
 20
75.723
 30
0.0
 11
372.283
 21
76.4205
 31
0.0
  0
LINE
  8
0
 62
     0
 10
372.283
 20
76.4205
 30
0.0
 11
371.725
 21
76.9729
 31
0.0
  0
LINE
  8
0
 62
     0
 10
371.725
 20
76.9729
 30
0.0
 11
371.03
 21
77.3285
 31
0.0
  0
LINE
  8
0
 62
     0
 10
371.03
 20
77.3285
 30
0.0
 11
370.258
 21
77.4513
 31
0.0
  0
LINE
  8
0
 62
     0
 10
370.258
 20
77.4513
 30
0.0
 11
369.485
 21
77.3285
 31
0.0
  0
LINE
  8
0
 62
     0
 10
346.232
 20
89.0958
 30
0.0
 11
360.232
 21
89.0958
 31
0.0
  0
LINE
  8
0
 62
     0
 10
360.232
 20
89.0958
 30
0.0
 11
360.232
 21
75.0947
 31
0.0
  0
LINE
  8
0
 62
     0
 10
360.232
 20
75.0947
 30
0.0
 11
346.232
 21
75.0947
 31
0.0
  0
LINE
  8
0
 62
     0
 10
346.232
 20
75.0947
 30
0.0
 11
346.232
 21
89.0958
 31
0.0
  0
LINE
  8
0
 62
     0
 10
327.182
 20
89.0958
 30
0.0
 11
341.183
 21
89.0958
 31
0.0
  0
LINE
  8
0
 62
     0
 10
341.183
 20
89.0958
 30
0.0
 11
341.183
 21
75.0947
 31
0.0
  0
LINE
  8
0
 62
     0
 10
341.183
 20
75.0947
 30
0.0
 11
327.182
 21
75.0947
 31
0.0
  0
LINE
  8
0
 62
     0
 10
327.182
 20
75.0947
 30
0.0
 11
327.182
 21
89.0958
 31
0.0
  0
LINE
  8
0
 62
     0
 10
308.132
 20
89.0958
 30
0.0
 11
322.133
 21
89.0958
 31
0.0
  0
LINE
  8
0
 62
     0
 10
322.133
 20
89.0958
 30
0.0
 11
322.133
 21
75.0947
 31
0.0
  0
LINE
  8
0
 62
     0
 10
322.133
 20
75.0947
 30
0.0
 11
308.132
 21
75.0947
 31
0.0
  0
LINE
  8
0
 62
     0
 10
308.132
 20
75.0947
 30
0.0
 11
308.132
 21
89.0958
 31
0.0
  0
LINE
  8
0
 62
     0
 10
255.744
 20
89.0958
 30
0.0
 11
269.746
 21
89.0958
 31
0.0
  0
LINE
  8
0
 62
     0
 10
269.746
 20
89.0958
 30
0.0
 11
269.746
 21
75.0947
 31
0.0
  0
LINE
  8
0
 62
     0
 10
269.746
 20
75.0947
 30
0.0
 11
255.744
 21
75.0947
 31
0.0
  0
LINE
  8
0
 62
     0
 10
255.744
 20
75.0947
 30
0.0
 11
255.744
 21
89.0958
 31
0.0
  0
LINE
  8
0
 62
     0
 10
236.696
 20
89.0958
 30
0.0
 11
250.696
 21
89.0958
 31
0.0
  0
LINE
  8
0
 62
     0
 10
250.696
 20
89.0958
 30
0.0
 11
250.696
 21
75.0947
 31
0.0
  0
LINE
  8
0
 62
     0
 10
250.696
 20
75.0947
 30
0.0
 11
236.696
 21
75.0947
 31
0.0
  0
LINE
  8
0
 62
     0
 10
236.696
 20
75.0947
 30
0.0
 11
236.696
 21
89.0958
 31
0.0
  0
LINE
  8
0
 62
     0
 10
217.646
 20
89.0958
 30
0.0
 11
231.646
 21
89.0958
 31
0.0
  0
LINE
  8
0
 62
     0
 10
231.646
 20
89.0958
 30
0.0
 11
231.646
 21
75.0947
 31
0.0
  0
LINE
  8
0
 62
     0
 10
231.646
 20
75.0947
 30
0.0
 11
217.646
 21
75.0947
 31
0.0
  0
LINE
  8
0
 62
     0
 10
217.646
 20
75.0947
 30
0.0
 11
217.646
 21
89.0958
 31
0.0
  0
LINE
  8
0
 62
     0
 10
198.596
 20
89.0958
 30
0.0
 11
212.596
 21
89.0958
 31
0.0
  0
LINE
  8
0
 62
     0
 10
212.596
 20
89.0958
 30
0.0
 11
212.596
 21
75.0947
 31
0.0
  0
LINE
  8
0
 62
     0
 10
212.596
 20
75.0947
 30
0.0
 11
198.596
 21
75.0947
 31
0.0
  0
LINE
  8
0
 62
     0
 10
198.596
 20
75.0947
 30
0.0
 11
198.596
 21
89.0958
 31
0.0
  0
LINE
  8
0
 62
     0
 10
179.546
 20
89.0958
 30
0.0
 11
193.546
 21
89.0958
 31
0.0
  0
LINE
  8
0
 62
     0
 10
193.546
 20
89.0958
 30
0.0
 11
193.546
 21
75.0947
 31
0.0
  0
LINE
  8
0
 62
     0
 10
193.546
 20
75.0947
 30
0.0
 11
179.546
 21
75.0947
 31
0.0
  0
LINE
  8
0
 62
     0
 10
179.546
 20
75.0947
 30
0.0
 11
179.546
 21
89.0958
 31
0.0
  0
LINE
  8
0
 62
     0
 10
160.496
 20
89.0958
 30
0.0
 11
174.496
 21
89.0958
 31
0.0
  0
LINE
  8
0
 62
     0
 10
174.496
 20
89.0958
 30
0.0
 11
174.496
 21
75.0947
 31
0.0
  0
LINE
  8
0
 62
     0
 10
174.496
 20
75.0947
 30
0.0
 11
160.496
 21
75.0947
 31
0.0
  0
LINE
  8
0
 62
     0
 10
160.496
 20
75.0947
 30
0.0
 11
160.496
 21
89.0958
 31
0.0
  0
LINE
  8
0
 62
     0
 10
141.446
 20
89.0958
 30
0.0
 11
155.446
 21
89.0958
 31
0.0
  0
LINE
  8
0
 62
     0
 10
155.446
 20
89.0958
 30
0.0
 11
155.446
 21
75.0947
 31
0.0
  0
LINE
  8
0
 62
     0
 10
155.446
 20
75.0947
 30
0.0
 11
141.446
 21
75.0947
 31
0.0
  0
LINE
  8
0
 62
     0
 10
141.446
 20
75.0947
 30
0.0
 11
141.446
 21
89.0958
 31
0.0
  0
LINE
  8
0
 62
     0
 10
122.396
 20
89.0958
 30
0.0
 11
136.396
 21
89.0958
 31
0.0
  0
LINE
  8
0
 62
     0
 10
136.396
 20
89.0958
 30
0.0
 11
136.396
 21
75.0947
 31
0.0
  0
LINE
  8
0
 62
     0
 10
136.396
 20
75.0947
 30
0.0
 11
122.396
 21
75.0947
 31
0.0
  0
LINE
  8
0
 62
     0
 10
122.396
 20
75.0947
 30
0.0
 11
122.396
 21
89.0958
 31
0.0
  0
LINE
  8
0
 62
     0
 10
103.346
 20
89.0958
 30
0.0
 11
117.346
 21
89.0958
 31
0.0
  0
LINE
  8
0
 62
     0
 10
117.346
 20
89.0958
 30
0.0
 11
117.346
 21
75.0947
 31
0.0
  0
LINE
  8
0
 62
     0
 10
117.346
 20
75.0947
 30
0.0
 11
103.346
 21
75.0947
 31
0.0
  0
LINE
  8
0
 62
     0
 10
103.346
 20
75.0947
 30
0.0
 11
103.346
 21
89.0958
 31
0.0
  0
LINE
  8
0
 62
     0
 10
84.2959
 20
89.0958
 30
0.0
 11
98.2955
 21
89.0958
 31
0.0
  0
LINE
  8
0
 62
     0
 10
98.2955
 20
89.0958
 30
0.0
 11
98.2955
 21
75.0947
 31
0.0
  0
LINE
  8
0
 62
     0
 10
98.2955
 20
75.0947
 30
0.0
 11
84.2959
 21
75.0947
 31
0.0
  0
LINE
  8
0
 62
     0
 10
84.2959
 20
75.0947
 30
0.0
 11
84.2959
 21
89.0958
 31
0.0
  0
LINE
  8
0
 62
     0
 10
65.2459
 20
89.0958
 30
0.0
 11
79.2455
 21
89.0958
 31
0.0
  0
LINE
  8
0
 62
     0
 10
79.2455
 20
89.0958
 30
0.0
 11
79.2455
 21
75.0947
 31
0.0
  0
LINE
  8
0
 62
     0
 10
79.2455
 20
75.0947
 30
0.0
 11
65.2459
 21
75.0947
 31
0.0
  0
LINE
  8
0
 62
     0
 10
65.2459
 20
75.0947
 30
0.0
 11
65.2459
 21
89.0958
 31
0.0
  0
LINE
  8
0
 62
     0
 10
46.1959
 20
89.0958
 30
0.0
 11
60.1941
 21
89.0958
 31
0.0
  0
LINE
  8
0
 62
     0
 10
60.1941
 20
89.0958
 30
0.0
 11
60.1941
 21
75.0947
 31
0.0
  0
LINE
  8
0
 62
     0
 10
60.1941
 20
75.0947
 30
0.0
 11
46.1959
 21
75.0947
 31
0.0
  0
LINE
  8
0
 62
     0
 10
46.1959
 20
75.0947
 30
0.0
 11
46.1959
 21
89.0958
 31
0.0
  0
LINE
  8
0
 62
     0
 10
22.3821
 20
89.0958
 30
0.0
 11
36.383
 21
89.0958
 31
0.0
  0
LINE
  8
0
 62
     0
 10
36.383
 20
89.0958
 30
0.0
 11
36.383
 21
75.0947
 31
0.0
  0
LINE
  8
0
 62
     0
 10
36.383
 20
75.0947
 30
0.0
 11
22.3821
 21
75.0947
 31
0.0
  0
LINE
  8
0
 62
     0
 10
22.3821
 20
75.0947
 30
0.0
 11
22.3821
 21
89.0958
 31
0.0
  0
LINE
  8
0
 62
     0
 10
274.796
 20
108.146
 30
0.0
 11
274.796
 21
103.445
 31
0.0
  0
LINE
  8
0
 62
     0
 10
274.796
 20
103.445
 30
0.0
 11
273.27
 21
103.445
 31
0.0
  0
LINE
  8
0
 62
     0
 10
273.27
 20
103.445
 30
0.0
 11
273.27
 21
106.675
 31
0.0
  0
LINE
  8
0
 62
     0
 10
273.27
 20
106.675
 30
0.0
 11
266.521
 21
106.675
 31
0.0
  0
LINE
  8
0
 62
     0
 10
266.521
 20
106.675
 30
0.0
 11
266.521
 21
103.445
 31
0.0
  0
LINE
  8
0
 62
     0
 10
266.521
 20
103.445
 30
0.0
 11
265.695
 21
103.445
 31
0.0
  0
LINE
  8
0
 62
     0
 10
265.695
 20
103.445
 30
0.0
 11
265.695
 21
100.645
 31
0.0
  0
LINE
  8
0
 62
     0
 10
265.695
 20
100.645
 30
0.0
 11
266.521
 21
100.645
 31
0.0
  0
LINE
  8
0
 62
     0
 10
266.521
 20
100.645
 30
0.0
 11
266.521
 21
94.3751
 31
0.0
  0
LINE
  8
0
 62
     0
 10
266.521
 20
94.3751
 30
0.0
 11
268.246
 21
94.3751
 31
0.0
  0
LINE
  8
0
 62
     0
 10
268.246
 20
94.3751
 30
0.0
 11
268.246
 21
93.1746
 31
0.0
  0
LINE
  8
0
 62
     0
 10
268.246
 20
93.1746
 30
0.0
 11
271.545
 21
93.1746
 31
0.0
  0
LINE
  8
0
 62
     0
 10
271.545
 20
93.1746
 30
0.0
 11
271.545
 21
94.3751
 31
0.0
  0
LINE
  8
0
 62
     0
 10
271.545
 20
94.3751
 30
0.0
 11
273.27
 21
94.3751
 31
0.0
  0
LINE
  8
0
 62
     0
 10
273.27
 20
94.3751
 30
0.0
 11
273.27
 21
98.8452
 31
0.0
  0
LINE
  8
0
 62
     0
 10
273.27
 20
98.8452
 30
0.0
 11
274.796
 21
98.8452
 31
0.0
  0
LINE
  8
0
 62
     0
 10
274.796
 20
98.8452
 30
0.0
 11
274.796
 21
94.1447
 31
0.0
  0
LINE
  8
0
 62
     0
 10
274.796
 20
94.1447
 30
0.0
 11
288.796
 21
94.1447
 31
0.0
  0
LINE
  8
0
 62
     0
 10
288.796
 20
94.1447
 30
0.0
 11
288.796
 21
98.8452
 31
0.0
  0
LINE
  8
0
 62
     0
 10
288.796
 20
98.8452
 30
0.0
 11
290.321
 21
98.8452
 31
0.0
  0
LINE
  8
0
 62
     0
 10
290.321
 20
98.8452
 30
0.0
 11
290.321
 21
94.3751
 31
0.0
  0
LINE
  8
0
 62
     0
 10
290.321
 20
94.3751
 30
0.0
 11
292.045
 21
94.3751
 31
0.0
  0
LINE
  8
0
 62
     0
 10
292.045
 20
94.3751
 30
0.0
 11
292.045
 21
93.1746
 31
0.0
  0
LINE
  8
0
 62
     0
 10
292.045
 20
93.1746
 30
0.0
 11
295.345
 21
93.1746
 31
0.0
  0
LINE
  8
0
 62
     0
 10
295.345
 20
93.1746
 30
0.0
 11
295.345
 21
94.3751
 31
0.0
  0
LINE
  8
0
 62
     0
 10
295.345
 20
94.3751
 30
0.0
 11
297.071
 21
94.3751
 31
0.0
  0
LINE
  8
0
 62
     0
 10
297.071
 20
94.3751
 30
0.0
 11
297.071
 21
100.645
 31
0.0
  0
LINE
  8
0
 62
     0
 10
297.071
 20
100.645
 30
0.0
 11
297.896
 21
100.645
 31
0.0
  0
LINE
  8
0
 62
     0
 10
297.896
 20
100.645
 30
0.0
 11
297.896
 21
103.445
 31
0.0
  0
LINE
  8
0
 62
     0
 10
297.896
 20
103.445
 30
0.0
 11
297.071
 21
103.445
 31
0.0
  0
LINE
  8
0
 62
     0
 10
297.071
 20
103.445
 30
0.0
 11
297.071
 21
106.675
 31
0.0
  0
LINE
  8
0
 62
     0
 10
297.071
 20
106.675
 30
0.0
 11
290.321
 21
106.675
 31
0.0
  0
LINE
  8
0
 62
     0
 10
290.321
 20
106.675
 30
0.0
 11
290.321
 21
103.445
 31
0.0
  0
LINE
  8
0
 62
     0
 10
290.321
 20
103.445
 30
0.0
 11
288.796
 21
103.445
 31
0.0
  0
LINE
  8
0
 62
     0
 10
288.796
 20
103.445
 30
0.0
 11
288.796
 21
108.146
 31
0.0
  0
LINE
  8
0
 62
     0
 10
288.796
 20
108.146
 30
0.0
 11
274.796
 21
108.146
 31
0.0
  0
LINE
  8
0
 62
     0
 10
346.232
 20
108.146
 30
0.0
 11
360.232
 21
108.146
 31
0.0
  0
LINE
  8
0
 62
     0
 10
360.232
 20
108.146
 30
0.0
 11
360.232
 21
94.1447
 31
0.0
  0
LINE
  8
0
 62
     0
 10
360.232
 20
94.1447
 30
0.0
 11
346.232
 21
94.1447
 31
0.0
  0
LINE
  8
0
 62
     0
 10
346.232
 20
94.1447
 30
0.0
 11
346.232
 21
108.146
 31
0.0
  0
LINE
  8
0
 62
     0
 10
327.182
 20
108.146
 30
0.0
 11
341.183
 21
108.146
 31
0.0
  0
LINE
  8
0
 62
     0
 10
341.183
 20
108.146
 30
0.0
 11
341.183
 21
94.1447
 31
0.0
  0
LINE
  8
0
 62
     0
 10
341.183
 20
94.1447
 30
0.0
 11
327.182
 21
94.1447
 31
0.0
  0
LINE
  8
0
 62
     0
 10
327.182
 20
94.1447
 30
0.0
 11
327.182
 21
108.146
 31
0.0
  0
LINE
  8
0
 62
     0
 10
308.132
 20
108.146
 30
0.0
 11
322.133
 21
108.146
 31
0.0
  0
LINE
  8
0
 62
     0
 10
322.133
 20
108.146
 30
0.0
 11
322.133
 21
94.1447
 31
0.0
  0
LINE
  8
0
 62
     0
 10
322.133
 20
94.1447
 30
0.0
 11
308.132
 21
94.1447
 31
0.0
  0
LINE
  8
0
 62
     0
 10
308.132
 20
94.1447
 30
0.0
 11
308.132
 21
108.146
 31
0.0
  0
LINE
  8
0
 62
     0
 10
246.221
 20
108.146
 30
0.0
 11
260.221
 21
108.146
 31
0.0
  0
LINE
  8
0
 62
     0
 10
260.221
 20
108.146
 30
0.0
 11
260.221
 21
94.1447
 31
0.0
  0
LINE
  8
0
 62
     0
 10
260.221
 20
94.1447
 30
0.0
 11
246.221
 21
94.1447
 31
0.0
  0
LINE
  8
0
 62
     0
 10
246.221
 20
94.1447
 30
0.0
 11
246.221
 21
108.146
 31
0.0
  0
LINE
  8
0
 62
     0
 10
227.171
 20
108.146
 30
0.0
 11
241.171
 21
108.146
 31
0.0
  0
LINE
  8
0
 62
     0
 10
241.171
 20
108.146
 30
0.0
 11
241.171
 21
94.1447
 31
0.0
  0
LINE
  8
0
 62
     0
 10
241.171
 20
94.1447
 30
0.0
 11
227.171
 21
94.1447
 31
0.0
  0
LINE
  8
0
 62
     0
 10
227.171
 20
94.1447
 30
0.0
 11
227.171
 21
108.146
 31
0.0
  0
LINE
  8
0
 62
     0
 10
208.121
 20
108.146
 30
0.0
 11
222.121
 21
108.146
 31
0.0
  0
LINE
  8
0
 62
     0
 10
222.121
 20
108.146
 30
0.0
 11
222.121
 21
94.1447
 31
0.0
  0
LINE
  8
0
 62
     0
 10
222.121
 20
94.1447
 30
0.0
 11
208.121
 21
94.1447
 31
0.0
  0
LINE
  8
0
 62
     0
 10
208.121
 20
94.1447
 30
0.0
 11
208.121
 21
108.146
 31
0.0
  0
LINE
  8
0
 62
     0
 10
189.071
 20
108.146
 30
0.0
 11
203.071
 21
108.146
 31
0.0
  0
LINE
  8
0
 62
     0
 10
203.071
 20
108.146
 30
0.0
 11
203.071
 21
94.1447
 31
0.0
  0
LINE
  8
0
 62
     0
 10
203.071
 20
94.1447
 30
0.0
 11
189.071
 21
94.1447
 31
0.0
  0
LINE
  8
0
 62
     0
 10
189.071
 20
94.1447
 30
0.0
 11
189.071
 21
108.146
 31
0.0
  0
LINE
  8
0
 62
     0
 10
170.021
 20
108.146
 30
0.0
 11
184.021
 21
108.146
 31
0.0
  0
LINE
  8
0
 62
     0
 10
184.021
 20
108.146
 30
0.0
 11
184.021
 21
94.1447
 31
0.0
  0
LINE
  8
0
 62
     0
 10
184.021
 20
94.1447
 30
0.0
 11
170.021
 21
94.1447
 31
0.0
  0
LINE
  8
0
 62
     0
 10
170.021
 20
94.1447
 30
0.0
 11
170.021
 21
108.146
 31
0.0
  0
LINE
  8
0
 62
     0
 10
150.971
 20
108.146
 30
0.0
 11
164.971
 21
108.146
 31
0.0
  0
LINE
  8
0
 62
     0
 10
164.971
 20
108.146
 30
0.0
 11
164.971
 21
94.1447
 31
0.0
  0
LINE
  8
0
 62
     0
 10
164.971
 20
94.1447
 30
0.0
 11
150.971
 21
94.1447
 31
0.0
  0
LINE
  8
0
 62
     0
 10
150.971
 20
94.1447
 30
0.0
 11
150.971
 21
108.146
 31
0.0
  0
LINE
  8
0
 62
     0
 10
131.921
 20
108.146
 30
0.0
 11
145.921
 21
108.146
 31
0.0
  0
LINE
  8
0
 62
     0
 10
145.921
 20
108.146
 30
0.0
 11
145.921
 21
94.1447
 31
0.0
  0
LINE
  8
0
 62
     0
 10
145.921
 20
94.1447
 30
0.0
 11
131.921
 21
94.1447
 31
0.0
  0
LINE
  8
0
 62
     0
 10
131.921
 20
94.1447
 30
0.0
 11
131.921
 21
108.146
 31
0.0
  0
LINE
  8
0
 62
     0
 10
112.869
 20
108.146
 30
0.0
 11
126.869
 21
108.146
 31
0.0
  0
LINE
  8
0
 62
     0
 10
126.869
 20
108.146
 30
0.0
 11
126.869
 21
94.1447
 31
0.0
  0
LINE
  8
0
 62
     0
 10
126.869
 20
94.1447
 30
0.0
 11
112.869
 21
94.1447
 31
0.0
  0
LINE
  8
0
 62
     0
 10
112.869
 20
94.1447
 30
0.0
 11
112.869
 21
108.146
 31
0.0
  0
LINE
  8
0
 62
     0
 10
93.8209
 20
108.146
 30
0.0
 11
107.821
 21
108.146
 31
0.0
  0
LINE
  8
0
 62
     0
 10
107.821
 20
108.146
 30
0.0
 11
107.821
 21
94.1447
 31
0.0
  0
LINE
  8
0
 62
     0
 10
107.821
 20
94.1447
 30
0.0
 11
93.8209
 21
94.1447
 31
0.0
  0
LINE
  8
0
 62
     0
 10
93.8209
 20
94.1447
 30
0.0
 11
93.8209
 21
108.146
 31
0.0
  0
LINE
  8
0
 62
     0
 10
74.7709
 20
108.146
 30
0.0
 11
88.7705
 21
108.146
 31
0.0
  0
LINE
  8
0
 62
     0
 10
88.7705
 20
108.146
 30
0.0
 11
88.7705
 21
94.1447
 31
0.0
  0
LINE
  8
0
 62
     0
 10
88.7705
 20
94.1447
 30
0.0
 11
74.7709
 21
94.1447
 31
0.0
  0
LINE
  8
0
 62
     0
 10
74.7709
 20
94.1447
 30
0.0
 11
74.7709
 21
108.146
 31
0.0
  0
LINE
  8
0
 62
     0
 10
55.7209
 20
108.146
 30
0.0
 11
69.7205
 21
108.146
 31
0.0
  0
LINE
  8
0
 62
     0
 10
69.7205
 20
108.146
 30
0.0
 11
69.7205
 21
94.1447
 31
0.0
  0
LINE
  8
0
 62
     0
 10
69.7205
 20
94.1447
 30
0.0
 11
55.7209
 21
94.1447
 31
0.0
  0
LINE
  8
0
 62
     0
 10
55.7209
 20
94.1447
 30
0.0
 11
55.7209
 21
108.146
 31
0.0
  0
LINE
  8
0
 62
     0
 10
36.6709
 20
108.146
 30
0.0
 11
50.6705
 21
108.146
 31
0.0
  0
LINE
  8
0
 62
     0
 10
50.6705
 20
108.146
 30
0.0
 11
50.6705
 21
94.1447
 31
0.0
  0
LINE
  8
0
 62
     0
 10
50.6705
 20
94.1447
 30
0.0
 11
36.6709
 21
94.1447
 31
0.0
  0
LINE
  8
0
 62
     0
 10
36.6709
 20
94.1447
 30
0.0
 11
36.6709
 21
108.146
 31
0.0
  0
LINE
  8
0
 62
     0
 10
17.621
 20
108.146
 30
0.0
 11
31.6205
 21
108.146
 31
0.0
  0
LINE
  8
0
 62
     0
 10
31.6205
 20
108.146
 30
0.0
 11
31.6205
 21
94.1447
 31
0.0
  0
LINE
  8
0
 62
     0
 10
31.6205
 20
94.1447
 30
0.0
 11
17.621
 21
94.1447
 31
0.0
  0
LINE
  8
0
 62
     0
 10
17.621
 20
94.1447
 30
0.0
 11
17.621
 21
108.146
 31
0.0
  0
LINE
  8
0
 62
     0
 10
346.232
 20
131.957
 30
0.0
 11
360.232
 21
131.957
 31
0.0
  0
LINE
  8
0
 62
     0
 10
360.232
 20
131.957
 30
0.0
 11
360.232
 21
117.957
 31
0.0
  0
LINE
  8
0
 62
     0
 10
360.232
 20
117.957
 30
0.0
 11
346.232
 21
117.957
 31
0.0
  0
LINE
  8
0
 62
     0
 10
346.232
 20
117.957
 30
0.0
 11
346.232
 21
131.957
 31
0.0
  0
LINE
  8
0
 62
     0
 10
327.182
 20
131.957
 30
0.0
 11
341.183
 21
131.957
 31
0.0
  0
LINE
  8
0
 62
     0
 10
341.183
 20
131.957
 30
0.0
 11
341.183
 21
117.957
 31
0.0
  0
LINE
  8
0
 62
     0
 10
341.183
 20
117.957
 30
0.0
 11
327.182
 21
117.957
 31
0.0
  0
LINE
  8
0
 62
     0
 10
327.182
 20
117.957
 30
0.0
 11
327.182
 21
131.957
 31
0.0
  0
LINE
  8
0
 62
     0
 10
308.132
 20
131.957
 30
0.0
 11
322.133
 21
131.957
 31
0.0
  0
LINE
  8
0
 62
     0
 10
322.133
 20
131.957
 30
0.0
 11
322.133
 21
117.957
 31
0.0
  0
LINE
  8
0
 62
     0
 10
322.133
 20
117.957
 30
0.0
 11
308.132
 21
117.957
 31
0.0
  0
LINE
  8
0
 62
     0
 10
308.132
 20
117.957
 30
0.0
 11
308.132
 21
131.957
 31
0.0
  0
LINE
  8
0
 62
     0
 10
284.321
 20
131.957
 30
0.0
 11
298.321
 21
131.957
 31
0.0
  0
LINE
  8
0
 62
     0
 10
298.321
 20
131.957
 30
0.0
 11
298.321
 21
117.957
 31
0.0
  0
LINE
  8
0
 62
     0
 10
298.321
 20
117.957
 30
0.0
 11
284.321
 21
117.957
 31
0.0
  0
LINE
  8
0
 62
     0
 10
284.321
 20
117.957
 30
0.0
 11
284.321
 21
131.957
 31
0.0
  0
LINE
  8
0
 62
     0
 10
265.271
 20
131.957
 30
0.0
 11
279.271
 21
131.957
 31
0.0
  0
LINE
  8
0
 62
     0
 10
279.271
 20
131.957
 30
0.0
 11
279.271
 21
117.957
 31
0.0
  0
LINE
  8
0
 62
     0
 10
279.271
 20
117.957
 30
0.0
 11
265.271
 21
117.957
 31
0.0
  0
LINE
  8
0
 62
     0
 10
265.271
 20
117.957
 30
0.0
 11
265.271
 21
131.957
 31
0.0
  0
LINE
  8
0
 62
     0
 10
246.221
 20
131.957
 30
0.0
 11
260.221
 21
131.957
 31
0.0
  0
LINE
  8
0
 62
     0
 10
260.221
 20
131.957
 30
0.0
 11
260.221
 21
117.957
 31
0.0
  0
LINE
  8
0
 62
     0
 10
260.221
 20
117.957
 30
0.0
 11
246.221
 21
117.957
 31
0.0
  0
LINE
  8
0
 62
     0
 10
246.221
 20
117.957
 30
0.0
 11
246.221
 21
131.957
 31
0.0
  0
LINE
  8
0
 62
     0
 10
227.171
 20
131.957
 30
0.0
 11
241.171
 21
131.957
 31
0.0
  0
LINE
  8
0
 62
     0
 10
241.171
 20
131.957
 30
0.0
 11
241.171
 21
117.957
 31
0.0
  0
LINE
  8
0
 62
     0
 10
241.171
 20
117.957
 30
0.0
 11
227.171
 21
117.957
 31
0.0
  0
LINE
  8
0
 62
     0
 10
227.171
 20
117.957
 30
0.0
 11
227.171
 21
131.957
 31
0.0
  0
LINE
  8
0
 62
     0
 10
198.596
 20
131.957
 30
0.0
 11
212.596
 21
131.957
 31
0.0
  0
LINE
  8
0
 62
     0
 10
212.596
 20
131.957
 30
0.0
 11
212.596
 21
117.957
 31
0.0
  0
LINE
  8
0
 62
     0
 10
212.596
 20
117.957
 30
0.0
 11
198.596
 21
117.957
 31
0.0
  0
LINE
  8
0
 62
     0
 10
198.596
 20
117.957
 30
0.0
 11
198.596
 21
131.957
 31
0.0
  0
LINE
  8
0
 62
     0
 10
179.546
 20
131.957
 30
0.0
 11
193.546
 21
131.957
 31
0.0
  0
LINE
  8
0
 62
     0
 10
193.546
 20
131.957
 30
0.0
 11
193.546
 21
117.957
 31
0.0
  0
LINE
  8
0
 62
     0
 10
193.546
 20
117.957
 30
0.0
 11
179.546
 21
117.957
 31
0.0
  0
LINE
  8
0
 62
     0
 10
179.546
 20
117.957
 30
0.0
 11
179.546
 21
131.957
 31
0.0
  0
LINE
  8
0
 62
     0
 10
160.496
 20
131.957
 30
0.0
 11
174.496
 21
131.957
 31
0.0
  0
LINE
  8
0
 62
     0
 10
174.496
 20
131.957
 30
0.0
 11
174.496
 21
117.957
 31
0.0
  0
LINE
  8
0
 62
     0
 10
174.496
 20
117.957
 30
0.0
 11
160.496
 21
117.957
 31
0.0
  0
LINE
  8
0
 62
     0
 10
160.496
 20
117.957
 30
0.0
 11
160.496
 21
131.957
 31
0.0
  0
LINE
  8
0
 62
     0
 10
141.446
 20
131.957
 30
0.0
 11
155.446
 21
131.957
 31
0.0
  0
LINE
  8
0
 62
     0
 10
155.446
 20
131.957
 30
0.0
 11
155.446
 21
117.957
 31
0.0
  0
LINE
  8
0
 62
     0
 10
155.446
 20
117.957
 30
0.0
 11
141.446
 21
117.957
 31
0.0
  0
LINE
  8
0
 62
     0
 10
141.446
 20
117.957
 30
0.0
 11
141.446
 21
131.957
 31
0.0
  0
LINE
  8
0
 62
     0
 10
112.869
 20
131.957
 30
0.0
 11
126.869
 21
131.957
 31
0.0
  0
LINE
  8
0
 62
     0
 10
126.869
 20
131.957
 30
0.0
 11
126.869
 21
117.957
 31
0.0
  0
LINE
  8
0
 62
     0
 10
126.869
 20
117.957
 30
0.0
 11
112.869
 21
117.957
 31
0.0
  0
LINE
  8
0
 62
     0
 10
112.869
 20
117.957
 30
0.0
 11
112.869
 21
131.957
 31
0.0
  0
LINE
  8
0
 62
     0
 10
93.8209
 20
131.957
 30
0.0
 11
107.821
 21
131.957
 31
0.0
  0
LINE
  8
0
 62
     0
 10
107.821
 20
131.957
 30
0.0
 11
107.821
 21
117.957
 31
0.0
  0
LINE
  8
0
 62
     0
 10
107.821
 20
117.957
 30
0.0
 11
93.8209
 21
117.957
 31
0.0
  0
LINE
  8
0
 62
     0
 10
93.8209
 20
117.957
 30
0.0
 11
93.8209
 21
131.957
 31
0.0
  0
LINE
  8
0
 62
     0
 10
74.7709
 20
131.957
 30
0.0
 11
88.7705
 21
131.957
 31
0.0
  0
LINE
  8
0
 62
     0
 10
88.7705
 20
131.957
 30
0.0
 11
88.7705
 21
117.957
 31
0.0
  0
LINE
  8
0
 62
     0
 10
88.7705
 20
117.957
 30
0.0
 11
74.7709
 21
117.957
 31
0.0
  0
LINE
  8
0
 62
     0
 10
74.7709
 20
117.957
 30
0.0
 11
74.7709
 21
131.957
 31
0.0
  0
LINE
  8
0
 62
     0
 10
55.7209
 20
131.957
 30
0.0
 11
69.7205
 21
131.957
 31
0.0
  0
LINE
  8
0
 62
     0
 10
69.7205
 20
131.957
 30
0.0
 11
69.7205
 21
117.957
 31
0.0
  0
LINE
  8
0
 62
     0
 10
69.7205
 20
117.957
 30
0.0
 11
55.7209
 21
117.957
 31
0.0
  0
LINE
  8
0
 62
     0
 10
55.7209
 20
117.957
 30
0.0
 11
55.7209
 21
131.957
 31
0.0
  0
LINE
  8
0
 62
     0
 10
17.621
 20
131.957
 30
0.0
 11
31.6205
 21
131.957
 31
0.0
  0
LINE
  8
0
 62
     0
 10
31.6205
 20
131.957
 30
0.0
 11
31.6205
 21
117.957
 31
0.0
  0
LINE
  8
0
 62
     0
 10
31.6205
 20
117.957
 30
0.0
 11
17.621
 21
117.957
 31
0.0
  0
LINE
  8
0
 62
     0
 10
17.621
 20
117.957
 30
0.0
 11
17.621
 21
131.957
 31
0.0
  0
LINE
  8
0
 62
     0
 10
6.82265
 20
144.361
 30
0.0
 11
6.12539
 21
144.005
 31
0.0
  0
LINE
  8
0
 62
     0
 10
6.12539
 20
144.005
 30
0.0
 11
5.5728
 21
143.452
 31
0.0
  0
LINE
  8
0
 62
     0
 10
5.5728
 20
143.452
 30
0.0
 11
5.21727
 21
142.755
 31
0.0
  0
LINE
  8
0
 62
     0
 10
5.21727
 20
142.755
 30
0.0
 11
5.09598
 21
141.982
 31
0.0
  0
LINE
  8
0
 62
     0
 10
5.09598
 20
141.982
 30
0.0
 11
5.21727
 21
141.21
 31
0.0
  0
LINE
  8
0
 62
     0
 10
5.21727
 20
141.21
 30
0.0
 11
5.5728
 21
140.513
 31
0.0
  0
LINE
  8
0
 62
     0
 10
5.5728
 20
140.513
 30
0.0
 11
6.12539
 21
139.96
 31
0.0
  0
LINE
  8
0
 62
     0
 10
6.12539
 20
139.96
 30
0.0
 11
6.82265
 21
139.605
 31
0.0
  0
LINE
  8
0
 62
     0
 10
6.82265
 20
139.605
 30
0.0
 11
7.59576
 21
139.482
 31
0.0
  0
LINE
  8
0
 62
     0
 10
7.59576
 20
139.482
 30
0.0
 11
8.36747
 21
139.605
 31
0.0
  0
LINE
  8
0
 62
     0
 10
8.36747
 20
139.605
 30
0.0
 11
9.06473
 21
139.96
 31
0.0
  0
LINE
  8
0
 62
     0
 10
9.06473
 20
139.96
 30
0.0
 11
9.61732
 21
140.513
 31
0.0
  0
LINE
  8
0
 62
     0
 10
9.61732
 20
140.513
 30
0.0
 11
9.97285
 21
141.21
 31
0.0
  0
LINE
  8
0
 62
     0
 10
9.97285
 20
141.21
 30
0.0
 11
10.0955
 21
141.982
 31
0.0
  0
LINE
  8
0
 62
     0
 10
10.0955
 20
141.982
 30
0.0
 11
9.97285
 21
142.755
 31
0.0
  0
LINE
  8
0
 62
     0
 10
9.97285
 20
142.755
 30
0.0
 11
9.61732
 21
143.452
 31
0.0
  0
LINE
  8
0
 62
     0
 10
9.61732
 20
143.452
 30
0.0
 11
9.06473
 21
144.005
 31
0.0
  0
LINE
  8
0
 62
     0
 10
9.06473
 20
144.005
 30
0.0
 11
8.36747
 21
144.361
 31
0.0
  0
LINE
  8
0
 62
     0
 10
8.36747
 20
144.361
 30
0.0
 11
7.59576
 21
144.482
 31
0.0
  0
LINE
  8
0
 62
     0
 10
7.59576
 20
144.482
 30
0.0
 11
6.82265
 21
144.361
 31
0.0
  0
LINE
  8
0
 62
     0
 10
369.485
 20
144.361
 30
0.0
 11
368.79
 21
144.005
 31
0.0
  0
LINE
  8
0
 62
     0
 10
368.79
 20
144.005
 30
0.0
 11
368.236
 21
143.452
 31
0.0
  0
LINE
  8
0
 62
     0
 10
368.236
 20
143.452
 30
0.0
 11
367.88
 21
142.755
 31
0.0
  0
LINE
  8
0
 62
     0
 10
367.88
 20
142.755
 30
0.0
 11
367.757
 21
141.982
 31
0.0
  0
LINE
  8
0
 62
     0
 10
367.757
 20
141.982
 30
0.0
 11
367.88
 21
141.21
 31
0.0
  0
LINE
  8
0
 62
     0
 10
367.88
 20
141.21
 30
0.0
 11
368.236
 21
140.513
 31
0.0
  0
LINE
  8
0
 62
     0
 10
368.236
 20
140.513
 30
0.0
 11
368.79
 21
139.96
 31
0.0
  0
LINE
  8
0
 62
     0
 10
368.79
 20
139.96
 30
0.0
 11
369.485
 21
139.605
 31
0.0
  0
LINE
  8
0
 62
     0
 10
369.485
 20
139.605
 30
0.0
 11
370.258
 21
139.482
 31
0.0
  0
LINE
  8
0
 62
     0
 10
370.258
 20
139.482
 30
0.0
 11
371.03
 21
139.605
 31
0.0
  0
LINE
  8
0
 62
     0
 10
371.03
 20
139.605
 30
0.0
 11
371.725
 21
139.96
 31
0.0
  0
LINE
  8
0
 62
     0
 10
371.725
 20
139.96
 30
0.0
 11
372.283
 21
140.513
 31
0.0
  0
LINE
  8
0
 62
     0
 10
372.283
 20
140.513
 30
0.0
 11
372.636
 21
141.21
 31
0.0
  0
LINE
  8
0
 62
     0
 10
372.636
 20
141.21
 30
0.0
 11
372.759
 21
141.982
 31
0.0
  0
LINE
  8
0
 62
     0
 10
372.759
 20
141.982
 30
0.0
 11
372.636
 21
142.755
 31
0.0
  0
LINE
  8
0
 62
     0
 10
372.636
 20
142.755
 30
0.0
 11
372.283
 21
143.452
 31
0.0
  0
LINE
  8
0
 62
     0
 10
372.283
 20
143.452
 30
0.0
 11
371.725
 21
144.005
 31
0.0
  0
LINE
  8
0
 62
     0
 10
371.725
 20
144.005
 30
0.0
 11
371.03
 21
144.361
 31
0.0
  0
LINE
  8
0
 62
     0
 10
371.03
 20
144.361
 30
0.0
 11
370.258
 21
144.482
 31
0.0
  0
LINE
  8
0
 62
     0
 10
370.258
 20
144.482
 30
0.0
 11
369.485
 21
144.361
 31
0.0
  0
LINE
  8
0
 62
     0
 10
278.82
 20
144.361
 30
0.0
 11
278.124
 21
144.005
 31
0.0
  0
LINE
  8
0
 62
     0
 10
278.124
 20
144.005
 30
0.0
 11
277.57
 21
143.452
 31
0.0
  0
LINE
  8
0
 62
     0
 10
277.57
 20
143.452
 30
0.0
 11
277.215
 21
142.755
 31
0.0
  0
LINE
  8
0
 62
     0
 10
277.215
 20
142.755
 30
0.0
 11
277.093
 21
141.982
 31
0.0
  0
LINE
  8
0
 62
     0
 10
277.093
 20
141.982
 30
0.0
 11
277.215
 21
141.21
 31
0.0
  0
LINE
  8
0
 62
     0
 10
277.215
 20
141.21
 30
0.0
 11
277.57
 21
140.513
 31
0.0
  0
LINE
  8
0
 62
     0
 10
277.57
 20
140.513
 30
0.0
 11
278.124
 21
139.96
 31
0.0
  0
LINE
  8
0
 62
     0
 10
278.124
 20
139.96
 30
0.0
 11
278.82
 21
139.605
 31
0.0
  0
LINE
  8
0
 62
     0
 10
278.82
 20
139.605
 30
0.0
 11
279.593
 21
139.482
 31
0.0
  0
LINE
  8
0
 62
     0
 10
279.593
 20
139.482
 30
0.0
 11
280.366
 21
139.605
 31
0.0
  0
LINE
  8
0
 62
     0
 10
280.366
 20
139.605
 30
0.0
 11
281.062
 21
139.96
 31
0.0
  0
LINE
  8
0
 62
     0
 10
281.062
 20
139.96
 30
0.0
 11
281.616
 21
140.513
 31
0.0
  0
LINE
  8
0
 62
     0
 10
281.616
 20
140.513
 30
0.0
 11
281.97
 21
141.21
 31
0.0
  0
LINE
  8
0
 62
     0
 10
281.97
 20
141.21
 30
0.0
 11
282.093
 21
141.982
 31
0.0
  0
LINE
  8
0
 62
     0
 10
282.093
 20
141.982
 30
0.0
 11
281.97
 21
142.755
 31
0.0
  0
LINE
  8
0
 62
     0
 10
281.97
 20
142.755
 30
0.0
 11
281.616
 21
143.452
 31
0.0
  0
LINE
  8
0
 62
     0
 10
281.616
 20
143.452
 30
0.0
 11
281.062
 21
144.005
 31
0.0
  0
LINE
  8
0
 62
     0
 10
281.062
 20
144.005
 30
0.0
 11
280.366
 21
144.361
 31
0.0
  0
LINE
  8
0
 62
     0
 10
280.366
 20
144.361
 30
0.0
 11
279.593
 21
144.482
 31
0.0
  0
LINE
  8
0
 62
     0
 10
279.593
 20
144.482
 30
0.0
 11
278.82
 21
144.361
 31
0.0
  0
LINE
  8
0
 62
     0
 10
188.155
 20
144.361
 30
0.0
 11
187.457
 21
144.005
 31
0.0
  0
LINE
  8
0
 62
     0
 10
187.457
 20
144.005
 30
0.0
 11
186.905
 21
143.452
 31
0.0
  0
LINE
  8
0
 62
     0
 10
186.905
 20
143.452
 30
0.0
 11
186.549
 21
142.755
 31
0.0
  0
LINE
  8
0
 62
     0
 10
186.549
 20
142.755
 30
0.0
 11
186.426
 21
141.982
 31
0.0
  0
LINE
  8
0
 62
     0
 10
186.426
 20
141.982
 30
0.0
 11
186.549
 21
141.21
 31
0.0
  0
LINE
  8
0
 62
     0
 10
186.549
 20
141.21
 30
0.0
 11
186.905
 21
140.513
 31
0.0
  0
LINE
  8
0
 62
     0
 10
186.905
 20
140.513
 30
0.0
 11
187.457
 21
139.96
 31
0.0
  0
LINE
  8
0
 62
     0
 10
187.457
 20
139.96
 30
0.0
 11
188.155
 21
139.605
 31
0.0
  0
LINE
  8
0
 62
     0
 10
188.155
 20
139.605
 30
0.0
 11
188.926
 21
139.482
 31
0.0
  0
LINE
  8
0
 62
     0
 10
188.926
 20
139.482
 30
0.0
 11
189.699
 21
139.605
 31
0.0
  0
LINE
  8
0
 62
     0
 10
189.699
 20
139.605
 30
0.0
 11
190.397
 21
139.96
 31
0.0
  0
LINE
  8
0
 62
     0
 10
190.397
 20
139.96
 30
0.0
 11
190.949
 21
140.513
 31
0.0
  0
LINE
  8
0
 62
     0
 10
190.949
 20
140.513
 30
0.0
 11
191.305
 21
141.21
 31
0.0
  0
LINE
  8
0
 62
     0
 10
191.305
 20
141.21
 30
0.0
 11
191.426
 21
141.982
 31
0.0
  0
LINE
  8
0
 62
     0
 10
191.426
 20
141.982
 30
0.0
 11
191.305
 21
142.755
 31
0.0
  0
LINE
  8
0
 62
     0
 10
191.305
 20
142.755
 30
0.0
 11
190.949
 21
143.452
 31
0.0
  0
LINE
  8
0
 62
     0
 10
190.949
 20
143.452
 30
0.0
 11
190.397
 21
144.005
 31
0.0
  0
LINE
  8
0
 62
     0
 10
190.397
 20
144.005
 30
0.0
 11
189.699
 21
144.361
 31
0.0
  0
LINE
  8
0
 62
     0
 10
189.699
 20
144.361
 30
0.0
 11
188.926
 21
144.482
 31
0.0
  0
LINE
  8
0
 62
     0
 10
188.926
 20
144.482
 30
0.0
 11
188.155
 21
144.361
 31
0.0
  0
LINE
  8
0
 62
     0
 10
97.488
 20
144.361
 30
0.0
 11
96.792
 21
144.005
 31
0.0
  0
LINE
  8
0
 62
     0
 10
96.792
 20
144.005
 30
0.0
 11
96.2381
 21
143.452
 31
0.0
  0
LINE
  8
0
 62
     0
 10
96.2381
 20
143.452
 30
0.0
 11
95.8839
 21
142.755
 31
0.0
  0
LINE
  8
0
 62
     0
 10
95.8839
 20
142.755
 30
0.0
 11
95.7598
 21
141.982
 31
0.0
  0
LINE
  8
0
 62
     0
 10
95.7598
 20
141.982
 30
0.0
 11
95.8839
 21
141.21
 31
0.0
  0
LINE
  8
0
 62
     0
 10
95.8839
 20
141.21
 30
0.0
 11
96.2381
 21
140.513
 31
0.0
  0
LINE
  8
0
 62
     0
 10
96.2381
 20
140.513
 30
0.0
 11
96.792
 21
139.96
 31
0.0
  0
LINE
  8
0
 62
     0
 10
96.792
 20
139.96
 30
0.0
 11
97.488
 21
139.605
 31
0.0
  0
LINE
  8
0
 62
     0
 10
97.488
 20
139.605
 30
0.0
 11
98.261
 21
139.482
 31
0.0
  0
LINE
  8
0
 62
     0
 10
98.261
 20
139.482
 30
0.0
 11
99.0342
 21
139.605
 31
0.0
  0
LINE
  8
0
 62
     0
 10
99.0342
 20
139.605
 30
0.0
 11
99.7299
 21
139.96
 31
0.0
  0
LINE
  8
0
 62
     0
 10
99.7299
 20
139.96
 30
0.0
 11
100.284
 21
140.513
 31
0.0
  0
LINE
  8
0
 62
     0
 10
100.284
 20
140.513
 30
0.0
 11
100.638
 21
141.21
 31
0.0
  0
LINE
  8
0
 62
     0
 10
100.638
 20
141.21
 30
0.0
 11
100.761
 21
141.982
 31
0.0
  0
LINE
  8
0
 62
     0
 10
100.761
 20
141.982
 30
0.0
 11
100.638
 21
142.755
 31
0.0
  0
LINE
  8
0
 62
     0
 10
100.638
 20
142.755
 30
0.0
 11
100.284
 21
143.452
 31
0.0
  0
LINE
  8
0
 62
     0
 10
100.284
 20
143.452
 30
0.0
 11
99.7299
 21
144.005
 31
0.0
  0
LINE
  8
0
 62
     0
 10
99.7299
 20
144.005
 30
0.0
 11
99.0342
 21
144.361
 31
0.0
  0
LINE
  8
0
 62
     0
 10
99.0342
 20
144.361
 30
0.0
 11
98.261
 21
144.482
 31
0.0
  0
LINE
  8
0
 62
     0
 10
98.261
 20
144.482
 30
0.0
 11
97.488
 21
144.361
 31
0.0
  0
ENDSEC
  0
EOF
